<svg width="161" height="101" viewBox="0 0 161 101" fill="none" xmlns="http://www.w3.org/2000/svg">
<g clip-path="url(#clip0)">
<path d="M32.3897 91.7568C32.4476 91.11 32.2653 90.4646 31.8778 89.9438C31.2154 89.4644 30.3936 89.2596 29.584 89.3723H27.0539C26.6635 89.3235 26.2674 89.3533 25.8887 89.4599C25.51 89.5665 25.1564 89.7478 24.8487 89.993C24.4529 90.4923 24.2564 91.1208 24.2974 91.7568V95.1859C24.2564 95.8219 24.4529 96.4505 24.8487 96.9497C25.1556 97.1967 25.5089 97.3797 25.8876 97.488C26.2663 97.5963 26.6629 97.6277 27.0539 97.5804H29.584C30.3872 97.6898 31.2017 97.4851 31.8581 97.0088C32.2246 96.4844 32.4111 95.8551 32.3897 95.2155V91.7568ZM35.796 99.8861C35.0576 100.635 33.6793 101 31.671 101H25.0652C23.0963 101 21.6885 100.645 20.9206 99.9255C20.5067 99.4953 20.1883 98.9822 19.9864 98.4201C19.7845 97.858 19.7037 97.2596 19.7491 96.664V90.2689C19.7038 89.6749 19.7848 89.0779 19.9867 88.5174C20.1887 87.9569 20.507 87.4456 20.9206 87.0172C21.6885 86.2979 23.0766 85.9432 25.0652 85.9432H31.671C33.64 85.9432 35.0576 86.3078 35.796 87.0566C36.1881 87.4894 36.4887 87.9971 36.6799 88.5491C36.871 89.1011 36.9488 89.6861 36.9084 90.2689V96.664C36.9496 97.2484 36.8722 97.8351 36.6811 98.3888C36.4899 98.9425 36.1888 99.4518 35.796 99.8861Z" fill="#B3B4B4"/>
<path d="M55.5732 99.8861C54.8349 100.635 53.4566 101 51.4581 101H44.8524C42.8834 101 41.4756 100.645 40.6979 99.9255C40.2857 99.4944 39.9692 98.981 39.769 98.419C39.5688 97.8569 39.4895 97.2588 39.5362 96.664V90.2689C39.4896 89.6756 39.5691 89.0791 39.7693 88.5186C39.9695 87.9582 40.286 87.4465 40.6979 87.0172C41.4756 86.2979 42.8539 85.9432 44.8524 85.9432H51.4581C53.4271 85.9432 54.8349 86.3078 55.5732 87.0566C55.9653 87.4894 56.266 87.9971 56.4571 88.5491C56.6483 89.1011 56.726 89.6861 56.6857 90.2689V91.7568H52.1768C52.2347 91.11 52.0524 90.4646 51.6649 89.9438C51.0025 89.4644 50.1807 89.2596 49.3711 89.3723H46.8311C46.4408 89.3235 46.0446 89.3533 45.6659 89.4599C45.2873 89.5665 44.9337 89.7478 44.6259 89.993C44.2302 90.4923 44.0337 91.1208 44.0746 91.7568V95.1859C44.0337 95.8219 44.2302 96.4505 44.6259 96.9497C44.9329 97.1967 45.2862 97.3797 45.6649 97.488C46.0436 97.5963 46.4401 97.6277 46.8311 97.5804H49.3612C50.1706 97.6879 50.9905 97.4836 51.655 97.0088C52.0443 96.4847 52.2297 95.8368 52.1768 95.1859H56.6955V96.664C56.7367 97.2484 56.6593 97.8351 56.4682 98.3888C56.277 98.9425 55.9759 99.4518 55.5831 99.8861" fill="#B3B4B4"/>
<path d="M63.8332 101H59.344L59.3145 96.664V90.2689L59.344 85.9432H63.8332V91.6977H71.9255V85.9432H76.4639V101H71.9255V95.1367H63.8332V101Z" fill="#B3B4B4"/>
<path d="M84.9008 95.1367H83.6111C83.583 95.794 83.7889 96.4399 84.192 96.9596C84.4997 97.2048 84.8533 97.3861 85.232 97.4927C85.6107 97.5993 86.0068 97.6291 86.3972 97.5804H96.2419V101H84.4282C82.4593 101 81.0515 100.645 80.2738 99.9255C79.8637 99.493 79.5485 98.9794 79.3484 98.4177C79.1483 97.856 79.0679 97.2586 79.1121 96.664V90.2689C79.0674 89.6757 79.1477 89.0797 79.3478 88.5196C79.548 87.9594 79.8634 87.4476 80.2738 87.0172C81.0515 86.2979 82.4396 85.9432 84.4282 85.9432H96.2419V89.3723H86.3972C86.0068 89.3235 85.6107 89.3533 85.232 89.4599C84.8533 89.5665 84.4997 89.7478 84.192 89.993C83.797 90.4713 83.5904 91.0776 83.6111 91.6977H96.2517V95.1367H84.9008Z" fill="#B3B4B4"/>
<path d="M130.934 89.3723H124.742V85.9432H141.862V89.3723H135.424V101H130.934V89.3723Z" fill="#B3B4B4"/>
<path d="M103.213 93.4918C103.213 91.6196 104.778 91.8167 104.778 91.8167H109.326V94.9994H104.748C104.546 95.0121 104.343 94.9819 104.153 94.911C103.963 94.8401 103.79 94.73 103.645 94.5879C103.5 94.4457 103.387 94.2747 103.312 94.0859C103.238 93.897 103.204 93.6947 103.213 93.4918ZM118.383 94.9994H113.796V91.8167H118.344C118.344 91.8167 119.909 91.6196 119.909 93.4918C119.919 93.6942 119.886 93.8964 119.813 94.0852C119.74 94.274 119.627 94.4452 119.483 94.5875C119.339 94.7298 119.167 94.8401 118.977 94.9111C118.788 94.9821 118.585 95.0122 118.383 94.9994ZM120.766 88.6832H113.796V85.8848H109.346V88.6832H102.208C102.208 88.6832 98.1523 88.8113 98.1523 93.413C98.1024 93.9963 98.1726 94.5836 98.3586 95.1386C98.5446 95.6936 98.8425 96.2045 99.2339 96.6396C99.6252 97.0747 100.102 97.4247 100.634 97.668C101.166 97.9113 101.742 98.0427 102.326 98.0541H109.346V101.01H113.796V98.0541H120.687C121.271 98.0428 121.847 97.9114 122.379 97.668C122.91 97.4246 123.386 97.0744 123.776 96.6391C124.167 96.2038 124.464 95.6928 124.649 95.1379C124.834 94.5829 124.903 93.9958 124.851 93.413C124.851 88.8113 120.795 88.6832 120.795 88.6832" fill="#B3B4B4"/>
<path d="M73.1264 39.0991H67.2097V68.6305H73.1264V39.0991Z" fill="#B3B4B4"/>
<path d="M80.1464 33.0098H74.2297V68.6308H80.1464V33.0098Z" fill="#B3B4B4"/>
<path d="M87.1552 39.0991H81.2385V68.6305H87.1552V39.0991Z" fill="#B3B4B4"/>
<path d="M59.0976 40.2622L53.1809 35.0004V19.8652H59.0976V40.2622Z" fill="#B3B4B4"/>
<path d="M66.1176 46.8444L60.2009 41.0307V13.1646H66.1176V46.8444Z" fill="#B3B4B4"/>
<path d="M73.1264 6.58182H67.2097V38.1726H73.1264V6.58182Z" fill="#B3B4B4"/>
<path d="M80.1464 0H74.2297V31.7091H80.1464V0Z" fill="#B3B4B4"/>
<path d="M95.2673 40.2622L101.174 35.0004V19.8652H95.2673V40.2622Z" fill="#B3B4B4"/>
<path d="M88.2478 46.8444L94.1645 41.0307V13.1646H88.2478V46.8444Z" fill="#B3B4B4"/>
<path d="M87.1552 6.58182H81.2385V38.1726H87.1552V6.58182Z" fill="#B3B4B4"/>
<path d="M11.1343 92.3776H4.48918V89.3624H11.1343C11.5338 89.3624 11.9169 89.5212 12.1994 89.804C12.4819 90.0867 12.6406 90.4702 12.6406 90.87C12.6406 91.2699 12.4819 91.6533 12.1994 91.9361C11.9169 92.2188 11.5338 92.3776 11.1343 92.3776ZM16.0567 87.0566C15.3183 86.3078 13.9401 85.9432 11.9318 85.9432H0V101H4.48918V95.8067H11.8924C13.8613 95.8067 15.279 95.4421 16.0173 94.6932C16.4078 94.2574 16.7074 93.7478 16.8984 93.1945C17.0894 92.6412 17.1681 92.0553 17.1298 91.4711V90.2788C17.1686 89.6946 17.0903 89.1085 16.8992 88.5551C16.7081 88.0017 16.4083 87.4922 16.0173 87.0566" fill="#B3B4B4"/>
<path d="M156.53 96.0629C156.525 96.461 156.363 96.8409 156.079 97.1197C155.795 97.3985 155.412 97.5534 155.014 97.5508H148.369V94.5947H155.014C155.408 94.5945 155.786 94.7476 156.069 95.0216C156.352 95.2956 156.517 95.669 156.53 96.0629ZM161.009 96.664V95.4717C161.05 94.8881 160.974 94.3023 160.784 93.7488C160.595 93.1954 160.297 92.6855 159.907 92.2495C159.159 91.5006 157.79 91.1361 155.772 91.1361H148.379V85.9432H143.899V101H155.782C157.8 101 159.169 100.635 159.917 99.8861C160.305 99.4495 160.603 98.9396 160.793 98.3863C160.982 97.833 161.059 97.2475 161.019 96.664" fill="#B3B4B4"/>
</g>
<defs>
<clipPath id="clip0">
<rect width="161" height="101" fill="white"/>
</clipPath>
</defs>
</svg>
