<svg width="14" height="8" viewBox="0 0 14 8" fill="none" xmlns="http://www.w3.org/2000/svg">
<path d="M11.9172 5.04887C12.369 5.4902 12.8471 5.90555 13.2527 6.3925C13.4324 6.6079 13.6018 6.83065 13.7307 7.08116C13.9148 7.43839 13.7486 7.83013 13.4288 7.85136L11.4428 7.85096C10.9298 7.89341 10.5216 7.68653 10.1775 7.33584C9.90277 7.05637 9.64789 6.75785 9.38329 6.46886C9.27519 6.35025 9.16134 6.23857 9.02567 6.15071C8.75492 5.97457 8.51968 6.02852 8.36457 6.31137C8.20648 6.59917 8.17038 6.91812 8.15531 7.23845C8.13369 7.70676 7.99246 7.82914 7.52257 7.85116C6.51853 7.89817 5.56585 7.74583 4.68042 7.23965C3.89932 6.79316 3.29475 6.163 2.76794 5.44954C1.74207 4.05871 0.95641 2.53222 0.250484 0.961883C0.091606 0.608226 0.207839 0.419001 0.597992 0.411662C1.2462 0.399166 1.8944 0.400753 2.54261 0.411067C2.80642 0.415232 2.98096 0.566176 3.08232 0.815105C3.43261 1.67693 3.86203 2.49691 4.40015 3.25738C4.54356 3.4599 4.68994 3.66182 4.89841 3.80483C5.12849 3.96271 5.30383 3.91055 5.41233 3.65368C5.48175 3.49044 5.5117 3.3159 5.52678 3.14095C5.57835 2.54174 5.5845 1.94272 5.49524 1.34589C5.4397 0.972396 5.22965 0.731203 4.85735 0.66059C4.66773 0.624689 4.6955 0.554473 4.78773 0.446175C4.9478 0.258933 5.09775 0.143096 5.39746 0.143096L7.64138 0.1427C7.99504 0.212123 8.07438 0.370802 8.12238 0.727038L8.12436 3.22069C8.1202 3.35854 8.19359 3.76714 8.44113 3.85739C8.63948 3.92284 8.77039 3.76377 8.889 3.63821C9.42712 3.06717 9.81053 2.39317 10.1539 1.69558C10.3054 1.38794 10.4361 1.06959 10.5631 0.750641C10.6575 0.514804 10.8043 0.398769 11.0704 0.402736L13.2313 0.405314C13.2949 0.405314 13.3596 0.40591 13.4227 0.416819C13.7868 0.479101 13.8866 0.635797 13.774 0.991041C13.5966 1.5492 13.2521 2.01413 12.9153 2.48025C12.5543 2.9793 12.1693 3.46089 11.8119 3.96212C11.4834 4.42031 11.5094 4.65099 11.9172 5.04887Z" fill="white"/>
</svg>
