<svg width="0" height="0" class="hidden">
  <symbol viewBox="0 0 75 8" stroke="none" xmlns="http://www.w3.org/2000/svg" id="ico1">
    <path d="M74.354 4.354a.5.5 0 0 0 0-.708L71.172.464a.5.5 0 1 0-.707.708L73.293 4l-2.829 2.828a.5.5 0 1 0 .708.708l3.182-3.182zM0 4.5h74v-1H0v1z"></path>
  </symbol>
  <symbol viewBox="0 0 12 13" stroke="none" xmlns="http://www.w3.org/2000/svg" id="phone">
    <path d="M11.211 9.881L9.527 7.985c-.336-.376-.892-.364-1.239.027l-.849.954-.167-.104c-.536-.335-1.27-.793-2.042-1.662-.774-.87-1.181-1.697-1.48-2.3a6.449 6.449 0 0 0-.09-.185l.57-.64.28-.315c.347-.391.357-1.016.022-1.393L2.847.47c-.335-.377-.89-.365-1.239.026l-.474.537.013.015a3.21 3.21 0 0 0-.392.776 3.62 3.62 0 0 0-.174.788c-.222 2.074.62 3.97 2.908 6.544 3.161 3.556 5.709 3.287 5.819 3.274a2.676 2.676 0 0 0 1.39-.637l.01.011.481-.53c.347-.391.357-1.016.022-1.394z"></path>
  </symbol>
  <symbol viewBox="0 0 14 13" stroke="none" xmlns="http://www.w3.org/2000/svg" id="ico3">
    <path d="M11.126 7.071L6.95 10.976 2.774 7.071l.768-.718 2.864 2.679V0h1.087v9.032l2.864-2.679.768.718zm2.775 4.913H0V13h13.901v-1.016z"></path>
  </symbol>
  <symbol viewBox="0 0 73 15" stroke="none" xmlns="http://www.w3.org/2000/svg" id="ico4">
    <path d="M8.758 3.516l6.712 11.247h2.045L8.758.088 0 14.763h2.045L8.758 3.516zm54.913 0l6.712 11.247h2.046L63.67.088l-8.758 14.675h2.046L63.67 3.516zM41.658 5.059h-1.657v9.94h1.657V5.06zm-4.97 0H27.93v1.54h3.513v8.164h1.732V6.6h3.513V5.059zm15.991 7.428a3.662 3.662 0 0 1-2.607 1.078c-2.004 0-3.628-1.583-3.628-3.536s1.624-3.536 3.628-3.536a3.66 3.66 0 0 1 2.607 1.079l1.288-.747a5.139 5.139 0 0 0-3.895-1.766c-2.816 0-5.1 2.225-5.1 4.97 0 2.745 2.284 4.97 5.1 4.97a5.139 5.139 0 0 0 3.895-1.765l-1.288-.747zM22.81 10.523a2.771 2.771 0 0 0 2.18-2.702 2.765 2.765 0 0 0-2.754-2.762h-6.14l.9 1.47h5.273c.707 0 1.285.59 1.285 1.311 0 .722-.578 1.313-1.285 1.313h-1.205v1.478l2.453 4.132h1.81l-2.517-4.24z"></path>
  </symbol>
   <symbol viewBox="0 0 52 56" stroke="none" xmlns="http://www.w3.org/2000/svg" id="ico5">
    <path d="M51.496 33.322c-1.14-2.005-3.42-2.93-7.327-2.93a35.97 35.97 0 0 0-6.676.616c-3.582-3.702-7.327-8.947-10.095-14.193 2.93-11.57.814-14.192 0-15.118C26.42.617 25.118 0 23.653 0c-.652 0-1.14.154-1.791.309-1.629.462-2.768 1.542-3.42 3.085-1.302 2.931-.488 7.713 2.605 14.039-1.79 6.633-4.721 14.347-7.815 20.826C4.765 41.96.532 45.509.043 49.366c-.163 1.234 0 3.549 2.931 5.708A4.578 4.578 0 0 0 5.742 56c2.28 0 4.56-1.543 7.001-4.782 1.629-2.16 3.257-4.937 5.048-8.485 5.373-2.16 11.886-4.165 17.585-5.4 3.42 3.086 6.676 4.474 9.444 4.474 2.28 0 4.396-1.08 5.699-2.931 1.954-2.468 1.628-4.32.977-5.554zM5.742 51.372c-.977-.771-.977-1.234-.977-1.389.163-1.08 1.954-3.085 6.513-5.553-3.42 6.016-5.21 6.788-5.536 6.942zM22.839 5.245c.162-.308.325-.463.488-.463h.163c.326.463.651 2.314 0 6.634-.814-2.623-1.303-4.937-.651-6.17zM18.93 37.333c2.116-4.936 4.233-10.336 5.699-15.427 2.442 4.166 5.373 8.022 8.14 11.262-4.558 1.08-9.443 2.468-13.84 4.165zm27.68-1.08c-.651.926-1.303.926-1.791.926-1.14 0-2.768-.771-4.396-2.006 1.465-.154 2.768-.308 3.745-.308 1.954 0 2.605.309 2.93.463-.162.308-.162.617-.488.925z"></path>
  </symbol>
  <symbol viewBox="0 0 14 8" stroke="none" xmlns="http://www.w3.org/2000/svg" id="vk">
    <path d="M11.917 5.049c.452.441.93.857 1.336 1.343.18.216.349.439.478.69.184.356.018.748-.302.77l-1.986-.001c-.513.042-.921-.164-1.265-.515-.275-.28-.53-.578-.795-.867a1.857 1.857 0 0 0-.357-.318c-.271-.176-.506-.122-.661.16-.159.288-.195.607-.21.927-.021.469-.163.591-.632.613-1.004.047-1.957-.105-2.843-.611-.78-.447-1.385-1.077-1.912-1.79C1.742 4.059.956 2.532.25.962.092.608.208.419.598.412a50.445 50.445 0 0 1 1.945 0c.263.003.438.154.54.403.35.862.779 1.682 1.317 2.442.144.203.29.405.498.548.23.158.406.106.514-.151.07-.164.1-.338.115-.513.051-.6.058-1.198-.032-1.795C5.44.972 5.23.73 4.857.66c-.19-.036-.162-.107-.07-.215.16-.187.31-.303.61-.303h2.244c.354.07.433.228.481.584l.002 2.494c-.004.138.07.546.317.636.198.066.33-.093.448-.219.538-.57.922-1.245 1.265-1.942.151-.308.282-.626.41-.945.094-.236.24-.352.506-.348l2.161.002c.064 0 .129 0 .192.012.364.062.464.219.351.574-.177.558-.522 1.023-.859 1.49-.36.498-.746.98-1.103 1.481-.329.458-.303.689.105 1.087z"></path>
  </symbol>
  <symbol viewBox="0 0 18 8" stroke="none" xmlns="http://www.w3.org/2000/svg" id="ico7">
    <path d="M18 4l-3.79-4v3H0v2h14.21v3L18 4z"></path>
  </symbol>
  <symbol viewBox="0 0 12 10" stroke="none" xmlns="http://www.w3.org/2000/svg" id="mail">
    <path d="M10.482 9.529a.932.932 0 0 0 .639-.241L8.03 6.198l-.214.153c-.231.17-.42.303-.563.399a3.47 3.47 0 0 1-.576.292c-.24.1-.462.149-.67.149h-.011c-.207 0-.43-.05-.67-.15a3.452 3.452 0 0 1-.575-.291 14.337 14.337 0 0 1-.564-.399l-.213-.155L.883 9.288c.18.16.393.24.638.24h8.961zm-9.32-5.168a3.228 3.228 0 0 1-.615-.53v4.703L3.27 5.81c-.545-.38-1.247-.863-2.11-1.449zm9.687 0a179.2 179.2 0 0 0-2.115 1.45l2.723 2.723V3.83a3.362 3.362 0 0 1-.608.53zM10.482.714H1.52c-.312 0-.552.106-.72.317-.169.21-.253.475-.253.791 0 .256.112.533.335.831.223.299.46.533.712.703.138.098.554.387 1.248.868a403.752 403.752 0 0 1 1.595 1.11l.09.066.169.12a6.195 6.195 0 0 0 .645.43c.124.073.24.128.35.164.11.037.211.055.304.055h.013a.969.969 0 0 0 .304-.055c.11-.036.226-.091.35-.164a6.485 6.485 0 0 0 .645-.43 40.282 40.282 0 0 1 .26-.185l.615-.428 2.233-1.55a2.91 2.91 0 0 0 .743-.75 1.61 1.61 0 0 0 .298-.919.934.934 0 0 0-.29-.688.942.942 0 0 0-.684-.286z"></path>
  </symbol>
  <symbol viewBox="0 0 21 16" stroke="none" xmlns="http://www.w3.org/2000/svg" id="ico9">
    <path d="M20.707 8.707a1 1 0 0 0 0-1.414L14.343.929a1 1 0 1 0-1.414 1.414L18.586 8l-5.657 5.657a1 1 0 0 0 1.414 1.414l6.364-6.364zM0 9h20V7H0v2z"></path>
  </symbol>
  <symbol viewBox="0 0 129 26" stroke="none" xmlns="http://www.w3.org/2000/svg" id="ico10">
    <path fill-rule="evenodd" clip-rule="evenodd" d="M78.554 26h-76.8c-1.2 0-1.95-.96-1.71-2.16l4.59-21.68C4.873.96 6.043 0 7.242 0h76.98l-5.668 26zM27.784 6.867c-.12.6-.72 1.08-1.29 1.08h-4.768l-2.639 12.385c-.15.6-.72 1.08-1.29 1.08H11.53c-.6 0-.96-.48-.84-1.08l2.64-12.385H8.38c-.57 0-.93-.48-.81-1.08l.3-1.41c.12-.569.69-1.049 1.26-1.049h18.113c.6 0 .96.48.84 1.05l-.3 1.41zm22.221 13.435c-.3.6-.93 1.08-1.529 1.08h-5.248c-.36 0-.75-.03-.81-.66l-.78-6.418-3.508 6.418c-.33.63-.72.66-1.08.66h-5.278c-.6 0-.99-.48-1.05-1.08L28.954 5.428c-.06-.57.48-1.05 1.05-1.05h7.137c.6 0 1.05.48 1.05 1.05l.39 8.187 4.318-7.287h.84l1.23 7.287 3.868-8.187c.27-.57.87-1.05 1.47-1.05h7.166c.57 0 .87.48.6 1.05l-8.067 14.874zm26.72-1.74c-.3 1.56-2.309 2.82-4.438 2.82H60.022c-2.13 0-3.57-1.26-3.27-2.82l2.4-11.335c.33-1.56 2.309-2.819 4.438-2.819h12.295c2.13 0 3.57 1.26 3.24 2.82l-2.4 11.335zM69.228 6.868c-.96 0-1.95.9-2.19 2.01l-1.709 8.036c-.24 1.11.33 1.98 1.32 1.98s1.95-.87 2.22-1.98l1.709-8.036c.24-1.11-.36-2.01-1.35-2.01zm34.607 13.525c-.15.57-.69 1.05-1.29 1.05h-5.248c-.3 0-.63-.03-.87-.24 0 0-.27-.21-.42-.57l-3.298-7.947-1.65 7.707c-.12.57-.69 1.05-1.259 1.05h-6.567c-.57 0-.9-.48-.81-1.05l3.209-14.994c.12-.57.69-1.05 1.26-1.05h5.397c.63 0 .96.24 1.17.75l3.239 8.217 1.679-7.887c.12-.57.69-1.05 1.26-1.05h6.567c.57 0 .929.48.81 1.05l-3.179 14.964zm23.871-8.217c-.33 1.56-2.34 2.85-4.469 2.85h-7.947l-1.139 5.337c-.12.6-.72 1.08-1.29 1.08h-6.117c-.6 0-.96-.48-.87-1.08l3.179-14.964c.12-.57.689-1.05 1.289-1.05h15.174c2.13 0 3.599 1.29 3.239 2.85l-1.049 4.977zm-8.637-5.368h-2.039l-1.29 6.058h2.039c.87 0 1.62-.36 1.74-.84l.899-4.348c.15-.48-.479-.87-1.349-.87z"></path>
  </symbol>
  <symbol viewBox="0 0 8 57" stroke="none" xmlns="http://www.w3.org/2000/svg" id="bottomA">
    <path d="M3.646 56.354a.5.5 0 0 0 .708 0l3.182-3.182a.5.5 0 1 0-.708-.707L4 55.293l-2.828-2.828a.5.5 0 1 0-.708.707l3.182 3.182zM3.5 0v56h1V0h-1z"></path>
  </symbol>
  <symbol viewBox="0 0 8 57" stroke="none" xmlns="http://www.w3.org/2000/svg" id="topA">
    <path d="M4.354.646a.5.5 0 0 0-.708 0L.464 3.828a.5.5 0 1 0 .708.708L4 1.707l2.828 2.829a.5.5 0 1 0 .708-.708L4.354.646zM4.5 57V1h-1v56h1z"></path>
  </symbol>
  <symbol viewBox="0 0 25 25" xmlns="http://www.w3.org/2000/svg" id="minus">
    <circle fill='none' cx="12.5" cy="12.5" r="12"></circle>
    <path stroke='none' d="M9.092 12.121v.758h6.818v-.758z"></path>
  </symbol>
  <symbol viewBox="0 0 25 25" xmlns="http://www.w3.org/2000/svg" id="plus">
    <circle fill='none' cx="12.5" cy="12.5" r="12"></circle>
    <path stroke='none' d="M12.121 9.091h.758v6.818h-.758z"></path>
    <path stroke='none' d="M9.092 12.879v-.758h6.818v.758z"></path>
  </symbol>
  <symbol xmlns="http://www.w3.org/2000/svg" stroke="none" viewBox="0 0 12.184 12.184" id="close">
    <path d="M0 .87L.87 0l11.314 11.314-.87.87z"></path>
    <path d="M.87 12.184l-.87-.87L11.314 0l.87.87z"></path>
  </symbol>
  <symbol viewBox="0 0 21 14" stroke="none" xmlns="http://www.w3.org/2000/svg" id="tick">
    <path d="M19.457.073L7.688 11.84 1.543 5.696.5 6.739l7.188 7.188L20.5 1.116 19.457.073z"></path>
  </symbol>
  <symbol viewBox="0 0 13 6" stroke="none" xmlns="http://www.w3.org/2000/svg" id="arb">
    <path fill-rule="evenodd" clip-rule="evenodd" d="M11.369.22l-4.375 3.5L2.619.22a1 1 0 1 0-1.25 1.562l5 4a1 1 0 0 0 1.25 0l5-4A1 1 0 1 0 11.369.22z"></path>
  </symbol>
  <symbol viewBox="0 0 11 8" stroke="none" xmlns="http://www.w3.org/2000/svg" id="tick2">
    <path fill-rule="evenodd" clip-rule="evenodd" d="M3.929 8L0 4.154l1.1-1.077 2.829 2.77L9.9 0 11 1.077 3.929 8z"></path>
  </symbol>
  <symbol viewBox="0 0 25 25" xmlns="http://www.w3.org/2000/svg" id="nav-arrow">
    <circle cx="12.5" cy="12.5" r="12" fill="#1b1e23" fill-opacity=".5"></circle>
    <path stroke='none' d="M8.646 11.646a.5.5 0 0 0 0 .708l3.182 3.182a.5.5 0 1 0 .708-.708L9.707 12l2.829-2.828a.5.5 0 1 0-.708-.708l-3.182 3.182zM17 11.5H9v1h8v-1z"></path>
  </symbol>
</svg>