<svg width="12" height="13" viewBox="0 0 12 13" fill="none" xmlns="http://www.w3.org/2000/svg">
<path d="M11.2114 9.88098L9.52665 7.98544C9.19109 7.60944 8.63538 7.62086 8.28812 8.01167L7.43934 8.96634C7.38572 8.93309 7.33021 8.89836 7.27186 8.86151C6.73586 8.5274 6.00226 8.06946 5.2303 7.20037C4.45605 6.32945 4.04862 5.50288 3.75072 4.8995C3.71929 4.83557 3.68917 4.77394 3.65943 4.71541L4.22908 4.0755L4.50914 3.76004C4.85694 3.36867 4.86653 2.74368 4.53174 2.36658L2.847 0.470833C2.51222 0.0942703 1.95626 0.105694 1.60847 0.497065L1.13365 1.0343L1.14663 1.04879C0.987415 1.27734 0.854373 1.54093 0.755366 1.82519C0.664101 2.09576 0.60728 2.35396 0.581298 2.61269C0.35884 4.68745 1.2016 6.58363 3.48874 9.1567C6.65027 12.7132 9.19804 12.4445 9.30796 12.4314C9.54734 12.3992 9.77676 12.3348 10.0099 12.233C10.2604 12.1229 10.4945 11.9734 10.6976 11.7947L10.7079 11.8051L11.189 11.2752C11.536 10.8839 11.546 10.2587 11.2114 9.88098Z" fill="white"/>
</svg>
