<svg width="0" height="0" class="hidden">
  <symbol xmlns="http://www.w3.org/2000/svg" fill="none" viewBox="0 0 669.966 179.776" id="tanker">
    <path stroke-miterlimit="10" stroke-width=".5" stroke="#fff" d="M147.026 122.348h-3.546c-19.31 0-19.31-111.248 0-111.248h3.546z"></path>
    <path stroke-miterlimit="10" stroke-width=".5" stroke="#fff" d="M143.37 122.348l-1.019-.121V17.087h1.019zM539.603 3.629v1.817h26.558V3.63a.724.724 0 0 0-.727-.728h-25.112a.722.722 0 0 0-.719.728zm-160.907 0v1.817h26.558V3.63a.724.724 0 0 0-.727-.728h-25.112a.722.722 0 0 0-.719.728zm-160.907 0v1.817h26.559V3.63a.724.724 0 0 0-.727-.728h-25.112a.723.723 0 0 0-.72.728zm220.894 131.884H293.218l-9.276-10.345h383.703v10.345h-92.152"></path>
    <path stroke-miterlimit="10" stroke-width=".5" stroke="#fff" d="M586.206 154.692l.019-.019.732-.703 4.372-4.167 14.985-14.29h-22.182a30.344 30.344 0 0 0-5.592-4.917c-3.782-.01-7.798 0-12.001 0-36.445 0-86.833.009-118.83.009h-12.077c-9.646 0-16.223 0-18.138-.009v14.234l3.366 2.975v15.477h2.307v-13.438l4.152 3.666.704.619.018.019"></path>
    <path stroke-miterlimit="10" stroke-width=".5" stroke="#fff" d="M312.802 129.587v33.694h108.703v-7.311c0-9.375 4.221-17.78 10.859-23.416a30.473 30.473 0 0 1 4.137-2.967zm-9.416 6.524h-6.876a.887.887 0 0 1-.887-.886v-6.877c0-.489.397-.886.887-.886h6.876c.489 0 .886.397.886.886v6.877a.886.886 0 0 1-.886.886zm3.034 26.081l-2.99-2.313h-6.964l-2.99 2.313H291.1v1.216h17.695v-1.216z"></path>
    <path stroke-miterlimit="10" stroke-width=".5" stroke="#fff" d="M302.439 149.038h-4.983v-17.486c0-1.061.861-1.922 1.922-1.922h1.139c1.062 0 1.922.861 1.922 1.922zm-.439 0h-4.105v10.841H302zm365.646-12.081h1.015c1.411 0 1.411-7.007 0-7.007h-1.015zm0-11.789h-3.329v15.191h3.329zm0 24.75h-3.329v8.653h3.329z"></path>
    <path stroke-miterlimit="10" stroke-width=".5" stroke="#fff" d="M666.758 140.359h-1.554v12.374h1.554zm-25.811-15.191H144.338l-.938-2.82h497.547zm-.366-120.055h-498.23v11.974h498.23zM136.179 115.685h-4.982V98.43h.15c1.154 7 2.768 13.014 4.832 17.255z"></path>
    <path stroke-miterlimit="10" stroke-width=".5" stroke="#fff" d="M296.459 95.566h2.818a3.187 3.187 0 0 1 3.187 3.187v12.368h72.929V98.753a3.186 3.186 0 0 1 3.186-3.187h2.818a3.187 3.187 0 0 1 3.187 3.187v12.368h72.929V98.753a3.186 3.186 0 0 1 3.186-3.187h2.818a3.187 3.187 0 0 1 3.187 3.187v12.368h72.929V98.753a3.186 3.186 0 0 1 3.187-3.187h2.817a3.187 3.187 0 0 1 3.187 3.187v12.368h72.928V98.753a3.187 3.187 0 0 1 3.187-3.187h2.818a3.187 3.187 0 0 1 3.187 3.187v26.419H293.273V98.753a3.186 3.186 0 0 1 3.186-3.187z"></path>
    <path stroke-miterlimit="10" stroke-width=".5" stroke="#fff" d="M639.517 115.584h-44.115l-2.815 6.568v28.955h49.745v-28.955zM93.11 161.649v1.315h6.118v-33.396h12.58l.015-82.722-2.409-39.675-4.107-6.883-29.641 8.03C15.672 8.99 12.575 15.583 5.6 46.846H4.59a2.493 2.493 0 0 0-2.492 2.493v4.359a2.578 2.578 0 0 0 2.577 2.577H20.49l-.077 1.147-2.026 29.381-.077 1.155v.023L4.966 90.306l-1.04.398a3.346 3.346 0 0 0-2.15 3.12v17.497a2.772 2.772 0 0 0-1.529 2.478v13c.015 1.377 1.231 2.447 2.608 2.447h1.407v4.772h-.864a2.401 2.401 0 0 0-2.386 2.394v.719l.535.382v10.722l-.535.382v1.53l.535.382v3.984l-.528.383c.062.382.077.505.2.925A5.034 5.034 0 0 0 5.5 159.4l33.503 3.495v-1.246m22.04-83.013l-40.669 7.097 1.897-27.546h38.772z"></path>
    <path stroke-miterlimit="10" stroke-width=".5" stroke="#fff" d="M18.326 134.026l-.016 26.712L5.5 159.4a5.035 5.035 0 0 1-4.282-3.579c-.122-.421-.137-.543-.199-.926l.528-.382v-3.984l-.535-.383v-1.529l.535-.383v-10.721l-.535-.383v-.718a2.4 2.4 0 0 1 2.386-2.394zm7.254-49.848v-24.54c0-.877-.656-1.493-1.287-1.209-1.38.622-4.386 1.406-4.386 5.628V79.76c0 4.672 5.674 7.404 5.674 4.418z"></path>
    <path fill="#fff" d="M96.851 118.48A978.003 978.003 0 0 1 93 122.794l-9.656-.001-5.841-.001c-13.255 0-13.373.014-14.5.143l-.375.041c-8.145.837-15.9 4.775-21.312 10.815l-2.01-.001-12.92-.003-21.509-.004v-4.302c7.463.002 13.205.047 17.837.083 2.996.023 5.452.042 7.48.042 8.665 0 9.732-.349 11.837-2.306 5.755-5.348 13.924-8.803 20.812-8.803l.247.001h.615c13.353-.002 28.949-.007 33.146-.018zm1.049-.474c-.265.019-34.521.023-34.81.023l-.247-.001c-7.023 0-15.263 3.475-21.131 8.928-1.974 1.836-2.88 2.181-11.517 2.181-5.181 0-13.143-.124-25.787-.125v5.24l37.118.008c5.448-6.164 13.153-9.996 21.15-10.817 1.585-.164.246-.181 14.827-.181l15.702.001c.17-.167 4.537-5.079 4.695-5.257z"></path>
    <path stroke-miterlimit="10" stroke-width=".5" stroke="#fff" d="M230.343 129.567H99.212v33.473l122.545.161v-1.316"></path>
    <path stroke-miterlimit="10" stroke-width=".5" stroke="#fff" d="M125.41 129.567v33.695h89.936v-7.311c0-9.376 4.221-17.78 10.859-23.417a30.483 30.483 0 0 1 4.138-2.967z"></path>
    <path stroke-miterlimit="10" stroke-width=".5" stroke="#fff" d="M190.238 125.148v2.569h6.102v1.85h20.265v-1.85h11.45l5.63-2.569zm-65.593 4.419H99.962v33.695h24.683zM93.11 161.652v-5.456c0-7.472-3.029-14.232-7.923-19.134-4.902-4.895-11.662-7.923-19.134-7.923-14.935 0-27.049 12.114-27.049 27.057v5.456m-20.686-27.634l-.008 26.72 14.576 1.491v-6.034c0-8.511 3.22-16.289 8.52-22.169zm98.503-4.451h-5.008v-26.732h1.074a3.934 3.934 0 0 1 3.934 3.934zm14.376-21.527h-14.376v7.668h14.376zm430.278 17.197v-.006H453.076c-17.082-.051-30.827 13.822-30.827 30.72v8.496h5.659v-8.002c0-13.921 11.294-25.594 25.168-25.54h108.046c13.873-.054 25.167 11.619 25.167 25.54v8.002h4.252c.777 0 1.408-.63 1.408-1.408v-7.088c-.001-16.859-13.653-30.585-30.474-30.714z"></path>
    <path stroke-miterlimit="10" stroke-width=".5" stroke="#fff" d="M453.017 127.68c-14.901-.025-27.83 10.87-28.421 28.84-.071 1.145-.063 6.619.033 7.927l.924-.002c0-.83 2.346-1.581 2.34-2.279-.007-.699-.007-3.409.018-4.028.012-.306.033-2.544.063-2.842.711-13.929 12.004-24.436 25.102-24.396l106.883-.001c.401-.002 1.96.016 2.351.053 12.39.585 22.956 10.599 23.861 23.891.059.441.098 2.276.116 2.736.031.787.023 4.235.013 5.164-.006.532 1.734 1.096 1.734 1.702h.764c.415-.319.741-.949.769-1.647.042-1.084.055-5.648-.003-6.608-.587-18.024-13.576-28.442-28.265-28.508-59.998 0-107.805-.002-108.282-.002z"></path>
    <path stroke-miterlimit="10" stroke-width=".5" stroke="#fff" d="M561.122 130.133c-119.996 0-107.21-.003-108.165-.003-14.249 0-27.738 9.937-25.949 34.318l.905-.004c0-3.322-.098-6.011 0-8.486.024-.611.066-1.215.127-1.81 1.422-13.938 12.713-23.279 25.036-23.254l108.046-.002c12.802-.026 24.57 10.087 25.163 25.052.098 2.478 0 5.172 0 8.5h.769c2.119-25.257-11.761-34.314-25.932-34.311zM277.535 141.49v-3.296a2.876 2.876 0 0 0-2.875-2.876h-5.078c-5.621-6.202-13.735-10.087-22.759-10.087-8.466 0-16.144 3.446-21.705 9.008a30.822 30.822 0 0 0-6.589 9.766 30.543 30.543 0 0 0-2.418 11.946v8.496h5.659v-8.001c0-7.023 2.873-13.475 7.502-18.138 4.629-4.663 11.012-7.538 18.033-7.405a24.974 24.974 0 0 1 17.39 7.49 24.972 24.972 0 0 1 7.181 17.558v8.496h3.747a1.912 1.912 0 0 0 1.912-1.912V141.49zM66.053 123.021c-18.285 0-33.167 14.882-33.167 33.175v6.034l6.118.665v-6.699c0-14.943 12.114-27.057 27.05-27.057a26.943 26.943 0 0 1 16.549 5.658l10.504-11.768-27.054-.008z"></path>
    <path stroke-miterlimit="10" stroke-width=".5" stroke="#fff" d="M66.053 123.194c-18.19 0-32.994 14.804-32.994 33.002v6.052l5.945.647v-6.699c0-14.943 12.114-27.057 27.05-27.057a26.943 26.943 0 0 1 16.549 5.658l10.182-11.408c-.168-.117-26.508-.195-26.732-.195zm56.234 21.694h-20.011v12.137h20.011z"></path>
    <path stroke-miterlimit="10" stroke-width=".5" stroke="#fff" d="M102.276 144.888v12.137h4.966v-12.137zm20.011 12.137v-12.137h-4.966v12.137zm0-25.856h-20.011v12.091h20.011z"></path>
    <path stroke-miterlimit="10" stroke-width=".5" stroke="#fff" d="M102.276 131.169v12.091h4.966v-12.091zm20.011 12.091v-12.091h-4.966v12.091zm0 15.356h-20.011v4.646h20.011z"></path>
    <path stroke-miterlimit="10" stroke-width=".5" stroke="#fff" d="M102.276 158.616v4.646h4.966v-4.646zm20.011 4.646v-4.646h-4.966v4.646zm0-19.966h-20.011v1.592h20.011zm0-13.729h-20.011v1.591h20.011z"></path>
    <path stroke-miterlimit="10" stroke-width=".5" stroke="#fff" d="M122.287 157.025h-20.011v1.592h20.011zM31.96 146.809H21.422v10.129h10.54z"></path>
    <path stroke-miterlimit="10" stroke-width=".5" stroke="#fff" d="M21.421 146.809v10.128h2.616v-10.128zm10.539 10.129v-10.129h-2.615v10.129zm0-21.576H21.422v10.089h10.54z"></path>
    <path stroke-miterlimit="10" stroke-width=".5" stroke="#fff" d="M21.421 135.362v10.089h2.616v-10.089zm10.539 10.089v-10.089h-2.615v10.089zm0 .031H21.422v1.328h10.54zm0-11.456H21.422v1.328h10.54zm0 22.911H21.422v1.328h10.54zM654.324 45.79h8.172v-2.113h-8.386zm.156 40.15h8.016v2.113h-8.204zM9.562 148.541l-1.576 4.443a2.3 2.3 0 0 1-2.164 1.53H1.547v-3.985z"></path>
    <path stroke-miterlimit="10" stroke-width=".5" stroke="#fff" d="M7.986 152.984l1.576-4.443-4.96 1.231a13.154 13.154 0 0 0-.118 1.753c0 1.199.167 2.212.354 2.989h.984a2.3 2.3 0 0 0 2.164-1.53z"></path>
    <path stroke-miterlimit="10" stroke-width=".5" stroke="#fff" d="M1.547 151.711l6.22-1.543-.86 2.429a1.16 1.16 0 0 1-1.085.769H1.547v1.148h4.275a2.3 2.3 0 0 0 2.164-1.53l1.576-4.443-8.015 1.988zm11.395-12.661l-2.516 7.02-8.879 2.164v-10.721h10.309c.795 0 1.346.787 1.086 1.537z"></path>
    <path stroke-miterlimit="10" stroke-width=".5" stroke="#fff" d="M12.942 139.051a1.162 1.162 0 0 0-.65-1.453h-8.65a23.63 23.63 0 0 0 0 10.071h.23l6.554-1.598.245-.673 1.98-5.529z"></path>
    <path stroke-miterlimit="10" stroke-width=".5" stroke="#fff" d="M12.651 139.869l-1.98 5.529H7.879a14.878 14.878 0 0 1-.275-2.745c0-.757.061-1.438.153-2.042.038-.26.076-.513.122-.742z"></path>
    <path stroke-miterlimit="10" stroke-width=".5" stroke="#fff" d="M12.651 139.869l-1.98 5.529H7.879a14.878 14.878 0 0 1-.275-2.745c0-.757.061-1.438.153-2.042.038-.26.076-.513.122-.742z"></path>
    <path stroke-miterlimit="10" stroke-width=".5" stroke="#fff" d="M11.856 137.513H1.547v1.147l9.341.002a.686.686 0 0 1 .645.917l-1.979 5.523-8.007 1.952v1.18l8.879-2.164 2.516-7.02c.26-.75-.29-1.537-1.086-1.537z"></path>
    <path stroke-miterlimit="10" stroke-width=".5" stroke="#fff" d="M12.942 139.05l-2.516 7.02-8.879 2.164v-10.721h10.309c.795 0 1.346.787 1.086 1.537zm40.075-30.743h8.41v-8.408h-8.41a.991.991 0 0 0-.991.991v6.426a.99.99 0 0 0 .99.991z"></path>
    <path stroke-miterlimit="10" stroke-width=".5" stroke="#fff" d="M54.238 107.637h6.615v-6.803h-6.615a.991.991 0 0 0-.99.991v4.821a.99.99 0 0 0 .99.991z"></path>
    <path stroke-miterlimit="10" stroke-width=".5" stroke="#fff" d="M56.454 108.173h.545a.48.48 0 0 0 .478-.478v-7.183a.48.48 0 0 0-.478-.478h-.545a.48.48 0 0 0-.479.478v7.183a.48.48 0 0 0 .479.478zm289.034 46.326h-4.722c-.347 0-.628-.381-.628-.852s.281-.853.628-.853h4.722c.346 0 .627.382.627.853s-.281.852-.627.852zm49.731 0h-4.722c-.346 0-.627-.381-.627-.852s.281-.853.627-.853h4.722c.347 0 .627.382.627.853s-.28.852-.627.852zM20.49 56.275H4.675a2.577 2.577 0 0 1-2.577-2.578v-.351h15.655a2.743 2.743 0 0 1 2.737 2.929zM18.31 87.98a5.203 5.203 0 0 1-4.3 5.125L1.777 95.261v-1.435c0-1.386.854-2.628 2.148-3.123l1.04-.397z"></path>
    <path stroke-miterlimit="10" stroke-width=".5" stroke="#fff" d="M85.455 58.003a1.794 1.794 0 0 0-.551-1.224 1.764 1.764 0 0 0-1.239-.505H20.49l-.077 1.147c-.068 1.01-.198 2.845-.359 5.132.344-1.59 1.216-2.516 2.134-3.105l.084-1.262h38.772v20.45l-35.59 6.21h-.008c-.291.657-1.11.726-2.02.35l-3.05.536.221-3.235a5.779 5.779 0 0 1-.688-2.737V64.656c-.612 8.955-1.522 22.147-1.522 22.147l-.077 1.155v.023l49.938-8.703c10.255-1.782 17.604-10.875 17.207-21.275z"></path>
    <path stroke-miterlimit="10" stroke-width=".5" stroke="#fff" d="M20.49 56.274c-.216 3.233-1.987 28.774-2.18 31.684v.022L4.965 90.305c.486-3.03 4.846-30.856 5.354-34.03zm2.944 28.923l-3.059.535.222-3.242a6.31 6.31 0 0 0 2.004 2.256c.283.191.565.344.833.451zm-1.162-27.01l-.084 1.254c.137-.084.275-.161.413-.237.604-.337 1.2-.551 1.636-.75a.416.416 0 0 0 .054-.023c.634-.283 1.292.329 1.292 1.208V84.18c0 .268-.046.49-.137.665l35.598-6.21V58.187z"
      opacity=".4"></path>
    <path stroke-miterlimit="10" stroke-width=".5" stroke="#fff" d="M22.272 58.186l-.085 1.254c.138-.084.276-.16.413-.237.605-.336 1.201-.55 1.637-.75a.316.316 0 0 0 .054-.022c.634-.283 1.292.329 1.292 1.208v24.54c0 .268-.046.49-.138.666l35.599-6.21V58.186zm.328 26.56a6.309 6.309 0 0 1-2.003-2.256l-.222 3.242 3.059-.535a4.49 4.49 0 0 1-.834-.451zM10.32 56.274c-.505 3.174-4.872 31.003-5.354 34.031L18.31 87.98v-.022c.13-1.981.994-14.462 1.599-23.241.053-.75.107-1.468.152-2.156v-.023c.215-3.075.375-5.422.429-6.264z"
      opacity=".8"></path>
    <path stroke-miterlimit="10" stroke-width=".5" stroke="#fff" d="M4.737 89.864H3.34l.582-2.569 1.171-1.307 1.64.167v.548l-1.753.14-.243.489z"></path>
    <path stroke-miterlimit="10" stroke-width=".5" stroke="#fff" d="M4.861 90.057v.3l-.938.357a2.815 2.815 0 0 0-.75.422v-1.088c0-.226.187-.423.422-.423h.835a.43.43 0 0 1 .431.432zm106.944 30.607l-14.395-2.285.077-.085-.008-.136 14.329 2.274zm-93.376 8.582h-.23V87.959l2.817-41h.23l-2.818 41.008zM63.07 46.958h-.229v71.308h.23zM1.56 150.487c0 .06-.013.108-.013.16l7.836-1.943-1.505 4.241a2.192 2.192 0 0 1-2.056 1.454H1.547v.153h4.275c.983 0 1.867-.625 2.2-1.555l1.6-4.51-8.062 2zm10.296-13.012H1.547v.153h10.309c.716 0 1.212.707.978 1.383l-2.495 6.963-8.792 2.125v.175l8.908-2.171 2.523-7.04a1.192 1.192 0 0 0-1.122-1.588z"></path>
    <path stroke-miterlimit="10" stroke-width=".5" stroke="#fff" d="M93.195 123.105l-.171-.152 4.228-4.741-4.076-71.36c-1.536-8.529-3.974-14.277-12.442-20.178l-.033-.024-.012-.04-5.13-18.258.221-.062 5.12 18.22c8.505 5.937 10.958 11.723 12.504 20.315l4.083 71.469-.031.035z"></path>
    <path stroke-miterlimit="10" stroke-width=".5" stroke="#fff" d="M5.6 46.96v-.23h87.712l18.28-3.687.014.232-18.272 3.683zm612.605 79.16h-21.198v21.582h42.225V126.12zm-.171 21.424h-20.856v-21.266h20.856zm21.027 0h-20.856v-21.266h20.856zM41.406 134.026h-4.069c-2.306 2.997-4.086 6.286-5.376 9.897v14.345h-2.048l.005.074c.06 1.037.193 2.3.413 3.628l2.555.259c0-7.31-.18-9.402 1.048-14.316 1.391-5.408 4.206-10.332 7.472-13.887zm172.471 29.236h1.469v-7.311c0-11.227 6.062-21.051 14.997-26.384h-4.365c-9.928 7.791-14.925 20.808-12.101 33.695zM24.289 58.43v26.986c.747.057 1.288-.317 1.288-1.238v-24.54c0-.877-.657-1.493-1.288-1.209z"></path>
    <path stroke-miterlimit="10" stroke-width=".5" stroke="#fff" d="M97.369 118.249l-.015.015h-19.73V26.786h3.464c7.823 5.537 10.576 11.02 12.205 20.06z"></path>
    <path stroke-miterlimit="10" stroke-width=".5" stroke="#fff" d="M80.63 26.39c-32.144.063-56.581 1.668-70.802 4.448l-.042.121c14.197-2.774 38.979-4.12 71.099-4.183l-.184-.124zm18.285 92.112l.014.298-.42.474-4.26 4.772-.1.108 5.079 5.497v-.084h12.58v-9.016zm12.908-71.657l-.222-3.686-7.767 1.565-9.04 1.822.006.031.015.092v.092l4.084 71.404.016.337 12.893 2.049z"></path>
    <path fill="#fff" d="M15.354 127.233l1.72 1.793c-1.104-.002-4.28-.006-14.378-.007a2.223 2.223 0 0 1-2.18-1.786zm.1-.235H.247l.002.029c.102 1.281 1.21 2.227 2.447 2.227 12.97 0 14.52.008 14.929.008z"></path>
    <path stroke-miterlimit="10" stroke-width=".5" stroke="#fff" d="M18.327 134.018l-.017 26.72 2.348.245v-26.965zm79.043-15.761l-4.076-71.412c-1.652-9.154-4.451-14.66-12.496-20.265-29.183.053-51.444 1.3-65.73 3.44l.963 1.148h1.987l-.013-.015c14.515-1.935 35.95-2.983 62.311-3.044 7.724 5.506 10.003 10.928 11.456 18.92l4.038 70.677-.49.551zm117.976 42.038H125.41v2.967h89.936z"></path>
    <path stroke-miterlimit="10" stroke-width=".5" stroke="#fff" d="M12.993 134.023v26.16l5.317.556.017-26.713z"></path>
    <path stroke-miterlimit="10" stroke-width=".5" stroke="#fff" d="M1.056 155.12c.037.227.068.376.162.702a5.033 5.033 0 0 0 4.283 3.578l12.81 1.339.003-5.619z"></path>
    <path fill="#fff" d="M133.513 136.845h75.263l1.53-1.53h-78.322v22.474l1.529-1.529z"></path>
    <path stroke-miterlimit="10" stroke-width=".5" stroke="#fff" d="M420.036 163.281h1.469v-7.311c0-11.226 6.062-21.051 14.996-26.383h-4.364c-9.928 7.791-14.926 20.807-12.101 33.694z"></path>
    <path stroke-miterlimit="10" stroke-width=".5" stroke="#fff" d="M421.505 160.314H312.802v2.968h108.703zm-108.703-30.727v2.967h119.562a30.473 30.473 0 0 1 4.137-2.967z"></path>
    <path fill="#fff" d="M320.905 136.865h44.299l1.529-1.53h-47.357v22.474l1.529-1.529zm49.732 0h44.298l1.53-1.53h-47.358v22.474l1.53-1.529z"></path>
    <path stroke-miterlimit="10" stroke-width=".5" stroke="#fff" d="M642.332 122.153h-49.747v28.954h49.747zm-506.153-6.468h-4.982V98.43h.15c1.154 7 2.768 13.014 4.832 17.255zm503.338-.101h-44.115l-2.815 6.568h49.745z"></path>
    <path fill="#fff" d="M594.957 124.244h45.003l.875-.875h-46.753v26.522l.875-.875z"></path>
    <path stroke-miterlimit="10" stroke-width=".5" stroke="#fff" d="M86.602 57.957a2.923 2.923 0 0 0-.895-1.996 2.92 2.92 0 0 0-2.042-.834H20.566l-.076 1.147h63.175c.482 0 .918.192 1.239.505.321.314.535.742.551 1.224.397 10.4-6.952 19.493-17.207 21.275L18.31 87.98v1.162l.2-.03 49.937-8.703c10.767-1.874 18.575-11.525 18.155-22.453zm-76.084 89.72l-.383 1.07-1.575 4.443a2.92 2.92 0 0 1-2.738 1.935H1.058c-.016-.069-.023-.137-.039-.229l.528-.383h4.275a2.3 2.3 0 0 0 2.164-1.529l1.576-4.443-8.015 1.988-.535-.382v-.115l.39-.099 8.014-1.989zm2.997-8.42L11 146.277l-.107.314-.321.076-8.879 2.164-.68.168v-.382l.535-.382 8.879-2.164 2.516-7.021a1.155 1.155 0 0 0-1.086-1.537H1.547l-.535-.382v-.23h10.844c.573 0 1.1.268 1.43.742.336.467.42 1.063.23 1.614zm82.064-25.736H30.552c-1.25 0-2.269-.98-2.316-2.23-.36-9.353 6.322-17.618 15.543-19.225l50.067-8.724.091 1.583-49.895 8.648c-8.47 1.476-14.608 9.068-14.278 17.659.016.426.363.76.788.76h64.856zM640.581 5.113h-498.23v11.974h498.23zm-45.179 110.471h35.542V98.753a3.187 3.187 0 0 0-3.187-3.187h-2.818a3.187 3.187 0 0 0-3.187 3.187v12.368h-72.928V98.753a3.187 3.187 0 0 0-3.187-3.187h-2.817a3.186 3.186 0 0 0-3.187 3.187v12.368h-72.929V98.753a3.187 3.187 0 0 0-3.187-3.187h-2.818a3.186 3.186 0 0 0-3.186 3.187v12.368h-72.929V98.753a3.187 3.187 0 0 0-3.187-3.187h-2.818a3.186 3.186 0 0 0-3.186 3.187v12.368h-72.929V98.753a3.187 3.187 0 0 0-3.187-3.187h-2.818a3.186 3.186 0 0 0-3.186 3.187v26.419h299.314v-3.02zM80.797 26.58c-33.06.061-57.233 1.652-70.998 4.344 6.278-17.735 17.849-22.07 65.867-22.606z"></path>
    <path stroke-miterlimit="10" stroke-width=".5" stroke="#fff" d="M93.293 46.845H5.6c1.392-6.24 2.631-11.494 4.199-15.922 13.765-2.692 37.939-4.282 70.998-4.343 8.046 5.605 10.844 11.111 12.496 20.265zm-72.153.001l-.451 6.5H2.098v-4.007a2.493 2.493 0 0 1 2.493-2.493z"></path>
    <path stroke-miterlimit="10" stroke-width=".5" stroke="#fff" d="M111.599 43.159L109.414 7.17 105.307.288l-29.641 8.03 4.702 16.732h.911l.398.275c8.875 6.187 11.533 12.466 13.117 21.22l9.04-1.821zm-93.273 68.138l-2.256 2.256H.27a2.735 2.735 0 0 1 1.507-2.233v-.023zM1.012 136.412v.183a132.481 132.481 0 0 0 8.074.299l.216.002c.394.003.79.005 1.191.005h.004c.7 0 1.39-.005 2.067-.014h.04a150.6 150.6 0 0 0 3.867-.101l.116-.004a140.058 140.058 0 0 0 1.739-.083v-2.673l-14.928-.008a2.4 2.4 0 0 0-2.386 2.394z"></path>
    <path stroke-miterlimit="10" stroke-width=".5" stroke="#fff" d="M98.929 118.8l-.42.474-4.26 4.773-.099.106-1.04-1.124 4.259-4.772-4.076-71.411c-1.652-9.154-4.451-14.66-12.496-20.266-29.182.054-51.444 1.3-65.73 3.442l.054.068h-1.996l-.986-1.177 2.7-.406c14.644-2.202 37.296-3.387 65.53-3.456h.91l.398.275c8.886 6.194 11.54 12.48 13.123 21.252l.015.092v.092l4.084 71.404zm29.448 10.768h-2.967v33.694h2.967z"></path>
    <path stroke-miterlimit="10" stroke-width=".5" stroke="#fff" d="M125.41 129.567v2.967h100.795a30.483 30.483 0 0 1 4.138-2.967z"></path>
    <path fill="#fff" d="M208.776 136.845v19.415h-75.263l-1.529 1.529h78.322v-22.474z"></path>
    <path stroke-miterlimit="10" stroke-width=".5" stroke="#fff" d="M315.769 129.588h-2.967v33.693h2.967z"></path>
    <path fill="#fff" d="M365.204 136.865v19.415h-44.299l-1.529 1.529h47.357v-22.474zm49.731 0v19.415h-44.298l-1.53 1.529h47.358v-22.474zm225.025-12.621v24.772h-45.003l-.875.875h46.753v-26.522z"></path>
    <path stroke-miterlimit="10" stroke-width=".5" stroke="#fff" d="M24.854 91.162h-2.868a1.044 1.044 0 0 1-1.043-1.043v-.207c0-.577.467-1.044 1.043-1.044h2.868c.577 0 1.044.467 1.044 1.044v.207c0 .576-.467 1.043-1.044 1.043zm-2.868-39.269h2.868c.577 0 1.044.467 1.044 1.043v.207c0 .577-.467 1.044-1.044 1.044h-2.868a1.044 1.044 0 0 1-1.043-1.044v-.207c0-.576.467-1.043 1.043-1.043z"></path>
    <path stroke-miterlimit="10" stroke-width=".5" stroke="#fff" d="M24.237 53.391v5.063c-.436.199-1.032.413-1.636.75V53.39a.82.82 0 0 1 1.636 0zM22.6 84.746c.574.39 1.148.62 1.637.665v4.252a.82.82 0 0 1-1.636 0z"></path>
    <path stroke-miterlimit="10" stroke-width=".5" stroke="#fff" d="M24.239 57.265v-3.87a.818.818 0 1 0-1.637 0v3.87zm-1.637 28.254v4.142a.818.818 0 1 0 1.637 0v-4.142zm322.678 40.02h3.947v-10.964h-3.947zm69.458 0h3.947v-10.964h-3.947zm69.458 0h3.947v-10.964h-3.947zm69.458 0h3.947v-10.964h-3.947z"></path>
    <path fill="#fff" d="M495.842 135.319H463.78c.524.271 1.038.558 1.538.867h28.987c.5-.309 1.013-.596 1.537-.867zm-4.423 2.972h-23.215c.328.28.648.569.961.867h21.293c.312-.298.632-.587.961-.867zm7.991-4.459h-39.197a23.5 23.5 0 0 1 2.276.867h34.645a23.304 23.304 0 0 1 2.276-.867zm-6.056 2.973h-27.086c.402.276.793.566 1.176.866h24.734c.383-.3.774-.59 1.176-.866zm-5.978 5.944h-15.129c.197.284.388.573.574.867h13.981c.185-.294.376-.583.574-.867zm1.119-1.486h-17.367c.233.284.459.572.679.867h16.009c.22-.295.446-.583.679-.867zm1.335-1.486h-20.037c.275.282.542.571.803.867h18.431c.261-.296.528-.585.803-.867zm59.497-4.458h-32.062c.524.271 1.038.558 1.537.867h28.988a22.882 22.882 0 0 1 1.537-.867zm-2.488 1.486h-27.086c.402.276.793.566 1.176.866h24.734c.383-.3.774-.59 1.176-.866zm-1.936 1.486h-23.214c.328.28.648.569.961.867h21.292c.313-.298.633-.587.961-.867zm7.991-4.459h-39.196c.777.25 1.536.541 2.275.867h34.646a23.384 23.384 0 0 1 2.275-.867zm-12.033 8.917h-15.129c.197.284.388.573.574.867h13.981c.185-.294.376-.583.574-.867zm2.453-2.972h-20.036c.275.282.542.571.802.867h18.432c.26-.296.528-.585.802-.867zm-1.335 1.486h-17.367c.233.284.46.572.679.867h16.01c.219-.295.446-.583.678-.867z"></path>
    <path stroke-miterlimit="10" stroke-width=".5" stroke="#fff" d="M143.481 11.1h497.313c19.311 0 19.311 111.248 0 111.248H143.481c-19.311 0-19.311-111.248 0-111.248z"></path>
    <path stroke-miterlimit="10" stroke-width=".5" stroke="#fff" d="M665.365 117.691h-2.815V17.342c0-4.026-3.275-7.3-7.301-7.3h-14.668V7.225h14.668c5.578 0 10.116 4.539 10.116 10.116z"></path>
    <path stroke-miterlimit="10" stroke-width=".5" stroke="#fff" d="M637.249 11.1h3.545c19.311 0 19.311 111.248 0 111.248h-3.545z"></path>
    <path stroke-miterlimit="10" stroke-width=".5" stroke="#fff" d="M640.581 118.066l-1.019-2.378V17.087h1.019z"></path>
    <path fill="#fff" d="M321.455 137.051h44.299l1.529-1.529h-47.357v22.474l1.529-1.53z"></path>
    <path stroke="#fff" d="M371.187 136.551h-.5v19.708l-.529.53v-20.767h45.65l-.53.529z"></path>
    <path stroke-width=".5" stroke="#fff" d="M621.447 136.572a2.165 2.165 0 0 1-1.915 2.15v-4.301a2.165 2.165 0 0 1 1.915 2.151zm-6.362 0c0-1.112.837-2.027 1.915-2.151v4.301a2.165 2.165 0 0 1-1.915-2.15z"></path>
    <path fill="#fff" d="M480.719 11.287h-1v111h1zm-176.003-.331h-.762V122.21h.762z"></path>
    <path stroke="#fff" d="M365.754 156.966h.5v-19.708l.529-.529v20.767h-45.65l.53-.53z"></path>
    <path fill="#fff" d="M415.486 137.051v19.415h-44.299l-1.529 1.53h47.357v-22.474z"></path>
    <path stroke-miterlimit="10" stroke="#fff" d="M588.677 115.128H315.305c-2.603 0-2.603 10.233 0 10.233h273.372c2.603 0 2.603-10.233 0-10.233z"></path>
    <path stroke="#fff" d="M480.32 145.387c1.869 0 3.504.918 4.461 2.299a22.608 22.608 0 0 0-1.682 7.216 5.5 5.5 0 0 1-2.779.745 5.486 5.486 0 0 1-3.279-1.075 22.572 22.572 0 0 0-1.468-6.424c.891-1.635 2.675-2.761 4.747-2.761zm53.367 0c1.818 0 3.417.932 4.354 2.345a23.726 23.726 0 0 0-1.648 7.356 5.2 5.2 0 0 1-2.706.755 5.197 5.197 0 0 1-3.194-1.091 23.751 23.751 0 0 0-1.439-6.549 5.22 5.22 0 0 1 4.633-2.816z"></path>
  </symbol>
  <symbol xmlns="http://www.w3.org/2000/svg"  fill='none' stroke='#fff' stroke-width='5' stroke-miterlimit='22.9256' viewBox="0 0 462.938 462.974" clip-rule="evenodd" fill-rule="evenodd" image-rendering="optimizeQuality" shape-rendering="geometricPrecision" text-rendering="geometricPrecision" id="wheel">
    <path d="M445.389 312.959c45-118.16-14.28-250.41-132.44-295.41-118.15-45-250.4 14.28-295.4 132.44-45 118.16 14.28 250.44 132.43 295.44 118.16 45 250.41-14.31 295.41-132.47z"></path>
    <path d="M447.329 239.269l10.18.47c.13-3.03.16-6.06.16-9.06l-7.81.09-2.47-4.44 10.22-.12c-.06-3.03-.22-6.06-.41-9.09l-7.78.59-2.72-4.28 10.22-.75c-.25-3.03-.59-6.03-.97-9.03l-7.75 1.03-2.97-4.09 10.13-1.38c-.44-2.97-.91-5.97-1.47-8.94l-7.69 1.47-3.19-3.87 9.97-1.97c-.62-2.97-1.28-5.94-2-8.88l-7.53 1.97-3.44-3.72 9.85-2.56c-.82-2.91-1.66-5.81-2.57-8.72l-7.37 2.41-3.63-3.5 9.69-3.16c-.97-2.87-2.03-5.72-3.09-8.53l-7.22 2.81-3.88-3.28 9.47-3.69c-1.12-2.81-2.28-5.62-3.53-8.37l-7.06 3.28-4.06-3.06 9.21-4.25c-1.31-2.72-2.65-5.44-4.06-8.13l-6.84 3.66-4.22-2.78 8.97-4.82c-1.47-2.65-2.97-5.28-4.53-7.87l-6.63 4.09-4.37-2.56 8.69-5.34c-1.6-2.57-3.32-5.07-5-7.57l-6.38 4.47-4.53-2.28 8.34-5.84c-1.75-2.47-3.56-4.91-5.4-7.31l-6.16 4.87-4.62-1.97 7.93-6.37c-1.9-2.35-3.84-4.66-5.84-6.94l-5.81 5.22-4.75-1.72 7.59-6.81a299.65 299.65 0 0 0-6.28-6.56l-5.5 5.56-4.85-1.44 7.19-7.28c-2.16-2.13-4.41-4.16-6.66-6.19l-5.15 5.91-4.94-1.13 6.75-7.72c-2.31-1.96-4.62-3.93-7-5.81l-4.84 6.22-4.97-.81 6.25-8.1c-2.41-1.81-4.85-3.62-7.35-5.34l-4.4 6.47-5.03-.53 5.75-8.44c-2.54-1.66-5.07-3.31-7.66-4.91l-4.03 6.72-5.03-.25 5.22-8.75c-2.6-1.53-5.25-2.97-7.94-4.4l-3.6 6.9-5.06.06 4.72-9.06c-2.69-1.34-5.44-2.62-8.19-3.9l-3.18 7.12-5.04.38 4.16-9.35c-2.78-1.18-5.59-2.34-8.41-3.43l-2.74 7.31-5.04.69 3.6-9.54c-2.88-1.06-5.72-2.06-8.6-3l-2.31 7.47-4.97 1 3-9.71c-2.9-.88-5.81-1.72-8.75-2.47l-1.84 7.59-4.91 1.28 2.41-9.9c-2.94-.69-5.91-1.35-8.88-1.91l-1.4 7.69-4.78 1.56 1.81-10.06c-3-.53-6-.97-9-1.38l-.94 7.78-4.69 1.85 1.22-10.19c-3.03-.34-6.03-.59-9.06-.81l-.47 7.84-4.59 2.13.62-10.22c-3.03-.16-6.06-.28-9.09-.28v7.84l-4.47 2.41V5.339c-2.59.03-5.19.06-7.75.18l.41 7.85-4.32 2.62-.56-10.18c-3 .18-6.03.43-9.03.78l.88 7.75-4.16 2.87-1.16-10.15c-3 .37-6 .84-9 1.34l1.35 7.66-3.97 3.15-1.75-10.09c-3 .56-5.97 1.19-8.91 1.84l1.81 7.63-3.78 3.34-2.37-9.87c-2.94.71-5.88 1.5-8.78 2.34l2.28 7.47-3.6 3.56-2.93-9.69c-2.88.91-5.75 1.85-8.6 2.88l2.66 7.28-3.34 3.78-3.5-9.53c-2.85 1.09-5.66 2.22-8.44 3.4l3.12 7.1-3.12 4-4.1-9.34c-2.75 1.24-5.5 2.56-8.18 3.9l3.53 6.94-2.88 4.16-4.62-9.04c-2.69 1.41-5.35 2.85-7.97 4.38l3.97 6.69-2.63 4.34-5.15-8.75c-2.6 1.56-5.16 3.19-7.69 4.85l4.31 6.43-2.34 4.47-5.69-8.44c-2.5 1.72-4.94 3.5-7.38 5.32l4.72 6.18-2.09 4.6-6.19-8.13c-2.4 1.88-4.72 3.82-7.03 5.75l5.09 5.91-1.81 4.72-6.66-7.69c-2.28 2-4.53 4.03-6.72 6.12l5.47 5.6-1.53 4.84-7.09-7.31c-2.16 2.16-4.28 4.31-6.31 6.53l5.75 5.25-1.22 4.91-7.57-6.88c-2 2.28-3.96 4.6-5.87 6.94l6.06 4.88-.94 4.96-7.96-6.4c-1.88 2.37-3.69 4.81-5.47 7.25l6.34 4.53-.62 5.03-8.32-5.94c-1.72 2.5-3.43 5-5.06 7.57l6.66 4.15-.35 5.03-8.62-5.37c-1.56 2.56-3.1 5.19-4.6 7.84l6.85 3.72-.03 5.06-8.91-4.84c-1.41 2.66-2.78 5.34-4.09 8.09l7 3.29.28 5.06-9.19-4.31c-1.25 2.74-2.44 5.53-3.59 8.34l7.18 2.87.6 5-9.47-3.75c-.13.35-.28.69-.41 1.07-.97 2.5-1.78 5-2.65 7.5l7.34 2.4.88 5-9.66-3.19c-.94 2.88-1.78 5.79-2.59 8.69l7.53 2 1.15 4.91-9.81-2.6c-.75 2.94-1.47 5.91-2.13 8.85l7.69 1.53 1.47 4.84-9.97-2c-.59 3-1.12 5.97-1.56 8.97l7.72 1.06 1.75 4.75-10.09-1.4c-.38 3-.72 6.03-1 9.03l7.78.62 2.03 4.63-10.19-.81c-.22 3.03-.34 6.06-.44 9.09l7.82.16 2.31 4.5-10.25-.22c-.03 3.03 0 6.06.13 9.09l7.81-.31 2.59 4.34-10.22.41c.16 3.03.35 6.06.63 9.09l7.81-.81 2.81 4.22-10.12 1.03c.31 3 .72 6 1.18 9l7.69-1.25 3.06 4-10.06 1.62c.53 3 1.1 5.97 1.75 8.94l7.6-1.72 3.31 3.85-10 2.22c.72 2.97 1.5 5.9 2.28 8.81l7.5-2.16 3.53 3.63-9.78 2.81c.87 2.91 1.78 5.78 2.78 8.65l7.35-2.59 3.75 3.41-9.6 3.37c1.06 2.85 2.13 5.69 3.28 8.47l7.16-3.03 3.94 3.19-9.35 3.94c1.19 2.78 2.47 5.53 3.78 8.28l6.97-3.47 4.1 2.94-9.13 4.53c1.34 2.72 2.81 5.37 4.28 8l6.78-3.85 4.28 2.69-8.84 5.03c1.53 2.63 3.09 5.22 4.75 7.78l6.53-4.28 4.44 2.41-8.5 5.56c1.65 2.53 3.41 5.03 5.19 7.47l6.25-4.66 4.56 2.16-8.19 6.09c1.85 2.41 3.75 4.75 5.66 7.1l5.97-5 4.69 1.87-7.85 6.6c2 2.28 4.03 4.53 6.1 6.75l5.68-5.38 4.78 1.59-7.4 7.04c2.09 2.15 4.22 4.31 6.43 6.4l5.38-5.75 4.87 1.32-6.96 7.43c2.25 2.06 4.5 4.07 6.81 6.03l5-6.03 4.97 1-6.53 7.88c2.34 1.9 4.75 3.75 7.18 5.56l4.6-6.28 5.03.69-6.07 8.28c2.47 1.75 5 3.44 7.54 5.09l4.21-6.56 5.04.41-5.54 8.59c2.57 1.63 5.16 3.16 7.79 4.69l3.84-6.81 5.06.09-5 8.84c2.66 1.47 5.31 2.91 8.06 4.25l3.41-7.03 5.06-.19-4.43 9.13c2.71 1.28 5.46 2.53 8.28 3.72l2.97-7.16 5.03-.53-3.88 9.38c1.28.53 2.53 1.09 3.84 1.59 1.54.59 3.1 1.09 4.66 1.62l2.5-7.31 5-.81-3.31 9.62c2.87.97 5.78 1.85 8.68 2.69l2.1-7.47 4.94-1.12-2.75 9.87c2.93.78 5.87 1.47 8.81 2.13l1.65-7.63 4.85-1.37-2.13 9.97c2.97.62 5.94 1.18 8.91 1.68l1.22-7.78 4.75-1.65-1.56 10.06c3.03.44 6.03.84 9.03 1.16l.72-7.82 4.68-1.97-.96 10.16c3.03.25 6.06.44 9.09.59l.25-7.84 4.53-2.22-.34 10.22c3.03.06 6.06.06 9.09 0l-.22-7.81 4.41-2.53.25 10.28c3.06-.13 6.06-.32 9.09-.53l-.69-7.85 4.22-2.75.91 10.19c3.03-.31 6.03-.63 9.03-1.06l-1.16-7.75 4.07-3.03 1.5 10.09c3-.47 5.97-1 8.93-1.59l-1.59-7.66 3.88-3.25 2.09 10c2.94-.66 5.91-1.38 8.81-2.16l-2.03-7.5 3.66-3.5 2.68 9.88c2.94-.84 5.82-1.75 8.69-2.69l-2.5-7.41 3.47-3.68 3.25 9.65c2.88-1 5.72-2.03 8.53-3.15l-2.94-7.25 3.22-3.88 3.85 9.41c2.78-1.19 5.56-2.38 8.28-3.66l-3.35-7.03 3-4.09 4.38 9.19c2.72-1.32 5.4-2.72 8.09-4.16l-3.78-6.81 2.72-4.25 4.97 8.93c2.66-1.5 5.22-3.06 7.81-4.65l-4.18-6.6 2.46-4.4 5.47 8.59c2.57-1.62 5.06-3.31 7.57-5.06l-4.63-6.34 2.22-4.57 5.97 8.25c2.44-1.78 4.84-3.62 7.22-5.53l-4.94-6.03 1.94-4.69 6.43 7.91c2.35-1.94 4.63-3.94 6.88-5.97l-5.31-5.75 1.65-4.78 6.97 7.56c2.19-2.09 4.35-4.22 6.47-6.37l-5.66-5.44 1.35-4.88 7.4 7.1c2.07-2.22 4.13-4.44 6.13-6.72l-6-5.13 1.06-4.93 7.78 6.62c1.94-2.31 3.85-4.69 5.69-7.09l-6.25-4.72.75-5 8.16 6.16c1.81-2.44 3.56-4.91 5.25-7.44l-6.5-4.31.47-5.04 8.53 5.66c1.62-2.53 3.19-5.12 4.75-7.75l-6.75-3.91.15-5.06 8.88 5.13c1.47-2.63 2.91-5.32 4.28-8l-6.97-3.5-.15-5.07 9.12 4.6c1.31-2.72 2.63-5.47 3.88-8.25l-7.22-3.1-.44-5.03 9.34 4c.91-2.22 1.88-4.4 2.72-6.65.22-.6.41-1.19.63-1.78l-7.31-2.63-.75-5.03 9.56 3.47c1-2.88 1.94-5.75 2.81-8.66l-7.44-2.19-1.03-4.93 9.75 2.87c.81-2.94 1.6-5.87 2.28-8.81l-7.56-1.75-1.34-4.88 9.96 2.32c.66-2.97 1.22-5.97 1.75-8.94l-7.68-1.28-1.66-4.78 10.13 1.68c.47-3 .87-6 1.22-9l-7.79-.84-1.9-4.69 10.12 1.1c.32-3.03.57-6.07.75-9.07l-7.84-.37-2.19-4.56z"></path>
    <path d="M90.479 231.399c0 76.9 62.35 139.25 139.1 139.25 76.9 0 139.25-62.35 139.25-139.25 0-76.75-62.35-139.1-139.25-139.1-76.75 0-139.1 62.35-139.1 139.1z"></path>
    <path d="M347.359 259.619c15.59-65-24.47-130.32-89.5-145.91-64.97-15.56-130.31 24.5-145.88 89.5-15.59 65 24.47 130.31 89.47 145.91 65 15.56 130.35-24.5 145.91-89.5z"></path>
    <path d="M209.199 350.679c6.63 1.16 13.44 1.81 20.41 1.81 6.94 0 13.75-.65 20.37-1.81-1.81-7.97-10.28-14.25-20.37-14.25-9.97 0-18.6 6.28-20.41 14.25zm0-238.5c6.63-1.16 13.44-1.85 20.41-1.85 6.94 0 13.75.69 20.37 1.85-1.81 7.94-10.28 14.25-20.37 14.25-9.97 0-18.6-6.31-20.41-14.25zm-78.34 189.15c3.87 5.5 8.18 10.79 13.12 15.69 4.94 4.94 10.19 9.28 15.72 13.16 4.35-6.94 2.81-17.35-4.34-24.5-7.03-7.06-17.6-8.69-24.5-4.35zm168.65-168.65c5.5 3.87 10.79 8.22 15.69 13.12 4.94 4.94 9.28 10.22 13.13 15.72-6.91 4.35-17.35 2.82-24.47-4.34-7.06-7.03-8.69-17.56-4.35-24.5zm-189.18 78.34c-1.16 6.66-1.82 13.44-1.82 20.41 0 6.97.66 13.75 1.82 20.4 7.96-1.84 14.28-10.28 14.28-20.4 0-9.94-6.32-18.56-14.28-20.41zm238.53 0c1.15 6.66 1.81 13.44 1.81 20.41 0 6.97-.66 13.75-1.81 20.4-7.97-1.84-14.25-10.28-14.25-20.4 0-9.94 6.28-18.56 14.25-20.41zm-49.1 118.94c5.51-3.88 10.79-8.22 15.69-13.16 4.91-4.93 9.22-10.22 13.1-15.75-6.94-4.31-17.38-2.75-24.5 4.41-7.03 7.06-8.63 17.63-4.29 24.5zm-169.09-168.19c3.84-5.5 8.16-10.78 13.09-15.72 4.91-4.97 10.16-9.31 15.66-13.18 4.34 6.9 2.88 17.34-4.25 24.49-7.03 7.07-17.59 8.75-24.5 4.41zm121.25 100.28l2.13 3.72-2.13 3.72h-4.31l-2.13-3.72 2.13-3.72zm-20.12 5.44l2.15 3.72-2.15 3.69h-4.29l-2.15-3.69 2.15-3.72zm-20.1-5.44l2.13 3.72-2.13 3.72h-4.28l-2.16-3.72 2.16-3.72zm-14.28-14.28l2.13 3.69-2.13 3.72h-4.31l-2.13-3.72 2.13-3.69zm-5.47-20l2.16 3.69-2.16 3.72h-4.28l-2.12-3.72 2.12-3.69zm5.47-20.22l2.13 3.72-2.13 3.72h-4.31l-2.13-3.72 2.13-3.72zm14.28-14.28l2.13 3.72-2.13 3.72h-4.28l-2.16-3.72 2.16-3.72zm20.1-5.44l2.15 3.72-2.15 3.72h-4.29l-2.15-3.72 2.15-3.72zm20.12 5.44l2.13 3.72-2.13 3.72h-4.31l-2.13-3.72 2.13-3.72zm14.28 14.28l2.16 3.72-2.16 3.72h-4.28l-2.16-3.72 2.16-3.72zm5.44 20.13l2.16 3.72-2.16 3.69h-4.28l-2.16-3.69 2.16-3.72zm-5.44 20.09l2.16 3.69-2.16 3.72h-4.28l-2.16-3.72 2.16-3.69z"></path>
    <path d="M229.669 185.399c25.34 0 45.97 20.65 45.97 46 0 25.37-20.63 46-45.97 46-25.37 0-46-20.63-46-46 0-25.35 20.63-46 46-46zm0-5.57c-28.5 0-51.59 23.1-51.59 51.57s23.09 51.56 51.59 51.56c28.47 0 51.53-23.1 51.53-51.56 0-28.47-23.06-51.57-51.53-51.57z"></path>
  </symbol>
  <symbol viewBox="0 0 176 111" xmlns="http://www.w3.org/2000/svg" id="gradient1">
    <path d="M14.608 111H176V0H14.608c-19.477 0-19.477 111 0 111z"></path>
  </symbol>
  <symbol viewBox="0 0 175 111" xmlns="http://www.w3.org/2000/svg" id="gradient2">
    <path d="M0 0h175v111H0z"></path>
  </symbol>
  <symbol viewBox="0 0 175 112" xmlns="http://www.w3.org/2000/svg" id="gradient3">
    <path d="M160.017.669H0v111.253h160.017c19.311 0 19.311-111.253 0-111.253z"></path>
  </symbol>
</svg>