<svg width="86" height="108" viewBox="0 0 86 108" fill="none" xmlns="http://www.w3.org/2000/svg">
<path d="M55.7143 47.8619C55.7143 47.8619 54.0438 35.8032 46.279 24.739C44.7323 22.4081 40.9582 16.7827 40.5251 16.099C40.5251 16.099 34.9258 22.0351 34.9258 29.6495C34.9258 34.5289 42.938 37.7301 47.0524 48.7632C51.1977 59.9206 49.0013 65.4527 45.7222 72.4455C45.1653 73.6576 49.2179 71.9171 49.9294 70.9537C56.302 62.4691 56.0546 51.0009 55.7143 47.8619Z" fill="#888888"/>
<path d="M43.2783 47.5511C40.7416 44.1634 39.5661 44.6607 36.9057 41.1177C33.0697 36.0829 33.2862 33.2236 32.915 31.3899C32.5438 29.5563 26.9136 40.6515 31.4301 47.7065C33.2862 50.5968 35.1733 49.6334 38.5143 53.3629C39.4733 54.4196 43.8352 59.2368 42.9999 65.0176C42.4431 68.8403 39.7208 71.4199 40.7107 72.5076C41.2366 73.0671 42.4121 72.7873 43.0927 72.5698C46.8359 71.3577 47.733 62.6245 47.7949 61.0083C47.8567 59.299 47.733 53.5493 43.2783 47.5511Z" fill="#888888"/>
<path d="M39.7209 58.1491C36.6892 54.0777 34.9259 54.979 31.8943 50.9387C30.0382 48.4213 30.0382 46.0593 29.636 46.4633C28.7698 47.3024 27.5633 52.8967 28.8626 56.8748C30.131 60.8219 32.7605 62.0029 35.4209 64.7378C36.5655 65.8878 38.9166 68.5606 38.7 71.3266C38.6691 71.6685 38.6072 72.4144 38.731 72.4455C39.0403 72.5387 41.1439 69.2443 41.4842 65.2973C41.6079 64.1784 42.0101 61.1637 39.7209 58.1491Z" fill="#888888"/>
<path fill-rule="evenodd" clip-rule="evenodd" d="M84.1439 36.5802L77.3381 35.337C73.6259 34.4046 71.4604 29.1212 73.6259 26.0132L77.3381 20.419C77.9568 19.4866 77.9568 17.9327 77.0288 17.3111L69.9137 10.1629C68.9856 9.23051 67.7482 8.91972 66.5108 9.85209L61.2518 13.5816C57.8489 15.4463 52.5899 13.2708 51.9712 9.5413L50.7338 3.01468C50.4245 1.77152 49.187 0.839142 48.259 0.839142H38.0504C36.813 0.839142 35.8849 1.77152 35.5755 3.01468L34.3381 9.5413C33.4101 13.2708 28.1511 15.4463 25.0576 13.5816L19.4892 9.85209C18.5612 8.91972 17.0144 9.23051 16.3957 10.1629L9.28058 17.3111C8.35252 17.9327 8.04317 19.4866 8.97122 20.419L12.6835 26.0132C14.5396 29.1212 12.3741 34.4046 8.66187 35.337L2.16547 36.5802C0.928058 36.8909 0 37.8233 0 39.0665V49.3226C0 50.255 0.928058 51.4981 2.16547 51.8089L8.66187 53.0521C12.3741 53.6737 14.5396 58.9571 12.6835 62.3758L8.97122 67.6593C8.04317 68.9025 8.35252 70.1456 9.28058 71.078L16.3957 78.2262C17.0144 79.1586 18.5612 79.1586 19.4892 78.537L25.0576 74.8075C28.1511 72.632 33.4101 74.8075 34.3381 78.537L35.5755 85.3744C35.8849 86.6176 36.813 87.2391 38.0504 87.2391H48.259C49.187 87.2391 50.4245 86.6176 50.7338 85.3744L51.9712 78.537C52.5899 74.8075 57.8489 72.632 61.2518 74.8075L66.5108 78.537C67.7482 79.1586 68.9856 79.1586 69.9137 78.2262L77.0288 71.078C77.9568 70.1456 77.9568 68.9025 77.3381 67.6593L73.6259 62.3758C71.4604 58.9571 73.6259 53.6737 77.3381 53.0521L84.1439 51.8089C85.3813 51.4981 86 50.255 86 49.3226V39.0665C86 37.8233 85.3813 36.8909 84.1439 36.5802ZM43 70.7361C28.3367 70.7361 16.4266 58.8017 16.4266 44.0391C16.4266 29.2766 28.3367 17.3732 43 17.3732C57.6633 17.3732 69.5734 29.3076 69.5734 44.0702C69.5734 58.8328 57.6633 70.7361 43 70.7361Z" fill="#5C5D5C"/>
<path d="M23.3227 101.527H21.3756V106.452H18.5767V94.2263H21.3756V99.1691H23.3922L26.591 94.2263H29.5638L25.5827 100.13L29.6855 106.452H26.4867L23.3227 101.527Z" fill="#A9ABAC"/>
<path d="M42.1659 94.2263V106.452H39.3496V101.44H33.8212V106.452H31.0049V94.2263H33.8212V99.0469H39.3496V94.2263H42.1659Z" fill="#A9ABAC"/>
<path d="M56.3064 94.2263V106.452H53.5074V96.5318H48.0138V106.452H45.2149V94.2263H56.3064Z" fill="#A9ABAC"/>
<path d="M66.2422 100.077C66.9492 100.322 67.4997 100.706 67.8937 101.23C68.2994 101.742 68.5022 102.342 68.5022 103.029C68.5022 103.774 68.2588 104.42 67.772 104.968C67.2853 105.515 66.6246 105.934 65.7902 106.225C64.9673 106.516 64.0633 106.662 63.0782 106.662C62.2437 106.662 61.4092 106.557 60.5747 106.347C59.7519 106.138 58.9696 105.818 58.2278 105.387L59.097 103.361C59.6302 103.687 60.2155 103.937 60.8529 104.112C61.5019 104.275 62.1336 104.356 62.7478 104.356C63.5823 104.356 64.2719 104.205 64.8166 103.902C65.3729 103.6 65.6511 103.175 65.6511 102.627C65.6511 102.173 65.4599 101.83 65.0774 101.597C64.7065 101.364 64.1966 101.248 63.5475 101.248H60.5747V99.1167H63.3389C63.9068 99.1167 64.3472 99.0003 64.6602 98.7674C64.9847 98.5345 65.1469 98.2143 65.1469 97.8068C65.1469 97.3294 64.9152 96.9568 64.4516 96.689C63.9996 96.4212 63.4143 96.2873 62.6957 96.2873C62.1626 96.2873 61.612 96.363 61.0441 96.5143C60.4762 96.6541 59.9373 96.8695 59.4274 97.1606L58.5755 94.9599C59.862 94.2962 61.2528 93.9644 62.7478 93.9644C63.6982 93.9644 64.5732 94.1041 65.373 94.3835C66.1726 94.663 66.8101 95.0705 67.2853 95.6061C67.7605 96.1417 67.9981 96.7647 67.9981 97.475C67.9981 98.0571 67.8416 98.5753 67.5287 99.0294C67.2157 99.4835 66.7869 99.8328 66.2422 100.077Z" fill="#A9ABAC"/>
</svg>
