<svg width="133" height="52" viewBox="0 0 133 52" fill="none" xmlns="http://www.w3.org/2000/svg">
<path d="M22.6488 0.996701H29.14V35.3618H22.6488V23.7159H7.28V35.3618H0.788818V0.996701H7.28V17.6542H22.6488V0.996701Z" fill="#C1C1C1"/>
<path d="M35.8251 8.87204C36.207 5.75372 37.782 3.41499 40.5503 1.85583C42.3322 0.805784 44.7187 0.280762 47.7097 0.280762C50.7326 0.280762 53.1349 0.805784 54.9168 1.85583C56.4124 2.71496 57.5897 3.87637 58.4488 5.34007C59.3079 6.77195 59.7375 8.36293 59.7375 10.113C59.7375 11.8949 59.3238 13.4859 58.4965 14.8859C58.1147 15.5541 57.6056 16.2064 56.9692 16.8428C58.0192 17.702 58.8784 18.7997 59.5466 20.1362C60.3103 21.568 60.6921 23.2067 60.6921 25.0523C60.6921 26.8978 60.2784 28.6161 59.4511 30.207C58.6238 31.7662 57.4465 33.039 55.9192 34.0254C53.7873 35.3936 51.0508 36.0778 47.7097 36.0778C44.4005 36.0778 41.6799 35.3936 39.548 34.0254C36.8433 32.3071 35.2842 29.7934 34.8705 26.4842L41.6481 25.3387C41.7117 26.866 42.2845 28.0115 43.3664 28.7752C44.5437 29.6661 45.9915 30.0798 47.7097 30.0161C49.5871 29.9525 51.0349 29.5388 52.0531 28.7752C53.2304 27.9479 53.8191 26.7069 53.8191 25.0523C53.8191 23.3658 53.2304 22.1408 52.0531 21.3771C50.9394 20.5498 49.4916 20.1362 47.7097 20.1362H45.5619V13.9313H47.7097C49.3007 13.8677 50.5098 13.5495 51.3371 12.9768C52.3554 12.3404 52.8645 11.3858 52.8645 10.113C52.8645 8.87204 52.3554 7.93336 51.3371 7.29697C50.4144 6.66058 49.2052 6.34239 47.7097 6.34239C46.2142 6.34239 45.0051 6.66058 44.0823 7.29697C43.1595 7.90154 42.6663 8.8084 42.6027 10.0175L35.8251 8.87204Z" fill="#C1C1C1"/>
<path d="M88.2916 0.996701H94.7828V35.3618H88.2916V23.7159H72.9227V35.3618H66.4315V0.996701H72.9227V17.6542H88.2916V0.996701Z" fill="#C1C1C1"/>
<path d="M132.015 0.996701V35.3618H125.523V7.05833H107.959V35.3618H101.468V0.996701H132.015Z" fill="#C1C1C1"/>
<path d="M6.25586 42.2598H7.38612V51.3989H6.25586V48.0225H1.44275V51.3989H0.3125V42.2598H1.44275V46.9563H6.25586V42.2598Z" fill="#747474"/>
<path d="M12.0794 51.5893C11.0126 51.5893 10.1745 51.2128 9.56488 50.4596C9.03996 49.7911 8.77751 48.9576 8.77751 47.9591C8.77751 46.9521 9.03996 46.1228 9.56488 45.4712C9.85273 45.1158 10.2168 44.8408 10.657 44.6461C11.1057 44.4515 11.5799 44.3542 12.0794 44.3542C13.1631 44.3542 14.0012 44.7265 14.5939 45.4712C15.1273 46.1143 15.3939 46.9436 15.3939 47.9591C15.3939 48.9661 15.1273 49.7996 14.5939 50.4596C13.9928 51.2128 13.1546 51.5893 12.0794 51.5893ZM13.6922 49.7742C14.0224 49.3426 14.1875 48.7376 14.1875 47.9591C14.1875 47.1721 14.0224 46.5713 13.6922 46.1566C13.3366 45.6658 12.799 45.4204 12.0794 45.4204C11.3682 45.4204 10.8348 45.6658 10.4792 46.1566C10.1491 46.5713 9.98396 47.1721 9.98396 47.9591C9.98396 48.7376 10.1491 49.3426 10.4792 49.7742C10.8433 50.265 11.3767 50.5104 12.0794 50.5104C12.7905 50.5104 13.3282 50.265 13.6922 49.7742Z" fill="#747474"/>
<path d="M16.7901 44.5573L20.1428 44.5446C20.7608 44.5446 21.2519 44.7223 21.6159 45.0777C22.0477 45.4416 22.2636 45.9112 22.2636 46.4866C22.2636 46.8928 22.1451 47.2525 21.908 47.5656C21.8487 47.6671 21.7725 47.756 21.6794 47.8321C21.8911 47.9675 22.0646 48.1325 22.2001 48.3272C22.471 48.6403 22.6065 49.0126 22.6065 49.4442C22.6065 50.0534 22.3736 50.5485 21.908 50.9293C21.5609 51.2424 21.1249 51.3989 20.5999 51.3989H16.7901V44.5573ZM17.9331 45.4839V47.5148H20.1428C20.456 47.5148 20.7058 47.3963 20.892 47.1594C21.036 46.9648 21.1079 46.7405 21.1079 46.4866C21.091 46.2412 21.019 46.0255 20.892 45.8393C20.7058 45.6023 20.456 45.4839 20.1428 45.4839H17.9331ZM17.9331 48.4414V50.4723H20.4222C20.7523 50.4723 21.0106 50.3665 21.1968 50.155C21.3661 49.9604 21.4508 49.7234 21.4508 49.4442C21.4677 49.1818 21.3831 48.9534 21.1968 48.7587C21.0021 48.5472 20.71 48.4414 20.3206 48.4414H17.9331Z" fill="#747474"/>
<path d="M26.9259 51.5893C25.8591 51.5893 25.021 51.2128 24.4114 50.4596C23.8865 49.7911 23.624 48.9576 23.624 47.9591C23.624 46.9521 23.8865 46.1228 24.4114 45.4712C24.6992 45.1158 25.0633 44.8408 25.5035 44.6461C25.9523 44.4515 26.4264 44.3542 26.9259 44.3542C28.0096 44.3542 28.8477 44.7265 29.4404 45.4712C29.9738 46.1143 30.2404 46.9436 30.2404 47.9591C30.2404 48.9661 29.9738 49.7996 29.4404 50.4596C28.8393 51.2128 28.0011 51.5893 26.9259 51.5893ZM28.5387 49.7742C28.8689 49.3426 29.034 48.7376 29.034 47.9591C29.034 47.1721 28.8689 46.5713 28.5387 46.1566C28.1831 45.6658 27.6455 45.4204 26.9259 45.4204C26.2147 45.4204 25.6813 45.6658 25.3257 46.1566C24.9956 46.5713 24.8305 47.1721 24.8305 47.9591C24.8305 48.7376 24.9956 49.3426 25.3257 49.7742C25.6898 50.265 26.2232 50.5104 26.9259 50.5104C27.6371 50.5104 28.1747 50.265 28.5387 49.7742Z" fill="#747474"/>
<path d="M31.6366 51.3989V44.5446H32.6653V50.32H34.9893V44.5446H36.0179V50.32H38.3165V44.5446H39.3452V51.3989H31.6366Z" fill="#747474"/>
<path d="M46.6244 51.3989H45.6211V50.3581C45.0454 51.1789 44.1734 51.5893 43.005 51.5893C42.3362 51.5893 41.7901 51.3989 41.3668 51.0181C40.9519 50.6373 40.7445 50.1338 40.7445 49.5076C40.7445 48.636 41.1467 47.9971 41.951 47.591C42.1542 47.4894 42.4082 47.4006 42.7129 47.3244C43.0262 47.2398 43.2844 47.1805 43.4876 47.1467C43.6993 47.1128 44.0464 47.0621 44.529 46.9944C45.02 46.9267 45.3375 46.8801 45.4814 46.8547C45.4645 46.3893 45.3036 46.0381 44.9988 45.8012C44.7025 45.5558 44.3088 45.4331 43.8178 45.4331C43.005 45.4331 42.3616 45.7124 41.8875 46.2709L41.1763 45.5093C41.8536 44.7392 42.7722 44.3542 43.9321 44.3542C44.6602 44.3542 45.2782 44.5784 45.7862 45.0269C46.345 45.4923 46.6244 46.2201 46.6244 47.2102V51.3989ZM45.2274 49.533C45.3121 49.3807 45.3756 49.2072 45.4179 49.0126C45.4603 48.8095 45.4814 48.6318 45.4814 48.4795C45.4899 48.3272 45.4941 48.0945 45.4941 47.7814C44.3681 47.9591 43.6315 48.0902 43.2844 48.1748C42.8696 48.2595 42.5309 48.4076 42.2685 48.6191C42.006 48.8307 41.8748 49.093 41.8748 49.4061C41.8748 49.7615 42.0018 50.0492 42.2558 50.2692C42.5097 50.4892 42.8315 50.5992 43.2209 50.5992C44.1607 50.5992 44.8295 50.2438 45.2274 49.533Z" fill="#747474"/>
<path d="M54.0718 44.5446L51.5446 47.9337L54.1353 51.3989H52.8146L50.897 48.8349L48.9666 51.3989H47.6459L50.2366 47.9337L47.7094 44.5446H49.0174L50.897 47.0198L52.7638 44.5446H54.0718Z" fill="#747474"/>
<path d="M60.6153 44.5446V45.5727H58.2278V51.3989H57.0975V45.5727H54.71V44.5446H60.6153Z" fill="#747474"/>
<path d="M67.5452 44.5446V51.3989H66.4023V46.3724L62.8337 51.3989H61.8177V44.5446H62.9607V49.4949L66.5293 44.5446H67.5452Z" fill="#747474"/>
<path d="M74.0553 44.5446H75.1856V51.3989H74.0553V48.3272H70.4486V51.3989H69.3184V44.5446H70.4486V47.1975H74.0553V44.5446Z" fill="#747474"/>
<path d="M82.7656 46.0678L81.6988 46.5247C81.648 46.3893 81.576 46.2709 81.4829 46.1693C81.1273 45.67 80.5939 45.4204 79.8828 45.4204C79.1716 45.4204 78.6382 45.67 78.2826 46.1693C77.9609 46.5755 77.7916 47.1763 77.7747 47.9717C77.7916 48.7503 77.9609 49.3511 78.2826 49.7742C78.6467 50.265 79.1801 50.5104 79.8828 50.5104C80.5855 50.5104 81.1189 50.265 81.4829 49.7742C81.5591 49.6726 81.6268 49.5584 81.6861 49.4315L82.7656 49.8884C82.6301 50.1254 82.5073 50.3158 82.3973 50.4596C81.7708 51.2297 80.9326 51.6062 79.8828 51.5893C78.8329 51.6062 77.9948 51.2297 77.3683 50.4596C76.8603 49.825 76.5978 48.9957 76.5809 47.9717C76.5978 46.9478 76.8603 46.1143 77.3683 45.4712C77.9694 44.7265 78.8075 44.3542 79.8828 44.3542C80.9495 44.3542 81.7877 44.7265 82.3973 45.4712C82.5581 45.6912 82.6809 45.8901 82.7656 46.0678Z" fill="#747474"/>
<path d="M85.2491 48.4414V51.3989H84.0935L84.1061 44.5446H85.2491V47.5021H85.9603L88.1065 44.5446H89.4145L86.9508 47.9591L89.7574 51.3989H88.4113L85.973 48.4414H85.2491Z" fill="#747474"/>
<path d="M96.3691 44.5446V51.3989H95.2261V46.3724L91.6576 51.3989H90.6416V44.5446H91.7846V49.4949L95.3531 44.5446H96.3691Z" fill="#747474"/>
<path d="M101.939 42.044H102.854C102.854 42.5263 102.684 42.9368 102.346 43.2753C102.007 43.6137 101.601 43.783 101.127 43.783C100.644 43.783 100.233 43.6137 99.8948 43.2753C99.5561 42.9368 99.3868 42.5263 99.3868 42.044H100.301C100.301 42.2725 100.382 42.4671 100.542 42.6279C100.703 42.7887 100.898 42.8691 101.127 42.8691C101.355 42.8691 101.546 42.7887 101.698 42.6279C101.859 42.4671 101.939 42.2725 101.939 42.044ZM103.87 44.5446V51.3989H102.727V46.3724L99.1582 51.3989H98.1423V44.5446H99.2852V49.4949L102.854 44.5446H103.87Z" fill="#747474"/>
<path d="M114.384 42.2598H115.514V51.3989H114.384V48.0225H109.571V51.3989H108.441V42.2598H109.571V46.9563H114.384V42.2598Z" fill="#747474"/>
<path d="M124.97 42.2598V51.3989H123.84V43.326H118.417V51.3989H117.287V42.2598H124.97Z" fill="#747474"/>
<path d="M126.663 44.2272C126.748 43.4995 127.116 42.9325 127.768 42.5263C128.267 42.2217 128.911 42.0694 129.698 42.0694C130.511 42.0694 131.159 42.2217 131.641 42.5263C132.395 43.0087 132.771 43.6857 132.771 44.5573C132.771 45.1835 132.556 45.6997 132.124 46.1058C131.971 46.2666 131.823 46.3936 131.679 46.4866C131.95 46.6643 132.175 46.8717 132.352 47.1086C132.784 47.5486 133 48.1071 133 48.7841C133 49.7488 132.623 50.4892 131.87 51.0054C131.311 51.3947 130.587 51.5893 129.698 51.5893C128.818 51.5893 128.098 51.3947 127.539 51.0054C126.896 50.5739 126.527 49.9604 126.434 49.1649L127.615 48.9618C127.658 49.4611 127.857 49.8377 128.212 50.0915C128.61 50.3877 129.105 50.5273 129.698 50.5104C130.308 50.5104 130.807 50.3708 131.197 50.0915C131.612 49.7953 131.81 49.3595 131.794 48.7841C131.81 48.2087 131.612 47.7771 131.197 47.4894C130.833 47.2186 130.333 47.0748 129.698 47.0578H129.05V45.9662H129.698C130.232 45.9662 130.668 45.852 131.006 45.6235C131.396 45.3866 131.582 45.0311 131.565 44.5573C131.582 44.0918 131.396 43.7322 131.006 43.4783C130.668 43.2499 130.232 43.1356 129.698 43.1356C129.165 43.1356 128.729 43.2499 128.39 43.4783C128.068 43.6899 127.886 44.003 127.844 44.4176L126.663 44.2272Z" fill="#747474"/>
</svg>
