<svg width="143" height="114" viewBox="0 0 143 114" fill="none" xmlns="http://www.w3.org/2000/svg">
<path d="M104.356 44.9312C104.356 63.2928 89.4715 78.1777 71.11 78.1777C52.7485 78.1777 37.8635 63.2928 37.8635 44.9312C37.8635 26.5697 52.7485 11.6848 71.11 11.6848C89.4715 11.6848 104.356 26.5697 104.356 44.9312Z" fill="#888888"/>
<path fill-rule="evenodd" clip-rule="evenodd" d="M71.11 76.7866C88.7033 76.7866 102.965 62.5245 102.965 44.9312C102.965 27.338 88.7033 13.0758 71.11 13.0758C53.5167 13.0758 39.2546 27.338 39.2546 44.9312C39.2546 62.5245 53.5167 76.7866 71.11 76.7866ZM71.11 78.1777C89.4715 78.1777 104.356 63.2928 104.356 44.9312C104.356 26.5697 89.4715 11.6848 71.11 11.6848C52.7485 11.6848 37.8635 26.5697 37.8635 44.9312C37.8635 63.2928 52.7485 78.1777 71.11 78.1777Z" fill="white"/>
<path d="M73.2528 2.37891C71.3609 -0.848367 70.4706 -0.737082 68.5788 2.37891C59.8985 15.288 46.2104 34.6516 46.2104 44.3335C46.2104 51.1219 48.9926 57.3538 53.444 61.8053C57.8954 66.2567 64.1274 69.0388 70.9158 69.0388C77.7042 69.0388 83.9362 66.2567 88.3876 61.8053C92.839 57.3538 95.6211 51.1219 95.6211 44.3335C95.6211 34.5404 81.933 15.288 73.2528 2.37891Z" fill="#5C5D5C"/>
<path fill-rule="evenodd" clip-rule="evenodd" d="M72.0745 3.11946L72.0528 3.0824C71.5926 2.29738 71.249 1.81534 70.9872 1.54276C70.9671 1.5219 70.9486 1.50332 70.9315 1.48678C70.907 1.51006 70.8795 1.53746 70.8488 1.56965C70.5777 1.85451 70.2305 2.33909 69.768 3.10084L69.7512 3.12838L69.7333 3.15512C69.0134 4.2257 68.2608 5.33826 67.4856 6.48406C63.5689 12.2738 59.0782 18.9122 55.3388 25.2715C53.1007 29.0776 51.1526 32.7495 49.7675 36.0475C48.3703 39.3744 47.6016 42.1938 47.6016 44.3335C47.6016 50.7388 50.2271 56.621 54.4277 60.8216C58.6284 65.0223 64.5105 67.6477 70.9159 67.6477C77.3213 67.6477 83.2034 65.0223 87.4041 60.8216C91.6047 56.621 94.2302 50.7388 94.2302 44.3335C94.2302 42.1643 93.4604 39.33 92.064 35.9999C90.6792 32.6974 88.7314 29.0296 86.4936 25.2307C82.8135 18.9837 78.4066 12.477 74.5339 6.7592C73.6926 5.51703 72.8765 4.31209 72.0985 3.15512L72.0745 3.11946ZM68.5789 2.37891C70.4708 -0.737082 71.361 -0.848368 73.2529 2.37891C74.0255 3.52795 74.8378 4.72725 75.6766 5.96566C84.2615 18.6404 95.6212 35.412 95.6212 44.3335C95.6212 51.1219 92.8391 57.3538 88.3877 61.8053C83.9363 66.2567 77.7043 69.0388 70.9159 69.0388C64.1275 69.0388 57.8955 66.2567 53.4441 61.8053C48.9927 57.3538 46.0776 50.5711 46.0776 43.7827C46.0776 34.899 57.735 18.4146 66.3407 5.69381C67.1138 4.55101 67.8634 3.44303 68.5789 2.37891Z" fill="white"/>
<path d="M72.5249 15.2234C71.268 13.0646 70.6764 13.139 69.4195 15.2234C63.6522 23.859 54.5576 36.8122 54.5576 43.2889C54.5576 47.83 56.4061 51.9988 59.3637 54.9766C62.3213 57.9544 66.4619 59.8155 70.9722 59.8155C75.4825 59.8155 79.6231 57.9544 82.5807 54.9766C85.5383 51.9988 87.3868 47.83 87.3868 43.2889C87.3868 36.7378 78.2922 23.859 72.5249 15.2234Z" fill="#5C5D5C"/>
<path fill-rule="evenodd" clip-rule="evenodd" d="M71.3443 15.9604L71.3228 15.9234C71.1942 15.7025 71.0801 15.519 70.9782 15.368C70.8743 15.5177 70.7528 15.7062 70.6107 15.9418L70.5941 15.9693L70.5763 15.996C70.0965 16.7143 69.5955 17.4601 69.0798 18.2275C66.4774 22.1008 63.5035 26.527 61.027 30.7673C59.5451 33.3047 58.2619 35.7414 57.3526 37.9212C56.4314 40.1297 55.9487 41.9486 55.9487 43.2889C55.9487 47.45 57.6429 51.27 60.3507 53.9963C63.0583 56.7224 66.848 58.4244 70.9722 58.4244C75.0964 58.4244 78.8861 56.7224 81.5937 53.9963C84.3015 51.27 85.9957 47.45 85.9957 43.2889C85.9957 41.9284 85.5119 40.0991 84.5915 37.8891C83.6825 35.7065 82.3997 33.2728 80.9179 30.7403C78.4809 26.5751 75.563 22.2375 72.9901 18.4127C72.4303 17.5805 71.8868 16.7726 71.3681 15.996L71.3443 15.9604ZM70.6187 14.9223C70.6187 14.9223 70.6214 14.9241 70.6269 14.9287C70.6215 14.9249 70.6187 14.9223 70.6187 14.9223ZM69.4195 15.2234C70.6764 13.139 71.268 13.0646 72.5249 15.2234C73.0383 15.9921 73.578 16.7944 74.1353 17.6228C79.8392 26.1015 87.3868 37.0321 87.3868 43.0001C87.3868 47.5411 85.5383 51.9988 82.5807 54.9766C79.6231 57.9544 75.4825 59.8155 70.9722 59.8155C66.4619 59.8155 62.3213 57.9544 59.3637 54.9766C56.4061 51.9988 54.5576 47.83 54.5576 43.2889C54.5576 37.3461 62.2146 25.9505 67.9324 17.4409C68.446 16.6765 68.9441 15.9353 69.4195 15.2234Z" fill="white"/>
<path d="M10.2223 99.8002V110.846H8.61194V101.173H1.9403V110.846H0.313477V99.8002H10.2223Z" fill="#5C5D5C"/>
<path d="M22.1571 109.473V110.846H13.8094V99.8002H21.9271V101.173H15.4526V104.566H21.2205V105.907H15.4526V109.473H22.1571Z" fill="#5C5D5C"/>
<path d="M29.2238 99.8002C30.7137 99.8002 31.8859 100.142 32.7404 100.826C33.5949 101.51 34.0221 102.451 34.0221 103.65C34.0221 104.85 33.5949 105.791 32.7404 106.475C31.8859 107.159 30.7137 107.5 29.2238 107.5H26.381V110.846H24.7377V99.8002H29.2238ZM29.1745 106.128C30.2152 106.128 31.0095 105.917 31.5572 105.496C32.105 105.065 32.3789 104.45 32.3789 103.65C32.3789 102.851 32.105 102.241 31.5572 101.82C31.0095 101.389 30.2152 101.173 29.1745 101.173H26.381V106.128H29.1745Z" fill="#5C5D5C"/>
<path d="M43.4725 105.118C44.2503 105.297 44.8364 105.617 45.2308 106.08C45.6362 106.533 45.8388 107.116 45.8388 107.832C45.8388 108.789 45.4718 109.531 44.7379 110.057C44.0148 110.583 42.9577 110.846 41.5664 110.846H36.3079V99.8002H41.2541C42.514 99.8002 43.4944 100.047 44.1956 100.542C44.9076 101.026 45.2637 101.725 45.2637 102.64C45.2637 103.24 45.1048 103.75 44.7871 104.171C44.4804 104.592 44.0422 104.907 43.4725 105.118ZM37.9347 104.66H41.1391C41.9388 104.66 42.5468 104.508 42.9631 104.203C43.3904 103.898 43.604 103.45 43.604 102.861C43.604 102.272 43.3904 101.825 42.9631 101.52C42.5359 101.205 41.9279 101.047 41.1391 101.047H37.9347V104.66ZM41.5335 109.599C43.2973 109.599 44.1791 108.968 44.1791 107.706C44.1791 107.074 43.9546 106.612 43.5054 106.317C43.0672 106.012 42.4099 105.859 41.5335 105.859H37.9347V109.599H41.5335Z" fill="#5C5D5C"/>
<path d="M53.629 103.65C54.9984 103.65 56.0446 103.945 56.7677 104.534C57.5017 105.123 57.8686 105.991 57.8686 107.138C57.8686 108.347 57.4743 109.268 56.6855 109.899C55.9077 110.53 54.7903 110.846 53.3333 110.846H48.5842V99.8002H50.2111V103.65H53.629ZM53.2675 109.599C54.2206 109.599 54.9491 109.394 55.4531 108.984C55.9679 108.563 56.2254 107.958 56.2254 107.169C56.2254 105.654 55.2394 104.897 53.2675 104.897H50.2111V109.599H53.2675ZM59.6927 99.8002H61.3195V110.846H59.6927V99.8002Z" fill="#5C5D5C"/>
<path d="M64.9045 99.8002H66.5313V108.321L73.3344 99.8002H74.8462V110.846H73.2358V102.341L66.4163 110.846H64.9045V99.8002ZM69.8507 99.0271C68.9524 99.0271 68.2567 98.843 67.7638 98.4748C67.2817 98.0961 67.0353 97.5596 67.0243 96.8653H68.191C68.202 97.2756 68.3499 97.5964 68.6347 97.8279C68.9305 98.0488 69.3358 98.1592 69.8507 98.1592C70.3437 98.1592 70.7381 98.0488 71.0339 97.8279C71.3406 97.5964 71.4994 97.2756 71.5104 96.8653H72.6607C72.6497 97.5491 72.3978 98.0803 71.9048 98.459C71.4228 98.8377 70.7381 99.0271 69.8507 99.0271Z" fill="#5C5D5C"/>
<path d="M88.3505 105.086C89.0735 105.276 89.6377 105.607 90.043 106.08C90.4484 106.543 90.651 107.101 90.651 107.753C90.651 108.405 90.4319 108.978 89.9937 109.473C89.5665 109.957 88.9913 110.33 88.2683 110.593C87.5562 110.846 86.7784 110.972 85.9349 110.972C85.168 110.972 84.4066 110.861 83.6507 110.64C82.8949 110.42 82.2047 110.088 81.5802 109.646L82.1554 108.479C82.6593 108.857 83.2235 109.141 83.8479 109.331C84.4724 109.52 85.1023 109.615 85.7377 109.615C86.6579 109.615 87.4302 109.431 88.0547 109.063C88.6791 108.684 88.9913 108.168 88.9913 107.516C88.9913 106.959 88.7558 106.533 88.2847 106.238C87.8137 105.933 87.1509 105.781 86.2964 105.781H83.7329V104.502H86.1814C86.9154 104.502 87.485 104.36 87.8904 104.076C88.3066 103.782 88.5148 103.377 88.5148 102.861C88.5148 102.283 88.2464 101.825 87.7096 101.489C87.1728 101.152 86.4936 100.984 85.672 100.984C85.1352 100.984 84.5874 101.057 84.0287 101.205C83.4809 101.352 82.9606 101.573 82.4676 101.867L81.9417 100.573C82.5224 100.258 83.1359 100.021 83.7822 99.8634C84.4286 99.7056 85.0749 99.6267 85.7213 99.6267C86.5319 99.6267 87.2769 99.7476 87.9561 99.9896C88.6353 100.232 89.1721 100.584 89.5665 101.047C89.9718 101.51 90.1745 102.051 90.1745 102.672C90.1745 103.23 90.0102 103.719 89.6815 104.139C89.3638 104.56 88.9201 104.876 88.3505 105.086Z" fill="#5C5D5C"/>
<path d="M100.866 108.084H94.7526L93.4873 110.846H91.7948L97.0039 99.8002H98.6307L103.856 110.846H102.131L100.866 108.084ZM100.29 106.822L97.8091 101.41L95.3278 106.822H100.29Z" fill="#5C5D5C"/>
<path d="M113.006 105.118C113.784 105.297 114.37 105.617 114.764 106.08C115.17 106.533 115.372 107.116 115.372 107.832C115.372 108.789 115.005 109.531 114.271 110.057C113.548 110.583 112.491 110.846 111.1 110.846H105.842V99.8002H110.788C112.048 99.8002 113.028 100.047 113.729 100.542C114.441 101.026 114.797 101.725 114.797 102.64C114.797 103.24 114.638 103.75 114.321 104.171C114.014 104.592 113.576 104.907 113.006 105.118ZM107.468 104.66H110.673C111.472 104.66 112.08 104.508 112.497 104.203C112.924 103.898 113.138 103.45 113.138 102.861C113.138 102.272 112.924 101.825 112.497 101.52C112.07 101.205 111.462 101.047 110.673 101.047H107.468V104.66ZM111.067 109.599C112.831 109.599 113.713 108.968 113.713 107.706C113.713 107.074 113.488 106.612 113.039 106.317C112.601 106.012 111.944 105.859 111.067 105.859H107.468V109.599H111.067Z" fill="#5C5D5C"/>
<path d="M123.294 110.972C122.133 110.972 121.087 110.73 120.156 110.246C119.224 109.752 118.49 109.073 117.954 108.21C117.428 107.348 117.165 106.385 117.165 105.323C117.165 104.26 117.428 103.298 117.954 102.435C118.49 101.573 119.224 100.9 120.156 100.416C121.087 99.9212 122.133 99.674 123.294 99.674C124.444 99.674 125.485 99.9212 126.416 100.416C127.348 100.9 128.076 101.573 128.602 102.435C129.128 103.287 129.391 104.25 129.391 105.323C129.391 106.396 129.128 107.364 128.602 108.226C128.076 109.078 127.348 109.752 126.416 110.246C125.485 110.73 124.444 110.972 123.294 110.972ZM123.294 109.568C124.138 109.568 124.894 109.383 125.562 109.015C126.241 108.647 126.772 108.142 127.156 107.5C127.55 106.848 127.747 106.122 127.747 105.323C127.747 104.523 127.55 103.803 127.156 103.161C126.772 102.509 126.241 101.999 125.562 101.631C124.894 101.262 124.138 101.078 123.294 101.078C122.451 101.078 121.684 101.262 120.994 101.631C120.314 101.999 119.778 102.509 119.383 103.161C119 103.803 118.808 104.523 118.808 105.323C118.808 106.122 119 106.848 119.383 107.5C119.778 108.142 120.314 108.647 120.994 109.015C121.684 109.383 122.451 109.568 123.294 109.568Z" fill="#5C5D5C"/>
<path d="M142.687 109.473V113.26H141.158V110.846H131.693L131.677 113.26H130.149L130.165 109.473H130.724C131.447 109.431 131.956 108.884 132.252 107.832C132.548 106.769 132.728 105.276 132.794 103.351L132.909 99.8002H140.994V109.473H142.687ZM134.24 103.493C134.186 105.049 134.054 106.338 133.846 107.358C133.649 108.379 133.326 109.084 132.876 109.473H139.367V101.173H134.322L134.24 103.493Z" fill="#5C5D5C"/>
</svg>
