<svg width="12" height="10" viewBox="0 0 12 10" fill="none" xmlns="http://www.w3.org/2000/svg">
<path d="M10.4822 9.5288C10.7274 9.5288 10.9399 9.44784 11.1205 9.28796L8.02978 6.19712C7.95562 6.25022 7.88375 6.30186 7.81585 6.35096C7.58456 6.52137 7.39683 6.65434 7.25269 6.74963C7.10856 6.84514 6.91679 6.94248 6.67742 7.04187C6.43788 7.14138 6.21473 7.19097 6.00772 7.19097H6.00165H5.99559C5.78856 7.19097 5.56541 7.1414 5.32589 7.04187C5.08638 6.94248 4.89461 6.84514 4.75062 6.74963C4.60649 6.65434 4.41887 6.52139 4.18746 6.35096C4.12297 6.30368 4.05145 6.25181 3.97413 6.19629L0.882812 9.28796C1.06342 9.44784 1.27604 9.5288 1.52124 9.5288H10.4822Z" fill="white"/>
<path d="M1.16179 4.36099C0.930519 4.2068 0.725427 4.03021 0.546875 3.8313V8.53377L3.27102 5.80962C2.72604 5.42914 2.02385 4.94682 1.16179 4.36099Z" fill="white"/>
<path d="M10.8487 4.36099C10.0195 4.92222 9.31475 5.40537 8.73438 5.8107L11.4574 8.53388V3.8313C11.2828 4.02621 11.0799 4.20268 10.8487 4.36099Z" fill="white"/>
<path d="M10.4817 0.714355H1.52084C1.20822 0.714355 0.967873 0.819922 0.799502 1.03084C0.630991 1.24185 0.546875 1.50575 0.546875 1.82223C0.546875 2.07787 0.658502 2.35485 0.881657 2.65327C1.10481 2.95157 1.34227 3.18588 1.5939 3.35631C1.73185 3.45377 2.14786 3.74298 2.84193 4.22383C3.2166 4.48347 3.54243 4.70978 3.82243 4.90507C4.06109 5.07136 4.26691 5.21537 4.43685 5.33488C4.45636 5.34856 4.48704 5.37051 4.52776 5.39962C4.57163 5.43113 4.62715 5.47112 4.69564 5.52058C4.82752 5.61596 4.93709 5.69307 5.02436 5.75197C5.1115 5.8109 5.21709 5.87671 5.34096 5.9498C5.46473 6.02278 5.58146 6.07766 5.69103 6.11417C5.80062 6.15065 5.90206 6.16895 5.99539 6.16895H6.00145H6.00751C6.10082 6.16895 6.20228 6.15065 6.31189 6.11417C6.42144 6.07766 6.53808 6.0229 6.66194 5.9498C6.78569 5.87671 6.89114 5.81076 6.97856 5.75197C7.06583 5.69307 7.1754 5.61598 7.30731 5.52058C7.37566 5.47112 7.43117 5.43111 7.47504 5.39972C7.51578 5.37049 7.54644 5.34868 7.56607 5.33488C7.69846 5.24276 7.90476 5.09934 8.18212 4.90675C8.68682 4.55608 9.4301 4.03996 10.4151 3.35631C10.7113 3.14939 10.9588 2.8997 11.1577 2.60758C11.3563 2.31546 11.4558 2.00904 11.4558 1.68842C11.4558 1.42054 11.3593 1.19133 11.1667 1.00041C10.9739 0.809742 10.7455 0.714355 10.4817 0.714355Z" fill="white"/>
</svg>
