<svg width="52" height="56" viewBox="0 0 52 56" fill="none" xmlns="http://www.w3.org/2000/svg">
<path d="M51.4957 33.3223C50.356 31.3168 48.0764 30.3912 44.1686 30.3912C42.2147 30.3912 39.9352 30.5454 37.4928 31.0083C33.9107 27.3058 30.1657 22.0606 27.3977 16.8154C30.3286 5.24518 28.2118 2.62259 27.3977 1.69697C26.4208 0.617077 25.1182 0 23.6527 0C23.0014 0 22.513 0.154271 21.8617 0.308541C20.2334 0.771351 19.0936 1.85124 18.4423 3.39394C17.1398 6.32507 17.9539 11.1074 21.0475 17.4325C19.2565 24.0661 16.3256 31.7796 13.232 38.2589C4.76508 41.9614 0.531632 45.5096 0.0431577 49.3664C-0.119667 50.6005 0.0431627 52.9146 2.97401 55.0744C3.78813 55.6914 4.76507 56 5.74202 56C8.02157 56 10.3011 54.4573 12.7435 51.2176C14.3717 49.0578 16 46.281 17.791 42.7328C23.1643 40.573 29.6772 38.5675 35.3761 37.3333C38.7954 40.4187 42.0519 41.8072 44.8199 41.8072C47.0995 41.8072 49.2162 40.7273 50.5188 38.876C52.4727 36.4077 52.147 34.5565 51.4957 33.3223ZM5.74202 51.3719C4.76507 50.6006 4.76508 50.1377 4.76508 49.9835C4.9279 48.9036 6.71897 46.8981 11.2781 44.4298C7.85874 50.4463 6.06767 51.2176 5.74202 51.3719ZM22.8386 5.24518C23.0014 4.93664 23.1643 4.78237 23.3271 4.78237C23.4899 4.78237 23.4899 4.78237 23.4899 4.78237C23.8156 5.24518 24.1412 7.09642 23.4899 11.416C22.6758 8.79339 22.1873 6.47934 22.8386 5.24518ZM18.9308 37.3333C21.0475 32.3967 23.1643 26.9972 24.6297 21.9063C27.0721 26.0716 30.0029 29.9284 32.7709 33.168C28.2118 34.2479 23.3271 35.6364 18.9308 37.3333ZM46.611 36.2534C45.9597 37.1791 45.3084 37.1791 44.8199 37.1791C43.6802 37.1791 42.0519 36.4077 40.4237 35.1735C41.8891 35.0193 43.1917 34.865 44.1686 34.865C46.1225 34.865 46.7738 35.1736 47.0995 35.3278C46.9367 35.6364 46.9367 35.9449 46.611 36.2534Z" fill="#494949"/>
</svg>
