<?xml version="1.0" encoding="UTF-8" standalone="no"?>
<svg
   xmlns:dc="http://purl.org/dc/elements/1.1/"
   xmlns:cc="http://creativecommons.org/ns#"
   xmlns:rdf="http://www.w3.org/1999/02/22-rdf-syntax-ns#"
   xmlns:svg="http://www.w3.org/2000/svg"
   xmlns="http://www.w3.org/2000/svg"
   xmlns:sodipodi="http://sodipodi.sourceforge.net/DTD/sodipodi-0.dtd"
   xmlns:inkscape="http://www.inkscape.org/namespaces/inkscape"
   inkscape:version="1.0beta1 (32d4812, 2019-09-19)"
   sodipodi:docname="вввввввввв.svg"
   version="1.1"
   id="tanker"
   viewBox="0 0 669.966 179.776"
   fill="none">
  <metadata
     id="metadata1616">
    <rdf:RDF>
      <cc:Work
         rdf:about="">
        <dc:format>image/svg+xml</dc:format>
        <dc:type
           rdf:resource="http://purl.org/dc/dcmitype/StillImage" />
      </cc:Work>
    </rdf:RDF>
  </metadata>
  <defs
     id="defs1614" />
  <sodipodi:namedview
     inkscape:current-layer="tanker"
     inkscape:window-maximized="1"
     inkscape:window-y="23"
     inkscape:window-x="0"
     inkscape:cy="113.22347"
     inkscape:cx="608.96727"
     inkscape:zoom="5.6273317"
     showgrid="false"
     id="namedview1612"
     inkscape:window-height="786"
     inkscape:window-width="1440"
     inkscape:pageshadow="2"
     inkscape:pageopacity="0"
     guidetolerance="10"
     gridtolerance="10"
     objecttolerance="10"
     borderopacity="1"
     inkscape:document-rotation="0"
     bordercolor="#666666"
     pagecolor="#ffffff" />
  <path
     inkscape:connector-curvature="0"
     d="m 147.14929,122.43827 h -3.54567 c -19.30978,0 -19.30978,-111.242926 0,-111.242926 h 3.54567 z"
     stroke="white"
     stroke-width="0.5"
     stroke-miterlimit="10"
     id="path10" />
  <path
     inkscape:connector-curvature="0"
     d="m 143.49347,122.43904 -1.0191,-0.12171 V 17.182777 h 1.0191 z"
     stroke="white"
     stroke-width="0.5"
     stroke-miterlimit="10"
     id="path12" />
  <path
     inkscape:connector-curvature="0"
     d="M 504.97183,3.7241653 V 5.541994 h 26.55673 V 3.7241653 c 0,-0.4040203 -0.32275,-0.7271671 -0.72716,-0.7271671 h -25.11088 c -0.39516,0 -0.71869,0.3231468 -0.71869,0.7271671 z"
     stroke="white"
     stroke-width="0.5"
     stroke-miterlimit="10"
     id="path14" />
  <path
     inkscape:connector-curvature="0"
     d="M 253.08503,3.7241653 V 5.541994 h 26.55672 V 3.7241653 c 0,-0.4040203 -0.32276,-0.7271671 -0.72715,-0.7271671 h -25.11011 c -0.39593,0 -0.71946,0.3231468 -0.71946,0.7271671 z"
     stroke="white"
     stroke-width="0.5"
     stroke-miterlimit="10"
     id="path16" />
  <path
     inkscape:connector-curvature="0"
     d="M 438.79107,135.60263 H 293.333 l -9.27514,-10.34508 h 383.6837 v 10.34508 h -92.14745"
     stroke="white"
     stroke-width="0.5"
     stroke-miterlimit="10"
     id="path18" />
  <path
     inkscape:connector-curvature="0"
     d="m 586.30662,154.77991 0.0185,-0.0185 0.73178,-0.70327 4.37297,-4.16653 14.9838,-14.28976 h -22.18068 c -1.65151,-1.85796 -3.52795,-3.50948 -5.59235,-4.91681 -3.78138,-0.009 -7.79693,0 -12.00043,0 -36.44271,0 -86.82855,0.009 -118.82356,0.009 h -12.07593 c -9.64565,0 -16.22244,0 -18.13663,-0.009 v 14.23354 l 3.36543,2.97488 v 15.47602 h 2.30626 v -13.43782 l 4.1519,3.66661 0.70405,0.61932 0.0185,0.0185"
     stroke="white"
     stroke-width="0.5"
     stroke-miterlimit="10"
     id="path20" />
  <path
     inkscape:connector-curvature="0"
     d="m 312.91623,129.67674 v 33.69275 h 108.69725 v -7.31011 c 0,-9.37528 4.22122,-17.77998 10.85886,-23.41546 1.29255,-1.10153 2.67601,-2.09521 4.13726,-2.96718 z"
     stroke="white"
     stroke-width="0.5"
     stroke-miterlimit="10"
     id="path22" />
  <path
     inkscape:connector-curvature="0"
     d="m 303.50091,136.20037 h -6.87567 c -0.4899,0 -0.88661,-0.3967 -0.88661,-0.88584 v -6.87566 c 0,-0.48991 0.39671,-0.88661 0.88661,-0.88661 h 6.87567 c 0.48913,0 0.88661,0.3967 0.88661,0.88661 v 6.87566 c 0,0.48914 -0.39748,0.88584 -0.88661,0.88584 z"
     stroke="white"
     stroke-width="0.5"
     stroke-miterlimit="10"
     id="path24" />
  <path
     inkscape:connector-curvature="0"
     d="m 306.53432,162.28028 -2.98951,-2.3132 h -6.96348 l -2.98951,2.3132 h -2.3756 v 1.21631 h 17.6937 v -1.21631 z"
     stroke="white"
     stroke-width="0.5"
     stroke-miterlimit="10"
     id="path26" />
  <path
     inkscape:connector-curvature="0"
     d="m 302.55421,149.12748 h -4.98305 v -17.48572 c 0,-1.06147 0.86043,-1.92188 1.92189,-1.92188 h 1.13927 c 1.06146,0 1.92189,0.86041 1.92189,1.92188 z"
     stroke="white"
     stroke-width="0.5"
     stroke-miterlimit="10"
     id="path28" />
  <path
     inkscape:connector-curvature="0"
     d="M 302.11591,149.12748 H 298.011 v 10.8396 h 4.10491 z"
     stroke="white"
     stroke-width="0.5"
     stroke-miterlimit="10"
     id="path30" />
  <path
     inkscape:connector-curvature="0"
     d="m 667.74156,137.04616 h 1.01602 c 1.41041,0 1.41041,-7.00662 0,-7.00662 h -1.01602 z"
     stroke="white"
     stroke-width="0.5"
     stroke-miterlimit="10"
     id="path32" />
  <path
     inkscape:connector-curvature="0"
     d="m 667.74156,125.25755 h -3.32767 v 15.19023 h 3.32767 z"
     stroke="white"
     stroke-width="0.5"
     stroke-miterlimit="10"
     id="path34" />
  <path
     inkscape:connector-curvature="0"
     d="m 667.74156,150.00716 h -3.32767 v 8.65196 h 3.32767 z"
     stroke="white"
     stroke-width="0.5"
     stroke-miterlimit="10"
     id="path36" />
  <path
     inkscape:connector-curvature="0"
     d="m 666.85418,140.44778 h -1.55368 v 12.37327 h 1.55368 z"
     stroke="white"
     stroke-width="0.5"
     stroke-miterlimit="10"
     id="path38" />
  <path
     inkscape:connector-curvature="0"
     d="M 641.04464,125.25755 H 144.46173 l -0.93822,-2.81928 h 497.52113 z"
     stroke="white"
     stroke-width="0.5"
     stroke-miterlimit="10"
     id="path40" />
  <path
     inkscape:connector-curvature="0"
     d="M 640.67875,5.2093421 H 142.47437 V 17.183086 h 498.20438 z"
     stroke="white"
     stroke-width="0.5"
     stroke-miterlimit="10"
     id="path42" />
  <path
     inkscape:connector-curvature="0"
     d="m 136.30275,115.77597 h -4.98226 V 98.520567 h 0.1502 c 1.15391,6.999683 2.76844,13.014153 4.83206,17.255403 z"
     stroke="white"
     stroke-width="0.5"
     stroke-miterlimit="10"
     id="path44" />
  <path
     inkscape:connector-curvature="0"
     d="m 296.57517,95.657382 h 2.81698 c 1.76012,0 3.18671,1.426588 3.18671,3.186715 v 12.367873 h 72.92546 V 98.844097 c 0,-1.760127 1.42659,-3.186715 3.18672,-3.186715 h 2.81697 c 1.76013,0 3.18671,1.426588 3.18671,3.186715 v 12.367873 h 72.9247 V 98.844097 c 0,-1.760127 1.42736,-3.186715 3.18672,-3.186715 h 2.81774 c 1.76013,0 3.18671,1.426588 3.18671,3.186715 v 12.367873 h 72.9247 V 98.844097 c 0,-1.760127 1.42659,-3.186715 3.18672,-3.186715 h 2.81774 c 1.75936,0 3.18594,1.426588 3.18594,3.186715 v 12.367873 h 72.92548 V 98.844097 c 0,-1.760127 1.42659,-3.186715 3.18672,-3.186715 h 2.81697 c 1.76013,0 3.18671,1.426588 3.18671,3.186715 v 12.367873 6.51439 7.53581 H 293.38845 v -7.53581 -6.51439 -12.367873 c 0,-1.760127 1.42659,-3.186715 3.18672,-3.186715 z"
     stroke="white"
     stroke-width="0.5"
     stroke-miterlimit="10"
     id="path46" />
  <path
     inkscape:connector-curvature="0"
     d="m 639.6142,115.67429 h -44.11256 l -2.81465,6.56755 v 28.95311 h 49.74264 v -28.95311 z"
     stroke="white"
     stroke-width="0.5"
     stroke-miterlimit="10"
     id="path48" />
  <path
     inkscape:connector-curvature="0"
     d="m 93.235504,161.73723 v 1.31489 h 6.117691 V 129.65748 H 111.9329 L 111.94831,46.93993 109.5396,7.2672259 105.43315,0.38483911 75.793008,8.4142665 C 15.802111,9.0871962 12.705058,15.678852 5.7309907,46.93993 H 4.721587 c -1.3764573,0 -2.4929167,1.116468 -2.4929167,2.492909 v 4.358799 c 0,1.422353 1.1546506,2.5771 2.5769868,2.5771 H 20.619697 l -0.07649,1.14705 -2.026496,29.380245 -0.07633,1.153906 v 0.02312 L 5.0962359,90.39782 4.0562438,90.795291 C 2.763949,91.292908 1.9074876,92.531536 1.9074876,93.915763 v 17.496507 c -0.94062388,0.47373 -1.52939971,1.42967 -1.52939971,2.47727 v 13.00028 c 0.0153287,1.37652 1.23111801,2.44647 2.60757541,2.44647 h 1.4070458 v 4.77197 H 3.5286527 c -1.3152805,0.008 -2.3858611,1.07843 -2.3858611,2.39332 v 0.71946 l 0.5352864,0.38206 v 10.72098 l -0.5352864,0.38207 v 1.52981 l 0.5352864,0.38206 v 3.98397 l -0.5276912,0.38284 c 0.061239,0.38207 0.07649,0.50454 0.1988288,0.92512 0.558272,1.90418 2.2176206,3.34926 4.2823991,3.57881 l 33.5016083,3.49483 v -1.24634 M 61.171931,78.728604 20.505076,85.825347 22.401468,58.280481 h 38.770463 z"
     stroke="white"
     stroke-width="0.5"
     stroke-miterlimit="10"
     id="path50" />
  <path
     inkscape:connector-curvature="0"
     d="m 18.456089,134.11518 -0.01618,26.71079 -12.8087142,-1.33801 c -2.0647785,-0.22955 -3.7241349,-1.67462 -4.2824069,-3.5788 -0.1223538,-0.42057 -0.1375518,-0.54305 -0.1988211,-0.92511 l 0.5276912,-0.38284 v -3.98398 l -0.535294,-0.38207 v -1.5298 l 0.535294,-0.38207 v -10.72098 l -0.535294,-0.38206 v -0.71946 c 0,-1.31489 1.0705805,-2.38561 2.385861,-2.39331 z"
     stroke="white"
     stroke-width="0.5"
     stroke-miterlimit="10"
     id="path52" />
  <path
     inkscape:connector-curvature="0"
     d="M 25.710429,84.270096 V 59.731772 c 0,-0.876981 -0.656832,-1.493371 -1.288089,-1.208979 -1.380524,0.621866 -4.385681,1.405407 -4.385681,5.627325 V 79.85168 c 0,4.671839 5.67377,7.404078 5.67377,4.418416 z"
     stroke="white"
     stroke-width="0.5"
     stroke-miterlimit="10"
     id="path54" />
  <path
     style="stroke-width:0.770296"
     inkscape:connector-curvature="0"
     d="m 96.976061,118.57061 c -2.05823,2.3132 -3.435519,3.85687 -3.849939,4.31365 l -9.655661,-7.7e-4 -5.841155,-7.7e-4 c -13.253713,0 -13.371568,0.0138 -14.498358,0.14251 l -0.375134,0.0416 c -8.145111,0.83654 -15.900143,4.77429 -21.311318,10.81419 l -2.010319,-7.7e-4 -12.919328,-0.003 -21.5073358,-0.005 v -4.30134 c 7.4622198,0.002 13.2038528,0.0462 17.8354888,0.0824 2.996221,0.0231 5.451848,0.0423 7.480961,0.0423 8.663519,0 9.730918,-0.34817 11.835984,-2.30627 5.754188,-5.34739 13.92287,-8.80216 20.810703,-8.80216 l 0.246264,0.002 h 0.615774 c 13.351387,-0.002 28.946801,-0.008 33.143373,-0.0185 z m 1.049914,-0.47451 c -0.265752,0.0192 -34.519739,0.0239 -34.809369,0.0239 -0.08165,-7.7e-4 -0.163997,-0.002 -0.246033,-0.002 -7.022713,0 -15.261953,3.4748 -21.130068,8.92772 -1.973807,1.83562 -2.879906,2.18071 -11.516542,2.18071 -5.180626,0 -13.142329,-0.12401 -25.7855986,-0.12479 v 5.23956 c 35.9439546,0.008 28.5601286,0.006 37.1165756,0.008 5.447072,-6.16391 13.151727,-9.99537 21.148787,-10.8165 1.584345,-0.16408 0.246109,-0.1818 14.825579,-0.1818 3.944686,0 9.053289,0.002 15.701715,0.002 0.169465,-0.16715 4.536274,-5.07933 4.694954,-5.25727 z"
     fill="white"
     id="path56" />
  <path
     inkscape:connector-curvature="0"
     d="M 230.46143,129.65748 H 99.337789 v 33.4709 l 122.537931,0.16023 v -1.3149"
     stroke="white"
     stroke-width="0.5"
     stroke-miterlimit="10"
     id="path58" />
  <path
     inkscape:connector-curvature="0"
     d="m 125.53402,129.65748 v 33.69275 h 89.93129 v -7.31088 c 0,-9.37528 4.22122,-17.77921 10.85886,-23.41469 1.29256,-1.10152 2.67678,-2.09598 4.13726,-2.96718 z"
     stroke="white"
     stroke-width="0.5"
     stroke-miterlimit="10"
     id="path60" />
  <path
     inkscape:connector-curvature="0"
     d="m 190.35828,125.23829 v 2.56816 h 6.10228 v 1.85103 h 20.26418 v -1.85103 h 11.44891 l 5.6301,-2.56816 z"
     stroke="white"
     stroke-width="0.5"
     stroke-miterlimit="10"
     id="path62" />
  <path
     inkscape:connector-curvature="0"
     d="m 124.76912,129.65748 h -24.68184 v 33.69275 h 24.68184 z"
     stroke="white"
     stroke-width="0.5"
     stroke-miterlimit="10"
     id="path64" />
  <path
     inkscape:connector-curvature="0"
     d="m 93.235504,161.74107 v -5.456 c 0,-7.4711 -3.028034,-14.23122 -7.922495,-19.13338 -4.901393,-4.89369 -11.661511,-7.92172 -19.132613,-7.92172 -14.934653,0 -27.047558,12.1129 -27.047558,27.0551 v 5.456"
     stroke="white"
     stroke-width="0.5"
     stroke-miterlimit="10"
     id="path66" />
  <path
     inkscape:connector-curvature="0"
     d="m 18.447307,134.10824 -0.0077,26.7185 14.575156,1.49129 v -6.03373 c 0,-8.511 3.219453,-16.28791 8.518858,-22.16912 z"
     stroke="white"
     stroke-width="0.5"
     stroke-miterlimit="10"
     id="path68" />
  <path
     inkscape:connector-curvature="0"
     d="m 116.94599,129.65748 h -5.00847 v -26.73082 h 1.07456 c 2.17301,0 3.93391,1.7609 3.93391,3.9339 z"
     stroke="white"
     stroke-width="0.5"
     stroke-miterlimit="10"
     id="path70" />
  <path
     inkscape:connector-curvature="0"
     d="m 131.32049,108.13078 h -14.3745 v 7.66753 h 14.3745 z"
     stroke="white"
     stroke-width="0.5"
     stroke-miterlimit="10"
     id="path72" />
  <path
     inkscape:connector-curvature="0"
     d="m 561.57626,125.32765 v -0.006 H 453.18329 c -17.08131,-0.0508 -30.82571,13.82142 -30.82571,30.71787 v 8.49636 h 5.65936 v -8.00183 c 0,-13.92002 11.29332,-25.59309 25.16635,-25.5384 h 108.04018 c 13.87303,-0.0547 25.16634,11.61838 25.16634,25.5384 v 8.00183 h 4.25126 c 0.77723,0 1.40733,-0.6301 1.40733,-1.40733 v -7.08903 c 0,-16.85793 -13.65118,-30.5823 -30.47214,-30.7117 z"
     stroke="white"
     stroke-width="0.5"
     stroke-miterlimit="10"
     id="path74" />
  <path
     inkscape:connector-curvature="0"
     d="m 453.12397,127.76949 c -14.89983,-0.0254 -27.82848,10.86964 -28.4193,28.83833 -0.0709,1.14543 -0.0632,6.61839 0.0331,7.92712 l 0.92358,-0.002 c 0,-0.8296 2.34633,-1.58064 2.34016,-2.2793 -0.006,-0.69866 -0.007,-3.40856 0.0177,-4.02711 0.0123,-0.30581 0.0331,-2.54429 0.064,-2.84162 0.71022,-13.92926 12.00275,-24.43533 25.1001,-24.39605 l 106.8778,-7.7e-4 c 0.40055,-0.002 1.95964,0.0162 2.35094,0.0532 12.38868,0.58543 22.95483,10.59928 23.85916,23.89074 0.0593,0.4406 0.0978,2.27545 0.11631,2.73531 0.0316,0.78724 0.0231,4.23432 0.0123,5.1633 -0.005,0.53227 1.73393,1.09613 1.73393,1.70235 h 0.76413 c 0.41519,-0.31968 0.7418,-0.949 0.76876,-1.64689 0.0423,-1.08458 0.0555,-5.64781 -0.003,-6.6076 -0.58619,-18.02339 -13.57493,-28.44087 -28.2637,-28.50712 -59.99451,0 -107.79831,-0.002 -108.2759,-0.002 z"
     stroke="white"
     stroke-width="0.5"
     stroke-miterlimit="10"
     id="path76" />
  <path
     inkscape:connector-curvature="0"
     d="m 561.22347,130.22288 c -119.98979,0 -107.20441,-0.003 -108.1588,-0.003 -14.24894,0 -27.73682,9.93604 -25.9482,34.31668 l 0.9051,-0.004 c 0,-3.32228 -0.0978,-6.01216 -7.7e-4,-8.48558 0.0246,-0.61161 0.0671,-1.21553 0.12787,-1.8102 1.42119,-13.93773 12.71219,-23.27757 25.03462,-23.25292 l 108.04018,-0.002 c 12.80077,-0.0262 24.5686,10.08549 25.16172,25.05002 0.0978,2.47805 0,5.17177 0,8.50022 h 0.76875 c 2.11909,-25.25646 -11.7601,-34.31283 -25.93047,-34.30975 z"
     stroke="white"
     stroke-width="0.5"
     stroke-miterlimit="10"
     id="path78" />
  <path
     inkscape:connector-curvature="0"
     d="m 277.65131,141.57935 v -3.29609 c 0,-1.58759 -1.28717,-2.87475 -2.87552,-2.87475 h -5.07702 c -5.62085,-6.20243 -13.73437,-10.08703 -22.75762,-10.08703 -8.46556,0 -16.1431,3.44553 -21.70463,9.00785 -2.78001,2.78076 -5.03158,6.0915 -6.58835,9.76504 -1.55677,3.67354 -2.41796,7.71066 -2.41796,11.94575 v 8.49559 h 5.65937 v -8.00107 c 0,-7.02201 2.8732,-13.47401 7.50114,-18.13661 4.62871,-4.66337 11.01216,-7.53812 18.03263,-7.40563 6.80556,0.12864 12.94791,2.97026 17.38867,7.49036 4.44075,4.51933 7.18069,10.71713 7.18069,17.55736 v 8.49559 h 3.74672 c 1.05608,0 1.91188,-0.8558 1.91188,-1.91187 0,-3.92004 0,-7.2354 0,-10.54305 0,-3.30842 0,-6.6099 0,-10.50144 z"
     stroke="white"
     stroke-width="0.5"
     stroke-miterlimit="10"
     id="path80" />
  <path
     inkscape:connector-curvature="0"
     d="m 66.180243,123.1115 c -18.284055,0 -33.165173,14.88058 -33.165173,33.1728 v 6.03296 l 6.11769,0.66554 v -6.6985 c 0,-14.9422 12.112906,-27.0551 27.047483,-27.0551 6.235391,0 11.970553,2.11445 16.548423,5.65705 l 10.503757,-11.76704 c -0.0015,0 -27.05195,-0.008 -27.05218,-0.008 z"
     stroke="white"
     stroke-width="0.5"
     stroke-miterlimit="10"
     id="path82" />
  <path
     inkscape:connector-curvature="0"
     d="m 66.18032,123.28328 c -18.188924,0 -32.992397,14.80355 -32.992397,33.00025 l 5.4e-4,6.05221 5.944375,0.64628 v -6.69849 c 0,-14.9422 12.112905,-27.0551 27.047558,-27.0551 6.235315,0 11.971171,2.11445 16.54827,5.65705 l 10.182543,-11.40732 c -0.168694,-0.11631 -26.507042,-0.19488 -26.730889,-0.19488 z"
     stroke="white"
     stroke-width="0.5"
     stroke-miterlimit="10"
     id="path84" />
  <path
     inkscape:connector-curvature="0"
     d="m 122.41123,144.97635 h -20.00921 v 12.13756 h 20.00921 z"
     stroke="white"
     stroke-width="0.5"
     stroke-miterlimit="10"
     id="path86" />
  <path
     inkscape:connector-curvature="0"
     d="m 102.40202,144.97712 v 12.13679 h 4.96533 v -12.13679 z"
     stroke="white"
     stroke-width="0.5"
     stroke-miterlimit="10"
     id="path88" />
  <path
     inkscape:connector-curvature="0"
     d="m 122.41123,157.11391 v -12.13756 h -4.96533 v 12.13756 z"
     stroke="white"
     stroke-width="0.5"
     stroke-miterlimit="10"
     id="path90" />
  <path
     inkscape:connector-curvature="0"
     d="m 122.41123,131.25892 h -20.00921 v 12.09057 h 20.00921 z"
     stroke="white"
     stroke-width="0.5"
     stroke-miterlimit="10"
     id="path92" />
  <path
     inkscape:connector-curvature="0"
     d="m 102.40202,131.25892 v 12.0898 h 4.96533 v -12.0898 z"
     stroke="white"
     stroke-width="0.5"
     stroke-miterlimit="10"
     id="path94" />
  <path
     inkscape:connector-curvature="0"
     d="m 122.41123,143.34949 v -12.09057 h -4.96533 v 12.09057 z"
     stroke="white"
     stroke-width="0.5"
     stroke-miterlimit="10"
     id="path96" />
  <path
     inkscape:connector-curvature="0"
     d="m 122.41123,158.70457 h -20.00921 v 4.64566 h 20.00921 z"
     stroke="white"
     stroke-width="0.5"
     stroke-miterlimit="10"
     id="path98" />
  <path
     inkscape:connector-curvature="0"
     d="m 102.40202,158.70457 v 4.64566 h 4.96533 v -4.64566 z"
     stroke="white"
     stroke-width="0.5"
     stroke-miterlimit="10"
     id="path100" />
  <path
     inkscape:connector-curvature="0"
     d="m 122.41123,163.35023 v -4.64566 h -4.96533 v 4.64566 z"
     stroke="white"
     stroke-width="0.5"
     stroke-miterlimit="10"
     id="path102" />
  <path
     inkscape:connector-curvature="0"
     d="m 122.41123,143.3857 h -20.00921 v 1.59142 h 20.00921 z"
     stroke="white"
     stroke-width="0.5"
     stroke-miterlimit="10"
     id="path104" />
  <path
     inkscape:connector-curvature="0"
     d="m 122.41123,129.65748 h -20.00921 v 1.59066 h 20.00921 z"
     stroke="white"
     stroke-width="0.5"
     stroke-miterlimit="10"
     id="path106" />
  <path
     inkscape:connector-curvature="0"
     d="m 122.41123,157.11391 h -20.00921 v 1.59143 h 20.00921 z"
     stroke="white"
     stroke-width="0.5"
     stroke-miterlimit="10"
     id="path108" />
  <path
     inkscape:connector-curvature="0"
     d="M 32.089944,146.89825 H 21.550908 v 10.12784 h 10.539036 z"
     stroke="white"
     stroke-width="0.5"
     stroke-miterlimit="10"
     id="path110" />
  <path
     inkscape:connector-curvature="0"
     d="m 21.550908,146.89825 v 10.12784 h 2.615309 v -10.12784 z"
     stroke="white"
     stroke-width="0.5"
     stroke-miterlimit="10"
     id="path112" />
  <path
     inkscape:connector-curvature="0"
     d="m 32.090021,157.02609 v -10.12784 h -2.615386 v 10.12784 z"
     stroke="white"
     stroke-width="0.5"
     stroke-miterlimit="10"
     id="path114" />
  <path
     inkscape:connector-curvature="0"
     d="M 32.089944,135.45241 H 21.550908 v 10.08857 h 10.539036 z"
     stroke="white"
     stroke-width="0.5"
     stroke-miterlimit="10"
     id="path116" />
  <path
     inkscape:connector-curvature="0"
     d="m 21.550908,135.45164 v 10.08857 h 2.615309 v -10.08857 z"
     stroke="white"
     stroke-width="0.5"
     stroke-miterlimit="10"
     id="path118" />
  <path
     inkscape:connector-curvature="0"
     d="m 32.090021,145.54098 v -10.08857 h -2.615386 v 10.08857 z"
     stroke="white"
     stroke-width="0.5"
     stroke-miterlimit="10"
     id="path120" />
  <path
     inkscape:connector-curvature="0"
     d="M 32.089944,145.57025 H 21.550908 v 1.328 h 10.539036 z"
     stroke="white"
     stroke-width="0.5"
     stroke-miterlimit="10"
     id="path122" />
  <path
     inkscape:connector-curvature="0"
     d="M 32.089944,134.11518 H 21.550908 v 1.32799 h 10.539036 z"
     stroke="white"
     stroke-width="0.5"
     stroke-miterlimit="10"
     id="path124" />
  <path
     inkscape:connector-curvature="0"
     d="M 32.089944,157.02609 H 21.550908 v 1.32723 h 10.539036 z"
     stroke="white"
     stroke-width="0.5"
     stroke-miterlimit="10"
     id="path126" />
  <path
     inkscape:connector-curvature="0"
     d="m 654.42084,45.884162 h 8.17129 v -2.112999 h -8.38467 z"
     stroke="white"
     stroke-width="0.5"
     stroke-miterlimit="10"
     id="path128" />
  <path
     inkscape:connector-curvature="0"
     d="m 654.57721,86.031765 h 8.01492 v 2.112915 h -8.20365 z"
     stroke="white"
     stroke-width="0.5"
     stroke-miterlimit="10"
     id="path130" />
  <path
     inkscape:connector-curvature="0"
     d="m 9.6918148,148.62987 -1.5752555,4.44229 c -0.3287623,0.9182 -1.1929501,1.52981 -2.1641625,1.52981 H 1.6777776 V 150.618 Z"
     stroke="white"
     stroke-width="0.5"
     stroke-miterlimit="10"
     id="path132" />
  <path
     inkscape:connector-curvature="0"
     d="m 8.1166364,153.07216 1.5753326,-4.44229 -4.9603451,1.23016 c -0.070251,0.52996 -0.1172852,1.11539 -0.1172852,1.7532 0,1.19935 0.1672082,2.21229 0.3539202,2.98874 H 5.95252 c 0.9712201,0 1.835354,-0.61161 2.1641164,-1.52981 z"
     stroke="white"
     stroke-width="0.5"
     stroke-miterlimit="10"
     id="path134" />
  <path
     inkscape:connector-curvature="0"
     d="m 1.6777776,151.79963 6.2202488,-1.54289 -0.8612685,2.42874 C 6.8718145,153.14534 6.4360734,153.455 5.9523891,153.455 H 1.6777776 v 1.14697 h 4.2746115 c 0.9712124,0 1.8354079,-0.61161 2.1641702,-1.52981 l 1.5752555,-4.44229 -8.0140372,1.98813 z"
     stroke="white"
     stroke-width="0.5"
     stroke-miterlimit="10"
     id="path136" />
  <path
     inkscape:connector-curvature="0"
     d="m 13.071797,139.13906 -2.515864,7.0197 -8.8781554,2.16376 V 137.60154 H 11.98591 c 0.795254,0 1.345861,0.78802 1.085887,1.53752 z"
     stroke="white"
     stroke-width="0.5"
     stroke-miterlimit="10"
     id="path138" />
  <path
     inkscape:connector-curvature="0"
     d="m 13.072104,139.13983 c 0.206517,-0.60392 -0.106993,-1.23171 -0.649975,-1.45278 H 3.7733603 c -0.2982741,1.36111 -0.5505768,3.09658 -0.5429739,5.11553 0.00771,1.94962 0.2523951,3.62501 0.5429739,4.95532 h 0.2294172 l 6.5535405,-1.59837 0.244646,-0.67247 1.980508,-5.52918 z"
     stroke="white"
     stroke-width="0.5"
     stroke-miterlimit="10"
     id="path140" />
  <path
     inkscape:connector-curvature="0"
     d="m 12.781472,139.95788 -1.980508,5.52918 H 8.0097193 c -0.1452779,-0.74179 -0.2675238,-1.67462 -0.2752268,-2.74533 0,-0.7572 0.061162,-1.43738 0.1529038,-2.04206 0.038284,-0.25959 0.07649,-0.51225 0.122323,-0.74179 z"
     stroke="white"
     stroke-width="0.5"
     stroke-miterlimit="10"
     id="path142" />
  <path
     inkscape:connector-curvature="0"
     d="m 12.781472,139.95788 -1.980508,5.52918 H 8.0097193 c -0.1452779,-0.74179 -0.2675238,-1.67462 -0.2752268,-2.74533 0,-0.7572 0.061162,-1.43738 0.1529038,-2.04206 0.038284,-0.25959 0.07649,-0.51225 0.122323,-0.74179 z"
     stroke="white"
     stroke-width="0.5"
     stroke-miterlimit="10"
     id="path144" />
  <path
     inkscape:connector-curvature="0"
     d="M 11.98591,137.60154 H 1.6777776 v 1.14697 l 9.3404094,0.003 c 0.474349,0 0.805268,0.47065 0.645201,0.91664 l -1.9788912,5.52226 -8.0067192,1.95193 v 1.18009 l 8.8781554,-2.16376 2.515864,-7.0197 c 0.259974,-0.7495 -0.290633,-1.53752 -1.085887,-1.53752 z"
     stroke="white"
     stroke-width="0.5"
     stroke-miterlimit="10"
     id="path146" />
  <path
     inkscape:connector-curvature="0"
     d="m 13.071797,139.13906 -2.515864,7.0197 -8.8781554,2.16376 V 137.60154 H 11.98591 c 0.795254,0 1.345861,0.78802 1.085887,1.53752 z"
     stroke="white"
     stroke-width="0.5"
     stroke-miterlimit="10"
     id="path148" />
  <path
     inkscape:connector-curvature="0"
     d="m 53.144599,108.39731 h 8.409554 v -8.407008 h -8.409554 c -0.547063,0 -0.990601,0.443688 -0.990601,0.990598 v 6.42581 c 0,0.54691 0.443538,0.9906 0.990601,0.9906 z"
     stroke="white"
     stroke-width="0.5"
     stroke-miterlimit="10"
     id="path150" />
  <path
     inkscape:connector-curvature="0"
     d="m 54.366058,107.72792 h 6.614994 v -6.80172 h -6.614994 c -0.547065,0 -0.990601,0.4437 -0.990601,0.9906 v 4.82053 c 0,0.5469 0.443536,0.99059 0.990601,0.99059 z"
     stroke="white"
     stroke-width="0.5"
     stroke-miterlimit="10"
     id="path152" />
  <path
     inkscape:connector-curvature="0"
     d="m 56.581737,108.26405 h 0.545293 c 0.263133,0 0.478507,-0.21569 0.478507,-0.47913 v -7.18147 c 0,-0.26344 -0.215374,-0.47912 -0.478507,-0.47912 h -0.545293 c -0.263133,0 -0.478508,0.21568 -0.478508,0.47912 v 7.18147 c 0,0.26344 0.215375,0.47913 0.478508,0.47913 z"
     stroke="white"
     stroke-width="0.5"
     stroke-miterlimit="10"
     id="path154" />
  <path
     inkscape:connector-curvature="0"
     d="m 345.60067,154.58811 h -4.72192 c -0.34663,0 -0.62779,-0.38207 -0.62779,-0.85272 0,-0.47065 0.28116,-0.85195 0.62779,-0.85195 h 4.72192 c 0.34586,0 0.62702,0.3813 0.62702,0.85195 0,0.47065 -0.28116,0.85272 -0.62702,0.85272 z"
     stroke="white"
     stroke-width="0.5"
     stroke-miterlimit="10"
     id="path156" />
  <path
     inkscape:connector-curvature="0"
     d="m 395.32944,154.58811 h -4.72192 c -0.34663,0 -0.62702,-0.38207 -0.62702,-0.85272 0,-0.47065 0.28039,-0.85195 0.62702,-0.85195 h 4.72192 c 0.34663,0 0.62702,0.3813 0.62702,0.85195 0,0.47065 -0.28039,0.85272 -0.62702,0.85272 z"
     stroke="white"
     stroke-width="0.5"
     stroke-miterlimit="10"
     id="path158" />
  <path
     inkscape:connector-curvature="0"
     d="M 20.61962,56.367817 H 4.8055878 c -1.423276,0 -2.5769792,-1.153826 -2.5769792,-2.5771 V 53.439 H 17.882988 c 1.588043,0 2.844165,1.344318 2.736632,2.928817 z"
     stroke="white"
     stroke-width="0.5"
     stroke-miterlimit="10"
     id="path160" />
  <path
     inkscape:connector-curvature="0"
     d="m 18.440066,88.072281 c 0,2.525791 -1.813199,4.686473 -4.300254,5.124773 L 1.9072103,95.35234 v -1.435056 c 0,-1.385768 0.8546819,-2.627479 2.1487562,-3.122013 L 5.0959509,90.39703 Z"
     stroke="white"
     stroke-width="0.5"
     stroke-miterlimit="10"
     id="path162" />
  <path
     inkscape:connector-curvature="0"
     d="m 85.581072,58.096054 c -0.0154,-0.481822 -0.229548,-0.910032 -0.550762,-1.223543 -0.321213,-0.31359 -0.757201,-0.504694 -1.238635,-0.504694 H 20.619312 l -0.07641,1.14705 c -0.06879,1.009388 -0.19889,2.844697 -0.35942,5.131169 0.344092,-1.590665 1.215835,-2.515862 2.133489,-3.104756 l 0.08419,-1.26174 h 38.770386 v 20.448273 l -35.589295,6.209362 h -0.0077 c -0.290633,0.657831 -1.108918,0.726387 -2.018947,0.351247 l -3.051065,0.535363 0.221691,-3.23448 C 20.291476,81.756616 20.038049,80.868465 20.038049,79.85168 V 64.748942 c -0.611769,8.954614 -1.521797,22.14555 -1.521797,22.14555 l -0.07641,1.154677 v 0.02312 l 49.934966,-8.70204 C 78.629759,77.588561 85.978384,68.496054 85.580911,58.096064 Z"
     stroke="white"
     stroke-width="0.5"
     stroke-miterlimit="10"
     id="path164" />
  <path
     inkscape:connector-curvature="0"
     opacity="0.4"
     d="m 20.619234,56.367817 c -0.215451,3.232079 -1.98667,28.771943 -2.179321,31.681352 v 0.02312 L 5.0957737,90.39704 C 5.5813375,87.367465 9.9408516,59.542291 10.448784,56.367827 Z"
     stroke="white"
     stroke-width="0.5"
     stroke-miterlimit="10"
     id="path166" />
  <path
     inkscape:connector-curvature="0"
     opacity="0.4"
     d="m 23.563845,85.289193 -3.058769,0.535363 0.221769,-3.242949 c 0.512324,0.971341 1.254042,1.751649 2.003462,2.256193 0.283008,0.191033 0.56586,0.34432 0.833538,0.451393 z m -1.1623,-27.009503 -0.08419,1.254042 c 0.137652,-0.08408 0.275303,-0.160534 0.412955,-0.237097 0.604143,-0.336463 1.200584,-0.550458 1.636571,-0.749268 0.02288,-0.008 0.03821,-0.01542 0.05346,-0.02302 0.634724,-0.282932 1.292403,0.328835 1.292403,1.208288 v 24.539014 c 0,0.268057 -0.04591,0.48991 -0.137652,0.665538 L 61.171935,78.727823 V 58.2797 Z"
     stroke="white"
     stroke-width="0.5"
     stroke-miterlimit="10"
     id="path168" />
  <path
     inkscape:connector-curvature="0"
     opacity="0.8"
     d="m 22.401007,58.27961 -0.08412,1.254042 c 0.137652,-0.08408 0.275304,-0.160524 0.412956,-0.237097 0.604143,-0.336463 1.200583,-0.550448 1.636494,-0.749268 0.02295,-0.008 0.03821,-0.01541 0.05353,-0.02302 0.634724,-0.282922 1.292326,0.328845 1.292326,1.208288 v 24.539094 c 0,0.268057 -0.04583,0.48991 -0.137652,0.665538 l 35.59692,-6.209362 V 58.27962 Z m 0.328839,26.55819 c -0.749422,-0.504544 -1.49114,-1.284852 -2.003541,-2.256193 l -0.22169,3.242178 3.058768,-0.534592 C 23.295705,85.18212 23.012775,85.028833 22.729846,84.8378 Z M 10.448784,56.367817 C 9.9440867,59.54128 5.5775862,87.368997 5.0957737,90.39703 L 18.439913,88.072281 v -0.02312 c 0.129949,-1.980429 0.994067,-14.460233 1.598133,-23.239068 0.05361,-0.749339 0.107071,-1.468258 0.152981,-2.156438 v -0.02302 c 0.214142,-3.073947 0.374749,-5.421657 0.428207,-6.262814 z"
     stroke="white"
     stroke-width="0.5"
     stroke-miterlimit="10"
     id="path170" />
  <path
     inkscape:connector-curvature="0"
     d="M 4.8675581,89.955646 H 3.470372 l 0.5822899,-2.568162 1.1709733,-1.307193 1.6397445,0.167151 v 0.547685 L 5.1102938,86.93455 4.8675581,87.423689 Z"
     stroke="white"
     stroke-width="0.5"
     stroke-miterlimit="10"
     id="path172" />
  <path
     inkscape:connector-curvature="0"
     d="m 4.9920842,90.148992 v 0.300418 l -0.9382746,0.356642 c -0.272107,0.103229 -0.525442,0.243423 -0.7506227,0.422124 v -1.088423 c 0,-0.225696 0.1876519,-0.422125 0.4222225,-0.422125 h 0.8350702 c 0.2439527,0 0.4316046,0.196429 0.4316046,0.431364 z"
     stroke="white"
     stroke-width="0.5"
     stroke-miterlimit="10"
     id="path174" />
  <path
     inkscape:connector-curvature="0"
     d="m 111.92982,120.75439 -14.393753,-2.28469 0.07626,-0.0855 -0.0077,-0.13558 14.328273,2.27392 z"
     stroke="white"
     stroke-width="0.5"
     stroke-miterlimit="10"
     id="path176" />
  <path
     inkscape:connector-curvature="0"
     d="m 18.558461,129.3355 h -0.22924 V 88.05071 l 2.816587,-40.997546 h 0.229626 l -2.817358,41.006014 z"
     stroke="white"
     stroke-width="0.5"
     stroke-miterlimit="10"
     id="path178" />
  <path
     inkscape:connector-curvature="0"
     d="m 63.198118,47.052086 h -0.229317 v 71.304374 h 0.229317 z"
     stroke="white"
     stroke-width="0.5"
     stroke-miterlimit="10"
     id="path180" />
  <path
     inkscape:connector-curvature="0"
     d="m 1.6906416,150.57564 c 0,0.0609 -0.012864,0.10861 -0.012864,0.16099 l 7.835013,-1.94423 -1.5040804,4.24202 c -0.3117388,0.86967 -1.1380204,1.45355 -2.0562286,1.45355 H 1.6777699 v 0.15252 c 1.6561596,0 2.6315007,0 4.2747117,0 0.9825664,0 1.8668128,-0.62471 2.200274,-1.55445 0.1752423,-0.49454 1.4388361,-4.05792 1.5992119,-4.51009 -0.2987214,0.074 -7.7725343,1.92805 -8.0613336,1.99969 z"
     stroke="white"
     stroke-width="0.5"
     stroke-miterlimit="10"
     id="path182" />
  <path
     inkscape:connector-curvature="0"
     d="m 11.986064,137.5638 c -4.6896774,0 -2.8024906,0 -10.3082864,0 v 0.15328 H 11.986064 c 0.715759,0 1.212215,0.70714 0.977892,1.38346 l -2.494989,6.96193 -8.7911894,2.12448 v 0.1764 c 0.039824,-0.01 8.8255444,-2.15144 8.9074264,-2.17147 0.05377,-0.15021 2.500073,-6.97657 2.522797,-7.03973 0.27022,-0.78031 -0.303728,-1.58835 -1.121937,-1.58835 z"
     stroke="white"
     stroke-width="0.5"
     stroke-miterlimit="10"
     id="path184" />
  <path
     inkscape:connector-curvature="0"
     d="m 93.321007,123.19469 -0.171006,-0.15251 4.227385,-4.73964 L 93.30175,46.945708 C 91.766549,38.417144 89.327792,32.669117 80.860698,26.768496 l -0.03389,-0.02357 -0.01078,-0.0396 -5.130018,-18.2572491 0.220921,-0.062009 5.118617,18.2177331 c 8.504839,5.93798 10.957462,11.723598 12.503446,20.31494 l 4.083339,71.465449 -0.03158,0.0346 z"
     stroke="white"
     stroke-width="0.5"
     stroke-miterlimit="10"
     id="path186" />
  <path
     inkscape:connector-curvature="0"
     d="M 5.7308596,47.053703 V 46.824385 H 93.437322 l 18.279888,-3.687021 0.0139,0.231088 -18.270659,3.68294 z"
     stroke="white"
     stroke-width="0.5"
     stroke-miterlimit="10"
     id="path188" />
  <path
     inkscape:connector-curvature="0"
     d="m 618.30317,126.20963 h -0.17023 -21.026 v 21.57985 h 21.026 0.17023 21.02602 v -21.57985 z m -0.17023,21.42194 h -20.85576 v -21.26403 h 20.85576 z m 21.02525,0 h -20.85502 v -21.26403 h 20.85502 z"
     stroke="white"
     stroke-width="0.5"
     stroke-miterlimit="10"
     id="path190" />
  <path
     inkscape:connector-curvature="0"
     d="m 41.534236,134.11518 h -4.068165 c -2.30642,2.99645 -4.086035,6.28562 -5.375896,9.896 0,5.3705 0,0.36973 0,14.34522 H 30.04242 c 0.0015,0.0246 0.0031,0.0486 0.0046,0.0732 0.05955,1.03758 0.193576,2.30011 0.41388,3.62809 l 2.554687,0.25959 c 0,-7.30934 -0.18048,-9.40224 1.04768,-14.31518 1.391155,-5.40825 4.205894,-10.33198 7.471102,-13.8869 z"
     stroke="white"
     stroke-width="0.5"
     stroke-miterlimit="10"
     id="path192" />
  <path
     inkscape:connector-curvature="0"
     d="m 213.99635,163.35023 h 1.46973 v -7.31088 c 0,-11.22629 6.06146,-21.04988 14.99535,-26.38187 h -4.3645 c -9.9268,7.79078 -14.92448,20.80646 -12.10058,33.69275 z"
     stroke="white"
     stroke-width="0.5"
     stroke-miterlimit="10"
     id="path194" />
  <path
     inkscape:connector-curvature="0"
     d="m 24.418643,58.522793 v 26.98594 c 0.74657,0.05545 1.288012,-0.318135 1.288012,-1.238637 V 59.731772 c 0,-0.876981 -0.656678,-1.493371 -1.288012,-1.208979 z"
     stroke="white"
     stroke-width="0.5"
     stroke-miterlimit="10"
     id="path196" />
  <path
     inkscape:connector-curvature="0"
     d="m 97.495241,118.33952 -0.0154,0.0154 H 77.751013 V 26.881421 h 3.464022 c 7.822356,5.536504 10.575394,11.019394 12.20457,20.058201 z"
     stroke="white"
     stroke-width="0.5"
     stroke-miterlimit="10"
     id="path198" />
  <path
     inkscape:connector-curvature="0"
     d="m 80.756708,26.483872 c -32.142297,0.06439 -56.578089,1.669 -70.7980624,4.448228 l -0.042521,0.121861 C 24.112604,28.279663 48.893413,26.934341 81.011676,26.870945 l -0.184101,-0.124402 z"
     stroke="white"
     stroke-width="0.5"
     stroke-miterlimit="10"
     id="path200" />
  <path
     inkscape:connector-curvature="0"
     d="m 99.040455,118.59218 0.01463,0.29733 -0.420581,0.47373 -4.259738,4.77198 -0.100138,0.10785 5.078562,5.4976 v -0.084 h 12.57971 v -9.01632 z"
     stroke="white"
     stroke-width="0.5"
     stroke-miterlimit="10"
     id="path202" />
  <path
     inkscape:connector-curvature="0"
     d="m 111.94753,46.939083 -0.22184,-3.685867 -7.76612,1.565011 -9.040199,1.822135 c 0.0023,0.01048 0.0046,0.02057 0.0062,0.03104 l 0.01541,0.09175 v 0.0919 l 4.08334,71.400508 0.01618,0.33662 12.891669,2.04898 z"
     stroke="white"
     stroke-width="0.5"
     stroke-miterlimit="10"
     id="path204" />
  <path
     style="stroke-width:0.770296"
     inkscape:connector-curvature="0"
     d="m 15.484287,127.32271 1.719608,1.79402 c -1.104372,-0.002 -4.280072,-0.007 -14.3768896,-0.007 -1.0660743,0 -1.97864408,-0.7572 -2.18066184,-1.78709 z m 0.100066,-0.23417 H 0.37790301 l 0.002312,0.0285 c 0.10180229,1.281 1.21047409,2.22693 2.44703799,2.22693 12.968558,7.7e-4 14.518547,0.008 14.927652,0.008 z"
     fill="white"
     id="path206" />
  <path
     inkscape:connector-curvature="0"
     d="m 18.456166,134.10748 -0.01618,26.71849 2.347554,0.24495 v -26.96344 z"
     stroke="white"
     stroke-width="0.5"
     stroke-miterlimit="10"
     id="path208" />
  <path
     inkscape:connector-curvature="0"
     d="M 97.495241,118.34723 93.419605,46.939545 C 91.768091,37.78604 88.968834,32.280119 80.924632,26.674982 51.743277,26.72844 29.4828,27.974933 15.198199,30.116126 l 0.962408,1.147048 h 1.986825 l -0.01286,-0.01532 c 14.51415,-1.934676 35.948715,-2.982356 62.30786,-3.043517 7.723759,5.505844 10.002295,10.927573 11.455073,18.918779 l 4.037892,70.674114 -0.489138,0.55 z"
     stroke="white"
     stroke-width="0.5"
     stroke-miterlimit="10"
     id="path210" />
  <path
     inkscape:connector-curvature="0"
     d="m 215.46531,160.38304 h -89.93129 v 2.96719 h 89.93129 z"
     stroke="white"
     stroke-width="0.5"
     stroke-miterlimit="10"
     id="path212" />
  <path
     inkscape:connector-curvature="0"
     d="m 13.122944,134.1121 v 26.15849 l 5.317277,0.55538 0.01609,-26.71079 z"
     stroke="white"
     stroke-width="0.5"
     stroke-miterlimit="10"
     id="path214" />
  <path
     inkscape:connector-curvature="0"
     d="m 1.186375,155.20897 c 0.037283,0.22647 0.068171,0.3759 0.1626942,0.70096 0.5582797,1.90418 2.2176284,3.34926 4.2824069,3.57881 l 12.8087449,1.338 0.0031,-5.61777 z"
     stroke="white"
     stroke-width="0.5"
     stroke-miterlimit="10"
     id="path216" />
  <path
     style="stroke-width:0.770296"
     inkscape:connector-curvature="0"
     d="m 133.63676,136.93446 h 75.25946 l 1.52981,-1.52903 h -78.31831 v 22.47261 l 1.52904,-1.52981 z"
     fill="white"
     id="path218" />
  <path
     inkscape:connector-curvature="0"
     d="m 420.14452,163.36949 h 1.46896 v -7.31011 c 0,-11.22629 6.06223,-21.05065 14.99612,-26.38264 h -4.3645 c -9.92681,7.79077 -14.92448,20.80646 -12.10058,33.69275 z"
     stroke="white"
     stroke-width="0.5"
     stroke-miterlimit="10"
     id="path220" />
  <path
     inkscape:connector-curvature="0"
     d="M 421.61348,160.4023 H 312.91623 v 2.96719 h 108.69725 z"
     stroke="white"
     stroke-width="0.5"
     stroke-miterlimit="10"
     id="path222" />
  <path
     inkscape:connector-curvature="0"
     d="m 312.91623,129.67674 v 2.96718 h 119.55611 c 1.29255,-1.10153 2.67601,-2.09521 4.13726,-2.96718 z"
     stroke="white"
     stroke-width="0.5"
     stroke-miterlimit="10"
     id="path224" />
  <path
     style="stroke-width:0.770296"
     inkscape:connector-curvature="0"
     d="m 321.01974,136.95449 h 44.29588 l 1.5298,-1.52903 h -47.35549 v 22.47261 l 1.52981,-1.52981 z"
     fill="white"
     id="path226" />
  <path
     style="stroke-width:0.770296"
     inkscape:connector-curvature="0"
     d="m 370.74774,136.95449 h 44.29665 l 1.52903,-1.52903 h -47.35471 v 22.47261 l 1.52903,-1.52981 z"
     fill="white"
     id="path228" />
  <path
     inkscape:connector-curvature="0"
     d="m 642.42963,122.24338 h -49.74419 v 28.95235 h 49.74419 z"
     stroke="white"
     stroke-width="0.5"
     stroke-miterlimit="10"
     id="path230" />
  <path
     inkscape:connector-curvature="0"
     d="m 136.30275,115.77597 h -4.98226 V 98.520567 h 0.1502 c 1.15391,6.999683 2.76844,13.014153 4.83206,17.255403 z"
     stroke="white"
     stroke-width="0.5"
     stroke-miterlimit="10"
     id="path232" />
  <path
     inkscape:connector-curvature="0"
     d="m 639.6142,115.67429 h -44.11256 l -2.81465,6.56755 h 49.74264 z"
     stroke="white"
     stroke-width="0.5"
     stroke-miterlimit="10"
     id="path234" />
  <path
     style="stroke-width:0.770296"
     inkscape:connector-curvature="0"
     d="m 595.05718,124.33396 h 45.00071 l 0.87506,-0.87505 h -46.75082 v 26.52052 l 0.87505,-0.87506 z"
     fill="white"
     id="path236" />
  <path
     inkscape:connector-curvature="0"
     d="m 86.728043,58.05037 c -0.02311,-0.741641 -0.344322,-1.46056 -0.895084,-1.995833 -0.550761,-0.535353 -1.277151,-0.833459 -2.041284,-0.833459 H 20.695802 l -0.07649,1.14697 h 63.172363 c 0.481434,0 0.917422,0.191183 1.238635,0.504693 0.321214,0.313511 0.535357,0.741721 0.550762,1.223543 0.397473,10.4 -6.951151,19.492267 -17.206102,21.273955 l -49.93498,8.702042 v 1.162374 l 0.19881,-0.03003 49.93498,-8.702803 C 79.340901,78.628468 87.148622,68.978046 86.72804,58.05039 Z"
     stroke="white"
     stroke-width="0.5"
     stroke-miterlimit="10"
     id="path238" />
  <path
     inkscape:connector-curvature="0"
     d="m 10.647598,147.7656 -0.382297,1.07071 -1.5753333,4.44306 c -0.4128787,1.15468 -1.5140866,1.93422 -2.7376941,1.93422 H 1.1882468 c -0.015329,-0.0686 -0.022878,-0.13711 -0.038284,-0.22954 l 0.5276912,-0.38208 h 4.2746116 c 0.9712124,0 1.8353694,-0.61161 2.1641316,-1.52904 L 9.6916524,148.62987 1.677654,150.618 1.14236,150.23594 v -0.11477 l 0.3899469,-0.0994 8.0141453,-1.98891 z"
     stroke="white"
     stroke-width="0.5"
     stroke-miterlimit="10"
     id="path240" />
  <path
     inkscape:connector-curvature="0"
     d="m 13.645205,139.3455 -2.515864,7.02047 -0.107071,0.31351 -0.321137,0.0763 -8.8782316,2.16376 -0.6805334,0.1687 v -0.38284 l 0.535294,-0.38207 8.878194,-2.16376 2.515787,-7.02047 c 0.260051,-0.7495 -0.290556,-1.53675 -1.08581,-1.53675 H 1.677662 l -0.535294,-0.38206 v -0.22955 h 10.843465 c 0.573563,0 1.101139,0.26729 1.429978,0.74179 0.336465,0.46604 0.420582,1.06301 0.229394,1.61301 z"
     stroke="white"
     stroke-width="0.5"
     stroke-miterlimit="10"
     id="path242" />
  <path
     inkscape:connector-curvature="0"
     d="M 95.705073,113.61222 H 30.681535 c -1.250807,0 -2.268753,-0.97905 -2.316512,-2.22924 -0.359959,-9.35294 6.322205,-17.617441 15.542725,-19.224282 l 50.064159,-8.724373 0.0909,1.583728 -49.892152,8.64734 c -8.469944,1.475895 -14.607817,9.067167 -14.277744,17.658267 0.01641,0.42598 0.362963,0.75951 0.788629,0.75951 h 64.85253 z"
     stroke="white"
     stroke-width="0.5"
     stroke-miterlimit="10"
     id="path244" />
  <path
     inkscape:connector-curvature="0"
     d="M 640.67875,5.2093421 H 142.47437 V 17.183086 h 498.20438 z"
     stroke="white"
     stroke-width="0.5"
     stroke-miterlimit="10"
     id="path246" />
  <path
     inkscape:connector-curvature="0"
     d="m 595.50242,115.67429 h 35.53915 v -4.46232 -12.367873 c 0,-1.760127 -1.42658,-3.186715 -3.18671,-3.186715 h -2.81697 c -1.76013,0 -3.18672,1.426588 -3.18672,3.186715 V 111.21197 H 548.92569 V 98.844097 c 0,-1.760127 -1.42658,-3.186715 -3.18594,-3.186715 h -2.81774 c -1.76013,0 -3.18672,1.426588 -3.18672,3.186715 v 12.367873 h -72.9247 V 98.844097 c 0,-1.760127 -1.42658,-3.186715 -3.18671,-3.186715 h -2.81774 c -1.75936,0 -3.18672,1.426588 -3.18672,3.186715 v 12.367873 h -72.9247 V 98.844097 c 0,-1.760127 -1.42658,-3.186715 -3.18671,-3.186715 h -2.81697 c -1.76013,0 -3.18672,1.426588 -3.18672,3.186715 V 111.21197 H 302.57886 V 98.844097 c 0,-1.760127 -1.42659,-3.186715 -3.18671,-3.186715 h -2.81698 c -1.76013,0 -3.18672,1.426588 -3.18672,3.186715 v 12.367873 6.51439 7.53581 h 299.29854 v -3.01956 z"
     stroke="white"
     stroke-width="0.5"
     stroke-miterlimit="10"
     id="path248" />
  <path
     inkscape:connector-curvature="0"
     d="M 80.923863,26.674982 C 47.86576,26.736144 23.693486,28.326728 9.9289121,31.01845 16.207133,13.285079 27.777056,8.9491603 75.79269,8.4138811 Z"
     stroke="white"
     stroke-width="0.5"
     stroke-miterlimit="10"
     id="path250" />
  <path
     inkscape:connector-curvature="0"
     d="M 93.419605,46.939545 H 5.7308596 C 7.1226074,40.699531 8.3614365,35.446112 9.9290663,31.01845 23.69364,28.326728 47.865915,26.736144 80.923863,26.674982 88.968834,32.280119 91.76732,37.78604 93.419605,46.939545 Z"
     stroke="white"
     stroke-width="0.5"
     stroke-miterlimit="10"
     id="path252" />
  <path
     inkscape:connector-curvature="0"
     d="m 21.269672,46.939237 -0.45124,6.499913 H 2.2286086 v -4.007004 c 0,-1.376442 1.1164517,-2.492909 2.492909,-2.492909 z"
     stroke="white"
     stroke-width="0.5"
     stroke-miterlimit="10"
     id="path254" />
  <path
     inkscape:connector-curvature="0"
     d="M 111.72415,43.253293 109.53882,7.2664792 105.43237,0.38408431 75.792844,8.4134958 80.494038,25.145175 h 0.91203 l 0.397473,0.275303 c 8.874581,6.186478 11.532101,12.465161 13.11583,21.219422 l 9.040199,-1.821596 z"
     stroke="white"
     stroke-width="0.5"
     stroke-miterlimit="10"
     id="path256" />
  <path
     inkscape:connector-curvature="0"
     d="m 18.455396,111.38759 -2.25589,2.25621 H 0.40085021 c 0.068787,-0.94824 0.64224969,-1.79711 1.50640629,-2.23309 v -0.0231 z"
     stroke="white"
     stroke-width="0.5"
     stroke-miterlimit="10"
     id="path258" />
  <path
     inkscape:connector-curvature="0"
     d="m 1.142368,136.50079 v 0.18333 c 0.017254,0.002 0.034278,0.002 0.051609,0.004 2.318491,0.1633 5.0584649,0.27038 8.0217248,0.29579 0.0721,7.7e-4 0.1441993,0.002 0.2165308,0.002 0.3937755,0.003 0.7902474,0.005 1.1911864,0.005 7.7e-4,0 0.0023,0 0.0031,0 0.699968,0 1.389845,-0.005 2.067474,-0.0138 0.01294,0 0.02589,-7.7e-4 0.03883,-7.7e-4 1.346015,-0.0177 2.641654,-0.0523 3.867734,-0.10013 0.03875,-0.002 0.07733,-0.003 0.116083,-0.005 0.438144,-0.0177 0.857956,-0.0377 1.276766,-0.0585 0.154907,-0.008 0.309351,-0.0162 0.461562,-0.0246 v -2.67293 l -14.9270141,-0.008 c -1.3152805,0.008 -2.385861,1.07842 -2.385861,2.39331 z"
     stroke="white"
     stroke-width="0.5"
     stroke-miterlimit="10"
     id="path260" />
  <path
     inkscape:connector-curvature="0"
     d="m 99.05509,118.89029 -0.420581,0.47372 -4.258967,4.77198 -0.100138,0.10708 -1.0399,-1.12386 4.259737,-4.77198 -4.075636,-71.407993 C 91.76732,37.78581 88.968834,32.279887 80.923863,26.674674 51.743045,26.728132 29.482568,27.974626 15.197968,30.115818 l 0.05353,0.06879 h -1.995836 l -0.986517,-1.177632 2.699424,-0.405254 c 14.644022,-2.202353 37.2945,-3.387684 65.527005,-3.456471 h 0.91049 l 0.397473,0.275303 c 8.885364,6.194028 11.539034,12.479874 13.121992,21.251004 l 0.01541,0.09174 v 0.0919 l 4.08334,71.400362 z"
     stroke="white"
     stroke-width="0.5"
     stroke-miterlimit="10"
     id="path262" />
  <path
     inkscape:connector-curvature="0"
     d="m 128.50119,129.65825 h -2.96717 v 33.69198 h 2.96717 z"
     stroke="white"
     stroke-width="0.5"
     stroke-miterlimit="10"
     id="path264" />
  <path
     inkscape:connector-curvature="0"
     d="m 125.53402,129.65748 v 2.96718 h 100.79015 c 1.29256,-1.10152 2.67678,-2.09598 4.13726,-2.96718 z"
     stroke="white"
     stroke-width="0.5"
     stroke-miterlimit="10"
     id="path266" />
  <path
     style="stroke-width:0.770296"
     inkscape:connector-curvature="0"
     d="m 208.89622,136.93446 v 19.41377 h -75.25946 l -1.52904,1.52981 h 78.31831 v -22.47261 z"
     fill="white"
     id="path268" />
  <path
     inkscape:connector-curvature="0"
     d="m 315.88341,129.67751 h -2.96718 v 33.69198 h 2.96718 z"
     stroke="white"
     stroke-width="0.5"
     stroke-miterlimit="10"
     id="path270" />
  <path
     style="stroke-width:0.770296"
     inkscape:connector-curvature="0"
     d="m 365.31562,136.95449 v 19.41377 h -44.29588 l -1.52981,1.52981 h 47.35549 v -22.47261 z"
     fill="white"
     id="path272" />
  <path
     style="stroke-width:0.770296"
     inkscape:connector-curvature="0"
     d="m 415.04439,136.95449 v 19.41377 h -44.29665 l -1.52903,1.52981 h 47.35471 v -22.47261 z"
     fill="white"
     id="path274" />
  <path
     style="stroke-width:0.770296"
     inkscape:connector-curvature="0"
     d="m 640.05789,124.33396 v 24.77041 h -45.00071 l -0.87505,0.87506 h 46.75082 v -26.52052 z"
     fill="white"
     id="path276" />
  <path
     inkscape:connector-curvature="0"
     d="m 24.983577,91.253601 h -2.867581 c -0.576335,0 -1.043519,-0.466798 -1.043519,-1.04298 v -0.207209 c 0,-0.576182 0.467184,-1.04375 1.043519,-1.04375 h 2.867581 c 0.576336,0 1.043598,0.467568 1.043598,1.04375 v 0.207209 c 0,0.576182 -0.467262,1.04298 -1.043598,1.04298 z"
     stroke="white"
     stroke-width="0.5"
     stroke-miterlimit="10"
     id="path278" />
  <path
     inkscape:connector-curvature="0"
     d="m 22.115996,51.985987 h 2.867581 c 0.576336,0 1.043598,0.467188 1.043598,1.04352 v 0.207059 c 0,0.576412 -0.467262,1.04359 -1.043598,1.04359 h -2.867581 c -0.576335,0 -1.043519,-0.467178 -1.043519,-1.04359 v -0.207059 c 0,-0.576332 0.467184,-1.04352 1.043519,-1.04352 z"
     stroke="white"
     stroke-width="0.5"
     stroke-miterlimit="10"
     id="path280" />
  <path
     inkscape:connector-curvature="0"
     d="m 24.366955,53.485364 v 5.062393 c -0.43591,0.198811 -1.032428,0.412796 -1.636571,0.749338 v -5.811731 c 0,-0.451162 0.3672,-0.818204 0.818286,-0.818204 0.451239,0 0.818285,0.367042 0.818285,0.818204 z"
     stroke="white"
     stroke-width="0.5"
     stroke-miterlimit="10"
     id="path282" />
  <path
     inkscape:connector-curvature="0"
     d="m 22.730384,84.838571 c 0.573563,0.389774 1.147049,0.619324 1.636571,0.664767 v 4.252036 c 0,0.451393 -0.367046,0.818055 -0.818285,0.818055 -0.451086,0 -0.818286,-0.366662 -0.818286,-0.818055 z"
     stroke="white"
     stroke-width="0.5"
     stroke-miterlimit="10"
     id="path284" />
  <path
     inkscape:connector-curvature="0"
     d="m 24.368111,57.359258 v -3.86996 c 0,-0.452014 -0.36643,-0.818365 -0.818362,-0.818365 -0.452011,0 -0.81844,0.366351 -0.81844,0.818365 v 3.86996 z"
     stroke="white"
     stroke-width="0.5"
     stroke-miterlimit="10"
     id="path286" />
  <path
     inkscape:connector-curvature="0"
     d="m 22.731309,85.611182 v 4.14188 c 0,0.451393 0.366429,0.818054 0.81844,0.818054 0.451932,0 0.818362,-0.366661 0.818362,-0.818054 v -4.14188 z"
     stroke="white"
     stroke-width="0.5"
     stroke-miterlimit="10"
     id="path288" />
  <path
     inkscape:connector-curvature="0"
     d="m 345.39269,125.6296 h 3.94699 v -10.96362 h -3.94699 z"
     stroke="white"
     stroke-width="0.5"
     stroke-miterlimit="10"
     id="path290" />
  <path
     inkscape:connector-curvature="0"
     d="m 414.8472,125.6296 h 3.94699 v -10.96362 h -3.94699 z"
     stroke="white"
     stroke-width="0.5"
     stroke-miterlimit="10"
     id="path292" />
  <path
     inkscape:connector-curvature="0"
     d="m 484.30171,125.6296 h 3.947 v -10.96362 h -3.947 z"
     stroke="white"
     stroke-width="0.5"
     stroke-miterlimit="10"
     id="path294" />
  <path
     inkscape:connector-curvature="0"
     d="m 553.75622,125.6296 h 3.947 v -10.96362 h -3.947 z"
     stroke="white"
     stroke-width="0.5"
     stroke-miterlimit="10"
     id="path296" />
  <path
     style="stroke-width:0.770296"
     inkscape:connector-curvature="0"
     d="m 495.94705,135.40851 h -32.0605 c 0.52457,0.27037 1.03759,0.5577 1.53751,0.86658 h 28.98624 c 0.49915,-0.30888 1.01294,-0.59621 1.53675,-0.86658 z"
     fill="white"
     id="path298" />
  <path
     style="stroke-width:0.770296"
     inkscape:connector-curvature="0"
     d="m 491.52401,138.38031 h -23.21365 c 0.32892,0.28039 0.64859,0.56925 0.96133,0.86735 h 21.29175 c 0.31197,-0.2981 0.63242,-0.58696 0.96057,-0.86735 z"
     fill="white"
     id="path300" />
  <path
     style="stroke-width:0.770296"
     inkscape:connector-curvature="0"
     d="m 499.51429,133.92184 h -39.19421 c 0.77723,0.24957 1.53597,0.53997 2.27545,0.86658 h 34.6433 c 0.73948,-0.32661 1.49822,-0.61701 2.27546,-0.86658 z"
     fill="white"
     id="path302" />
  <path
     style="stroke-width:0.770296"
     inkscape:connector-curvature="0"
     d="m 493.45976,136.89441 h -27.08515 c 0.40209,0.27654 0.79341,0.56694 1.17624,0.86736 h 24.73266 c 0.38284,-0.30042 0.77416,-0.59082 1.17625,-0.86736 z"
     fill="white"
     id="path304" />
  <path
     style="stroke-width:0.770296"
     inkscape:connector-curvature="0"
     d="m 487.48149,142.83801 h -15.12861 c 0.19796,0.28425 0.38899,0.57387 0.57387,0.86658 h 13.9801 c 0.18564,-0.29271 0.37667,-0.58233 0.57464,-0.86658 z"
     fill="white"
     id="path306" />
  <path
     style="stroke-width:0.770296"
     inkscape:connector-curvature="0"
     d="m 488.60073,141.35211 h -17.36632 c 0.23263,0.28347 0.4591,0.57234 0.67863,0.86736 h 16.00906 c 0.21876,-0.29502 0.44523,-0.58389 0.67863,-0.86736 z"
     fill="white"
     id="path308" />
  <path
     style="stroke-width:0.770296"
     inkscape:connector-curvature="0"
     d="m 489.93488,139.86544 h -20.03539 c 0.27499,0.28193 0.54229,0.57156 0.80264,0.86736 H 489.133 c 0.26036,-0.2958 0.52766,-0.58543 0.80188,-0.86736 z"
     fill="white"
     id="path310" />
  <path
     style="stroke-width:0.770296"
     inkscape:connector-curvature="0"
     d="m 549.42947,135.40851 h -32.0605 c 0.5238,0.27037 1.0376,0.5577 1.53752,0.86658 h 28.98546 c 0.49993,-0.30888 1.01371,-0.59621 1.53752,-0.86658 z"
     fill="white"
     id="path312" />
  <path
     style="stroke-width:0.770296"
     inkscape:connector-curvature="0"
     d="m 546.94141,136.89441 h -27.08514 c 0.40208,0.27654 0.7934,0.56694 1.177,0.86736 h 24.73189 c 0.38361,-0.30042 0.77416,-0.59082 1.17625,-0.86736 z"
     fill="white"
     id="path314" />
  <path
     style="stroke-width:0.770296"
     inkscape:connector-curvature="0"
     d="m 545.00566,138.38031 h -23.21365 c 0.32892,0.28039 0.64859,0.56925 0.96133,0.86735 h 21.29176 c 0.31196,-0.2981 0.63241,-0.58696 0.96056,-0.86735 z"
     fill="white"
     id="path316" />
  <path
     style="stroke-width:0.770296"
     inkscape:connector-curvature="0"
     d="m 552.99671,133.92184 h -39.19498 c 0.77724,0.24957 1.53597,0.53997 2.27546,0.86658 h 34.64329 c 0.74025,-0.32661 1.49823,-0.61701 2.27623,-0.86658 z"
     fill="white"
     id="path318" />
  <path
     style="stroke-width:0.770296"
     inkscape:connector-curvature="0"
     d="M 540.96314,142.83801 H 525.8353 c 0.1972,0.28425 0.38823,0.57387 0.57387,0.86658 h 13.9801 c 0.18565,-0.29271 0.37591,-0.58233 0.57387,-0.86658 z"
     fill="white"
     id="path320" />
  <path
     style="stroke-width:0.770296"
     inkscape:connector-curvature="0"
     d="m 543.41653,139.86544 h -20.03539 c 0.27499,0.28193 0.54229,0.57156 0.80265,0.86736 h 18.43086 c 0.26036,-0.2958 0.52766,-0.58543 0.80188,-0.86736 z"
     fill="white"
     id="path322" />
  <path
     style="stroke-width:0.770296"
     inkscape:connector-curvature="0"
     d="m 542.08238,141.35211 h -17.36632 c 0.23263,0.28347 0.4591,0.57234 0.67863,0.86736 h 16.00906 c 0.21876,-0.29502 0.446,-0.58389 0.67863,-0.86736 z"
     fill="white"
     id="path324" />
  <path
     inkscape:connector-curvature="0"
     d="m 143.60362,11.195344 c 10.48219,0 485.41516,0 497.28774,0 19.30978,0 19.30978,111.242926 0,111.242926 -12.08364,0 -487.40946,0 -497.28774,0 -19.30978,0 -19.30978,-111.242926 0,-111.242926 z"
     stroke="white"
     stroke-width="0.5"
     stroke-miterlimit="10"
     id="path326" />
  <path
     inkscape:connector-curvature="0"
     d="m 665.46148,117.78182 h -2.81466 V 17.438439 c 0,-4.025645 -3.2753,-7.300481 -7.30087,-7.300481 h -14.6672 V 7.3231425 h 14.6672 c 5.57695,0 10.11553,4.5378905 10.11553,10.1152965 z"
     stroke="white"
     stroke-width="0.5"
     stroke-miterlimit="10"
     id="path328" />
  <path
     inkscape:connector-curvature="0"
     d="m 637.34645,11.195344 h 3.54491 c 19.30978,0 19.30978,111.242926 0,111.242926 h -3.54491 z"
     stroke="white"
     stroke-width="0.5"
     stroke-miterlimit="10"
     id="path330" />
  <path
     inkscape:connector-curvature="0"
     d="m 640.67875,118.15619 -1.0191,-2.37714 V 17.182777 h 1.0191 z"
     stroke="white"
     stroke-width="0.5"
     stroke-miterlimit="10"
     id="path332" />
  <path
     style="stroke-width:0.770296"
     inkscape:connector-curvature="0"
     d="m 321.56974,137.1409 h 44.29587 l 1.52981,-1.52903 h -47.35549 v 22.47261 l 1.52981,-1.52981 z"
     fill="white"
     id="path334" />
  <path
     style="stroke-width:0.770296"
     inkscape:connector-curvature="0"
     d="m 371.29851,136.75575 h -0.38515 v 0.38515 19.25432 l -0.75952,0.75952 v -21.15772 h 46.0406 l -0.75951,0.75873 z"
     stroke="white"
     id="path336" />
  <path
     inkscape:connector-curvature="0"
     d="m 621.60314,136.66101 c 0,1.16238 -0.89277,2.116 -2.02975,2.21383 v -4.42843 c 1.13698,0.0978 2.02975,1.05223 2.02975,2.2146 z"
     stroke="white"
     stroke-width="0.5"
     id="path338" />
  <path
     inkscape:connector-curvature="0"
     d="m 615.12648,136.66101 c 0,-1.16237 0.89277,-2.11678 2.02972,-2.2146 v 4.42843 c -1.13695,-0.0978 -2.02972,-1.05145 -2.02972,-2.21383 z"
     stroke="white"
     stroke-width="0.5"
     id="path340" />
  <path
     style="stroke-width:0.770296"
     inkscape:connector-curvature="0"
     d="m 391.72984,11.052377 h -0.76182 V 122.30038 h 0.76182 z"
     fill="white"
     id="path342" />
  <path
     style="stroke-width:0.770296"
     inkscape:connector-curvature="0"
     d="m 365.86561,156.93982 h 0.38515 v -0.38515 -19.25432 l 0.75951,-0.75873 v 21.15772 h -46.0406 l 0.75952,-0.75952 z"
     stroke="white"
     id="path344" />
  <path
     style="stroke-width:0.770296"
     inkscape:connector-curvature="0"
     d="m 415.59439,137.1409 v 19.41377 h -44.29588 l -1.52981,1.52981 h 47.35549 v -22.47261 z"
     fill="white"
     id="path346" />
  <path
     style="stroke-width:0.770296"
     inkscape:connector-curvature="0"
     d="m 588.77696,115.21828 c -12.00429,0 -261.35914,0 -273.35727,0 -2.60359,0 -2.60359,10.23262 0,10.23262 5.85348,0 271.98614,0 273.35727,0 2.6036,0 2.6036,-10.23262 0,-10.23262 z"
     stroke="white"
     stroke-miterlimit="10"
     id="path348" />
  <path
     style="stroke-width:0.770296"
     inkscape:connector-curvature="0"
     d="m 480.42558,145.36073 c 1.93036,0 3.61807,0.96056 4.59173,2.40101 -0.95131,2.27701 -1.54367,4.7304 -1.70158,7.29779 -0.83809,0.50069 -1.82792,0.79033 -2.89015,0.79033 -1.28177,0 -2.45725,-0.4229 -3.38853,-1.12848 -0.17332,-2.2693 -0.68403,-4.44847 -1.48437,-6.4913 0.90279,-1.69773 2.73918,-2.86935 4.8729,-2.86935 z"
     stroke="white"
     id="path350" />
  <path
     style="stroke-width:0.770296"
     inkscape:connector-curvature="0"
     d="m 533.78937,145.36073 c 1.88107,0 3.53104,0.9752 4.48313,2.44724 -0.93206,2.32012 -1.51286,4.82051 -1.66616,7.43567 -0.81728,0.50838 -1.78245,0.80265 -2.81697,0.80265 -1.24787,0 -2.39407,-0.4283 -3.30379,-1.14621 -0.16947,-2.31243 -0.6694,-4.53319 -1.45355,-6.61453 0.88353,-1.73548 2.67986,-2.92482 4.75734,-2.92482 z"
     stroke="white"
     id="path352" />
</svg>
