<?xml version="1.0" encoding="UTF-8" standalone="no"?>
<svg
   xmlns:dc="http://purl.org/dc/elements/1.1/"
   xmlns:cc="http://creativecommons.org/ns#"
   xmlns:rdf="http://www.w3.org/1999/02/22-rdf-syntax-ns#"
   xmlns:svg="http://www.w3.org/2000/svg"
   xmlns="http://www.w3.org/2000/svg"
   xmlns:sodipodi="http://sodipodi.sourceforge.net/DTD/sodipodi-0.dtd"
   xmlns:inkscape="http://www.inkscape.org/namespaces/inkscape"
   inkscape:version="1.0beta1 (32d4812, 2019-09-19)"
   sodipodi:docname="колесо.svg"
   id="svg67"
   viewBox="0 0 462.93759 462.97351"
   style="clip-rule:evenodd;fill-rule:evenodd;image-rendering:optimizeQuality;shape-rendering:geometricPrecision;text-rendering:geometricPrecision"
   version="1.1"
   height="462.97351"
   width="462.93759"
   xml:space="preserve"><metadata
   id="metadata71">
  <rdf:RDF>
    <cc:Work
       rdf:about="">
      <dc:format>image/svg+xml</dc:format>
      <dc:type
         rdf:resource="http://purl.org/dc/dcmitype/StillImage" />
    </cc:Work>
  </rdf:RDF>
</metadata>
<sodipodi:namedview
   inkscape:current-layer="svg67"
   inkscape:window-maximized="0"
   inkscape:window-y="23"
   inkscape:window-x="0"
   inkscape:cy="213.49204"
   inkscape:cx="296.53449"
   inkscape:zoom="1.4175374"
   showgrid="false"
   id="namedview69"
   inkscape:window-height="786"
   inkscape:window-width="1440"
   inkscape:pageshadow="2"
   inkscape:pageopacity="0"
   guidetolerance="10"
   gridtolerance="10"
   objecttolerance="10"
   borderopacity="1"
   inkscape:document-rotation="0"
   bordercolor="#666666"
   pagecolor="#ffffff" />

 <defs
   id="defs12">
  <style
   id="style10"
   type="text/css">
   <![CDATA[
    .str0 {stroke:white;stroke-width:5;stroke-miterlimit:22.9256}
    .fil0 {fill:none}
   ]]>
  </style>

 </defs>

 <g
   transform="translate(-1.011114,-0.02129371)"
   id="Слой_x0020_1">
  <metadata
   id="CorelCorpID_0Corel-Layer" />

  <g
   id="_892886960">
   <path
   inkscape:connector-curvature="0"
   id="path15"
   d="M 446.4,312.98 C 491.4,194.82 432.12,62.57 313.96,17.57 c -118.15,-45 -250.4,14.28 -295.4,132.44 -45,118.16 14.28,250.44 132.43,295.44 118.16,45 250.41,-14.31 295.41,-132.47 z"
   class="fil0 str0" />

   <path
   inkscape:connector-curvature="0"
   id="path17"
   d="m 448.34,239.29 10.18,0.47 c 0.13,-3.03 0.16,-6.06 0.16,-9.06 l -7.81,0.09 -2.47,-4.44 10.22,-0.12 c -0.06,-3.03 -0.22,-6.06 -0.41,-9.09 l -7.78,0.59 -2.72,-4.28 10.22,-0.75 c -0.25,-3.03 -0.59,-6.03 -0.97,-9.03 l -7.75,1.03 -2.97,-4.09 10.13,-1.38 c -0.44,-2.97 -0.91,-5.97 -1.47,-8.94 l -7.69,1.47 -3.19,-3.87 9.97,-1.97 c -0.62,-2.97 -1.28,-5.94 -2,-8.88 l -7.53,1.97 -3.44,-3.72 9.85,-2.56 c -0.82,-2.91 -1.66,-5.81 -2.57,-8.72 l -7.37,2.41 -3.63,-3.5 9.69,-3.16 c -0.97,-2.87 -2.03,-5.72 -3.09,-8.53 l -7.22,2.81 -3.88,-3.28 9.47,-3.69 c -1.12,-2.81 -2.28,-5.62 -3.53,-8.37 l -7.06,3.28 -4.06,-3.06 9.21,-4.25 c -1.31,-2.72 -2.65,-5.44 -4.06,-8.13 l -6.84,3.66 -4.22,-2.78 8.97,-4.82 c -1.47,-2.65 -2.97,-5.28 -4.53,-7.87 l -6.63,4.09 -4.37,-2.56 8.69,-5.34 c -1.6,-2.57 -3.32,-5.07 -5,-7.57 l -6.38,4.47 -4.53,-2.28 8.34,-5.84 c -1.75,-2.47 -3.56,-4.91 -5.4,-7.31 l -6.16,4.87 -4.62,-1.97 7.93,-6.37 c -1.9,-2.35 -3.84,-4.66 -5.84,-6.94 l -5.81,5.22 -4.75,-1.72 7.59,-6.81 c -2.06,-2.22 -4.16,-4.41 -6.28,-6.56 l -5.5,5.56 -4.85,-1.44 7.19,-7.28 c -2.16,-2.13 -4.41,-4.16 -6.66,-6.19 l -5.15,5.91 -4.94,-1.13 6.75,-7.72 c -2.31,-1.96 -4.62,-3.93 -7,-5.81 l -4.84,6.22 -4.97,-0.81 6.25,-8.1 c -2.41,-1.81 -4.85,-3.62 -7.35,-5.34 l -4.4,6.47 -5.03,-0.53 5.75,-8.44 c -2.54,-1.66 -5.07,-3.31 -7.66,-4.91 l -4.03,6.72 -5.03,-0.25 5.22,-8.75 c -2.6,-1.53 -5.25,-2.97 -7.94,-4.4 l -3.6,6.9 -5.06,0.06 4.72,-9.06 c -2.69,-1.34 -5.44,-2.62 -8.19,-3.9 l -3.18,7.12 -5.04,0.38 4.16,-9.35 c -2.78,-1.18 -5.59,-2.34 -8.41,-3.43 l -2.74,7.31 -5.04,0.69 3.6,-9.54 c -2.88,-1.06 -5.72,-2.06 -8.6,-3 l -2.31,7.47 -4.97,1 3,-9.71 c -2.9,-0.88 -5.81,-1.72 -8.75,-2.47 l -1.84,7.59 -4.91,1.28 2.41,-9.9 c -2.94,-0.69 -5.91,-1.35 -8.88,-1.91 l -1.4,7.69 -4.78,1.56 1.81,-10.06 c -3,-0.53 -6,-0.97 -9,-1.38 l -0.94,7.78 -4.69,1.85 1.22,-10.19 C 254.3,6.33 251.3,6.08 248.27,5.86 l -0.47,7.84 -4.59,2.13 0.62,-10.22 C 240.8,5.45 237.77,5.33 234.74,5.33 v 7.84 l -4.47,2.41 V 5.36 c -2.59,0.03 -5.19,0.06 -7.75,0.18 l 0.41,7.85 -4.32,2.62 -0.56,-10.18 c -3,0.18 -6.03,0.43 -9.03,0.78 l 0.88,7.75 -4.16,2.87 -1.16,-10.15 c -3,0.37 -6,0.84 -9,1.34 l 1.35,7.66 -3.97,3.15 -1.75,-10.09 c -3,0.56 -5.97,1.19 -8.91,1.84 l 1.81,7.63 -3.78,3.34 -2.37,-9.87 c -2.94,0.71 -5.88,1.5 -8.78,2.34 l 2.28,7.47 -3.6,3.56 -2.93,-9.69 c -2.88,0.91 -5.75,1.85 -8.6,2.88 l 2.66,7.28 -3.34,3.78 -3.5,-9.53 c -2.85,1.09 -5.66,2.22 -8.44,3.4 l 3.12,7.1 -3.12,4 -4.1,-9.34 c -2.75,1.24 -5.5,2.56 -8.18,3.9 l 3.53,6.94 -2.88,4.16 -4.62,-9.04 c -2.69,1.41 -5.35,2.85 -7.97,4.38 l 3.97,6.69 -2.63,4.34 -5.15,-8.75 c -2.6,1.56 -5.16,3.19 -7.69,4.85 l 4.31,6.43 -2.34,4.47 -5.69,-8.44 c -2.5,1.72 -4.94,3.5 -7.38,5.32 l 4.72,6.18 -2.09,4.6 -6.19,-8.13 c -2.4,1.88 -4.72,3.82 -7.03,5.75 l 5.09,5.91 -1.81,4.72 -6.66,-7.69 c -2.28,2 -4.53,4.03 -6.72,6.12 l 5.47,5.6 -1.53,4.84 -7.09,-7.31 c -2.16,2.16 -4.28,4.31 -6.31,6.53 l 5.75,5.25 -1.22,4.91 -7.57,-6.88 c -2,2.28 -3.96,4.6 -5.87,6.94 l 6.06,4.88 -0.94,4.96 -7.96,-6.4 c -1.88,2.37 -3.69,4.81 -5.47,7.25 l 6.34,4.53 -0.62,5.03 -8.32,-5.94 c -1.72,2.5 -3.43,5 -5.06,7.57 l 6.66,4.15 -0.35,5.03 -8.62,-5.37 c -1.56,2.56 -3.1,5.19 -4.6,7.84 l 6.85,3.72 -0.03,5.06 -8.91,-4.84 c -1.41,2.66 -2.78,5.34 -4.09,8.09 l 7,3.29 0.28,5.06 -9.19,-4.31 c -1.25,2.74 -2.44,5.53 -3.59,8.34 l 7.18,2.87 0.6,5 -9.47,-3.75 c -0.13,0.35 -0.28,0.69 -0.41,1.07 -0.97,2.5 -1.78,5 -2.65,7.5 l 7.34,2.4 0.88,5 -9.66,-3.19 c -0.94,2.88 -1.78,5.79 -2.59,8.69 l 7.53,2 1.15,4.91 -9.81,-2.6 c -0.75,2.94 -1.47,5.91 -2.13,8.85 l 7.69,1.53 1.47,4.84 -9.97,-2 c -0.59,3 -1.12,5.97 -1.56,8.97 l 7.72,1.06 1.75,4.75 -10.09,-1.4 c -0.38,3 -0.72,6.03 -1,9.03 l 7.78,0.62 2.03,4.63 -10.19,-0.81 c -0.22,3.03 -0.34,6.06 -0.44,9.09 l 7.82,0.16 2.31,4.5 -10.25,-0.22 c -0.03,3.03 0,6.06 0.13,9.09 l 7.81,-0.31 2.59,4.34 -10.22,0.41 c 0.16,3.03 0.35,6.06 0.63,9.09 l 7.81,-0.81 2.81,4.22 -10.12,1.03 c 0.31,3 0.72,6 1.18,9 l 7.69,-1.25 3.06,4 -10.06,1.62 c 0.53,3 1.1,5.97 1.75,8.94 l 7.6,-1.72 3.31,3.85 -10,2.22 c 0.72,2.97 1.5,5.9 2.28,8.81 l 7.5,-2.16 3.53,3.63 -9.78,2.81 c 0.87,2.91 1.78,5.78 2.78,8.65 l 7.35,-2.59 3.75,3.41 -9.6,3.37 c 1.06,2.85 2.13,5.69 3.28,8.47 l 7.16,-3.03 3.94,3.19 -9.35,3.94 c 1.19,2.78 2.47,5.53 3.78,8.28 l 6.97,-3.47 4.1,2.94 -9.13,4.53 c 1.34,2.72 2.81,5.37 4.28,8 l 6.78,-3.85 4.28,2.69 -8.84,5.03 c 1.53,2.63 3.09,5.22 4.75,7.78 l 6.53,-4.28 4.44,2.41 -8.5,5.56 c 1.65,2.53 3.41,5.03 5.19,7.47 l 6.25,-4.66 4.56,2.16 -8.19,6.09 c 1.85,2.41 3.75,4.75 5.66,7.1 l 5.97,-5 4.69,1.87 -7.85,6.6 c 2,2.28 4.03,4.53 6.1,6.75 l 5.68,-5.38 4.78,1.59 -7.4,7.04 c 2.09,2.15 4.22,4.31 6.43,6.4 l 5.38,-5.75 4.87,1.32 -6.96,7.43 c 2.25,2.06 4.5,4.07 6.81,6.03 l 5,-6.03 4.97,1 -6.53,7.88 c 2.34,1.9 4.75,3.75 7.18,5.56 l 4.6,-6.28 5.03,0.69 -6.07,8.28 c 2.47,1.75 5,3.44 7.54,5.09 l 4.21,-6.56 5.04,0.41 -5.54,8.59 c 2.57,1.63 5.16,3.16 7.79,4.69 l 3.84,-6.81 5.06,0.09 -5,8.84 c 2.66,1.47 5.31,2.91 8.06,4.25 l 3.41,-7.03 5.06,-0.19 -4.43,9.13 c 2.71,1.28 5.46,2.53 8.28,3.72 l 2.97,-7.16 5.03,-0.53 -3.88,9.38 c 1.28,0.53 2.53,1.09 3.84,1.59 1.54,0.59 3.1,1.09 4.66,1.62 l 2.5,-7.31 5,-0.81 -3.31,9.62 c 2.87,0.97 5.78,1.85 8.68,2.69 l 2.1,-7.47 4.94,-1.12 -2.75,9.87 c 2.93,0.78 5.87,1.47 8.81,2.13 l 1.65,-7.63 4.85,-1.37 -2.13,9.97 c 2.97,0.62 5.94,1.18 8.91,1.68 l 1.22,-7.78 4.75,-1.65 -1.56,10.06 c 3.03,0.44 6.03,0.84 9.03,1.16 l 0.72,-7.82 4.68,-1.97 -0.96,10.16 c 3.03,0.25 6.06,0.44 9.09,0.59 l 0.25,-7.84 4.53,-2.22 -0.34,10.22 c 3.03,0.06 6.06,0.06 9.09,0 l -0.22,-7.81 4.41,-2.53 0.25,10.28 c 3.06,-0.13 6.06,-0.32 9.09,-0.53 l -0.69,-7.85 4.22,-2.75 0.91,10.19 c 3.03,-0.31 6.03,-0.63 9.03,-1.06 l -1.16,-7.75 4.07,-3.03 1.5,10.09 c 3,-0.47 5.97,-1 8.93,-1.59 l -1.59,-7.66 3.88,-3.25 2.09,10 c 2.94,-0.66 5.91,-1.38 8.81,-2.16 l -2.03,-7.5 3.66,-3.5 2.68,9.88 c 2.94,-0.84 5.82,-1.75 8.69,-2.69 l -2.5,-7.41 3.47,-3.68 3.25,9.65 c 2.88,-1 5.72,-2.03 8.53,-3.15 l -2.94,-7.25 3.22,-3.88 3.85,9.41 c 2.78,-1.19 5.56,-2.38 8.28,-3.66 l -3.35,-7.03 3,-4.09 4.38,9.19 c 2.72,-1.32 5.4,-2.72 8.09,-4.16 l -3.78,-6.81 2.72,-4.25 4.97,8.93 c 2.66,-1.5 5.22,-3.06 7.81,-4.65 l -4.18,-6.6 2.46,-4.4 5.47,8.59 c 2.57,-1.62 5.06,-3.31 7.57,-5.06 l -4.63,-6.34 2.22,-4.57 5.97,8.25 c 2.44,-1.78 4.84,-3.62 7.22,-5.53 l -4.94,-6.03 1.94,-4.69 6.43,7.91 c 2.35,-1.94 4.63,-3.94 6.88,-5.97 l -5.31,-5.75 1.65,-4.78 6.97,7.56 c 2.19,-2.09 4.35,-4.22 6.47,-6.37 l -5.66,-5.44 1.35,-4.88 7.4,7.1 c 2.07,-2.22 4.13,-4.44 6.13,-6.72 l -6,-5.13 1.06,-4.93 7.78,6.62 c 1.94,-2.31 3.85,-4.69 5.69,-7.09 l -6.25,-4.72 0.75,-5 8.16,6.16 c 1.81,-2.44 3.56,-4.91 5.25,-7.44 l -6.5,-4.31 0.47,-5.04 8.53,5.66 c 1.62,-2.53 3.19,-5.12 4.75,-7.75 l -6.75,-3.91 0.15,-5.06 8.88,5.13 c 1.47,-2.63 2.91,-5.32 4.28,-8 l -6.97,-3.5 -0.15,-5.07 9.12,4.6 c 1.31,-2.72 2.63,-5.47 3.88,-8.25 l -7.22,-3.1 -0.44,-5.03 9.34,4 c 0.91,-2.22 1.88,-4.4 2.72,-6.65 0.22,-0.6 0.41,-1.19 0.63,-1.78 l -7.31,-2.63 -0.75,-5.03 9.56,3.47 c 1,-2.88 1.94,-5.75 2.81,-8.66 l -7.44,-2.19 -1.03,-4.93 9.75,2.87 c 0.81,-2.94 1.6,-5.87 2.28,-8.81 l -7.56,-1.75 -1.34,-4.88 9.96,2.32 c 0.66,-2.97 1.22,-5.97 1.75,-8.94 l -7.68,-1.28 -1.66,-4.78 10.13,1.68 c 0.47,-3 0.87,-6 1.22,-9 l -7.79,-0.84 -1.9,-4.69 10.12,1.1 c 0.32,-3.03 0.57,-6.07 0.75,-9.07 l -7.84,-0.37 -2.19,-4.56 z"
   class="fil0 str0" />

   <path
   inkscape:connector-curvature="0"
   id="path19"
   d="m 91.49,231.42 c 0,76.9 62.35,139.25 139.1,139.25 76.9,0 139.25,-62.35 139.25,-139.25 0,-76.75 -62.35,-139.1 -139.25,-139.1 -76.75,0 -139.1,62.35 -139.1,139.1 z"
   class="fil0 str0" />

   <path
   inkscape:connector-curvature="0"
   id="path21"
   d="m 348.37,259.64 c 15.59,-65 -24.47,-130.32 -89.5,-145.91 -64.97,-15.56 -130.31,24.5 -145.88,89.5 -15.59,65 24.47,130.31 89.47,145.91 65,15.56 130.35,-24.5 145.91,-89.5 z"
   class="fil0 str0" />

   <path
   inkscape:connector-curvature="0"
   id="path23"
   d="m 210.21,350.7 c 6.63,1.16 13.44,1.81 20.41,1.81 6.94,0 13.75,-0.65 20.37,-1.81 -1.81,-7.97 -10.28,-14.25 -20.37,-14.25 -9.97,0 -18.6,6.28 -20.41,14.25 z"
   class="fil0 str0" />

   <path
   inkscape:connector-curvature="0"
   id="path25"
   d="m 210.21,112.2 c 6.63,-1.16 13.44,-1.85 20.41,-1.85 6.94,0 13.75,0.69 20.37,1.85 -1.81,7.94 -10.28,14.25 -20.37,14.25 -9.97,0 -18.6,-6.31 -20.41,-14.25 z"
   class="fil0 str0" />

   <path
   inkscape:connector-curvature="0"
   id="path27"
   d="m 131.87,301.35 c 3.87,5.5 8.18,10.79 13.12,15.69 4.94,4.94 10.19,9.28 15.72,13.16 4.35,-6.94 2.81,-17.35 -4.34,-24.5 -7.03,-7.06 -17.6,-8.69 -24.5,-4.35 z"
   class="fil0 str0" />

   <path
   inkscape:connector-curvature="0"
   id="path29"
   d="m 300.52,132.7 c 5.5,3.87 10.79,8.22 15.69,13.12 4.94,4.94 9.28,10.22 13.13,15.72 -6.91,4.35 -17.35,2.82 -24.47,-4.34 -7.06,-7.03 -8.69,-17.56 -4.35,-24.5 z"
   class="fil0 str0" />

   <path
   inkscape:connector-curvature="0"
   id="path31"
   d="m 111.34,211.04 c -1.16,6.66 -1.82,13.44 -1.82,20.41 0,6.97 0.66,13.75 1.82,20.4 7.96,-1.84 14.28,-10.28 14.28,-20.4 0,-9.94 -6.32,-18.56 -14.28,-20.41 z"
   class="fil0 str0" />

   <path
   inkscape:connector-curvature="0"
   id="path33"
   d="m 349.87,211.04 c 1.15,6.66 1.81,13.44 1.81,20.41 0,6.97 -0.66,13.75 -1.81,20.4 -7.97,-1.84 -14.25,-10.28 -14.25,-20.4 0,-9.94 6.28,-18.56 14.25,-20.41 z"
   class="fil0 str0" />

   <path
   inkscape:connector-curvature="0"
   id="path35"
   d="m 300.77,329.98 c 5.51,-3.88 10.79,-8.22 15.69,-13.16 4.91,-4.93 9.22,-10.22 13.1,-15.75 -6.94,-4.31 -17.38,-2.75 -24.5,4.41 -7.03,7.06 -8.63,17.63 -4.29,24.5 z"
   class="fil0 str0" />

   <path
   inkscape:connector-curvature="0"
   id="path37"
   d="m 131.68,161.79 c 3.84,-5.5 8.16,-10.78 13.09,-15.72 4.91,-4.97 10.16,-9.31 15.66,-13.18 4.34,6.9 2.88,17.34 -4.25,24.49 -7.03,7.07 -17.59,8.75 -24.5,4.41 z"
   class="fil0 str0" />

   <polygon
   id="polygon39"
   points="252.93,262.07 255.06,265.79 252.93,269.51 248.62,269.51 246.49,265.79 248.62,262.07 "
   class="fil0 str0" />

   <polygon
   id="polygon41"
   points="232.81,267.51 234.96,271.23 232.81,274.92 228.52,274.92 226.37,271.23 228.52,267.51 "
   class="fil0 str0" />

   <polygon
   id="polygon43"
   points="212.71,262.07 214.84,265.79 212.71,269.51 208.43,269.51 206.27,265.79 208.43,262.07 "
   class="fil0 str0" />

   <polygon
   id="polygon45"
   points="198.43,247.79 200.56,251.48 198.43,255.2 194.12,255.2 191.99,251.48 194.12,247.79 "
   class="fil0 str0" />

   <polygon
   id="polygon47"
   points="192.96,227.79 195.12,231.48 192.96,235.2 188.68,235.2 186.56,231.48 188.68,227.79 "
   class="fil0 str0" />

   <polygon
   id="polygon49"
   points="198.43,207.57 200.56,211.29 198.43,215.01 194.12,215.01 191.99,211.29 194.12,207.57 "
   class="fil0 str0" />

   <polygon
   id="polygon51"
   points="212.71,193.29 214.84,197.01 212.71,200.73 208.43,200.73 206.27,197.01 208.43,193.29 "
   class="fil0 str0" />

   <polygon
   id="polygon53"
   points="232.81,187.85 234.96,191.57 232.81,195.29 228.52,195.29 226.37,191.57 228.52,187.85 "
   class="fil0 str0" />

   <polygon
   id="polygon55"
   points="252.93,193.29 255.06,197.01 252.93,200.73 248.62,200.73 246.49,197.01 248.62,193.29 "
   class="fil0 str0" />

   <polygon
   id="polygon57"
   points="267.21,207.57 269.37,211.29 267.21,215.01 262.93,215.01 260.77,211.29 262.93,207.57 "
   class="fil0 str0" />

   <polygon
   id="polygon59"
   points="272.65,227.7 274.81,231.42 272.65,235.11 268.37,235.11 266.21,231.42 268.37,227.7 "
   class="fil0 str0" />

   <polygon
   id="polygon61"
   points="267.21,247.79 269.37,251.48 267.21,255.2 262.93,255.2 260.77,251.48 262.93,247.79 "
   class="fil0 str0" />

   <path
   inkscape:connector-curvature="0"
   id="path63"
   d="m 230.68,185.42 c 25.34,0 45.97,20.65 45.97,46 0,25.37 -20.63,46 -45.97,46 -25.37,0 -46,-20.63 -46,-46 0,-25.35 20.63,-46 46,-46 z m 0,-5.57 c -28.5,0 -51.59,23.1 -51.59,51.57 0,28.47 23.09,51.56 51.59,51.56 28.47,0 51.53,-23.1 51.53,-51.56 0,-28.47 -23.06,-51.57 -51.53,-51.57 z"
   class="fil0 str0" />

  </g>

 </g>

</svg>
