<svg xmlns="http://www.w3.org/2000/svg" viewBox="0 0 1875 1875" shape-rendering="geometricPrecision" text-rendering="geometricPrecision" image-rendering="optimizeQuality" fill-rule="evenodd" clip-rule="evenodd" id="круги">
    <path d="M1875 937.5C1875 419.73 1455.27 0 937.5 0S0 419.73 0 937.5 419.73 1875 937.5 1875 1875 1455.27 1875 937.5zm-468.75 0c0-258.88-209.87-468.75-468.75-468.75S468.75 678.62 468.75 937.5s209.87 468.75 468.75 468.75 468.75-209.87 468.75-468.75z" fill="#43c876"
      fill-opacity=".529"></path>
    <path d="M1171.87 937.5c0-129.44-104.93-234.37-234.37-234.37S703.13 808.06 703.13 937.5s104.93 234.37 234.37 234.37 234.37-104.93 234.37-234.37z" fill="#fff" fill-opacity=".2"></path>
    <path d="M1171.87 937.5c0-129.44-104.93-234.37-234.37-234.37S703.13 808.06 703.13 937.5s104.93 234.37 234.37 234.37 234.37-104.93 234.37-234.37zm234.38 0c0-258.88-209.87-468.75-468.75-468.75S468.75 678.62 468.75 937.5s209.87 468.75 468.75 468.75 468.75-209.87 468.75-468.75z"
      fill="#43c876" fill-opacity=".2"></path>
  </svg>
