<svg xmlns="http://www.w3.org/2000/svg" xml:space="preserve" width="20457px" height="5492px" version="1.1" style="shape-rendering:geometricPrecision; text-rendering:geometricPrecision; image-rendering:optimizeQuality; fill-rule:evenodd; clip-rule:evenodd"
viewBox="0 0 20457 5492.21"
 xmlns:xlink="http://www.w3.org/1999/xlink">
 <defs>
  <style type="text/css">
   <![CDATA[
    .str1 {stroke:white;stroke-width:15.25;stroke-miterlimit:22.9256;stroke-opacity:0.400000}
    .str2 {stroke:white;stroke-width:15.25;stroke-miterlimit:22.9256;stroke-opacity:0.800000}
    .str0 {stroke:white;stroke-width:15.25;stroke-miterlimit:22.9256}
    .str3 {stroke:white;stroke-width:30.47;stroke-miterlimit:22.9256}
    .fil2 {fill:none}
    .fil4 {fill:none}
    .fil5 {fill:none}
    .fil7 {fill:#6FDE9B}
    .fil3 {fill:white}
    .fil1 {fill:url(#id0)}
    .fil0 {fill:url(#id1)}
    .fil6 {fill:url(#id2)}
   ]]>
  </style>
  <linearGradient id="id0" gradientUnits="userSpaceOnUse" x1="17340.21" y1="341.96" x2="17340.21" y2="3701.38">
   <stop offset="0" style="stop-opacity:1; stop-color:#6FDE9B"/>
   <stop offset="1" style="stop-opacity:0; stop-color:#6FDE9B"/>
  </linearGradient>
  <linearGradient id="id1" gradientUnits="userSpaceOnUse" xlink:href="#id0" x1="6826.11" y1="341.96" x2="6826.11" y2="3729.51">
  </linearGradient>
  <linearGradient id="id2" gradientUnits="userSpaceOnUse" xlink:href="#id0" x1="12382.6" y1="341.96" x2="12382.6" y2="3729.51">
  </linearGradient>
 </defs>
 <g id="Слой_x0020_1">
  <metadata id="CorelCorpID_0Corel-Layer"/>
  <path class="fil0" d="M4380.95 3736.26l4924.26 0 0 -3386.8 -4924.26 0c-594.32,0 -594.32,3386.8 0,3386.8z"/>
  <path class="fil1" d="M19557.62 339.39l-4882.36 0 0 3394.43 4882.36 0c589.13,0 589.13,-3394.43 0,-3394.43z"/>
  <path class="fil2 str0" d="M4493.83 3738.13l-108.19 0c-589.26,0 -589.26,-3394.42 0,-3394.42l108.19 0 0 3394.42z"/>
  <polygon class="fil2 str0" points="4382.2,3738.13 4351.17,3734.41 4351.17,526.43 4382.2,526.43 "/>
  <path class="fil2 str0" d="M16471.88 115.8l0 55.44 810.33 0 0 -55.44c0,-12.32 -9.88,-22.19 -22.19,-22.19l-766.17 0c-12.12,0 -21.97,9.88 -21.97,22.19l0 0z"/>
  <path class="fil2 str0" d="M11562.37 115.8l0 55.44 810.33 0 0 -55.44c0,-12.32 -9.88,-22.19 -22.19,-22.19l-766.17 0c-12.12,0 -21.97,9.88 -21.97,22.19l0 0z"/>
  <path class="fil2 str0" d="M6652.83 115.8l0 55.44 810.45 0 0 -55.44c0,-12.32 -9.88,-22.19 -22.19,-22.19l-766.26 0c-12.03,0 -22,9.88 -22,22.19z"/>
  <polyline class="fil2 str0" points="13392.68,4139.76 8954.33,4139.76 8671.33,3824.16 20378.57,3824.16 20378.57,4139.76 17566.96,4139.76 "/>
  <path class="fil2 str0" d="M17893.81 4724.9l0.56 -0.56 22.29 -21.41 133.5 -127.13 457.19 -436.04 -676.82 0c-50.41,-56.72 -107.72,-107.12 -170.6,-149.97 -115.44,-0.31 -238,0 -366.22,0 -1111.96,0 -2649.42,0.19 -3625.65,0.19l-368.44 0c-294.32,0 -495.01,0 -553.51,-0.19l0 434.26 102.72 90.81 0 472.17 70.41 0 0 -409.98 126.66 111.81 21.5 18.85 0.59 0.59"/>
  <path class="fil2 str0" d="M9551.87 3958.92l0 1028.11 3316.71 0 0 -223.07c0,-286 128.69,-542.54 331.32,-714.51 39.37,-33.59 81.65,-63.88 126.19,-90.53l-3774.22 0 0 0z"/>
  <path class="fil2 str0" d="M9264.59 4158.04l-209.88 0c-14.94,0 -27.03,-12.12 -27.03,-27.06l0 -209.85c0,-14.93 12.09,-27.06 27.03,-27.06l209.88 0c14.94,0 27.03,12.13 27.03,27.06l0 209.85c0,14.94 -12.09,27.06 -27.03,27.06z"/>
  <polygon class="fil2 str0" points="9357.15,4953.81 9265.93,4883.21 9053.46,4883.21 8962.24,4953.81 8889.68,4953.81 8889.68,4990.93 9429.62,4990.93 9429.62,4953.81 "/>
  <path class="fil2 str0" d="M9235.68 4552.46l-152.06 0 0 -533.57c0,-32.35 26.28,-58.6 58.69,-58.6l34.68 0c32.41,0 58.69,26.25 58.69,58.6l0 533.57 0 0 0 0z"/>
  <polygon class="fil2 str0" points="9222.31,4552.46 9096.99,4552.46 9096.99,4883.21 9222.31,4883.21 "/>
  <path class="fil2 str0" d="M20378.57 4183.83l31.06 0c42.97,0 42.97,-213.79 0,-213.79l-31.06 0 0 213.79z"/>
  <polygon class="fil2 str0" points="20378.57,3824.16 20277.03,3824.16 20277.03,4287.61 20378.57,4287.61 "/>
  <polygon class="fil2 str0" points="20378.57,4579.3 20277.03,4579.3 20277.03,4843.27 20378.57,4843.27 "/>
  <polygon class="fil2 str0" points="20351.54,4287.61 20304.07,4287.61 20304.07,4665.15 20351.54,4665.15 "/>
  <polygon class="fil2 str0" points="19563.96,3824.16 4411.8,3824.16 4383.2,3738.13 19563.96,3738.13 "/>
  <polygon class="fil2 str0" points="19552.84,161.08 4351.17,161.08 4351.17,526.43 19552.84,526.43 "/>
  <path class="fil2 str0" d="M4162.89 3534.82l-152.04 0 0 -526.54 4.6 0c35.25,213.66 84.43,397.16 147.43,526.54l0.01 0z"/>
  <path class="fil2 str0" d="M9053.27 2920.96l85.91 0c53.72,0 97.28,43.47 97.28,97.16l0 377.45 2225.13 0 0 -377.45c0,-53.69 43.53,-97.16 97.25,-97.16l85.94 0c53.72,0 97.25,43.47 97.25,97.16l0 377.45 2225.13 0 0 -377.45c0,-53.69 43.56,-97.16 97.28,-97.16l85.94 0c53.69,0 97.25,43.47 97.25,97.16l0 377.45 2225.13 0 0 -377.45c0,-53.69 43.56,-97.16 97.25,-97.16l85.94 0c53.72,0 97.28,43.47 97.28,97.16l0 377.45 2225.13 0 0 -377.45c0,-53.69 43.53,-97.16 97.25,-97.16l85.94 0c53.72,0 97.25,43.47 97.25,97.16l0 377.45 0 198.72 0 229.97 -10302.78 0 0 -229.97 0 -198.72 0 -377.45c0,-53.69 43.53,-97.16 97.25,-97.16l0 0 0 0z"/>
  <polygon class="fil2 str0" points="19520.4,3531.69 18174.35,3531.69 18088.5,3732.07 18088.5,4615.55 19606.24,4615.55 19606.24,3732.07 "/>
  <path class="fil2 str0" d="M2848.77 4937.21l0 40.13 186.6 0 0 -1019.02 383.88 0 0.5 -2523.94 -73.53 -1210.49 -125.28 -210.06 -904.39 245c-1830.5,20.63 -1925.03,221.69 -2137.82,1175.55l-30.84 0c-42,0 -76.09,34.09 -76.09,76.09l0 133.01c0,43.34 35.25,78.59 78.72,78.59l482.5 0 -2.34 35.06 -61.81 896.46 -2.35 35.25 0 0.68 -407.13 70.91 -31.72 12.09c-39.47,15.26 -65.62,53.04 -65.62,95.23l0 533.88c-28.72,14.44 -46.69,43.62 -46.69,75.66l0 396.56c0.5,42.1 37.59,74.72 79.59,74.72l42.97 0 0 145.6 -26.37 0c-40.13,0.19 -72.85,32.91 -72.85,73.03l0 21.88 16.31 11.72 0 327.16 -16.31 11.59 0 46.69 16.31 11.72 0 121.47 -16 11.72c1.85,11.62 2.22,15.44 6.03,28.22 17,58.12 67.69,102.25 130.66,109.19l1022.24 106.62 0 -37.97m672.44 -2532.82l-1240.89 216.48 57.94 -840.39 1182.95 0 0 623.91z"/>
  <path class="fil2 str0" d="M567.02 4094.36l-0.5 815.01 -390.82 -40.82c-62.97,-7.03 -113.66,-51.06 -130.66,-109.15 -3.81,-12.82 -4.18,-16.63 -6.03,-28.25l16 -11.69 0 -121.5 -16.31 -11.72 0 -46.66 16.31 -11.62 0 -327.16 -16.31 -11.72 0 -21.88c0,-40.13 32.72,-72.84 72.84,-73.03l455.48 0.19 0 0 0 0z"/>
  <path class="fil2 str0" d="M788.4 2573.52l0 -748.82c0,-26.75 -20.13,-45.5 -39.38,-36.91 -42.09,19.06 -133.78,42.97 -133.78,171.78l0 479.07c0,142.6 173.16,225.88 173.16,134.88l0 0z"/>
  <path class="fil3" d="M2962.93 3620.07c-62.91,70.59 -104.88,117.66 -117.56,131.63l-294.54 0 -178.31 -0.1c-404.39,0 -408.01,0.5 -442.39,4.41l-11.4 1.25c-248.54,25.5 -485.13,145.72 -650.29,329.97l-61.32 0 -394.22 -0.09 -656.23 -0.19 0 -131.25c227.72,0.09 402.91,1.47 544.23,2.53 91.41,0.69 166.28,1.28 228.19,1.28 264.38,0 296.97,-10.65 361.22,-70.31 175.6,-163.16 424.79,-268.63 634.95,-268.63l7.53 0.09 18.84 0c407.29,-0.09 883.17,-0.31 1011.3,-0.59l0 0 0 0zm32.03 -14.47c-8.12,0.59 -1053.29,0.69 -1062.17,0.69 -2.44,0 -5,0 -7.53,0 -214.25,0 -465.69,106.06 -644.7,272.34 -60.25,56.07 -87.9,66.63 -351.47,66.63 -158,0 -400.94,-3.81 -786.76,-3.81l0 159.84c1096.73,0.19 871.45,0.19 1132.58,0.19 166.19,-188.06 401.25,-304.97 645.29,-329.97 48.31,-5.07 7.5,-5.57 452.32,-5.57 120.41,0 276.25,0 479.19,0 5.16,-5.06 138.38,-154.87 143.25,-160.34l0 0 0 0z"/>
  <polyline class="fil2 str0" points="7035.93,3958.32 3034.9,3958.32 3034.9,4979.68 6773.93,4984.56 6773.93,4944.43 "/>
  <path class="fil2 str0" d="M3834.29 3958.32l0 1028.11 2744.04 0 0 -223.03c0,-286.13 128.81,-542.57 331.35,-714.54 39.44,-33.6 81.62,-63.88 126.25,-90.54l-3201.64 0 0 0 0 0z"/>
  <polygon class="fil2 str0" points="5812.25,3823.48 5812.25,3901.88 5998.48,3901.88 5998.48,3958.32 6616.7,3958.32 6616.7,3901.88 6966.12,3901.88 7137.9,3823.48 "/>
  <polygon class="fil2 str0" points="3810.94,3958.32 3057.84,3958.32 3057.84,4986.43 3810.94,4986.43 "/>
  <path class="fil2 str0" d="M2848.77 4937.31l0 -166.51c0,-227.91 -92.47,-434.16 -241.78,-583.76 -149.5,-149.31 -355.76,-241.78 -583.79,-241.78 -455.63,0 -825.26,369.6 -825.26,825.54l0 166.51"/>
  <path class="fil2 str0" d="M566.71 4094.17l-0.19 815.2 444.69 45.53 0 -184.1c0,-259.66 98.26,-496.94 259.98,-676.44l-704.48 -0.19z"/>
  <path class="fil2 str0" d="M3572.19 3958.32l-152.75 0 0 -815.57 32.72 0c66.31,0 120.03,53.69 120.03,120l0 695.57z"/>
  <polygon class="fil2 str0" points="4010.85,3301.53 3572.19,3301.53 3572.19,3535.5 4010.85,3535.5 "/>
  <path class="fil2 str0" d="M17139.24 3826.2l0 -0.19 -3307.43 0c-521.16,-1.56 -940.57,421.75 -940.57,937.39l0 259.16 172.62 0 0 -244.13c0,-424.79 344.63,-780.95 767.95,-779.29l3296.58 0c423.32,-1.66 767.95,354.5 767.95,779.29l0 244.13 129.66 0c23.75,0 42.97,-19.25 42.97,-42.97l0 -216.19c0,-514.45 -416.57,-933.2 -929.73,-937.2l0 0z"/>
  <path class="fil2 str0" d="M13829.97 3900.82c-454.57,-0.78 -849.11,331.63 -867.17,879.95 -2.16,34.88 -1.84,201.94 1.06,241.79l28.13 0c0,-25.38 71.59,-48.25 71.5,-69.53 -0.31,-21.38 -0.31,-104.1 0.47,-122.94 0.41,-9.38 1,-77.63 1.97,-86.72 21.69,-424.98 366.19,-745.58 765.89,-744.3l3261.14 -0.09c12.19,0 59.75,0.47 71.75,1.66 378.03,17.87 700.38,323.31 728.01,728.98 1.75,13.37 3.03,69.4 3.53,83.37 0.97,24.03 0.69,129.32 0.38,157.63 -0.19,16.19 52.93,33.41 52.93,51.94l23.35 0c12.59,-9.75 22.56,-29 23.44,-50.28 1.24,-33.1 1.65,-172.35 -0.1,-201.66 -17.87,-549.88 -414.25,-867.73 -862.39,-869.8 -1830.59,0 -3289.23,0 -3303.89,0l0 0 0 0z"/>
  <path class="fil2 str0" d="M17128.39 3975.64c-3661.21,0 -3271.08,-0.13 -3300.17,-0.13 -434.76,0 -846.39,303.22 -791.79,1047.14l27.65 -0.19c0,-101.37 -3.03,-183.37 0,-258.88 0.66,-18.65 1.94,-37.09 3.78,-55.28 43.47,-425.16 388.01,-710.23 763.95,-709.45l3296.58 -0.09c390.6,-0.78 749.7,307.82 767.76,764.45 3,75.56 0,157.78 0,259.25l23.53 0c64.63,-770.57 -358.88,-1046.92 -791.29,-1046.82l0 0 0 0z"/>
  <path class="fil2 str0" d="M8475.83 4322.08l0 -100.47c0,-48.53 -39.25,-87.78 -87.69,-87.78l-154.97 0c-171.47,-189.26 -419.13,-307.82 -694.42,-307.82 -258.29,0 -492.57,105.19 -662.29,274.91 -84.85,84.84 -153.5,185.81 -200.94,297.91 -47.57,112.13 -73.85,235.35 -73.85,364.57l0 259.16 172.66 0 0 -244.13c0,-214.25 87.69,-411.13 228.88,-553.42 141.32,-142.28 336.04,-229.97 550.29,-225.88 207.6,3.91 395.01,90.54 530.54,228.54 135.56,137.88 219.16,327.03 219.16,535.73l0 259.16 114.25 0c32.22,0 58.38,-26.07 58.38,-58.32 0,-119.62 0,-220.78 0,-321.66 0,-100.97 0,-201.75 0,-320.5l0 0 0 0z"/>
  <path class="fil2 str0" d="M2023.2 3758.63c-557.89,0 -1011.99,454.1 -1011.99,1012.17l0 184.19 186.73 20.19 0 -204.38c0,-455.94 369.63,-825.54 825.26,-825.54 190.22,0 365.32,64.53 504.97,172.63l320.51 -359.07c-0.13,0 -825.48,-0.19 -825.48,-0.19l0 0 0 0z"/>
  <path class="fil2 str0" d="M2023.2 3763.91c-554.95,0 -1006.71,451.64 -1006.71,1006.9l0 184.65 181.44 19.75 0 -204.4c0,-455.95 369.63,-825.55 825.27,-825.55 190.25,0 365.32,64.53 504.97,172.63l310.63 -348.04c-5.06,-3.59 -808.76,-5.93 -815.6,-5.93l0 -0.01z"/>
  <polygon class="fil2 str0" points="3738.97,4425.8 3128.43,4425.8 3128.43,4796.12 3738.97,4796.12 "/>
  <polygon class="fil2 str0" points="3128.43,4425.8 3128.43,4796.12 3279.9,4796.12 3279.9,4425.8 "/>
  <polygon class="fil2 str0" points="3738.97,4796.12 3738.97,4425.8 3587.5,4425.8 3587.5,4796.12 "/>
  <polygon class="fil2 str0" points="3738.97,4007.26 3128.43,4007.26 3128.43,4376.08 3738.97,4376.08 "/>
  <polygon class="fil2 str0" points="3128.43,4007.26 3128.43,4376.08 3279.9,4376.08 3279.9,4007.26 "/>
  <polygon class="fil2 str0" points="3738.97,4376.08 3738.97,4007.26 3587.5,4007.26 3587.5,4376.08 "/>
  <polygon class="fil2 str0" points="3738.97,4844.65 3128.43,4844.65 3128.43,4986.43 3738.97,4986.43 "/>
  <polygon class="fil2 str0" points="3128.43,4844.65 3128.43,4986.43 3279.9,4986.43 3279.9,4844.65 "/>
  <polygon class="fil2 str0" points="3738.97,4986.43 3738.97,4844.65 3587.5,4844.65 3587.5,4986.43 "/>
  <polygon class="fil2 str0" points="3738.97,4377.27 3128.43,4377.27 3128.43,4425.8 3738.97,4425.8 "/>
  <polygon class="fil2 str0" points="3738.97,3958.32 3128.43,3958.32 3128.43,4006.86 3738.97,4006.86 "/>
  <polygon class="fil2 str0" points="3738.97,4796.12 3128.43,4796.12 3128.43,4844.74 3738.97,4844.74 "/>
  <polygon class="fil2 str0" points="982.99,4484.39 661.43,4484.39 661.43,4793.46 982.99,4793.46 "/>
  <polygon class="fil2 str0" points="661.43,4484.39 661.43,4793.46 741.21,4793.46 741.21,4484.39 "/>
  <polygon class="fil2 str0" points="982.99,4793.46 982.99,4484.39 903.21,4484.39 903.21,4793.46 "/>
  <polygon class="fil2 str0" points="982.99,4135.2 661.43,4135.2 661.43,4442.99 982.99,4442.99 "/>
  <polygon class="fil2 str0" points="661.43,4135.2 661.43,4442.99 741.21,4442.99 741.21,4135.2 "/>
  <polygon class="fil2 str0" points="982.99,4442.99 982.99,4135.2 903.21,4135.2 903.21,4442.99 "/>
  <polygon class="fil2 str0" points="982.99,4443.96 661.43,4443.96 661.43,4484.49 982.99,4484.49 "/>
  <polygon class="fil2 str0" points="982.99,4094.36 661.43,4094.36 661.43,4134.89 982.99,4134.89 "/>
  <polygon class="fil2 str0" points="982.99,4793.46 661.43,4793.46 661.43,4833.99 982.99,4833.99 "/>
  <polygon class="fil2 str0" points="19972.15,1402.16 20221.44,1402.16 20221.44,1337.72 19965.59,1337.72 "/>
  <polygon class="fil2 str0" points="19976.94,2627.24 20221.44,2627.24 20221.44,2691.68 19971.19,2691.68 "/>
  <path class="fil2 str0" d="M299.55 4537.24l-48.07 135.63c-9.96,28.03 -36.31,46.68 -66,46.68l-130.47 0 0 -121.59 244.54 -60.72 0 0z"/>
  <path class="fil2 str0" d="M251.48 4672.87l48.07 -135.66 -151.29 37.59c-2.12,16.13 -3.59,34.09 -3.59,53.53 0,36.53 5.06,67.47 10.84,91.19l29.97 0c29.69,0 56.07,-18.62 66,-46.66l0 0 0 0.01z"/>
  <path class="fil2 str0" d="M55.01 4633.99l189.85 -47.06 -26.28 74.12c-5.07,14.07 -18.35,23.44 -33.1,23.44l-130.47 0 0 35.06 130.47 0c29.69,0 56.07,-18.65 66,-46.68l48.07 -135.63 -244.54 60.72 0 36.03 0 0 0 0z"/>
  <path class="fil2 str0" d="M402.77 4247.67l-76.79 214.16 -270.97 66.13 0 -327.16 314.54 0c24.31,0 41.12,24.03 33.22,46.87l0 0z"/>
  <path class="fil2 str0" d="M402.77 4247.67c6.25,-18.44 -3.35,-37.59 -19.85,-44.31l-263.94 0c-9.09,41.59 -16.81,94.53 -16.59,156.13 0.28,59.47 7.69,110.56 16.59,151.19l7.03 0 199.97 -48.76 7.44 -20.5 60.44 -168.75 8.91 -25 0 0 0 0z"/>
  <path class="fil2 str0" d="M393.86 4272.67l-60.44 168.75 -85.15 0c-4.41,-22.65 -8.22,-51.15 -8.41,-83.78 0,-23.16 1.88,-43.84 4.69,-62.31 1.18,-7.91 2.34,-15.63 3.72,-22.66l145.59 0 0 0 0 0z"/>
  <path class="fil2 str0" d="M393.86 4272.67l-60.44 168.75 -85.15 0c-4.41,-22.65 -8.22,-51.15 -8.41,-83.78 0,-23.16 1.88,-43.84 4.69,-62.31 1.18,-7.91 2.34,-15.63 3.72,-22.66l145.59 0 0 0 0 0z"/>
  <path class="fil2 str0" d="M369.55 4200.8l-314.54 0 0 34.96 285.04 0.1c14.47,0 24.62,14.37 19.75,27.94l-60.47 168.53 -244.32 59.59 0 36.04 270.97 -66.13 76.79 -214.16c7.9,-22.84 -8.91,-46.88 -33.22,-46.88l0 0.01z"/>
  <path class="fil2 str0" d="M402.77 4247.67l-76.79 214.16 -270.97 66.13 0 -327.16 314.54 0c24.31,0 41.12,24.03 33.22,46.87l0 0z"/>
  <path class="fil2 str0" d="M1625.47 3309.72l256.54 0 0 -256.54 -256.54 0c-16.72,0 -30.28,13.47 -30.28,30.19l0 196.07c0,16.72 13.56,30.28 30.28,30.28l0 0z"/>
  <path class="fil2 str0" d="M1662.79 3289.22l201.75 0 0 -207.5 -201.75 0c-16.72,0 -30.29,13.47 -30.29,30.15l0 147.16c0,16.72 13.57,30.19 30.29,30.19l0 0z"/>
  <path class="fil2 str0" d="M1730.35 3305.63l16.59 0c8,0 14.66,-6.57 14.66,-14.66l0 -219.13c0,-8 -6.66,-14.56 -14.66,-14.56l-16.59 0c-8.1,0 -14.66,6.56 -14.66,14.56l0 219.13c0,8.09 6.56,14.66 14.66,14.66z"/>
  <path class="fil2 str0" d="M10549.11 4719.05l-144.04 0c-10.56,0 -19.15,-11.62 -19.15,-25.97 0,-14.37 8.59,-26.09 19.15,-26.09l144.04 0c10.65,0 19.12,11.72 19.12,26.09 0,14.35 -8.47,25.97 -19.12,25.97z"/>
  <path class="fil2 str0" d="M12066.54 4719.05l-144.13 0c-10.56,0 -19.16,-11.62 -19.16,-25.97 0,-14.37 8.6,-26.09 19.16,-26.09l144.13 0c10.56,0 19.15,11.72 19.15,26.09 0,14.35 -8.59,25.97 -19.15,25.97z"/>
  <path class="fil2 str0" d="M633.02 1722.07l-482.51 0c-43.47,0 -78.72,-35.16 -78.72,-78.59l0 -10.76 477.73 0c48.44,0 86.81,41.04 83.5,89.35l0 0z"/>
  <path class="fil2 str0" d="M566.52 2689.52c0,77.07 -55.38,142.97 -131.25,156.35l-373.23 65.72 0 -43.75c0,-42.28 26.07,-80.16 65.63,-95.32l31.72 -12.09 407.13 -70.91z"/>
  <path class="fil2 str0" d="M2615.18 1774.82c-0.47,-14.65 -7.04,-27.75 -16.79,-37.31 -9.78,-9.56 -23.15,-15.44 -37.81,-15.44l-1927.56 0 -2.34 35.06c-2.06,30.76 -6.06,86.72 -10.94,156.54 10.44,-48.53 37.13,-76.75 65.13,-94.72l2.56 -38.57 1182.96 0 0 624.01 -1085.9 189.44 -0.31 0c-8.78,20 -33.78,22.16 -61.5,10.75l-93.16 16.29 6.72 -98.72c-13.18,-25.38 -21,-52.44 -21,-83.47l0 -460.85c-18.66,273.25 -46.37,675.76 -46.37,675.76l-2.35 35.15 0 0.78 1523.68 -265.59c312.88,-54.32 537.1,-331.73 524.98,-649.11l0 0 0 0z"/>
  <path class="fil4 str1" d="M633.02 1722.07c-6.56,98.63 -60.66,877.92 -66.5,966.67l0 0.78 -407.13 70.91c14.75,-92.47 147.75,-941.48 163.28,-1038.36l310.35 0 0 0 0 0 0 0z"/>
  <path class="fil4 str1" d="M722.87 2604.58l-93.38 16.29 6.75 -98.91c15.72,29.69 38.28,53.41 61.13,68.84 8.68,5.88 17.28,10.57 25.5,13.78l0 0zm-35.44 -824.1l-2.57 38.19c4.1,-2.57 8.32,-4.91 12.5,-7.25 18.47,-10.25 36.72,-16.78 50,-22.85 0.69,-0.19 1.19,-0.47 1.66,-0.68 19.34,-8.6 39.38,10.06 39.38,36.93l0 748.7c0,8.19 -1.38,14.94 -4.22,20.32l1086.2 -189.44 0 -623.92 -1182.95 0 0 0 0 0 0 0z"/>
  <path class="fil5 str2" d="M687.43 1780.48l-2.66 38.19c4.22,-2.57 8.41,-4.91 12.6,-7.25 18.46,-10.25 36.72,-16.78 50,-22.85 0.68,-0.19 1.18,-0.47 1.65,-0.68 19.35,-8.69 39.38,10.06 39.38,36.84l0 748.79c0,8.22 -1.38,14.94 -4.22,20.31l1086.2 -189.44 0 -623.91 -1182.95 0 0 0 0 0zm9.94 810.32c-22.85,-15.43 -45.51,-39.25 -61.13,-68.84l-6.75 98.91 93.38 -16.32c-8.22,-3.31 -16.82,-7.9 -25.5,-13.75l0 0zm-374.7 -868.73c-15.4,96.88 -148.62,945.98 -163.28,1038.36l407.13 -70.91 0 -0.78c4,-60.34 30.38,-441.19 48.72,-709.04 1.66,-22.88 3.34,-44.84 4.69,-65.84l0 -0.66c6.56,-93.75 11.44,-165.44 13.09,-191.13l-310.35 0 0 0 0 0z"/>
  <polygon class="fil2 str0" points="152.36,2746.96 109.79,2746.96 127.48,2668.62 163.2,2628.68 213.3,2633.77 213.3,2650.55 159.79,2654.77 152.36,2669.71 "/>
  <path class="fil2 str0" d="M156.17 2752.8l0 9.19 -28.59 10.94c-8.32,3.13 -16.04,7.41 -22.97,12.88l0 -33.19c0,-6.94 5.78,-12.91 12.9,-12.91l25.47 0c7.44,0 13.19,5.97 13.19,13.09l0 0z"/>
  <polygon class="fil2 str0" points="3419.16,3686.66 2979.93,3617.04 2982.28,3614.41 2982.06,3610.19 3419.25,3679.63 "/>
  <polygon class="fil2 str0" points="570.14,3948.57 563.11,3948.57 563.11,2688.84 649.02,1437.91 656.05,1437.91 570.14,2689.05 "/>
  <polygon class="fil2 str0" points="1932.2,1437.82 1925.17,1437.82 1925.17,3613.54 1932.2,3613.54 "/>
  <path class="fil2 str0" d="M55.39 4596.58c0,1.88 -0.38,3.35 -0.38,5l239.16 -59.37 -45.9 129.47c-9.57,26.47 -34.76,44.34 -62.79,44.34l-130.47 0 0 4.69c50.6,0 80.38,0 130.47,0 29.97,0 56.91,-19.13 67.19,-47.47 5.25,-15.13 43.85,-123.81 48.72,-137.6 -9.09,2.25 -237.1,58.82 -246,60.94l0 0z"/>
  <path class="fil2 str0" d="M369.55 4199.64c-143.07,0 -85.44,0 -314.54,0l0 4.69 314.54 0c21.87,0 37,21.56 29.87,42.19l-76.15 212.47 -268.26 64.75 0 5.37c1.28,-0.28 269.32,-65.62 271.85,-66.22 1.69,-4.59 76.28,-212.87 76.97,-214.81 8.19,-23.85 -9.28,-48.44 -34.28,-48.44l0 0 0 0z"/>
  <path class="fil2 str0" d="M2851.3 3761.16l-5.15 -4.59 128.97 -144.72 -124.28 -2177.25c-46.88,-260.26 -121.32,-435.63 -379.7,-615.61l-0.97 -0.78 -0.4 -1.18 -156.54 -557.11 6.75 -1.87 156.26 555.85c259.44,181.16 334.25,357.69 381.41,619.91l124.59 2180.6 -0.87 1.06 -130.07 145.69 0 0 0 0z"/>
  <polygon class="fil2 str0" points="178.73,1437.91 178.73,1430.88 2854.93,1430.88 3412.72,1318.38 3413.09,1325.41 2855.62,1437.82 "/>
  <path class="fil2 str0" d="M18870.14 3853.17l-5.28 0 -641.48 0 0 658.47 641.48 0 5.28 0 641.57 0 0 -658.47 -641.57 0zm-5.28 653.69l-636.33 0 0 -648.91 636.33 0 0 648.91zm641.57 0l-636.29 0 0 -648.91 636.29 0 0 648.91z"/>
  <path class="fil2 str0" d="M1271.19 4094.36l-124.13 0c-70.41,91.5 -124.69,191.78 -164.07,302.06 0,163.76 0,11.22 0,437.67l-62.47 0c0.1,0.78 0.1,1.47 0.19,2.25 1.75,31.65 5.85,70.12 12.6,110.62l77.94 7.94c0,-223.07 -5.47,-286.82 32,-436.82 42.4,-164.94 128.31,-315.22 227.94,-423.72l0 0z"/>
  <path class="fil2 str0" d="M6533.52 4986.43l44.81 0 0 -223.03c0,-342.57 184.97,-642.39 457.6,-805.08l-133.19 0c-302.91,237.69 -455.35,634.95 -369.22,1028.11l0 0z"/>
  <path class="fil2 str0" d="M748.93 1787.79l0 823.42c22.75,1.75 39.34,-9.66 39.34,-37.69l0 -748.82c0,-26.75 -20.09,-45.5 -39.34,-36.91z"/>
  <path class="fil2 str0" d="M2978.74 3613.04l-0.5 0.5 -602 0 0 -2791.14 105.75 0c238.66,168.94 322.63,336.22 372.35,611.98l124.4 2178.66 0 0 0 0z"/>
  <path class="fil2 str0" d="M2468.02 810.28c-980.83,1.96 -1726.4,50.9 -2160.29,135.75l-1.28 3.72c433.1,-84.69 1189.24,-125.79 2169.29,-127.63l-5.57 -3.81 -2.15 -8.03 0 0 0 0z"/>
  <polygon class="fil2 str0" points="3025.9,3620.76 3026.31,3629.82 3013.49,3644.29 2883.52,3789.88 2880.49,3793.2 3035.37,3960.89 3035.37,3958.32 3419.25,3958.32 3419.25,3683.26 "/>
  <path class="fil2 str0" d="M3419.75 1434.38l-6.84 -112.47 -236.91 47.75 -275.85 55.66c0.09,0.28 0.09,0.56 0.19,0.87l0.46 2.81 0 2.85 124.63 2178.62 0.47 10.29 393.35 62.46 0.5 -2248.84 0 0 0 0z"/>
  <path class="fil3" d="M476.3 3887.13l52.53 54.69c-33.69,0 -130.66,-0.18 -438.76,-0.18 -32.53,0 -60.34,-23.16 -66.5,-54.51l452.73 0 0 0 0 0zm3.09 -7.21l-464.04 0 0.1 0.96c3.12,39.07 36.9,67.88 74.62,67.88 395.79,0 443.04,0.31 455.54,0.31l-66.22 -69.15 0 0 0 0z"/>
  <polygon class="fil2 str0" points="567.02,4094.17 566.52,4909.37 638.21,4916.9 638.21,4094.17 "/>
  <path class="fil2 str0" d="M2978.74 3613.22l-124.41 -2178.84c-50.4,-279.29 -135.75,-447.23 -381.22,-618.32 -890.42,1.65 -1569.68,39.65 -2005.53,104.97l29.41 35.06 60.65 0 -0.5 -0.5c442.95,-59.06 1096.93,-91 1901.22,-92.84 235.72,167.94 305.26,333.38 349.6,577.22l123.13 2156.47 -14.94 16.78 62.59 0 0 0z"/>
  <polygon class="fil2 str0" points="6578.33,4895.9 3834.29,4895.9 3834.29,4986.43 6578.33,4986.43 "/>
  <polygon class="fil2 str0" points="404.33,4094.26 404.33,4892.49 566.52,4909.46 567.02,4094.36 "/>
  <path class="fil2 str0" d="M40.07 4737.99c1.07,6.94 2.04,11.53 4.97,21.41 17,58.09 67.69,102.22 130.66,109.16l390.82 40.9 0.09 -171.47 -526.54 0 0 0z"/>
  <rect class="fil6" x="9306.56" y="350.55" width="5339.49" height="3386.8"/>
  <polygon class="fil3" points="4081.54,4180.39 6377.86,4180.39 6424.55,4133.73 4034.85,4133.73 4034.85,4819.43 4081.54,4772.77 "/>
  <path class="fil2 str0" d="M12823.74 4987.03l44.81 0 0 -223.07c0,-342.57 184.97,-642.35 457.5,-805.04l-133.09 0c-302.91,237.78 -455.45,634.85 -369.22,1028.11l0 0z"/>
  <polygon class="fil2 str0" points="12868.58,4896.49 9551.87,4896.49 9551.87,4987.03 12868.58,4987.03 "/>
  <path class="fil2 str0" d="M9551.87 3958.92l0 90.53 3648.03 0c39.37,-33.59 81.65,-63.88 126.19,-90.53l-3774.22 0 0 0z"/>
  <polygon class="fil3" points="9799.13,4180.98 11150.74,4180.98 11197.34,4134.29 9752.44,4134.29 9752.44,4820.02 9799.13,4773.46 "/>
  <polygon class="fil3" points="11316.46,4180.98 12668.08,4180.98 12714.76,4134.29 11269.77,4134.29 11269.77,4820.02 11316.46,4773.46 "/>
  <polygon class="fil2 str0" points="19606.24,3732.16 18088.41,3732.16 18088.41,4615.55 19606.24,4615.55 "/>
  <path class="fil2 str0" d="M4162.89 3534.82l-152.04 0 0 -526.54 4.6 0c35.25,213.66 84.43,397.16 147.43,526.54l0.01 0z"/>
  <polygon class="fil2 str0" points="19520.4,3531.69 18174.35,3531.69 18088.5,3732.07 19606.24,3732.07 "/>
  <polygon class="fil3" points="18160.78,3795.95 19533.87,3795.95 19560.65,3769.29 18134.13,3769.29 18134.13,4578.43 18160.78,4551.77 "/>
  <path class="fil2 str0" d="M2650.14 1773.45c-0.68,-22.66 -10.43,-44.63 -27.25,-60.94 -16.78,-16.31 -38.97,-25.38 -62.31,-25.38l-1925.22 0 -2.34 34.94 1927.56 0c14.66,0 28.03,5.88 37.81,15.44 9.75,9.56 16.32,22.65 16.78,37.31 12.13,317.35 -212.09,594.79 -524.97,649.2l-1523.68 265.5 0 35.44 6.06 -0.97 1523.68 -265.5c328.51,-57.13 566.76,-351.66 553.88,-685.04l0 0 0 0z"/>
  <path class="fil2 str0" d="M328.74 4510.86l-11.63 32.72 -48.06 135.54c-12.69,35.25 -46.29,59.06 -83.57,59.06l-145.41 0c-0.4,-2.13 -0.68,-4.19 -1.09,-7.03l16.03 -11.69 130.47 0c29.57,0 56.03,-18.56 66,-46.59l48.07 -135.66 -244.54 60.75 -16.31 -11.72 0 -3.5 11.91 -3.03 244.53 -60.66 33.6 -8.19 0 0 0 0z"/>
  <path class="fil2 str0" d="M420.24 4254.02l-76.75 214.15 -3.32 9.57 -9.78 2.34 -270.88 66.03 -20.81 5.16 0 -11.72 16.31 -11.59 270.97 -66.04 76.79 -214.25c7.9,-22.84 -8.91,-46.87 -33.22,-46.87l-314.54 0 -16.31 -11.72 0 -6.94 330.85 0c17.59,0 33.59,8.12 43.65,22.56 10.25,14.25 12.88,32.53 7.04,49.31l0 0 0 0.01z"/>
  <path class="fil2 str0" d="M2924.06 3468.82l-1984.03 0c-38.16,0 -69.22,-30 -70.69,-68.07 -10.94,-285.34 192.97,-537.6 474.28,-586.6l1527.62 -266.22 2.72 48.34 -1522.3 263.85c-258.51,45.03 -445.79,276.66 -435.64,538.76 0.47,13.09 11.04,23.25 24.01,23.25l1978.87 0 5.16 46.69 0 0 0 0z"/>
  <polygon class="fil2 str0" points="19552.84,161.08 4351.17,161.08 4351.17,526.43 19552.84,526.43 "/>
  <path class="fil2 str0" d="M18174.35 3531.69l1084.45 0 0 -136.13 0 -377.44c0,-53.69 -43.56,-97.16 -97.28,-97.16l-85.94 0c-53.69,0 -97.25,43.47 -97.25,97.16l0 377.44 -2225.13 0 0 -377.44c0,-53.69 -43.56,-97.16 -97.25,-97.16l-85.94 0c-53.72,0 -97.28,43.47 -97.28,97.16l0 377.44 -2225.13 0 0 -377.44c0,-53.69 -43.53,-97.16 -97.25,-97.16l-85.94 0c-53.69,0 -97.25,43.47 -97.25,97.16l0 377.44 -2225.13 0 0 -377.44c0,-53.69 -43.56,-97.16 -97.28,-97.16l-85.91 0c-53.72,0 -97.28,43.47 -97.28,97.16l0 377.44 -2225.13 0 0 -377.44c0,-53.69 -43.53,-97.16 -97.25,-97.16l-85.94 0c-53.72,0 -97.25,43.47 -97.25,97.16l0 377.44 0 198.73 0 229.97 9132.51 0 0 -92.19 85.85 -200.38 0 0 0 0z"/>
  <path class="fil2 str0" d="M2473.11 816.06c-1008.76,1.84 -1746.34,50.37 -2166.25,132.5 191.5,-541.1 544.51,-673.32 2009.72,-689.73l156.53 557.23 0 0z"/>
  <path class="fil2 str0" d="M2854.33 1434.38l-2675.6 0c42.47,-190.41 80.28,-350.66 128.13,-485.82 420,-82.13 1157.58,-130.66 2166.22,-132.5 245.5,171.09 330.85,339.03 381.25,618.32l0 0 0 0z"/>
  <path class="fil2 str0" d="M652.83 1434.38l-13.75 198.35 -567.29 0 0 -122.26c0,-42 34.1,-76.09 76.1,-76.09l504.94 0z"/>
  <path class="fil2 str0" d="M3412.91 1321.91l-66.69 -1098.02 -125.29 -210.06 -904.38 245 143.47 510.54 27.72 0 12.22 8.4c270.78,188.76 351.84,380.35 400.16,647.45l275.88 -55.59 236.91 -47.75 0 0.03 0 0z"/>
  <path class="fil2 str0" d="M567.02 3400.94l-68.85 68.84 -482.13 0c2.16,-29 19.63,-54.9 46,-68.15l0 -0.69 504.98 0 0 0z"/>
  <path class="fil2 str0" d="M38.7 4167.2l0 5.6c0.59,0 1.06,0.09 1.56,0.09 70.82,4.97 154.38,8.28 244.82,8.97 2.16,0.09 4.41,0.09 6.53,0.09 12.03,0.1 24.13,0.19 36.44,0.19 0,0 0,0 0.09,0 21.28,0 42.38,-0.19 63.1,-0.47 0.37,0 0.78,0 1.15,0 41.03,-0.5 80.57,-1.56 117.97,-3.03 1.19,-0.09 2.35,-0.09 3.63,-0.19 13.37,-0.5 26.15,-1.09 38.97,-1.75 4.68,-0.22 9.37,-0.5 14.06,-0.69l0 -81.65 -455.48 -0.19c-40.12,0.19 -72.84,32.91 -72.84,73.03l0 0z"/>
  <path class="fil2 str0" d="M3026.31 3629.82l-12.82 14.47 -129.97 145.59 -3.03 3.32 -31.72 -34.38 129.97 -145.6 -124.41 -2178.81c-50.4,-279.28 -135.84,-447.26 -381.22,-618.35 -890.42,1.65 -1569.68,39.66 -2005.53,105.06l1.69 2.06 -60.94 0 -30.09 -35.93 82.31 -12.41c446.88,-67.19 1137.95,-103.31 1999.47,-105.47l27.72 0 12.22 8.41c271.06,189.06 352.03,380.85 400.38,648.51l0.46 2.74 0 2.82 124.63 2178.65 0.88 19.35 0 -0.03 0 0z"/>
  <polygon class="fil2 str0" points="3924.82,3958.32 3834.29,3958.32 3834.29,4986.43 3924.82,4986.43 "/>
  <path class="fil2 str0" d="M3834.29 3958.32l0 90.54 3075.39 0c39.44,-33.6 81.62,-63.85 126.25,-90.54l-3201.64 0z"/>
  <polygon class="fil3" points="6377.86,4180.39 6377.86,4772.77 4081.54,4772.77 4034.85,4819.43 6424.55,4819.43 6424.55,4133.73 "/>
  <polygon class="fil2 str0" points="9642.41,3959.01 9551.87,3959.01 9551.87,4987.03 9642.41,4987.03 "/>
  <polygon class="fil3" points="11150.74,4180.98 11150.74,4773.46 9799.13,4773.46 9752.44,4820.02 11197.34,4820.02 11197.34,4134.29 "/>
  <polygon class="fil3" points="12668.08,4180.98 12668.08,4773.46 11316.46,4773.46 11269.77,4820.02 12714.76,4820.02 12714.76,4134.29 "/>
  <polygon class="fil3" points="19533.87,3795.95 19533.87,4551.77 18160.78,4551.77 18134.13,4578.43 19560.65,4578.43 19560.65,3769.29 "/>
  <path class="fil2 str0" d="M766.21 2786.59l-87.5 0c-17.66,0 -31.81,-14.25 -31.81,-31.82l0 -6.37c0,-17.57 14.15,-31.82 31.81,-31.82l87.5 0c17.59,0 31.84,14.25 31.84,31.82l0 6.37c0,17.57 -14.25,31.82 -31.84,31.82z"/>
  <path class="fil2 str0" d="M678.71 1588.38l87.5 0c17.59,0 31.84,14.28 31.84,31.85l0 6.34c0,17.59 -14.25,31.84 -31.84,31.84l-87.5 0c-17.66,0 -31.81,-14.28 -31.81,-31.84l0 -6.34c0,-17.6 14.15,-31.85 31.81,-31.85z"/>
  <path class="fil2 str0" d="M747.37 1634.1l0 154.47c-13.29,6.07 -31.54,12.6 -49.91,22.85l0 -177.32c0,-13.78 11.16,-24.91 24.9,-24.91 13.79,0 25.01,11.13 25.01,24.91z"/>
  <path class="fil2 str0" d="M697.46 2590.8c17.5,11.91 34.97,18.85 49.91,20.32l0 129.68c0,13.76 -11.22,25.01 -25,25.01 -13.75,0 -24.91,-11.25 -24.91,-25.01l0 -150z"/>
  <path class="fil2 str0" d="M747.37 1752.35l0 -118.06c0,-13.88 -11.13,-25 -24.91,-25 -13.84,0 -25,11.12 -25,25l0 118.06 49.91 0z"/>
  <path class="fil2 str0" d="M697.46 2614.33l0 126.48c0,13.75 11.16,24.9 25,24.9 13.78,0 24.91,-11.15 24.91,-24.9l0 -126.48 -49.91 0z"/>
  <polygon class="fil2 str0" points="10542.76,3835.48 10663.27,3835.48 10663.27,3500.94 10542.76,3500.94 "/>
  <polygon class="fil2 str0" points="12662.01,3835.48 12782.55,3835.48 12782.55,3500.94 12662.01,3500.94 "/>
  <polygon class="fil2 str0" points="14781.3,3835.48 14901.7,3835.48 14901.7,3500.94 14781.3,3500.94 "/>
  <polygon class="fil2 str0" points="16900.58,3835.48 17020.99,3835.48 17020.99,3500.94 16900.58,3500.94 "/>
  <path class="fil3" d="M15136.64 4133.83l-978.26 0c16,8.28 31.72,17.09 46.97,26.46l884.42 0c15.25,-9.37 30.87,-18.18 46.87,-26.46l0 0z"/>
  <path class="fil3" d="M15001.71 4224.55l-708.3 0c9.97,8.5 19.75,17.37 29.32,26.47l649.69 0c9.47,-9.1 19.22,-17.97 29.29,-26.47l0 0z"/>
  <path class="fil3" d="M15245.55 4088.51l-1195.95 0c23.72,7.63 46.84,16.5 69.4,26.47l1057.11 0c22.57,-9.97 45.69,-18.84 69.44,-26.47z"/>
  <path class="fil3" d="M15060.77 4179.23l-826.42 0c12.19,8.38 24.22,17.28 35.84,26.38l754.64 0c11.72,-9.1 23.66,-17.97 35.94,-26.38z"/>
  <path class="fil3" d="M14878.36 4360.58l-461.6 0c5.97,8.69 11.81,17.47 17.47,26.44l426.57 0c5.65,-8.97 11.5,-17.75 17.56,-26.44z"/>
  <path class="fil3" d="M14912.45 4315.27l-529.88 0c7.13,8.59 14.06,17.37 20.72,26.34l488.44 0c6.75,-8.97 13.69,-17.75 20.72,-26.34z"/>
  <path class="fil3" d="M14953.27 4269.86l-611.42 0c8.41,8.59 16.5,17.47 24.5,26.47l562.42 0c7.9,-9 16.09,-17.88 24.5,-26.47z"/>
  <path class="fil3" d="M16768.54 4133.83l-978.2 0c15.94,8.28 31.66,17.09 46.88,26.46l884.45 0c15.22,-9.37 30.84,-18.18 46.88,-26.46l-0.01 0z"/>
  <path class="fil3" d="M16692.67 4179.23l-826.45 0c12.22,8.38 24.22,17.28 35.84,26.38l754.67 0c11.72,-9.1 23.63,-17.97 35.94,-26.38z"/>
  <path class="fil3" d="M16633.57 4224.55l-708.26 0c9.97,8.5 19.72,17.37 29.28,26.47l649.7 0c9.47,-9.1 19.22,-17.97 29.28,-26.47l0 0 0 0z"/>
  <path class="fil3" d="M16877.42 4088.51l-1195.95 0c23.71,7.63 46.87,16.5 69.43,26.47l1057.08 0c22.57,-9.97 45.72,-18.84 69.44,-26.47z"/>
  <path class="fil3" d="M16510.26 4360.58l-461.63 0c5.97,8.69 11.81,17.47 17.5,26.44l426.63 0c5.56,-8.97 11.44,-17.75 17.47,-26.44l0.03 0 0 0z"/>
  <path class="fil3" d="M16585.04 4269.86l-611.29 0c8.38,8.59 16.6,17.47 24.5,26.47l562.38 0c7.91,-9 16.13,-17.88 24.41,-26.47l0 0z"/>
  <path class="fil3" d="M16544.32 4315.27l-529.85 0c7.13,8.59 14.06,17.37 20.69,26.34l488.47 0c6.72,-8.97 13.66,-17.75 20.69,-26.34l0 0z"/>
  <path class="fil2 str0" d="M4385.64 343.71c319.82,0 14811.44,0 15173.73,0 589.13,0 589.13,3394.42 0,3394.42 -368.73,0 -14872.38,0 -15173.73,0 -589.26,0 -589.26,-3394.42 0,-3394.42z"/>
  <path class="fil2 str0" d="M20309.04 3595.94l-85.91 0 0 -3061.7c0,-122.88 -99.91,-222.75 -222.76,-222.75l-447.53 0 0 -85.94 447.53 0c170.23,0 308.7,138.47 308.7,308.69l0 3061.7 -0.03 0z"/>
  <path class="fil2 str0" d="M19451.18 343.71l108.19 0c589.13,0 589.13,3394.42 0,3394.42l-108.19 0 0 -3394.42z"/>
  <polygon class="fil2 str0" points="19552.84,3607.47 19521.77,3534.91 19521.77,526.43 19552.84,526.43 "/>
  <polygon class="fil3" points="9815.85,4186.73 11167.46,4186.73 11214.12,4140.08 9769.25,4140.08 9769.25,4825.77 9815.85,4779.12 "/>
  <polygon class="fil2 str3" points="11333.27,4171.42 11318.03,4171.42 11318.03,4186.73 11318.03,4772.77 11301.81,4788.96 11301.81,4155.3 12694.73,4155.3 12678.55,4171.42 "/>
  <path class="fil2 str0" d="M18969.05 4172.11c0,33.87 -25.57,61.81 -58.5,65.62l0 -131.25c32.9,3.72 58.5,31.63 58.5,65.63l0 0z"/>
  <path class="fil2 str0" d="M18774.92 4172.11c0,-34 25.59,-61.91 58.41,-65.63l0 131.25c-32.82,-3.81 -58.41,-31.75 -58.41,-65.62l0 0z"/>
  <polygon class="fil3" points="14675.23,349.46 14644.67,349.46 14644.67,3736.26 14675.23,3736.26 "/>
  <polygon class="fil3" points="9305.12,339.39 9281.87,339.39 9281.87,3733.82 9305.12,3733.82 "/>
  <polygon class="fil2 str3" points="11167.46,4794.34 11182.77,4794.34 11182.77,4779.12 11182.77,4192.98 11198.9,4176.89 11198.9,4810.46 9806.06,4810.46 9822.19,4794.34 "/>
  <polygon class="fil3" points="12684.89,4186.73 12684.89,4779.12 11333.27,4779.12 11286.59,4825.77 12731.55,4825.77 12731.55,4140.08 "/>
  <path class="fil2 str3" d="M17969.19 3517.82c-366.29,0 -7974.84,0 -8340.94,0 -79.41,0 -79.41,312.19 0,312.19 178.59,0 8299.12,0 8340.94,0 79.37,0 79.37,-312.19 0,-312.19z"/>
  <path class="fil2 str3" d="M14663.04 4441.05c57.04,0 106.94,28 136.13,70.09 -28.53,68.85 -46.37,142.88 -51.37,220.23 -24.6,14.34 -53.6,22.75 -84.76,22.75 -37.78,0 -72.37,-12.32 -100,-32.82 -5.37,-68.47 -20.81,-134.28 -44.81,-196 27.12,-49.88 81.62,-84.25 144.81,-84.25l0 0z"/>
  <path class="fil2 str3" d="M16291.41 4441.05c55.47,0 104.19,28.41 132.82,71.56 -28.04,70.13 -45.54,145.51 -50.32,224.41 -24.12,14.66 -52.34,23.03 -82.5,23.03 -36.81,0 -70.5,-12.37 -97.47,-33.28 -5.25,-69.81 -20.41,-136.81 -43.94,-199.81 26.66,-51.07 79.88,-85.91 141.41,-85.91l0 0z"/>
  <path class="fil3" d="M5964.98 2199.02c23.43,31.43 60.53,49.81 101.15,49.81 35.66,0.47 68.66,-12.22 93.07,-38.19 23.94,-25.41 34.59,-56.44 34.59,-93.56l0 -117.47c0,-37.1 -9.09,-67.57 -34.59,-93.54 -22.85,-23.93 -55.35,-38.68 -89.44,-38.09 -34.1,-0.59 -66.1,13.19 -88.47,36.62 -22.47,22.35 -35.66,52.82 -36.13,85.35 -0.5,34.56 12.69,65.13 36.13,87.97 22.37,20.91 52.84,33.13 83.87,33.13 34.57,0 65.54,-16.32 86.91,-41.22l0 47.25c0,22.37 -6.53,42.18 -19.31,58.5 -14.16,20.31 -39.66,34.09 -66.63,34.09 -28.5,0 -54.37,-15.25 -69.62,-37.59l-31.53 26.94 0 0 0 0zm87.5 -284.26c21.78,-4.59 43.15,0 60.44,11.59 15.81,10.76 27.53,27.57 32.03,46.88 4.59,20.31 1.06,40.63 -9.1,57.44 -10.71,17.28 -28,30.47 -49.4,35.06 -20.79,4.6 -41.1,1.06 -57.91,-9.69 -17.28,-10.62 -29.97,-27.9 -34.56,-48.81 -4.6,-19.81 -0.97,-39.66 8.09,-56.44 10.75,-18.28 29,-32.03 50.41,-36.03l0 0zm510.13 218.16l0 -105.28 -41.69 0 0 105.28 -119.03 0 121.56 -257.91 -43.75 0 -121.56 257.91 0 39.16 162.78 0 0 69.12 41.69 0 0 -69.12 39.15 0 0 -39.16 -39.15 0 0 0zm106.85 -257.91l-11.25 188.16 37.71 21.41c4.47,-8.13 11.13,-15.25 18.26,-21.41 14.25,-12.19 33.09,-19.81 52.93,-19.81 21.38,0 40.63,8.09 55.35,21.87 16.81,14.75 27.44,37.1 27.44,61.03 0,22.85 -9.57,43.25 -24.79,58.51 -14.84,14.74 -35.65,23.9 -58,23.9 -20.9,0 -40.72,-8.19 -55.47,-21.87 -11.72,-10.16 -20.31,-24.41 -24.4,-39.75l-39.66 10.75c6.06,22.37 18.25,42.18 34.56,57.43 22.85,21.38 52.94,33.6 84.97,33.1 33,0.47 65.03,-12.69 87.38,-35.66 22.47,-21.87 36.62,-53.41 36.62,-86.41 0.6,-35.06 -13.18,-67.09 -39.15,-90.53 -21.88,-19.34 -50.88,-30.47 -80.85,-30.47 -25.87,0 -51.87,9.66 -71.19,25.88l7.13 -116.97 155.66 0 0 -39.19 -193.25 0 0 0.03 0 0zm501.53 42.75c-23.34,-32 -59.97,-50.37 -101.15,-50.37 -35.57,0 -68.66,12.78 -92.6,38.65 -24.41,24.91 -35.06,55.97 -35.06,93.07l0 117.5c0,37.09 9.19,68.16 34.56,94.03 22.88,23.91 55.47,38.19 90.06,37.69 33.47,0.5 65.63,-13.28 88.48,-36.63 21.87,-21.87 35.53,-52.9 35.53,-85.44 0.59,-34.56 -12.19,-64.56 -36.03,-88 -22.35,-20.78 -52.44,-33 -83.88,-33 -34.09,0 -65.63,16.22 -87,41.13l0 -47.28c0,-22.35 6.62,-42.19 19.31,-58.01 14.28,-20.78 39.66,-33.96 66.63,-33.96 29,0 54.87,14.75 70.18,37.09l30.97 -26.47 0 0zm-87.4 284.29c-21.88,4.09 -43.25,-0.5 -60.54,-12.22 -15.25,-10.72 -27.43,-26.94 -32.03,-46.78 -4.59,-19.82 -0.97,-40.72 9.19,-56.91 10.62,-17.88 28.41,-31.06 49.78,-35.66 20.31,-4.09 40.72,-0.47 58.03,9.66 16.69,10.66 29.97,27.94 33.97,49.31 4.6,19.35 1.56,39.66 -8.09,56.47 -10.66,18.35 -28.44,31.53 -50.32,36.13l0 0 0.01 0zm322.84 -235.44l-20.4 168.84c-5.56,43.16 -9.66,67.57 -46.28,67.57l0 38.18c60.53,4.6 76.84,-39.15 83.97,-97.65l17.28 -139.35 103.22 0 0 237 39.66 0 0 -274.59 -177.44 0 0 0 -0.01 0zm256.26 227.81l0 46.78 46.75 0 0 -46.78 -46.75 0z"/>
  <path class="fil7" d="M11244.3 2218.36c51.85,0 99.13,-19.34 129.69,-59.1 29.38,-37.59 39.63,-83.87 40.13,-131.62 -1.06,-47.38 -10.16,-94.13 -40.13,-132.22 -31.06,-39.16 -78.9,-57.54 -129.69,-58 -50.87,-1.01 -99.72,18.84 -129.68,58 -29.51,37.59 -40.72,84.84 -40.22,132.22 0.56,46.78 10.71,94.53 40.22,131.62 29.97,39.76 77.25,59.1 129.68,59.1zm0 -39.75c-37.68,0.47 -74.81,-14.75 -96.68,-44.25 -22.35,-29 -29.47,-68.63 -29.47,-106.72 0.47,-38.19 7.12,-77.85 29.47,-106.35 21.87,-30 59,-44.25 96.68,-44.72 37.6,-0.5 74.69,14.72 96.1,44.72 22.34,28.5 29.97,68.16 29.47,106.35 0,38.09 -7.13,77.72 -29.47,106.72 -21.41,29.5 -58.5,44.25 -96.1,44.25zm437.29 -242.57l-234.38 0 0 37.69 96.6 0 0 236.91 41.19 0 0 -236.91 96.59 0 0 -37.69 0 0zm278.69 61.04c-4.09,-8.6 -9.15,-16.22 -14.71,-23.85 -24.44,-30.06 -60.57,-44.81 -100.23,-44.81 -39.15,0 -74.68,13.78 -99.68,44.81 -22.85,28.91 -30.47,64.56 -30.97,100.1 0.5,35.15 8.12,71.18 30.97,99.72 23.93,30.47 60.53,45.31 99.68,45.31 39.66,0 76.29,-15.34 100.23,-45.31 5.56,-7.13 10.15,-14.75 14.71,-22.38l-39.15 -17.28c-2.53,5.1 -5.57,10.16 -8.69,14.75 -15.22,20.31 -40.13,30.47 -67.09,30.47 -25.88,0 -51.35,-10.16 -66.1,-30.47 -15.81,-20.31 -20.31,-47.84 -20.81,-74.81 0.5,-26.94 5,-54.38 20.81,-74.69 14.75,-20.91 40.22,-31.06 66.1,-31.06 26.97,0 51.87,10.15 67.09,31.06 3.13,4.59 6.66,9.66 9.19,15.22l38.66 -16.78 -0.01 0zm82.82 87.5l216.6 0c0.5,-3.53 0.5,-7.63 0.5,-11.25 0,-35.54 -8.13,-71.19 -30.97,-100.1 -23.91,-30.06 -60.07,-44.81 -99.69,-44.81 -39.66,0 -75.78,14.75 -100.19,44.81 -22.88,28.91 -30.47,64.07 -31.06,100.1 0,35.15 8.18,71.18 31.06,100.18 23.91,29.51 61.03,43.76 100.19,44.85 38.65,0.97 76.75,-14.84 100.66,-44.34 6.15,-7.04 11.25,-15.25 15.25,-22.85l-40.63 -17.78c-2.63,5.09 -5.09,9.66 -8.69,14.75 -15.25,20.31 -40.12,30.94 -66.59,30.94 -26.47,0 -51.88,-10.63 -66.63,-30.94 -13.25,-17.28 -18.84,-40.13 -19.81,-63.56zm86.44 -117.01c26.44,0 51.34,10.76 66.59,31.07 10.63,14.25 16.78,32.5 18.85,51.37l-170.91 0c2.06,-18.87 8.12,-37.12 18.84,-51.37 14.75,-20.31 40.16,-31.07 66.63,-31.07l0 0zm410.03 -31.53l-46.78 0 -74.31 120 -60.44 0 0 -120 -41.72 0 0 274.6 41.72 0 0 -120 61.03 0 78.22 119.5 46.88 0.5 -90.03 -137.31 85.44 -137.29 0 0 -0.01 0zm146.19 11.72l42.19 0c-0.5,-20.31 8.69,-38.69 22.44,-52.34 12.72,-11.72 30,-18.85 48.25,-18.85 19.81,0 37.69,7.63 50.88,21.38 13.18,13.19 20.81,31.06 20.81,50.28 0,20.91 -10.16,42.28 -33,65.63l-154.1 157.12 0 39.66 227.82 0 0 -39.66 -165.22 0 115.91 -123.03c33,-33.59 50.37,-60.56 50.37,-99.72 0,-29.47 -11.72,-57.91 -31.53,-78.31 -20.41,-21.88 -49.31,-33 -80.38,-33 -28.5,0 -57.5,9.18 -78.31,28.4 -22.38,20.41 -36.63,50.41 -36.13,82.44l0 0 0 0z"/>
  <path class="fil7" d="M16116.41 2218.36c51.84,0 99.13,-19.34 129.69,-59.1 29.5,-37.59 39.66,-83.87 40.13,-131.62 -0.97,-47.38 -10.16,-94.13 -40.13,-132.22 -31.06,-39.16 -78.81,-57.54 -129.69,-58 -50.88,-1.01 -99.69,18.84 -129.69,58 -29.47,37.59 -40.72,84.84 -40.13,132.22 0.47,46.78 10.66,94.53 40.13,131.62 30,39.76 77.25,59.1 129.69,59.1zm0 -39.75c-37.69,0.47 -74.81,-14.75 -96.69,-44.25 -22.34,-29 -29.47,-68.63 -29.47,-106.72 0.6,-38.19 7.13,-77.85 29.47,-106.35 21.88,-30 59,-44.25 96.69,-44.72 37.59,-0.5 74.72,14.72 96.09,44.72 22.35,28.5 29.97,68.16 29.51,106.35 0,38.09 -7.16,77.72 -29.51,106.72 -21.37,29.5 -58.5,44.25 -96.09,44.25zm437.38 -242.57l-234.44 0 0 37.69 96.56 0 0 236.91 41.22 0 0 -236.91 96.66 0 0 -37.69 0 0zm278.6 61.04c-4,-8.6 -9.16,-16.22 -14.72,-23.85 -24.44,-30.06 -60.56,-44.81 -100.19,-44.81 -39.15,0 -74.72,13.78 -99.62,44.81 -22.94,28.91 -30.57,64.56 -31.07,100.1 0.5,35.15 8.13,71.18 31.07,99.72 23.84,30.47 60.47,45.31 99.62,45.31 39.63,0 76.25,-15.34 100.19,-45.31 5.56,-7.13 10.16,-14.75 14.72,-22.38l-39.16 -17.28c-2.53,5.1 -5.56,10.16 -8.68,14.75 -15.22,20.31 -40.13,30.47 -67.1,30.47 -25.88,0 -51.34,-10.16 -66.09,-30.47 -15.72,-20.31 -20.32,-47.84 -20.82,-74.81 0.5,-26.94 5.1,-54.38 20.82,-74.69 14.75,-20.91 40.22,-31.06 66.09,-31.06 26.97,0 51.88,10.15 67.1,31.06 3.12,4.59 6.65,9.66 9.18,15.22l38.66 -16.78 0 0zm82.81 87.5l216.6 0c0.5,-3.53 0.5,-7.63 0.5,-11.25 0,-35.54 -8.09,-71.19 -30.97,-100.1 -23.91,-30.06 -60.03,-44.81 -99.69,-44.81 -39.66,0 -75.78,14.75 -100.09,44.81 -22.94,28.91 -30.57,64.07 -31.07,100.1 0,35.15 8.13,71.18 31.07,100.18 23.81,29.51 60.93,43.76 100.09,44.85 38.66,0.97 76.85,-14.84 100.69,-44.34 6.16,-7.04 11.22,-15.25 15.31,-22.85l-40.72 -17.78c-2.53,5.09 -5.06,9.66 -8.68,14.75 -15.22,20.31 -40.13,30.94 -66.6,30.94 -26.47,0 -51.84,-10.63 -66.59,-30.94 -13.19,-17.28 -18.85,-40.13 -19.85,-63.56l0 0zm86.44 -117.01c26.47,0 51.35,10.76 66.6,31.07 10.75,14.25 16.81,32.5 18.84,51.37l-170.88 0c2.03,-18.87 8.19,-37.12 18.85,-51.37 14.72,-20.31 40.12,-31.07 66.59,-31.07zm410.04 -31.53l-46.78 0 -74.22 120 -60.54 0 0 -120 -41.68 0 0 274.6 41.68 0 0 -120 61.04 0 78.31 119.5 46.78 0.5 -90.03 -137.31 85.44 -137.29 0 0zm350.69 78.32c-20.31,-19.35 -46.78,-29.97 -76.78,-30.97l103.22 -98.13 0 -40.72 -213.57 0 0 39.63 157.13 0 -118.06 111.91 20.4 32.53c12.22,-6.07 26.47,-9.66 39.66,-9.66 18.84,0 37.59,5.56 51.84,18.34 17.29,15.25 24.44,38.1 24.44,61.04 0,24.4 -7.62,47.75 -26.97,63 -13.18,11.22 -30.97,16.78 -48.81,16.78 -17.78,0 -35.56,-5.06 -49.31,-15.72 -12.22,-9.19 -20.82,-22.35 -25.41,-37.1l-39.75 11.13c6.66,21.87 19.94,42.19 38.19,56.44 21.87,17.28 49.31,25.5 76.28,24.9 26.94,0 54.97,-8.09 76.34,-25.87 27.94,-21.88 41.6,-56.44 42.19,-93.57 0.5,-30.56 -9.19,-62.09 -31.06,-83.97l0.03 0 0 0.01z"/>
 </g>
</svg>
