<?xml version="1.0" encoding="UTF-8"?>
<!DOCTYPE svg PUBLIC "-//W3C//DTD SVG 1.1//EN" "http://www.w3.org/Graphics/SVG/1.1/DTD/svg11.dtd">
<!-- Creator: CorelDRAW 2017 -->
<svg xmlns="http://www.w3.org/2000/svg" xml:space="preserve" width="6543px" height="1760px" version="1.1" style="shape-rendering:geometricPrecision; text-rendering:geometricPrecision; image-rendering:optimizeQuality; fill-rule:evenodd; clip-rule:evenodd"
viewBox="0 0 6543 1759.76"
 xmlns:xlink="http://www.w3.org/1999/xlink">
 <defs>
  <style type="text/css">
   <![CDATA[
    .str1 {stroke:white;stroke-width:4.88;stroke-miterlimit:22.9256;stroke-opacity:0.400000}
    .str2 {stroke:white;stroke-width:4.88;stroke-miterlimit:22.9256;stroke-opacity:0.800000}
    .str0 {stroke:white;stroke-width:4.88;stroke-miterlimit:22.9256}
    .str3 {stroke:white;stroke-width:9.75;stroke-miterlimit:22.9256}
    .fil2 {fill:none}
    .fil4 {fill:none}
    .fil5 {fill:none}
    .fil7 {fill:#6FDE9B}
    .fil3 {fill:white}
    .fil6 {fill:url(#id0)}
    .fil1 {fill:url(#id1)}
    .fil0 {fill:url(#id2)}
   ]]>
  </style>
  <linearGradient id="id0" gradientUnits="userSpaceOnUse" x1="3961.04" y1="110.75" x2="3961.04" y2="1194.51">
   <stop offset="0" style="stop-opacity:1; stop-color:#6FDE9B"/>
   <stop offset="1" style="stop-opacity:0; stop-color:#6FDE9B"/>
  </linearGradient>
  <linearGradient id="id1" gradientUnits="userSpaceOnUse" xlink:href="#id0" x1="5571.1" y1="110.47" x2="5571.1" y2="1185.41">
  </linearGradient>
  <linearGradient id="id2" gradientUnits="userSpaceOnUse" xlink:href="#id0" x1="2161.79" y1="110.75" x2="2161.79" y2="1194.51">
  </linearGradient>
 </defs>
 <g id="Слой_x0020_1">
  <metadata id="CorelCorpID_0Corel-Layer"/>
  <path class="fil0" d="M1400.51 1196.16l1575.74 0 0 -1083.76 -1575.74 0c-190.18,0 -190.18,1083.76 0,1083.76z"/>
  <path class="fil1" d="M6256.97 109.18l-1562.33 0 0 1086.2 1562.33 0c188.52,0 188.52,-1086.2 0,-1086.2z"/>
  <path class="fil2 str0" d="M1436.63 1196.76l-34.62 0c-188.56,0 -188.56,-1086.2 0,-1086.2l34.62 0 0 1086.2z"/>
  <polygon class="fil2 str0" points="1400.91,1196.76 1390.98,1195.57 1390.98,169.03 1400.91,169.03 "/>
  <path class="fil2 str0" d="M5269.55 37.63l0 17.74 259.3 0 0 -17.74c0,-3.94 -3.16,-7.1 -7.1,-7.1l-245.17 0c-3.88,0 -7.03,3.16 -7.03,7.1z"/>
  <path class="fil2 str0" d="M3698.53 37.63l0 17.74 259.3 0 0 -17.74c0,-3.94 -3.16,-7.1 -7.1,-7.1l-245.17 0c-3.88,0 -7.03,3.16 -7.03,7.1z"/>
  <path class="fil2 str0" d="M2127.5 37.63l0 17.74 259.34 0 0 -17.74c0,-3.94 -3.16,-7.1 -7.1,-7.1l-245.2 0c-3.85,0 -7.04,3.16 -7.04,7.1z"/>
  <polyline class="fil2 str0" points="4284.22,1325.28 2863.97,1325.28 2773.41,1224.29 6519.67,1224.29 6519.67,1325.28 5619.97,1325.28 "/>
  <path class="fil2 str0" d="M5724.56 1512.52l0.18 -0.18 7.13 -6.85 42.72 -40.68 146.3 -139.53 -216.58 0c-16.13,-18.15 -34.47,-34.28 -54.59,-47.99 -36.94,-0.1 -76.16,0 -117.19,0 -355.82,0 -847.8,0.06 -1160.19,0.06l-117.9 0c-94.18,0 -158.4,0 -177.12,-0.06l0 138.96 32.87 29.06 0 151.09 22.53 0 0 -131.19 40.53 35.78 6.88 6.03 0.19 0.19"/>
  <path class="fil2 str0" d="M3055.18 1267.41l0 328.99 1061.33 0 0 -71.38c0,-91.52 41.18,-173.61 106.02,-228.64 12.6,-10.75 26.13,-20.44 40.38,-28.97l-1207.73 0 0 0z"/>
  <path class="fil2 str0" d="M2963.25 1331.13l-67.16 0c-4.78,0 -8.65,-3.88 -8.65,-8.66l0 -67.15c0,-4.78 3.87,-8.66 8.65,-8.66l67.16 0c4.78,0 8.65,3.88 8.65,8.66l0 67.15c0,4.78 -3.87,8.66 -8.65,8.66z"/>
  <polygon class="fil2 str0" points="2992.87,1585.77 2963.68,1563.18 2895.69,1563.18 2866.5,1585.77 2843.28,1585.77 2843.28,1597.65 3016.06,1597.65 3016.06,1585.77 "/>
  <path class="fil2 str0" d="M2954 1457.34l-48.66 0 0 -170.74c0,-10.35 8.41,-18.75 18.78,-18.75l11.1 0c10.37,0 18.78,8.4 18.78,18.75l0 170.74 0 0z"/>
  <polygon class="fil2 str0" points="2949.72,1457.34 2909.62,1457.34 2909.62,1563.18 2949.72,1563.18 "/>
  <path class="fil2 str0" d="M6519.67 1339.38l9.94 0c13.75,0 13.75,-68.41 0,-68.41l-9.94 0 0 68.41z"/>
  <polygon class="fil2 str0" points="6519.67,1224.29 6487.18,1224.29 6487.18,1372.59 6519.67,1372.59 "/>
  <polygon class="fil2 str0" points="6519.67,1465.93 6487.18,1465.93 6487.18,1550.4 6519.67,1550.4 "/>
  <polygon class="fil2 str0" points="6511.02,1372.59 6495.83,1372.59 6495.83,1493.4 6511.02,1493.4 "/>
  <polygon class="fil2 str0" points="6259,1224.29 1410.38,1224.29 1401.23,1196.76 6259,1196.76 "/>
  <polygon class="fil2 str0" points="6255.44,52.12 1390.98,52.12 1390.98,169.03 6255.44,169.03 "/>
  <path class="fil2 str0" d="M1330.73 1131.7l-48.65 0 0 -168.49 1.47 0c11.28,68.37 27.02,127.09 47.18,168.49z"/>
  <path class="fil2 str0" d="M2895.63 935.27l27.49 0c17.19,0 31.13,13.91 31.13,31.09l0 120.78 712.03 0 0 -120.78c0,-17.18 13.93,-31.09 31.12,-31.09l27.5 0c17.19,0 31.12,13.91 31.12,31.09l0 120.78 712.03 0 0 -120.78c0,-17.18 13.94,-31.09 31.13,-31.09l27.5 0c17.18,0 31.12,13.91 31.12,31.09l0 120.78 712.03 0 0 -120.78c0,-17.18 13.94,-31.09 31.12,-31.09l27.5 0c17.19,0 31.13,13.91 31.13,31.09l0 120.78 712.03 0 0 -120.78c0,-17.18 13.93,-31.09 31.12,-31.09l27.5 0c17.19,0 31.12,13.91 31.12,31.09l0 120.78 0 63.59 0 73.59 -3296.84 0 0 -73.59 0 -63.59 0 -120.78c0,-17.18 13.93,-31.09 31.12,-31.09l0 0z"/>
  <polygon class="fil2 str0" points="6245.06,1130.7 5814.33,1130.7 5786.86,1194.82 5786.86,1477.53 6272.53,1477.53 6272.53,1194.82 "/>
  <path class="fil2 str0" d="M910.22 1580.46l0 12.84 59.71 0 0 -326.08 122.84 0 0.16 -807.65 -23.53 -387.35 -40.09 -67.22 -289.4 78.4c-585.75,6.6 -616,70.94 -684.09,376.17l-9.87 0c-13.44,0 -24.35,10.91 -24.35,24.35l0 42.56c0,13.87 11.28,25.15 25.19,25.15l154.4 0 -0.75 11.22 -19.78 286.86 -0.75 11.28 0 0.22 -130.28 22.69 -10.15 3.87c-12.63,4.88 -21,16.97 -21,30.47l0 170.84c-9.19,4.62 -14.94,13.96 -14.94,24.21l0 126.9c0.16,13.47 12.03,23.91 25.47,23.91l13.75 0 0 46.59 -8.44 0c-12.84,0.06 -23.31,10.53 -23.31,23.37l0 7 5.22 3.75 0 104.69 -5.22 3.71 0 14.94 5.22 3.75 0 38.87 -5.12 3.75c0.59,3.72 0.71,4.94 1.93,9.03 5.44,18.6 21.66,32.72 41.81,34.94l327.11 34.12 0 -12.15m215.18 -810.49l-397.08 69.27 18.54 -268.92 378.54 0 0 199.65z"/>
  <path class="fil2 str0" d="M180.07 1310.75l-0.16 260.8 -125.06 -13.06c-20.15,-2.25 -36.37,-16.34 -41.81,-34.93 -1.22,-4.1 -1.34,-5.32 -1.93,-9.04l5.12 -3.74 0 -38.88 -5.22 -3.75 0 -14.93 5.22 -3.72 0 -104.69 -5.22 -3.75 0 -7c0,-12.84 10.47,-23.31 23.31,-23.37l145.75 0.06 0 0z"/>
  <path class="fil2 str0" d="M250.91 824.09l0 -239.62c0,-8.56 -6.44,-14.56 -12.6,-11.81 -13.47,6.1 -42.81,13.75 -42.81,54.97l0 153.3c0,45.63 55.41,72.28 55.41,43.16z"/>
  <path class="fil3" d="M946.75 1158.98c-20.13,22.59 -33.56,37.65 -37.62,42.12l-94.25 0 -57.06 -0.03c-129.4,0 -130.56,0.16 -141.56,1.41l-3.65 0.4c-79.53,8.16 -155.24,46.63 -208.09,105.59l-19.62 0 -126.15 -0.03 -209.99 -0.06 0 -42c72.87,0.03 128.93,0.47 174.15,0.81 29.25,0.22 53.21,0.41 73.02,0.41 84.6,0 95.03,-3.41 115.59,-22.5 56.19,-52.21 135.93,-85.96 203.18,-85.96l2.41 0.03 6.03 0c130.33,-0.03 282.61,-0.1 323.61,-0.19l0 0zm10.25 -4.63c-2.6,0.19 -337.05,0.22 -339.89,0.22 -0.78,0 -1.6,0 -2.41,0 -68.56,0 -149.02,33.94 -206.3,87.15 -19.28,17.94 -28.13,21.32 -112.47,21.32 -50.56,0 -128.3,-1.22 -251.76,-1.22l0 51.15c350.95,0.06 278.86,0.06 362.42,0.06 53.18,-60.18 128.4,-97.59 206.49,-105.59 15.46,-1.62 2.4,-1.78 144.74,-1.78 38.53,0 88.4,0 153.34,0 1.65,-1.62 44.28,-49.56 45.84,-51.31l0 0z"/>
  <polyline class="fil2 str0" points="2250.09,1267.22 969.78,1267.22 969.78,1594.05 2166.25,1595.61 2166.25,1582.77 "/>
  <path class="fil2 str0" d="M1225.58 1267.22l0 328.99 878.08 0 0 -71.37c0,-91.56 41.22,-173.62 106.03,-228.65 12.62,-10.75 26.12,-20.44 40.4,-28.97l-1024.51 0 0 0 0 0z"/>
  <polygon class="fil2 str0" points="1858.52,1224.07 1858.52,1249.16 1918.11,1249.16 1918.11,1267.22 2115.94,1267.22 2115.94,1249.16 2227.75,1249.16 2282.72,1224.07 "/>
  <polygon class="fil2 str0" points="1218.11,1267.22 977.12,1267.22 977.12,1596.21 1218.11,1596.21 "/>
  <path class="fil2 str0" d="M910.22 1580.49l0 -53.28c0,-72.93 -29.59,-138.93 -77.37,-186.8 -47.84,-47.78 -113.84,-77.37 -186.81,-77.37 -145.8,0 -264.08,118.27 -264.08,264.17l0 53.28"/>
  <path class="fil2 str0" d="M179.97 1310.69l-0.06 260.86 142.3 14.57 0 -58.91c0,-83.09 31.44,-159.02 83.19,-216.46l-225.43 -0.06z"/>
  <path class="fil2 str0" d="M1141.71 1267.22l-48.88 0 0 -260.98 10.47 0c21.22,0 38.41,17.18 38.41,38.4l0 222.58z"/>
  <polygon class="fil2 str0" points="1282.08,1057.05 1141.71,1057.05 1141.71,1131.92 1282.08,1131.92 "/>
  <path class="fil2 str0" d="M5483.1 1224.94l0 -0.06 -1058.36 0c-166.77,-0.5 -300.98,134.96 -300.98,299.96l0 82.93 55.24 0 0 -78.12c0,-135.93 110.28,-249.9 245.74,-249.37l1054.89 0c135.46,-0.53 245.74,113.44 245.74,249.37l0 78.12 41.49 0c7.6,0 13.75,-6.16 13.75,-13.75l0 -69.18c0,-164.62 -133.3,-298.62 -297.51,-299.9l0 0z"/>
  <path class="fil2 str0" d="M4424.15 1248.82c-145.46,-0.25 -271.71,106.12 -277.49,281.58 -0.69,11.16 -0.59,64.62 0.34,77.37l9 0c0,-8.12 22.91,-15.44 22.88,-22.25 -0.1,-6.84 -0.1,-33.31 0.15,-39.34 0.13,-3 0.32,-24.84 0.63,-27.75 6.94,-135.99 117.18,-238.58 245.08,-238.17l1043.55 -0.03c3.9,0 19.12,0.15 22.96,0.53 120.97,5.72 224.12,103.46 232.96,233.27 0.56,4.28 0.97,22.21 1.13,26.68 0.31,7.69 0.22,41.38 0.12,50.44 -0.06,5.18 16.94,10.69 16.94,16.62l7.47 0c4.03,-3.12 7.22,-9.28 7.5,-16.09 0.4,-10.59 0.53,-55.15 -0.03,-64.53 -5.72,-175.96 -132.56,-277.67 -275.96,-278.33 -585.78,0 -1052.54,0 -1057.23,0l0 0z"/>
  <path class="fil2 str0" d="M5479.63 1272.76c-1171.57,0 -1046.73,-0.04 -1056.04,-0.04 -139.12,0 -270.84,97.03 -253.37,335.08l8.85 -0.06c0,-32.44 -0.97,-58.68 0,-82.84 0.21,-5.97 0.62,-11.87 1.21,-17.69 13.91,-136.05 124.16,-227.27 244.46,-227.02l1054.89 -0.03c124.99,-0.25 239.9,98.5 245.68,244.62 0.96,24.18 0,50.49 0,82.96l7.53 0c20.68,-246.58 -114.84,-335.01 -253.21,-334.98l0 0z"/>
  <path class="fil2 str0" d="M2710.85 1383.62l0 -32.15c0,-15.53 -12.56,-28.09 -28.06,-28.09l-49.59 0c-54.87,-60.56 -134.12,-98.5 -222.21,-98.5 -82.65,0 -157.62,33.66 -211.93,87.97 -27.15,27.15 -49.12,59.46 -64.3,95.33 -15.22,35.88 -23.63,75.31 -23.63,116.66l0 82.93 55.25 0 0 -78.12c0,-68.56 28.06,-131.56 73.24,-177.09 45.22,-45.53 107.53,-73.59 176.09,-72.28 66.43,1.25 126.4,28.97 169.77,73.13 43.38,44.12 70.13,104.65 70.13,171.43l0 82.93 36.56 0c10.31,0 18.68,-8.34 18.68,-18.66 0,-38.28 0,-70.65 0,-102.93 0,-32.31 0,-64.56 0,-102.56l0 0z"/>
  <path class="fil2 str0" d="M646.04 1203.32c-178.52,0 -323.83,145.31 -323.83,323.89l0 58.94 59.75 6.46 0 -65.4c0,-145.9 118.28,-264.17 264.08,-264.17 60.87,0 116.9,20.65 161.59,55.24l102.56 -114.9c-0.04,0 -264.15,-0.06 -264.15,-0.06l0 0z"/>
  <path class="fil2 str0" d="M646.04 1205.01c-177.58,0 -322.14,144.52 -322.14,322.2l0 59.09 58.06 6.32 0 -65.41c0,-145.9 118.28,-264.17 264.08,-264.17 60.88,0 116.9,20.65 161.59,55.24l99.4 -111.37c-1.62,-1.15 -258.8,-1.9 -260.99,-1.9z"/>
  <path class="fil2 str0" d="M5162.58 1607.52c45,-118.12 -14.28,-250.39 -132.43,-295.39 -118.15,-45 -250.39,14.31 -295.39,132.46 -45,118.15 14.28,250.4 132.43,295.39 118.15,45 250.39,-14.31 295.39,-132.46z"/>
  <path class="fil2 str0" d="M5164.52 1533.84l10.19 0.47c0.12,-3.04 0.15,-6.07 0.15,-9.07l-7.81 0.1 -2.47 -4.44 10.22 -0.13c-0.06,-3.03 -0.22,-6.06 -0.41,-9.09l-7.78 0.6 -2.72 -4.29 10.22 -0.75c-0.25,-3.03 -0.59,-6.03 -0.97,-9.03l-7.75 1.03 -2.97 -4.09 10.13 -1.37c-0.44,-2.97 -0.91,-5.97 -1.47,-8.94l-7.69 1.47 -3.19 -3.88 9.97 -1.97c-0.62,-2.96 -1.28,-5.93 -2,-8.87l-7.53 1.97 -3.43 -3.72 9.84 -2.56c-0.78,-2.91 -1.66,-5.81 -2.56,-8.72l-7.38 2.4 -3.62 -3.49 9.68 -3.16c-0.97,-2.88 -2.03,-5.72 -3.09,-8.53l-7.22 2.81 -3.87 -3.28 9.47 -3.69c-1.13,-2.81 -2.29,-5.62 -3.54,-8.37l-7.06 3.28 -4.06 -3.06 9.22 -4.25c-1.32,-2.72 -2.66,-5.44 -4.07,-8.13l-6.84 3.66 -4.22 -2.78 8.97 -4.82c-1.47,-2.65 -2.97,-5.28 -4.53,-7.87l-6.62 4.09 -4.38 -2.56 8.69 -5.34c-1.6,-2.57 -3.32,-5.06 -5,-7.57l-6.38 4.47 -4.53 -2.28 8.35 -5.84c-1.75,-2.47 -3.57,-4.91 -5.41,-7.31l-6.12 4.87 -4.66 -1.97 7.97 -6.37c-1.91,-2.34 -3.88,-4.66 -5.88,-6.94l-5.81 5.22 -4.75 -1.72 7.59 -6.81c-2.06,-2.22 -4.12,-4.41 -6.28,-6.56l-5.46 5.56 -4.88 -1.44 7.22 -7.28c-2.19,-2.12 -4.44,-4.15 -6.69,-6.19l-5.16 5.91 -4.93 -1.12 6.75 -7.72c-2.28,-1.97 -4.63,-3.94 -7,-5.81l-4.82 6.21 -4.99 -0.81 6.25 -8.09c-2.41,-1.82 -4.85,-3.63 -7.35,-5.35l-4.4 6.47 -5.04 -0.53 5.75 -8.44c-2.5,-1.65 -5.06,-3.31 -7.65,-4.9l-4.03 6.72 -5.03 -0.25 5.25 -8.75c-2.63,-1.53 -5.29,-2.97 -7.97,-4.41l-3.6 6.91 -5.03 0.06 4.69 -9.06c-2.69,-1.35 -5.44,-2.63 -8.19,-3.91l-3.19 7.13 -5.03 0.37 4.16 -9.34c-2.78,-1.19 -5.59,-2.34 -8.41,-3.44l-2.75 7.31 -5.03 0.69 3.6 -9.53c-2.88,-1.06 -5.72,-2.06 -8.6,-3l-2.31 7.47 -4.97 1 3 -9.72c-2.9,-0.87 -5.81,-1.72 -8.75,-2.47l-1.84 7.6 -4.91 1.28 2.44 -9.91c-2.97,-0.69 -5.94,-1.34 -8.9,-1.9l-1.41 7.68 -4.78 1.56 1.81 -10.06c-3,-0.53 -6,-0.97 -9,-1.37l-0.94 7.78 -4.68 1.84 1.21 -10.18c-3.03,-0.35 -6.03,-0.6 -9.06,-0.82l-0.47 7.85 -4.59 2.12 0.63 -10.22c-3.04,-0.15 -6.07,-0.28 -9.1,-0.28l0 7.84 -4.47 2.41 0 -10.22c-2.56,0.03 -5.15,0.06 -7.75,0.19l0.41 7.84 -4.31 2.63 -0.53 -10.19c-3.03,0.19 -6.07,0.44 -9.07,0.78l0.88 7.75 -4.16 2.88 -1.15 -10.16c-3,0.38 -6,0.85 -9,1.35l1.34 7.65 -3.97 3.16 -1.75 -10.1c-3,0.57 -5.97,1.19 -8.9,1.85l1.81 7.62 -3.78 3.35 -2.34 -9.88c-2.97,0.72 -5.88,1.5 -8.82,2.34l2.28 7.47 -3.56 3.57 -2.94 -9.69c-2.9,0.9 -5.78,1.84 -8.62,2.87l2.69 7.28 -3.38 3.78 -3.5 -9.53c-2.84,1.1 -5.62,2.22 -8.4,3.41l3.09 7.09 -3.13 4 -4.09 -9.34c-2.75,1.25 -5.5,2.56 -8.19,3.91l3.53 6.93 -2.87 4.16 -4.62 -9.03c-2.69,1.41 -5.35,2.84 -7.97,4.37l3.97 6.69 -2.63 4.34 -5.16 -8.74c-2.59,1.56 -5.15,3.18 -7.68,4.84l4.31 6.44 -2.35 4.46 -5.68 -8.43c-2.5,1.72 -4.94,3.5 -7.38,5.31l4.72 6.19 -2.09 4.59 -6.19 -8.12c-2.41,1.87 -4.72,3.81 -7.03,5.75l5.09 5.9 -1.81 4.72 -6.66 -7.69c-2.28,2 -4.53,4.03 -6.72,6.13l5.47 5.59 -1.53 4.84 -7.09 -7.31c-2.16,2.16 -4.25,4.31 -6.31,6.53l5.75 5.25 -1.22 4.91 -7.57 -6.88c-1.99,2.29 -3.96,4.6 -5.87,6.94l6.06 4.88 -0.94 4.97 -7.96 -6.41c-1.88,2.38 -3.69,4.81 -5.47,7.25l6.37 4.53 -0.65 5.03 -8.32 -5.94c-1.71,2.5 -3.4,5 -5.06,7.57l6.66 4.15 -0.34 5.03 -8.63 -5.37c-1.56,2.56 -3.09,5.19 -4.56,7.84l6.81 3.72 -0.03 5.06 -8.91 -4.84c-1.4,2.66 -2.78,5.34 -4.09,8.09l7.03 3.28 0.25 5.07 -9.15 -4.32c-1.25,2.75 -2.47,5.54 -3.6,8.35l7.16 2.87 0.59 5 -9.47 -3.75c-0.12,0.35 -0.28,0.69 -0.4,1.06 -0.97,2.5 -1.78,5 -2.66,7.5l7.34 2.41 0.88 5 -9.66 -3.19c-0.93,2.88 -1.78,5.78 -2.59,8.69l7.53 2 1.16 4.9 -9.82 -2.59c-0.75,2.94 -1.47,5.91 -2.12,8.84l7.69 1.53 1.47 4.85 -9.97 -2c-0.6,3 -1.13,5.97 -1.56,8.97l7.71 1.06 1.75 4.75 -10.09 -1.41c-0.38,3 -0.72,6.03 -1,9.03l7.78 0.63 2.03 4.62 -10.18 -0.81c-0.22,3.03 -0.35,6.06 -0.41,9.09l7.78 0.16 2.31 4.5 -10.25 -0.22c-0.03,3.03 0,6.06 0.13,9.09l7.84 -0.31 2.56 4.35 -10.21 0.4c0.15,3.03 0.34,6.06 0.62,9.09l7.81 -0.81 2.82 4.22 -10.13 1.03c0.31,3 0.72,6 1.19,9l7.69 -1.25 3.06 4 -10.06 1.63c0.53,3 1.09,5.97 1.75,8.93l7.59 -1.71 3.31 3.84 -10 2.22c0.72,2.97 1.5,5.9 2.28,8.81l7.5 -2.16 3.53 3.63 -9.75 2.81c0.85,2.91 1.75,5.78 2.75,8.66l7.35 -2.6 3.75 3.41 -9.6 3.37c1.07,2.85 2.16,5.69 3.28,8.47l7.16 -3.03 3.94 3.19 -9.35 3.94c1.19,2.78 2.47,5.53 3.78,8.28l6.97 -3.47 4.13 2.94 -9.16 4.53c1.35,2.71 2.81,5.37 4.28,7.99l6.78 -3.84 4.29 2.69 -8.85 5.03c1.53,2.63 3.1,5.22 4.75,7.78l6.53 -4.28 4.44 2.41 -8.5 5.56c1.66,2.53 3.41,5.03 5.19,7.47l6.25 -4.66 4.56 2.16 -8.16 6.09c1.82,2.41 3.72,4.75 5.63,7.09l5.97 -5 4.69 1.88 -7.85 6.59c2,2.28 4.03,4.53 6.1,6.75l5.68 -5.37 4.78 1.59 -7.4 7.03c2.09,2.16 4.25,4.31 6.43,6.41l5.38 -5.75 4.87 1.31 -6.96 7.44c2.25,2.06 4.5,4.06 6.81,6.03l5 -6.03 4.97 1 -6.54 7.87c2.38,1.91 4.75,3.75 7.19,5.57l4.59 -6.28 5.04 0.68 -6.07 8.28c2.47,1.75 5,3.44 7.53,5.1l4.22 -6.56 5.03 0.4 -5.53 8.6c2.57,1.62 5.16,3.15 7.82,4.68l3.81 -6.81 5.06 0.09 -5 8.85c2.66,1.47 5.31,2.9 8.06,4.25l3.41 -7.03 5.06 -0.19 -4.44 9.12c2.72,1.28 5.47,2.53 8.28,3.72l2.97 -7.15 5.03 -0.54 -3.87 9.38c1.28,0.53 2.56,1.09 3.84,1.59 1.56,0.6 3.1,1.1 4.66,1.63l2.5 -7.31 5.03 -0.82 -3.34 9.63c2.87,0.97 5.78,1.84 8.68,2.69l2.1 -7.47 4.93 -1.13 -2.75 9.88c2.94,0.78 5.88,1.46 8.82,2.12l1.65 -7.62 4.84 -1.38 -2.12 9.97c2.97,0.62 5.94,1.19 8.94,1.69l1.18 -7.78 4.75 -1.66 -1.53 10.06c3,0.44 6,0.85 9,1.16l0.72 -7.81 4.69 -1.97 -0.97 10.15c3.03,0.25 6.06,0.44 9.09,0.6l0.25 -7.85 4.54 -2.22 -0.35 10.22c3.03,0.07 6.06,0.07 9.09,0l-0.21 -7.81 4.4 -2.53 0.25 10.28c3.07,-0.12 6.07,-0.31 9.1,-0.53l-0.69 -7.84 4.22 -2.75 0.9 10.18c3.03,-0.31 6.03,-0.62 9.03,-1.06l-1.15 -7.75 4.06 -3.03 1.5 10.09c3,-0.47 5.97,-1 8.94,-1.59l-1.6 -7.66 3.88 -3.25 2.09 10c2.97,-0.65 5.91,-1.37 8.81,-2.15l-2.03 -7.5 3.66 -3.5 2.72 9.87c2.9,-0.84 5.78,-1.75 8.65,-2.68l-2.5 -7.41 3.47 -3.69 3.25 9.66c2.88,-1 5.72,-2.03 8.53,-3.16l-2.93 -7.25 3.21 -3.87 3.85 9.4c2.78,-1.18 5.56,-2.37 8.31,-3.65l-3.38 -7.03 3 -4.1 4.38 9.19c2.72,-1.31 5.4,-2.72 8.09,-4.16l-3.78 -6.81 2.72 -4.25 4.97 8.94c2.66,-1.5 5.22,-3.06 7.81,-4.66l-4.18 -6.59 2.46 -4.41 5.47 8.6c2.56,-1.63 5.06,-3.32 7.56,-5.07l-4.62 -6.34 2.22 -4.56 5.97 8.25c2.44,-1.78 4.87,-3.63 7.22,-5.53l-4.94 -6.03 1.94 -4.69 6.46 7.91c2.32,-1.94 4.6,-3.94 6.85,-5.97l-5.31 -5.75 1.65 -4.78 6.97 7.56c2.19,-2.1 4.34,-4.22 6.47,-6.38l-5.66 -5.43 1.35 -4.88 7.4 7.09c2.06,-2.22 4.13,-4.43 6.13,-6.71l-6 -5.13 1.06 -4.94 7.78 6.63c1.94,-2.31 3.84,-4.69 5.69,-7.1l-6.25 -4.71 0.75 -5 8.18 6.15c1.79,-2.43 3.54,-4.9 5.22,-7.43l-6.5 -4.32 0.47 -5.03 8.53 5.66c1.63,-2.53 3.19,-5.13 4.75,-7.75l-6.75 -3.91 0.16 -5.06 8.87 5.13c1.47,-2.63 2.91,-5.32 4.29,-8l-6.97 -3.5 -0.16 -5.07 9.13 4.6c1.31,-2.72 2.62,-5.47 3.87,-8.25l-7.22 -3.09 -0.43 -5.04 9.34 4c0.91,-2.22 1.88,-4.4 2.72,-6.65 0.22,-0.6 0.4,-1.19 0.62,-1.78l-7.31 -2.63 -0.75 -5.03 9.56 3.47c1,-2.88 1.94,-5.75 2.82,-8.66l-7.44 -2.18 -1.03 -4.94 9.75 2.87c0.81,-2.93 1.59,-5.87 2.31,-8.81l-7.59 -1.75 -1.35 -4.87 9.97 2.31c0.66,-2.97 1.22,-5.97 1.75,-8.94l-7.69 -1.28 -1.62 -4.78 10.09 1.69c0.47,-3 0.88,-6 1.22,-9l-7.78 -0.85 -1.91 -4.68 10.13 1.09c0.31,-3.03 0.56,-6.06 0.75,-9.06l-7.85 -0.38 -2.18 -4.56 0 0z"/>
  <path class="fil2 str0" d="M4807.69 1525.96c0,76.9 62.34,139.25 139.09,139.25 76.9,0 139.24,-62.35 139.24,-139.25 0,-76.74 -62.34,-139.08 -139.24,-139.08 -76.75,0 -139.09,62.34 -139.09,139.08z"/>
  <path class="fil2 str0" d="M4946.87 1647.02c66.84,0 121.06,-54.19 121.06,-121.06 0,-66.84 -54.22,-121.06 -121.06,-121.06 -66.87,0 -121.05,54.22 -121.05,121.06 0,66.87 54.18,121.06 121.05,121.06z"/>
  <path class="fil2 str0" d="M5064.59 1554.18c15.56,-65 -24.5,-130.31 -89.5,-145.9 -65,-15.56 -130.31,24.5 -145.9,89.5 -15.56,64.99 24.5,130.3 89.5,145.89 64.99,15.57 130.3,-24.46 145.9,-89.49z"/>
  <path class="fil2 str0" d="M4926.41 1645.24c6.62,1.15 13.43,1.81 20.4,1.81 6.94,0 13.75,-0.66 20.37,-1.81 -1.81,-7.97 -10.28,-14.25 -20.37,-14.25 -9.97,0 -18.56,6.28 -20.4,14.25z"/>
  <path class="fil2 str0" d="M4926.41 1406.75c6.62,-1.16 13.43,-1.85 20.4,-1.85 6.94,0 13.75,0.69 20.37,1.85 -1.81,7.94 -10.28,14.25 -20.37,14.25 -9.97,0 -18.56,-6.31 -20.4,-14.25z"/>
  <path class="fil2 str0" d="M4848.07 1595.9c3.87,5.5 8.21,10.78 13.12,15.68 4.94,4.94 10.19,9.28 15.72,13.16 4.34,-6.94 2.81,-17.34 -4.34,-24.5 -7.04,-7.06 -17.6,-8.69 -24.5,-4.34l0 0z"/>
  <path class="fil2 str0" d="M5016.71 1427.25c5.5,3.87 10.78,8.22 15.72,13.12 4.91,4.94 9.25,10.22 13.09,15.72 -6.9,4.35 -17.31,2.81 -24.46,-4.34 -7.03,-7.03 -8.69,-17.56 -4.35,-24.5l0 0z"/>
  <path class="fil2 str0" d="M4827.57 1505.59c-1.16,6.65 -1.85,13.43 -1.85,20.4 0,6.97 0.69,13.75 1.85,20.41 7.93,-1.85 14.25,-10.28 14.25,-20.41 0,-9.93 -6.32,-18.56 -14.25,-20.4z"/>
  <path class="fil2 str0" d="M5066.05 1505.59c1.16,6.65 1.82,13.43 1.82,20.4 0,6.97 -0.66,13.75 -1.82,20.41 -7.96,-1.85 -14.24,-10.28 -14.24,-20.41 0,-9.93 6.28,-18.56 14.24,-20.4z"/>
  <path class="fil2 str0" d="M5016.96 1624.52c5.5,-3.88 10.78,-8.22 15.69,-13.16 4.91,-4.93 9.22,-10.21 13.09,-15.75 -6.93,-4.31 -17.37,-2.74 -24.5,4.41 -7.03,7.06 -8.62,17.63 -4.28,24.5z"/>
  <path class="fil2 str0" d="M4847.88 1456.34c3.84,-5.5 8.18,-10.78 13.09,-15.72 4.91,-4.97 10.16,-9.31 15.66,-13.19 4.34,6.91 2.87,17.35 -4.25,24.5 -7.03,7.07 -17.6,8.75 -24.5,4.41l0 0z"/>
  <path class="fil2 str0" d="M4946.87 1577.52c28.47,0 51.56,-23.09 51.56,-51.56 0,-28.47 -23.09,-51.56 -51.56,-51.56 -28.47,0 -51.56,23.1 -51.56,51.56 0,28.47 23.1,51.56 51.56,51.56z"/>
  <polygon class="fil2 str0" points="4969.12,1556.62 4971.25,1560.34 4969.12,1564.05 4964.81,1564.05 4962.68,1560.34 4964.81,1556.62 "/>
  <polygon class="fil2 str0" points="4949,1562.05 4951.15,1565.77 4949,1569.46 4944.72,1569.46 4942.56,1565.77 4944.72,1562.05 "/>
  <polygon class="fil2 str0" points="4928.9,1556.62 4931.03,1560.34 4928.9,1564.05 4924.62,1564.05 4922.47,1560.34 4924.62,1556.62 "/>
  <polygon class="fil2 str0" points="4914.62,1542.34 4916.75,1546.02 4914.62,1549.74 4910.31,1549.74 4908.19,1546.02 4910.31,1542.34 "/>
  <polygon class="fil2 str0" points="4909.19,1522.34 4911.31,1526.02 4909.19,1529.74 4904.87,1529.74 4902.75,1526.02 4904.87,1522.34 "/>
  <polygon class="fil2 str0" points="4914.62,1502.12 4916.75,1505.84 4914.62,1509.56 4910.31,1509.56 4908.19,1505.84 4910.31,1502.12 "/>
  <polygon class="fil2 str0" points="4928.9,1487.84 4931.03,1491.56 4928.9,1495.28 4924.62,1495.28 4922.47,1491.56 4924.62,1487.84 "/>
  <polygon class="fil2 str0" points="4949,1482.4 4951.15,1486.12 4949,1489.84 4944.72,1489.84 4942.56,1486.12 4944.72,1482.4 "/>
  <polygon class="fil2 str0" points="4969.12,1487.84 4971.25,1491.56 4969.12,1495.28 4964.81,1495.28 4962.68,1491.56 4964.81,1487.84 "/>
  <polygon class="fil2 str0" points="4983.4,1502.12 4985.56,1505.84 4983.4,1509.56 4979.12,1509.56 4976.96,1505.84 4979.12,1502.12 "/>
  <polygon class="fil2 str0" points="4988.84,1522.24 4991,1525.96 4988.84,1529.65 4984.56,1529.65 4982.4,1525.96 4984.56,1522.24 "/>
  <polygon class="fil2 str0" points="4983.4,1542.34 4985.56,1546.02 4983.4,1549.74 4979.12,1549.74 4976.96,1546.02 4979.12,1542.34 "/>
  <path class="fil2 str0" d="M4946.87 1479.96c25.35,0 45.97,20.66 45.97,46 0,25.38 -20.63,46 -45.97,46 -25.37,0 -46,-20.62 -46,-46 0,-25.34 20.63,-46 46,-46zm0 -5.56c-28.47,0 -51.56,23.09 -51.56,51.56 0,28.47 23.1,51.56 51.56,51.56 28.47,0 51.56,-23.09 51.56,-51.56 0,-28.47 -23.09,-51.56 -51.56,-51.56z"/>
  <path class="fil2 str0" d="M5684.78 1607.52c44.99,-118.12 -14.28,-250.39 -132.44,-295.39 -118.15,-45 -250.39,14.31 -295.39,132.46 -45,118.15 14.28,250.4 132.43,295.39 118.15,45 250.4,-14.31 295.4,-132.46z"/>
  <path class="fil2 str0" d="M5686.71 1533.84l10.19 0.5c0.13,-3.03 0.19,-6.07 0.16,-9.1l-7.82 0.1 -2.43 -4.41 10.18 -0.16c-0.06,-3.03 -0.19,-6.06 -0.4,-9.06l-7.78 0.56 -2.72 -4.28 10.25 -0.75c-0.29,-3 -0.63,-6.03 -1,-9.03l-7.75 1.03 -2.94 -4.09 10.09 -1.34c-0.44,-3 -0.9,-6 -1.47,-8.97l-7.69 1.5 -3.18 -3.91 9.97 -1.97c-0.6,-2.97 -1.29,-5.9 -2,-8.84l-7.53 1.94 -3.44 -3.72 9.84 -2.57c-0.78,-2.9 -1.65,-5.81 -2.56,-8.71l-7.38 2.4 -3.65 -3.5 9.72 -3.12c-0.97,-2.91 -2,-5.75 -3.1,-8.57l-7.22 2.82 -3.87 -3.28 9.47 -3.69c-1.13,-2.81 -2.28,-5.6 -3.53,-8.38l-7.07 3.28 -4.06 -3.03 9.22 -4.25c-1.31,-2.75 -2.66,-5.46 -4.06,-8.15l-6.82 3.65 -4.21 -2.78 8.93 -4.81c-1.47,-2.63 -2.97,-5.25 -4.53,-7.84l-6.62 4.06 -4.38 -2.53 8.69 -5.38c-1.59,-2.53 -3.28,-5.06 -5,-7.56l-6.38 4.47 -4.53 -2.25 8.35 -5.87c-1.75,-2.47 -3.53,-4.91 -5.41,-7.32l-6.15 4.91 -4.63 -2 7.97 -6.34c-1.91,-2.38 -3.84,-4.69 -5.84,-6.97l-5.82 5.22 -4.78 -1.69 7.6 -6.84c-2.04,-2.22 -4.16,-4.41 -6.29,-6.56l-5.46 5.56 -4.88 -1.44 7.22 -7.28c-2.19,-2.12 -4.44,-4.16 -6.69,-6.19l-5.15 5.91 -4.94 -1.13 6.75 -7.71c-2.28,-1.97 -4.63,-3.91 -7,-5.79l-4.81 6.22 -5 -0.84 6.25 -8.06c-2.41,-1.85 -4.85,-3.66 -7.35,-5.38l-4.4 6.47 -5.03 -0.53 5.75 -8.44c-2.54,-1.65 -5.07,-3.31 -7.66,-4.87l-4 6.68 -5.06 -0.22 5.25 -8.78c-2.63,-1.5 -5.28,-2.97 -7.97,-4.4l-3.6 6.9 -5.06 0.1 4.72 -9.1c-2.69,-1.34 -5.44,-2.62 -8.19,-3.9l-3.18 7.12 -5.03 0.38 4.15 -9.31c-2.78,-1.22 -5.56,-2.38 -8.4,-3.47l-2.75 7.31 -5.04 0.69 3.6 -9.53c-2.85,-1.04 -5.72,-2.07 -8.59,-2.97l-2.32 7.47 -4.97 0.96 3 -9.72c-2.9,-0.87 -5.81,-1.68 -8.74,-2.43l-1.85 7.56 -4.9 1.28 2.43 -9.9c-2.97,-0.69 -5.93,-1.32 -8.9,-1.91l-1.38 7.69 -4.81 1.56 1.81 -10.06c-3,-0.53 -5.97,-0.94 -8.97,-1.35l-0.93 7.75 -4.72 1.85 1.22 -10.19c-3.03,-0.34 -6.03,-0.59 -9.07,-0.78l-0.46 7.84 -4.6 2.13 0.63 -10.22c-3.03,-0.16 -6.07,-0.28 -9.1,-0.31l0 7.87 -4.43 2.38 0 -10.22c-2.63,0.03 -5.19,0.09 -7.78,0.22l0.43 7.81 -4.31 2.62 -0.56 -10.18c-3.03,0.22 -6.06,0.47 -9.06,0.78l0.87 7.75 -4.15 2.87 -1.16 -10.15c-3,0.37 -6,0.84 -9,1.34l1.37 7.69 -4 3.12 -1.75 -10.09c-3,0.56 -5.93,1.19 -8.9,1.88l1.81 7.59 -3.78 3.37 -2.34 -9.9c-2.97,0.75 -5.88,1.5 -8.78,2.37l2.25 7.44 -3.57 3.56 -2.93 -9.68c-2.91,0.9 -5.78,1.87 -8.63,2.9l2.69 7.25 -3.35 3.78 -3.53 -9.53c-2.84,1.1 -5.62,2.25 -8.43,3.44l3.12 7.09 -3.12 3.97 -4.1 -9.34c-2.75,1.25 -5.47,2.56 -8.18,3.93l3.53 6.91 -2.88 4.16 -4.62 -9.03c-2.66,1.4 -5.35,2.87 -7.97,4.37l3.97 6.69 -2.63 4.34 -5.16 -8.75c-2.59,1.56 -5.15,3.19 -7.68,4.85l4.34 6.43 -2.37 4.47 -5.66 -8.4c-2.53,1.68 -4.97,3.46 -7.41,5.28l4.72 6.18 -2.06 4.6 -6.22 -8.13c-2.37,1.88 -4.72,3.81 -7.03,5.75l5.09 5.94 -1.81 4.72 -6.65 -7.72c-2.28,2 -4.53,4.03 -6.72,6.12l5.46 5.63 -1.53 4.81 -7.09 -7.28c-2.16,2.13 -4.25,4.28 -6.31,6.5l5.75 5.25 -1.22 4.91 -7.53 -6.85c-2.03,2.25 -4,4.57 -5.91,6.91l6.06 4.9 -0.93 4.94 -7.97 -6.4c-1.88,2.37 -3.69,4.81 -5.47,7.28l6.37 4.5 -0.65 5.03 -8.28 -5.91c-1.75,2.47 -3.44,4.97 -5.06,7.53l6.62 4.16 -0.34 5.03 -8.6 -5.38c-1.59,2.6 -3.12,5.19 -4.62,7.85l6.84 3.72 0 5.06 -8.9 -4.85c-1.44,2.66 -2.82,5.38 -4.13,8.1l7.03 3.28 0.25 5.06 -9.15 -4.28c-1.25,2.72 -2.44,5.5 -3.6,8.31l7.16 2.88 0.59 5 -9.43 -3.75c-0.16,0.37 -0.32,0.72 -0.44,1.06 -0.97,2.5 -1.78,5 -2.66,7.5l7.35 2.41 0.87 4.99 -9.66 -3.18c-0.93,2.9 -1.78,5.78 -2.56,8.72l7.5 1.96 1.19 4.94 -9.84 -2.59c-0.75,2.93 -1.5,5.87 -2.13,8.81l7.69 1.56 1.47 4.85 -9.97 -2.04c-0.59,3 -1.13,5.97 -1.56,8.97l7.72 1.1 1.75 4.71 -10.07 -1.4c-0.4,3.03 -0.75,6.03 -1,9.03l7.75 0.62 2.03 4.63 -10.18 -0.81c-0.22,3.03 -0.35,6.06 -0.44,9.09l7.81 0.15 2.32 4.5 -10.25 -0.21c-0.03,3.06 0.03,6.06 0.12,9.09l7.84 -0.31 2.57 4.37 -10.19 0.41c0.13,3.03 0.34,6.03 0.6,9.06l7.81 -0.78 2.81 4.18 -10.13 1.04c0.35,3 0.72,6 1.19,9l7.69 -1.25 3.06 4.03 -10.06 1.62c0.53,2.97 1.12,5.94 1.75,8.91l7.59 -1.69 3.32 3.81 -10 2.25c0.68,2.94 1.46,5.88 2.28,8.78l7.5 -2.15 3.53 3.62 -9.75 2.81c0.87,2.91 1.75,5.82 2.75,8.66l7.34 -2.59 3.75 3.4 -9.56 3.38c1.03,2.84 2.12,5.68 3.28,8.5l7.12 -3.03 3.94 3.15 -9.34 3.97c1.22,2.78 2.47,5.53 3.78,8.25l6.97 -3.44 4.12 2.91 -9.15 4.56c1.37,2.69 2.81,5.35 4.28,8l6.78 -3.87 4.28 2.68 -8.81 5.04c1.53,2.62 3.06,5.21 4.72,7.78l6.53 -4.29 4.44 2.41 -8.5 5.59c1.68,2.5 3.4,5 5.18,7.44l6.25 -4.62 4.57 2.12 -8.16 6.09c1.81,2.41 3.72,4.78 5.62,7.13l5.97 -5.03 4.72 1.87 -7.84 6.6c1.97,2.31 4,4.53 6.06,6.78l5.69 -5.41 4.81 1.59 -7.44 7.04c2.13,2.18 4.25,4.34 6.44,6.43l5.37 -5.75 4.88 1.28 -6.97 7.47c2.25,2.03 4.5,4.03 6.81,6l5 -6.03 4.97 1.03 -6.53 7.85c2.34,1.9 4.75,3.75 7.19,5.59l4.62 -6.31 5 0.72 -6.06 8.25c2.47,1.75 5,3.43 7.53,5.09l4.22 -6.56 5.06 0.4 -5.56 8.6c2.56,1.62 5.15,3.19 7.81,4.69l3.81 -6.82 5.07 0.1 -4.97 8.87c2.62,1.44 5.31,2.88 8.03,4.22l3.4 -7 5.07 -0.22 -4.44 9.13c2.72,1.28 5.47,2.56 8.28,3.75l2.97 -7.19 5.03 -0.5 -3.88 9.37c1.29,0.5 2.54,1.07 3.85,1.57 1.56,0.59 3.09,1.09 4.65,1.65l2.53 -7.34 5 -0.78 -3.34 9.59c2.91,0.97 5.78,1.85 8.69,2.69l2.09 -7.47 4.94 -1.09 -2.75 9.84c2.93,0.78 5.87,1.47 8.84,2.16l1.63 -7.63 4.87 -1.41 -2.15 9.97c2.96,0.63 5.93,1.22 8.9,1.69l1.22 -7.75 4.75 -1.69 -1.53 10.07c3,0.43 6,0.84 9,1.15l0.72 -7.81 4.69 -1.97 -0.97 10.19c3.03,0.25 6.06,0.43 9.09,0.56l0.25 -7.81 4.53 -2.25 -0.34 10.21c3.03,0.07 6.06,0.07 9.09,0.04l-0.22 -7.85 4.41 -2.5 0.28 10.25c3.03,-0.09 6.06,-0.31 9.06,-0.53l-0.69 -7.81 4.25 -2.78 0.88 10.18c3.03,-0.31 6.03,-0.62 9.03,-1.03l-1.16 -7.78 4.07 -3 1.5 10.06c3,-0.47 5.97,-1 8.93,-1.59l-1.59 -7.63 3.87 -3.25 2.1 9.97c2.94,-0.65 5.91,-1.37 8.81,-2.15l-2.03 -7.5 3.66 -3.5 2.68 9.87c2.94,-0.81 5.81,-1.75 8.69,-2.69l-2.5 -7.4 3.47 -3.69 3.25 9.66c2.87,-1 5.72,-2.03 8.53,-3.16l-2.94 -7.22 3.22 -3.9 3.84 9.4c2.78,-1.15 5.57,-2.37 8.32,-3.65l-3.38 -7.03 3 -4.07 4.37 9.19c2.75,-1.34 5.44,-2.75 8.1,-4.19l-3.78 -6.81 2.75 -4.25 4.93 8.97c2.66,-1.5 5.25,-3.06 7.82,-4.69l-4.19 -6.59 2.47 -4.41 5.47 8.63c2.56,-1.66 5.09,-3.35 7.56,-5.1l-4.59 -6.34 2.18 -4.56 6 8.28c2.44,-1.81 4.81,-3.66 7.19,-5.53l-4.94 -6.06 1.94 -4.66 6.47 7.88c2.31,-1.91 4.59,-3.91 6.84,-5.94l-5.31 -5.75 1.65 -4.78 6.97 7.53c2.22,-2.06 4.35,-4.22 6.47,-6.38l-5.66 -5.43 1.38 -4.88 7.37 7.09c2.1,-2.18 4.16,-4.43 6.13,-6.72l-6 -5.12 1.06 -4.94 7.78 6.63c1.94,-2.31 3.85,-4.66 5.69,-7.07l-6.25 -4.75 0.78 -4.99 8.16 6.15c1.78,-2.44 3.53,-4.91 5.22,-7.44l-6.5 -4.31 0.47 -5.03 8.53 5.66c1.62,-2.53 3.21,-5.13 4.75,-7.75l-6.75 -3.91 0.18 -5.06 8.85 5.16c1.5,-2.63 2.9,-5.32 4.28,-8.04l-6.97 -3.5 -0.12 -5.06 9.09 4.6c1.31,-2.72 2.62,-5.44 3.87,-8.25l-7.18 -3.07 -0.47 -5.06 9.34 4.03c0.94,-2.22 1.88,-4.43 2.72,-6.68 0.22,-0.6 0.41,-1.19 0.62,-1.79l-7.31 -2.62 -0.75 -5 9.56 3.44c1.01,-2.88 1.94,-5.75 2.82,-8.63l-7.44 -2.22 -1.03 -4.93 9.75 2.87c0.84,-2.94 1.59,-5.87 2.28,-8.78l-7.56 -1.75 -1.32 -4.88 9.94 2.28c0.66,-2.97 1.22,-5.93 1.75,-8.9l-7.69 -1.31 -1.62 -4.79 10.09 1.69c0.47,-3 0.88,-6 1.25,-9l-7.81 -0.81 -1.91 -4.69 10.16 1.07c0.28,-3.03 0.53,-6.03 0.72,-9.07l-7.84 -0.37 -2.19 -4.56 0 0.01z"/>
  <path class="fil2 str0" d="M5329.89 1525.96c0,76.9 62.34,139.25 139.08,139.25 76.94,0 139.25,-62.35 139.25,-139.25 0,-76.74 -62.31,-139.08 -139.25,-139.08 -76.74,0 -139.08,62.34 -139.08,139.08z"/>
  <path class="fil2 str0" d="M5469.07 1647.02c66.84,0 121.02,-54.19 121.02,-121.06 0,-66.84 -54.18,-121.06 -121.02,-121.06 -66.88,0 -121.06,54.22 -121.06,121.06 0,66.87 54.18,121.06 121.06,121.06z"/>
  <path class="fil2 str0" d="M5586.78 1554.18c15.56,-65 -24.5,-130.31 -89.5,-145.9 -64.99,-15.56 -130.3,24.5 -145.89,89.5 -15.57,64.99 24.49,130.3 89.49,145.89 65,15.57 130.31,-24.46 145.9,-89.49z"/>
  <path class="fil2 str0" d="M5448.6 1645.24c6.66,1.15 13.44,1.81 20.4,1.81 6.97,0 13.75,-0.66 20.38,-1.81 -1.81,-7.97 -10.25,-14.25 -20.38,-14.25 -9.96,0 -18.56,6.28 -20.4,14.25z"/>
  <path class="fil2 str0" d="M5448.6 1406.75c6.66,-1.16 13.44,-1.85 20.4,-1.85 6.97,0 13.75,0.69 20.38,1.85 -1.81,7.94 -10.25,14.25 -20.38,14.25 -9.96,0 -18.56,-6.31 -20.4,-14.25z"/>
  <path class="fil2 str0" d="M5370.26 1595.9c3.87,5.5 8.22,10.78 13.12,15.68 4.94,4.94 10.22,9.28 15.72,13.16 4.35,-6.94 2.81,-17.34 -4.34,-24.5 -7.03,-7.06 -17.59,-8.69 -24.5,-4.34l0 0z"/>
  <path class="fil2 str0" d="M5538.91 1427.25c5.5,3.87 10.78,8.22 15.72,13.12 4.9,4.94 9.25,10.22 13.12,15.72 -6.94,4.35 -17.37,2.81 -24.5,-4.34 -7.03,-7.03 -8.68,-17.56 -4.34,-24.5l0 0z"/>
  <path class="fil2 str0" d="M5349.76 1505.59c-1.19,6.65 -1.84,13.43 -1.84,20.4 0,6.97 0.65,13.75 1.84,20.41 7.94,-1.85 14.25,-10.28 14.25,-20.41 0,-9.93 -6.31,-18.56 -14.25,-20.4z"/>
  <path class="fil2 str0" d="M5588.25 1505.59c1.15,6.65 1.81,13.43 1.81,20.4 0,6.97 -0.66,13.75 -1.81,20.41 -7.97,-1.85 -14.25,-10.28 -14.25,-20.41 0,-9.93 6.28,-18.56 14.25,-20.4z"/>
  <path class="fil2 str0" d="M5539.16 1624.52c5.5,-3.88 10.78,-8.22 15.68,-13.16 4.91,-4.93 9.22,-10.21 13.1,-15.75 -6.94,-4.31 -17.38,-2.74 -24.5,4.41 -7,7.06 -8.63,17.63 -4.28,24.5z"/>
  <path class="fil2 str0" d="M5370.07 1456.37c3.84,-5.53 8.19,-10.81 13.09,-15.75 4.91,-4.93 10.16,-9.31 15.66,-13.18 4.38,6.9 2.88,17.34 -4.25,24.53 -7.03,7.03 -17.56,8.71 -24.5,4.4l0 0z"/>
  <path class="fil2 str0" d="M5469.07 1577.52c28.46,0 51.56,-23.06 51.56,-51.56 0,-28.47 -23.1,-51.56 -51.56,-51.56 -28.47,0 -51.56,23.1 -51.56,51.56 0,28.5 23.09,51.56 51.56,51.56z"/>
  <polygon class="fil2 str0" points="5491.32,1556.62 5493.47,1560.34 5491.32,1564.05 5487.04,1564.05 5484.88,1560.34 5487.04,1556.62 "/>
  <polygon class="fil2 str0" points="5471.19,1562.05 5473.35,1565.77 5471.19,1569.49 5466.91,1569.49 5464.79,1565.77 5466.91,1562.05 "/>
  <polygon class="fil2 str0" points="5451.1,1556.62 5453.26,1560.34 5451.1,1564.05 5446.82,1564.05 5444.66,1560.34 5446.82,1556.62 "/>
  <polygon class="fil2 str0" points="5436.82,1542.34 5438.94,1546.02 5436.82,1549.74 5432.54,1549.74 5430.38,1546.02 5432.54,1542.34 "/>
  <polygon class="fil2 str0" points="5431.38,1522.34 5433.51,1526.02 5431.38,1529.74 5427.1,1529.74 5424.94,1526.02 5427.1,1522.34 "/>
  <polygon class="fil2 str0" points="5436.82,1502.15 5438.94,1505.84 5436.82,1509.56 5432.54,1509.56 5430.38,1505.84 5432.54,1502.15 "/>
  <polygon class="fil2 str0" points="5451.1,1487.84 5453.26,1491.56 5451.1,1495.28 5446.82,1495.28 5444.66,1491.56 5446.82,1487.84 "/>
  <polygon class="fil2 str0" points="5471.19,1482.4 5473.35,1486.12 5471.19,1489.84 5466.91,1489.84 5464.79,1486.12 5466.91,1482.4 "/>
  <polygon class="fil2 str0" points="5491.32,1487.84 5493.47,1491.56 5491.32,1495.28 5487.04,1495.28 5484.88,1491.56 5487.04,1487.84 "/>
  <polygon class="fil2 str0" points="5505.6,1502.15 5507.75,1505.84 5505.6,1509.56 5501.32,1509.56 5499.16,1505.84 5501.32,1502.15 "/>
  <polygon class="fil2 str0" points="5511.03,1522.24 5513.19,1525.96 5511.03,1529.68 5506.75,1529.68 5504.6,1525.96 5506.75,1522.24 "/>
  <polygon class="fil2 str0" points="5505.6,1542.34 5507.75,1546.02 5505.6,1549.74 5501.32,1549.74 5499.16,1546.02 5501.32,1542.34 "/>
  <path class="fil2 str0" d="M5469.07 1479.96c25.34,0 46,20.66 46,46 0,25.38 -20.66,46 -46,46 -25.38,0 -46,-20.62 -46,-46 0,-25.34 20.62,-46 46,-46zm0 -5.56c-28.47,0 -51.56,23.09 -51.56,51.56 0,28.5 23.09,51.56 51.56,51.56 28.46,0 51.56,-23.06 51.56,-51.56 0,-28.47 -23.1,-51.56 -51.56,-51.56z"/>
  <path class="fil2 str0" d="M4640.39 1607.52c45,-118.12 -14.28,-250.39 -132.43,-295.39 -118.15,-45 -250.4,14.31 -295.4,132.46 -44.99,118.15 14.28,250.4 132.43,295.39 118.16,45 250.4,-14.31 295.4,-132.46z"/>
  <path class="fil2 str0" d="M4642.32 1533.84l10.19 0.47c0.13,-3.04 0.16,-6.07 0.16,-9.07l-7.82 0.1 -2.43 -4.44 10.18 -0.13c-0.06,-3.03 -0.22,-6.06 -0.4,-9.09l-7.78 0.6 -2.72 -4.29 10.25 -0.75c-0.28,-3.03 -0.63,-6.03 -1,-9.03l-7.75 1.03 -2.97 -4.09 10.12 -1.37c-0.43,-2.97 -0.9,-5.97 -1.47,-8.94l-7.68 1.47 -3.19 -3.88 9.97 -1.97c-0.63,-2.96 -1.29,-5.93 -2,-8.87l-7.53 1.97 -3.44 -3.72 9.84 -2.56c-0.78,-2.91 -1.65,-5.81 -2.56,-8.72l-7.38 2.4 -3.65 -3.49 9.72 -3.16c-0.97,-2.88 -2,-5.72 -3.1,-8.53l-7.25 2.81 -3.84 -3.28 9.47 -3.69c-1.13,-2.81 -2.28,-5.62 -3.53,-8.37l-7.09 3.28 -4.04 -3.06 9.22 -4.25c-1.31,-2.72 -2.65,-5.44 -4.06,-8.13l-6.84 3.66 -4.19 -2.78 8.94 -4.82c-1.47,-2.65 -2.97,-5.28 -4.53,-7.87l-6.63 4.09 -4.37 -2.56 8.68 -5.34c-1.59,-2.57 -3.28,-5.06 -5,-7.57l-6.37 4.47 -4.53 -2.28 8.34 -5.84c-1.78,-2.47 -3.56,-4.91 -5.4,-7.31l-6.16 4.87 -4.62 -1.97 7.96 -6.37c-1.9,-2.34 -3.84,-4.66 -5.87,-6.94l-5.81 5.22 -4.75 -1.72 7.59 -6.81c-2.03,-2.22 -4.16,-4.41 -6.28,-6.56l-5.47 5.56 -4.87 -1.44 7.18 -7.28c-2.15,-2.12 -4.4,-4.15 -6.65,-6.19l-5.16 5.91 -4.94 -1.12 6.75 -7.72c-2.28,-1.97 -4.62,-3.94 -7,-5.81l-4.81 6.21 -5 -0.81 6.25 -8.09c-2.41,-1.82 -4.84,-3.63 -7.34,-5.35l-4.41 6.47 -5.03 -0.53 5.75 -8.44c-2.53,-1.65 -5.06,-3.31 -7.66,-4.9l-4 6.72 -5.06 -0.25 5.22 -8.75c-2.59,-1.53 -5.25,-2.97 -7.94,-4.41l-3.59 6.91 -5.06 0.06 4.72 -9.06c-2.69,-1.35 -5.44,-2.63 -8.22,-3.91l-3.16 7.13 -5.03 0.37 4.16 -9.34c-2.79,-1.19 -5.6,-2.34 -8.41,-3.44l-2.75 7.31 -5.03 0.69 3.59 -9.53c-2.87,-1.06 -5.72,-2.06 -8.59,-3l-2.31 7.47 -4.97 1 3 -9.72c-2.91,-0.87 -5.81,-1.72 -8.75,-2.47l-1.84 7.6 -4.91 1.28 2.44 -9.91c-2.97,-0.69 -5.94,-1.34 -8.91,-1.9l-1.37 7.68 -4.82 1.56 1.82 -10.06c-3,-0.53 -6,-0.97 -9,-1.37l-0.94 7.78 -4.69 1.84 1.22 -10.18c-3.03,-0.35 -6.03,-0.6 -9.06,-0.82l-0.47 7.85 -4.59 2.12 0.62 -10.22c-3.03,-0.15 -6.06,-0.28 -9.09,-0.28l0 7.84 -4.47 2.41 0 -10.22c-2.59,0.03 -5.16,0.06 -7.75,0.19l0.44 7.84 -4.35 2.63 -0.53 -10.19c-3.03,0.19 -6.06,0.44 -9.06,0.78l0.87 7.75 -4.15 2.88 -1.16 -10.16c-3,0.38 -6,0.85 -9,1.35l1.35 7.65 -3.97 3.16 -1.78 -10.1c-2.97,0.57 -5.94,1.19 -8.88,1.85l1.81 7.62 -3.78 3.35 -2.37 -9.88c-2.94,0.72 -5.88,1.5 -8.75,2.34l2.25 7.47 -3.59 3.57 -2.94 -9.69c-2.88,0.9 -5.75,1.84 -8.59,2.87l2.68 7.28 -3.34 3.78 -3.53 -9.53c-2.85,1.1 -5.66,2.22 -8.44,3.41l3.13 7.09 -3.13 4 -4.09 -9.34c-2.75,1.25 -5.47,2.56 -8.19,3.91l3.53 6.93 -2.87 4.16 -4.63 -9.03c-2.69,1.41 -5.34,2.84 -7.97,4.37l3.94 6.69 -2.59 4.34 -5.16 -8.74c-2.59,1.56 -5.16,3.18 -7.69,4.84l4.35 6.44 -2.38 4.46 -5.68 -8.43c-2.51,1.72 -4.94,3.5 -7.38,5.31l4.72 6.19 -2.06 4.59 -6.22 -8.12c-2.41,1.87 -4.72,3.81 -7.03,5.75l5.09 5.9 -1.81 4.72 -6.66 -7.69c-2.28,2 -4.53,4.03 -6.72,6.13l5.47 5.59 -1.53 4.84 -7.09 -7.31c-2.16,2.16 -4.25,4.31 -6.35,6.53l5.79 5.25 -1.22 4.91 -7.53 -6.88c-2.04,2.29 -4,4.6 -5.94,6.94l6.09 4.88 -0.94 4.97 -7.96 -6.41c-1.88,2.38 -3.69,4.81 -5.47,7.25l6.37 4.53 -0.65 5.03 -8.32 -5.94c-1.71,2.5 -3.4,5 -5.06,7.57l6.66 4.15 -0.35 5.03 -8.59 -5.37c-1.59,2.56 -3.12,5.19 -4.62,7.84l6.84 3.72 -0.03 5.06 -8.91 -4.84c-1.4,2.66 -2.78,5.34 -4.09,8.09l7 3.28 0.28 5.07 -9.19 -4.32c-1.25,2.75 -2.43,5.54 -3.56,8.35l7.16 2.87 0.56 5 -9.41 -3.75c-0.15,0.35 -0.31,0.69 -0.43,1.06 -0.97,2.5 -1.82,5 -2.66,7.5l7.34 2.41 0.88 5 -9.66 -3.19c-0.94,2.88 -1.78,5.78 -2.59,8.69l7.53 2 1.16 4.9 -9.82 -2.59c-0.75,2.94 -1.5,5.91 -2.12,8.84l7.69 1.53 1.47 4.85 -9.97 -2c-0.6,3 -1.13,5.97 -1.57,8.97l7.72 1.06 1.75 4.75 -10.09 -1.41c-0.38,3 -0.72,6.03 -1,9.03l7.78 0.63 2.03 4.62 -10.18 -0.81c-0.22,3.03 -0.35,6.06 -0.44,9.09l7.81 0.16 2.31 4.5 -10.25 -0.22c-0.03,3.03 0.03,6.06 0.1,9.09l7.84 -0.31 2.59 4.35 -10.21 0.4c0.15,3.03 0.34,6.06 0.62,9.09l7.81 -0.81 2.82 4.22 -10.13 1.03c0.34,3 0.72,6 1.16,9l7.71 -1.25 3.07 4 -10.07 1.63c0.54,3 1.13,5.97 1.76,8.93l7.59 -1.71 3.31 3.84 -10 2.22c0.69,2.97 1.47,5.9 2.28,8.81l7.5 -2.16 3.53 3.63 -9.78 2.81c0.88,2.91 1.78,5.78 2.75,8.66l7.38 -2.6 3.75 3.41 -9.6 3.37c1.07,2.85 2.16,5.69 3.28,8.47l7.16 -3.03 3.94 3.19 -9.35 3.94c1.19,2.78 2.47,5.53 3.78,8.28l6.94 -3.47 4.16 2.94 -9.16 4.53c1.38,2.71 2.81,5.37 4.28,7.99l6.78 -3.84 4.29 2.69 -8.82 5.03c1.5,2.63 3.07,5.22 4.69,7.78l6.56 -4.28 4.44 2.41 -8.5 5.56c1.69,2.53 3.41,5.03 5.19,7.47l6.25 -4.66 4.56 2.16 -8.19 6.09c1.85,2.41 3.72,4.75 5.66,7.09l5.97 -5 4.69 1.88 -7.85 6.59c2,2.28 4.03,4.53 6.1,6.75l5.68 -5.37 4.78 1.59 -7.4 7.03c2.12,2.16 4.22,4.31 6.43,6.41l5.35 -5.75 4.9 1.31 -6.97 7.44c2.25,2.06 4.5,4.06 6.82,6.03l5 -6.03 4.93 1 -6.5 7.87c2.35,1.91 4.75,3.75 7.19,5.57l4.59 -6.28 5.03 0.68 -6.06 8.28c2.47,1.75 4.97,3.44 7.53,5.1l4.22 -6.56 5.03 0.4 -5.53 8.6c2.56,1.62 5.16,3.15 7.81,4.68l3.82 -6.81 5.06 0.09 -5 8.85c2.66,1.47 5.34,2.9 8.06,4.25l3.41 -7.03 5.06 -0.19 -4.44 9.12c2.72,1.28 5.47,2.53 8.28,3.72l2.97 -7.15 5.03 -0.54 -3.87 9.38c1.28,0.53 2.53,1.09 3.84,1.59 1.56,0.6 3.09,1.1 4.66,1.63l2.53 -7.31 4.97 -0.82 -3.32 9.63c2.91,0.97 5.78,1.84 8.69,2.69l2.09 -7.47 4.94 -1.13 -2.75 9.88c2.94,0.78 5.88,1.46 8.81,2.12l1.66 -7.62 4.87 -1.38 -2.15 9.97c2.97,0.62 5.93,1.19 8.9,1.69l1.22 -7.78 4.75 -1.66 -1.53 10.06c3,0.44 6,0.85 9,1.16l0.72 -7.81 4.66 -1.97 -0.94 10.15c3.03,0.25 6.06,0.44 9.06,0.6l0.28 -7.85 4.53 -2.22 -0.34 10.22c3.03,0.07 6.06,0.07 9.09,0l-0.22 -7.81 4.41 -2.53 0.28 10.28c3,-0.12 6.03,-0.31 9.06,-0.53l-0.68 -7.84 4.24 -2.75 0.88 10.18c3.03,-0.31 6.03,-0.62 9.03,-1.06l-1.16 -7.75 4.07 -3.03 1.5 10.09c3,-0.47 5.97,-1 8.93,-1.59l-1.59 -7.66 3.88 -3.25 2.09 10c2.94,-0.65 5.91,-1.37 8.81,-2.15l-2.03 -7.5 3.66 -3.5 2.68 9.87c2.94,-0.84 5.82,-1.75 8.69,-2.68l-2.5 -7.41 3.44 -3.69 3.28 9.66c2.87,-1 5.72,-2.03 8.53,-3.16l-2.94 -7.25 3.22 -3.87 3.81 9.4c2.81,-1.18 5.6,-2.37 8.34,-3.65l-3.37 -7.03 3 -4.1 4.37 9.19c2.72,-1.31 5.41,-2.72 8.07,-4.16l-3.75 -6.81 2.75 -4.25 4.93 8.94c2.63,-1.5 5.22,-3.06 7.81,-4.66l-4.18 -6.59 2.47 -4.41 5.46 8.6c2.54,-1.63 5.07,-3.32 7.57,-5.07l-4.6 -6.34 2.19 -4.56 5.97 8.25c2.44,-1.78 4.84,-3.63 7.22,-5.53l-4.94 -6.03 1.94 -4.69 6.47 7.91c2.31,-1.94 4.59,-3.94 6.84,-5.97l-5.31 -5.75 1.65 -4.78 6.97 7.56c2.22,-2.1 4.35,-4.22 6.47,-6.38l-5.66 -5.43 1.38 -4.88 7.37 7.09c2.07,-2.22 4.16,-4.43 6.13,-6.71l-6 -5.13 1.06 -4.94 7.78 6.63c1.94,-2.31 3.85,-4.69 5.69,-7.1l-6.25 -4.71 0.75 -5 8.16 6.15c1.81,-2.43 3.56,-4.9 5.25,-7.43l-6.5 -4.32 0.46 -5.03 8.54 5.66c1.62,-2.53 3.21,-5.13 4.75,-7.75l-6.75 -3.91 0.15 -5.06 8.88 5.13c1.5,-2.63 2.9,-5.32 4.28,-8l-6.97 -3.5 -0.16 -5.07 9.13 4.6c1.31,-2.72 2.62,-5.47 3.84,-8.25l-7.19 -3.09 -0.43 -5.04 9.34 4c0.91,-2.22 1.88,-4.4 2.72,-6.65 0.22,-0.6 0.41,-1.19 0.62,-1.78l-7.31 -2.63 -0.75 -5.03 9.53 3.47c1.03,-2.88 1.97,-5.75 2.85,-8.66l-7.44 -2.18 -1.03 -4.94 9.75 2.87c0.84,-2.93 1.59,-5.87 2.28,-8.81l-7.56 -1.75 -1.35 -4.87 9.97 2.31c0.66,-2.97 1.22,-5.97 1.75,-8.94l-7.69 -1.28 -1.62 -4.78 10.06 1.69c0.5,-3 0.91,-6 1.25,-9l-7.78 -0.85 -1.91 -4.68 10.13 1.09c0.31,-3.03 0.56,-6.06 0.75,-9.06l-7.84 -0.38 -2.19 -4.56 0 0z"/>
  <path class="fil2 str0" d="M4285.5 1525.96c0,76.9 62.34,139.25 139.08,139.25 76.94,0 139.25,-62.35 139.25,-139.25 0,-76.74 -62.31,-139.08 -139.25,-139.08 -76.74,0 -139.08,62.34 -139.08,139.08z"/>
  <path class="fil2 str0" d="M4424.68 1647.02c66.84,0 121.02,-54.19 121.02,-121.06 0,-66.84 -54.18,-121.06 -121.02,-121.06 -66.87,0 -121.06,54.22 -121.06,121.06 0,66.87 54.19,121.06 121.06,121.06z"/>
  <path class="fil2 str0" d="M4542.39 1554.18c15.56,-65 -24.5,-130.31 -89.49,-145.9 -65,-15.56 -130.31,24.5 -145.9,89.5 -15.6,64.99 24.49,130.3 89.49,145.89 65,15.57 130.31,-24.46 145.9,-89.49z"/>
  <path class="fil2 str0" d="M4404.21 1645.24c6.63,1.15 13.44,1.81 20.41,1.81 6.93,0 13.75,-0.66 20.37,-1.81 -1.81,-7.97 -10.28,-14.25 -20.37,-14.25 -9.97,0 -18.56,6.28 -20.41,14.25z"/>
  <path class="fil2 str0" d="M4404.21 1406.75c6.63,-1.16 13.44,-1.85 20.41,-1.85 6.93,0 13.75,0.69 20.37,1.85 -1.81,7.94 -10.28,14.25 -20.37,14.25 -9.97,0 -18.56,-6.31 -20.41,-14.25z"/>
  <path class="fil2 str0" d="M4325.87 1595.9c3.88,5.5 8.19,10.78 13.13,15.68 4.9,4.94 10.21,9.28 15.71,13.16 4.32,-6.94 2.82,-17.34 -4.34,-24.5 -7.03,-7.06 -17.59,-8.69 -24.5,-4.34l0 0z"/>
  <path class="fil2 str0" d="M4494.52 1427.25c5.5,3.87 10.78,8.22 15.69,13.12 4.93,4.94 9.28,10.22 13.12,15.72 -6.9,4.35 -17.34,2.81 -24.5,-4.34 -7.03,-7.03 -8.65,-17.56 -4.31,-24.5l0 0z"/>
  <path class="fil2 str0" d="M4305.37 1505.59c-1.19,6.65 -1.84,13.43 -1.84,20.4 0,6.97 0.65,13.75 1.84,20.41 7.94,-1.85 14.25,-10.28 14.25,-20.41 0,-9.93 -6.31,-18.56 -14.25,-20.4z"/>
  <path class="fil2 str0" d="M4543.86 1505.59c1.16,6.65 1.81,13.43 1.81,20.4 0,6.97 -0.65,13.75 -1.81,20.41 -7.97,-1.85 -14.25,-10.28 -14.25,-20.41 0,-9.93 6.28,-18.56 14.25,-20.4z"/>
  <path class="fil2 str0" d="M4494.77 1624.52c5.5,-3.88 10.78,-8.22 15.69,-13.16 4.9,-4.93 9.21,-10.21 13.09,-15.75 -6.94,-4.31 -17.38,-2.74 -24.5,4.41 -7,7.06 -8.62,17.63 -4.28,24.5z"/>
  <path class="fil2 str0" d="M4325.68 1456.37c3.85,-5.53 8.16,-10.81 13.07,-15.75 4.93,-4.93 10.18,-9.31 15.68,-13.18 4.35,6.9 2.85,17.34 -4.28,24.53 -7,7.03 -17.56,8.71 -24.47,4.4l0 0z"/>
  <path class="fil2 str0" d="M4424.68 1577.52c28.47,0 51.56,-23.06 51.56,-51.56 0,-28.47 -23.09,-51.56 -51.56,-51.56 -28.5,0 -51.56,23.1 -51.56,51.56 0,28.5 23.06,51.56 51.56,51.56z"/>
  <polygon class="fil2 str0" points="4446.93,1556.62 4449.05,1560.34 4446.93,1564.05 4442.65,1564.05 4440.49,1560.34 4442.65,1556.62 "/>
  <polygon class="fil2 str0" points="4426.8,1562.05 4428.96,1565.77 4426.8,1569.49 4422.52,1569.49 4420.4,1565.77 4422.52,1562.05 "/>
  <polygon class="fil2 str0" points="4406.71,1556.62 4408.87,1560.34 4406.71,1564.05 4402.43,1564.05 4400.27,1560.34 4402.43,1556.62 "/>
  <polygon class="fil2 str0" points="4392.4,1542.34 4394.56,1546.02 4392.4,1549.74 4388.12,1549.74 4385.99,1546.02 4388.12,1542.34 "/>
  <polygon class="fil2 str0" points="4386.96,1522.34 4389.12,1526.02 4386.96,1529.74 4382.68,1529.74 4380.56,1526.02 4382.68,1522.34 "/>
  <polygon class="fil2 str0" points="4392.4,1502.15 4394.56,1505.84 4392.4,1509.56 4388.12,1509.56 4385.99,1505.84 4388.12,1502.15 "/>
  <polygon class="fil2 str0" points="4406.71,1487.84 4408.87,1491.56 4406.71,1495.28 4402.43,1495.28 4400.27,1491.56 4402.43,1487.84 "/>
  <polygon class="fil2 str0" points="4426.8,1482.4 4428.96,1486.12 4426.8,1489.84 4422.52,1489.84 4420.4,1486.12 4422.52,1482.4 "/>
  <polygon class="fil2 str0" points="4446.93,1487.84 4449.05,1491.56 4446.93,1495.28 4442.65,1495.28 4440.49,1491.56 4442.65,1487.84 "/>
  <polygon class="fil2 str0" points="4461.21,1502.15 4463.36,1505.84 4461.21,1509.56 4456.93,1509.56 4454.77,1505.84 4456.93,1502.15 "/>
  <polygon class="fil2 str0" points="4466.65,1522.24 4468.8,1525.96 4466.65,1529.68 4462.36,1529.68 4460.21,1525.96 4462.36,1522.24 "/>
  <polygon class="fil2 str0" points="4461.21,1542.34 4463.36,1546.02 4461.21,1549.74 4456.93,1549.74 4454.77,1546.02 4456.93,1542.34 "/>
  <path class="fil2 str0" d="M4424.68 1479.96c25.34,0 46,20.66 46,46 0,25.38 -20.66,46 -46,46 -25.37,0 -46,-20.62 -46,-46 0,-25.34 20.63,-46 46,-46zm0 -5.56c-28.5,0 -51.56,23.09 -51.56,51.56 0,28.5 23.06,51.56 51.56,51.56 28.47,0 51.56,-23.06 51.56,-51.56 0,-28.47 -23.09,-51.56 -51.56,-51.56z"/>
  <path class="fil2 str0" d="M859.97 1607.52c45,-118.15 -14.28,-250.39 -132.43,-295.39 -118.15,-45 -250.39,14.28 -295.39,132.43 -45,118.15 14.31,250.42 132.43,295.42 118.15,45 250.39,-14.31 295.39,-132.46l0 0z"/>
  <path class="fil2 str0" d="M861.91 1533.84l10.18 0.47c0.13,-3.04 0.16,-6.07 0.16,-9.07l-7.81 0.1 -2.47 -4.44 10.22 -0.13c-0.06,-3.03 -0.22,-6.06 -0.41,-9.09l-7.78 0.6 -2.72 -4.29 10.22 -0.75c-0.25,-3.03 -0.59,-6.03 -0.97,-9.03l-7.75 1.03 -2.97 -4.09 10.13 -1.37c-0.44,-2.97 -0.91,-5.97 -1.47,-8.94l-7.69 1.47 -3.19 -3.88 9.97 -1.97c-0.62,-2.96 -1.28,-5.93 -2,-8.87l-7.53 1.97 -3.44 -3.72 9.85 -2.56c-0.78,-2.91 -1.66,-5.81 -2.57,-8.72l-7.37 2.4 -3.66 -3.49 9.72 -3.16c-0.97,-2.88 -2.03,-5.72 -3.09,-8.53l-7.22 2.81 -3.87 -3.28 9.46 -3.69c-1.12,-2.81 -2.28,-5.62 -3.53,-8.37l-7.09 3.28 -4.03 -3.06 9.19 -4.25c-1.29,-2.72 -2.63,-5.44 -4.03,-8.13l-6.85 3.66 -4.22 -2.78 8.97 -4.82c-1.47,-2.65 -3,-5.28 -4.56,-7.87l-6.59 4.09 -4.38 -2.56 8.69 -5.34c-1.63,-2.57 -3.31,-5.06 -5.03,-7.57l-6.35 4.47 -4.53 -2.28 8.35 -5.84c-1.78,-2.47 -3.57,-4.91 -5.41,-7.31l-6.16 4.87 -4.62 -1.97 7.94 -6.37c-1.88,-2.34 -3.85,-4.66 -5.85,-6.94l-5.81 5.22 -4.75 -1.72 7.59 -6.81c-2.06,-2.22 -4.15,-4.41 -6.28,-6.56l-5.47 5.56 -4.87 -1.44 7.22 -7.28c-2.19,-2.12 -4.44,-4.15 -6.69,-6.19l-5.16 5.91 -4.93 -1.12 6.75 -7.72c-2.32,-1.97 -4.63,-3.94 -7,-5.81l-4.82 6.21 -5 -0.81 6.25 -8.09c-2.4,-1.82 -4.84,-3.63 -7.34,-5.35l-4.41 6.47 -5.03 -0.53 5.75 -8.44c-2.53,-1.65 -5.06,-3.31 -7.68,-4.9l-4 6.72 -5.04 -0.25 5.22 -8.75c-2.59,-1.53 -5.25,-2.97 -7.93,-4.41l-3.6 6.91 -5.06 0.06 4.72 -9.06c-2.69,-1.35 -5.44,-2.63 -8.22,-3.91l-3.16 7.13 -5.03 0.37 4.16 -9.34c-2.78,-1.19 -5.59,-2.34 -8.44,-3.44l-2.72 7.31 -5.03 0.69 3.6 -9.53c-2.88,-1.06 -5.72,-2.06 -8.6,-3l-2.31 7.47 -4.97 1 3 -9.72c-2.91,-0.87 -5.81,-1.72 -8.75,-2.47l-1.84 7.6 -4.91 1.28 2.41 -9.91c-2.94,-0.69 -5.91,-1.34 -8.88,-1.9l-1.4 7.68 -4.78 1.56 1.81 -10.06c-3,-0.53 -6,-0.97 -9,-1.37l-0.94 7.78 -4.69 1.84 1.22 -10.18c-3.03,-0.35 -6.03,-0.6 -9.06,-0.82l-0.47 7.85 -4.59 2.12 0.62 -10.22c-3.03,-0.15 -6.06,-0.28 -9.09,-0.28l0 7.84 -4.47 2.41 0 -10.22c-2.59,0.03 -5.19,0.06 -7.75,0.19l0.41 7.84 -4.31 2.63 -0.57 -10.19c-3,0.19 -6.03,0.44 -9.03,0.78l0.88 7.75 -4.16 2.88 -1.15 -10.16c-3,0.38 -6,0.85 -9,1.35l1.34 7.65 -3.97 3.16 -1.75 -10.1c-3,0.57 -5.97,1.19 -8.9,1.85l1.81 7.62 -3.78 3.35 -2.38 -9.88c-2.93,0.72 -5.87,1.5 -8.78,2.34l2.28 7.47 -3.59 3.57 -2.94 -9.69c-2.87,0.9 -5.75,1.84 -8.59,2.87l2.68 7.28 -3.37 3.78 -3.5 -9.53c-2.84,1.1 -5.66,2.22 -8.44,3.41l3.13 7.09 -3.13 4 -4.09 -9.34c-2.75,1.25 -5.5,2.56 -8.19,3.91l3.53 6.93 -2.87 4.16 -4.63 -9.03c-2.68,1.41 -5.34,2.84 -7.97,4.37l3.97 6.69 -2.62 4.34 -5.16 -8.74c-2.59,1.56 -5.16,3.18 -7.69,4.84l4.32 6.44 -2.35 4.46 -5.68 -8.43c-2.5,1.72 -4.94,3.5 -7.38,5.31l4.72 6.19 -2.09 4.59 -6.19 -8.12c-2.41,1.87 -4.72,3.81 -7.06,5.75l5.12 5.9 -1.81 4.72 -6.66 -7.69c-2.28,2 -4.53,4.03 -6.72,6.13l5.47 5.59 -1.53 4.84 -7.09 -7.31c-2.16,2.16 -4.25,4.31 -6.35,6.53l5.78 5.25 -1.21 4.91 -7.57 -6.88c-2,2.29 -3.97,4.6 -5.87,6.94l6.06 4.88 -0.94 4.97 -7.97 -6.41c-1.87,2.38 -3.68,4.81 -5.46,7.25l6.37 4.53 -0.66 5.03 -8.31 -5.94c-1.72,2.5 -3.4,5 -5.06,7.57l6.66 4.15 -0.35 5.03 -8.62 -5.37c-1.56,2.56 -3.09,5.19 -4.59,7.84l6.84 3.72 -0.03 5.06 -8.91 -4.84c-1.41,2.66 -2.78,5.34 -4.09,8.09l7 3.28 0.28 5.07 -9.19 -4.32c-1.25,2.75 -2.44,5.54 -3.56,8.35l7.16 2.87 0.59 5 -9.47 -3.75c-0.12,0.35 -0.28,0.69 -0.41,1.06 -0.96,2.5 -1.81,5 -2.65,7.5l7.34 2.41 0.88 5 -9.66 -3.19c-0.94,2.88 -1.78,5.78 -2.59,8.69l7.53 2 1.15 4.9 -9.81 -2.59c-0.75,2.94 -1.5,5.91 -2.12,8.84l7.68 1.53 1.47 4.85 -9.96 -2c-0.6,3 -1.13,5.97 -1.57,8.97l7.72 1.06 1.75 4.75 -10.09 -1.41c-0.38,3 -0.72,6.03 -1,9.03l7.78 0.63 2.03 4.62 -10.19 -0.81c-0.21,3.03 -0.34,6.06 -0.43,9.09l7.81 0.16 2.31 4.5 -10.25 -0.22c-0.03,3.03 0,6.06 0.13,9.09l7.81 -0.31 2.59 4.35 -10.21 0.4c0.15,3.03 0.34,6.06 0.62,9.09l7.81 -0.81 2.82 4.22 -10.13 1.03c0.31,3 0.72,6 1.16,9l7.71 -1.25 3.07 4 -10.07 1.63c0.5,3 1.1,5.97 1.75,8.93l7.6 -1.71 3.31 3.84 -10 2.22c0.69,2.97 1.47,5.9 2.28,8.81l7.5 -2.16 3.53 3.63 -9.78 2.81c0.88,2.91 1.78,5.78 2.75,8.66l7.38 -2.6 3.75 3.41 -9.6 3.37c1.07,2.85 2.13,5.69 3.28,8.47l7.16 -3.03 3.94 3.19 -9.35 3.94c1.19,2.78 2.47,5.53 3.78,8.28l6.97 -3.47 4.1 2.94 -9.13 4.53c1.38,2.71 2.81,5.37 4.28,7.99l6.78 -3.84 4.28 2.69 -8.84 5.03c1.53,2.63 3.09,5.22 4.72,7.78l6.56 -4.28 4.44 2.41 -8.5 5.56c1.65,2.53 3.4,5.03 5.18,7.47l6.25 -4.66 4.57 2.16 -8.16 6.09c1.81,2.41 3.72,4.75 5.63,7.09l5.97 -5 4.68 1.88 -7.84 6.59c1.97,2.28 4.03,4.53 6.09,6.75l5.69 -5.37 4.78 1.59 -7.41 7.03c2.13,2.16 4.22,4.31 6.44,6.41l5.38 -5.75 4.87 1.31 -6.97 7.44c2.22,2.06 4.5,4.06 6.81,6.03l5 -6.03 4.97 1 -6.53 7.87c2.34,1.91 4.75,3.75 7.19,5.57l4.59 -6.28 5.03 0.68 -6.06 8.28c2.47,1.75 4.97,3.44 7.53,5.1l4.22 -6.56 5.03 0.4 -5.53 8.6c2.56,1.62 5.16,3.15 7.78,4.68l3.84 -6.81 5.07 0.09 -5 8.85c2.65,1.47 5.31,2.9 8.06,4.25l3.4 -7.03 5.07 -0.19 -4.44 9.12c2.72,1.28 5.47,2.53 8.28,3.72l2.97 -7.15 5.03 -0.54 -3.88 9.38c1.29,0.53 2.54,1.09 3.85,1.59 1.53,0.6 3.09,1.1 4.65,1.63l2.53 -7.31 4.97 -0.82 -3.31 9.63c2.88,0.97 5.78,1.84 8.69,2.69l2.09 -7.47 4.94 -1.13 -2.75 9.88c2.94,0.78 5.87,1.46 8.81,2.12l1.66 -7.62 4.84 -1.38 -2.16 9.97c3,0.62 5.97,1.19 8.94,1.69l1.22 -7.78 4.75 -1.66 -1.56 10.06c3.03,0.44 6.03,0.85 9.03,1.16l0.72 -7.81 4.65 -1.97 -0.94 10.15c3.03,0.25 6.07,0.44 9.07,0.6l0.28 -7.85 4.53 -2.22 -0.35 10.22c3.03,0.07 6.07,0.07 9.1,0l-0.22 -7.81 4.4 -2.53 0.26 10.28c3.06,-0.12 6.06,-0.31 9.09,-0.53l-0.69 -7.84 4.22 -2.75 0.91 10.18c3,-0.31 6.03,-0.62 9.03,-1.06l-1.16 -7.75 4.06 -3.03 1.5 10.09c3,-0.47 5.97,-1 8.94,-1.59l-1.59 -7.66 3.87 -3.25 2.09 10c2.94,-0.65 5.91,-1.37 8.82,-2.15l-2.03 -7.5 3.65 -3.5 2.69 9.87c2.94,-0.84 5.81,-1.75 8.69,-2.68l-2.51 -7.41 3.47 -3.69 3.25 9.66c2.88,-1 5.72,-2.03 8.53,-3.16l-2.93 -7.25 3.22 -3.87 3.81 9.4c2.81,-1.18 5.59,-2.37 8.34,-3.65l-3.37 -7.03 3 -4.1 4.37 9.19c2.72,-1.31 5.41,-2.72 8.09,-4.16l-3.78 -6.81 2.72 -4.25 4.97 8.94c2.63,-1.5 5.22,-3.06 7.81,-4.66l-4.18 -6.59 2.46 -4.41 5.47 8.6c2.53,-1.63 5.06,-3.32 7.57,-5.07l-4.6 -6.34 2.19 -4.56 5.97 8.25c2.44,-1.78 4.84,-3.63 7.22,-5.53l-4.97 -6.03 1.94 -4.69 6.46 7.91c2.35,-1.94 4.63,-3.94 6.88,-5.97l-5.31 -5.75 1.65 -4.78 6.97 7.56c2.19,-2.1 4.34,-4.22 6.47,-6.38l-5.66 -5.43 1.35 -4.88 7.4 7.09c2.1,-2.22 4.13,-4.43 6.13,-6.71l-6 -5.13 1.06 -4.94 7.78 6.63c1.94,-2.31 3.85,-4.69 5.69,-7.1l-6.25 -4.71 0.75 -5 8.19 6.15c1.78,-2.43 3.53,-4.9 5.21,-7.43l-6.49 -4.32 0.46 -5.03 8.54 5.66c1.62,-2.53 3.18,-5.13 4.75,-7.75l-6.75 -3.91 0.15 -5.06 8.88 5.13c1.47,-2.63 2.87,-5.32 4.28,-8l-6.97 -3.5 -0.16 -5.07 9.13 4.6c1.31,-2.72 2.62,-5.47 3.87,-8.25l-7.22 -3.09 -0.43 -5.04 9.34 4c0.91,-2.22 1.88,-4.4 2.72,-6.65 0.22,-0.6 0.41,-1.19 0.62,-1.78l-7.31 -2.63 -0.75 -5.03 9.56 3.47c0.97,-2.88 1.94,-5.75 2.82,-8.66l-7.44 -2.18 -1.06 -4.94 9.78 2.87c0.81,-2.93 1.56,-5.87 2.28,-8.81l-7.57 -1.75 -1.34 -4.87 9.97 2.31c0.66,-2.97 1.22,-5.97 1.75,-8.94l-7.72 -1.28 -1.59 -4.78 10.09 1.69c0.47,-3 0.88,-6 1.22,-9l-7.78 -0.85 -1.91 -4.68 10.13 1.09c0.31,-3.03 0.56,-6.06 0.75,-9.06l-7.85 -0.38 -2.18 -4.56 0.01 0z"/>
  <path class="fil2 str0" d="M645.98 1386.87c-76.75,0 -139.09,62.34 -139.09,139.09 0,76.9 62.34,139.24 139.09,139.24 76.93,0 139.28,-62.34 139.28,-139.24 0,-76.75 -62.34,-139.09 -139.28,-139.09z"/>
  <path class="fil2 str0" d="M646.08 1647.11c66.84,0 121.05,-54.21 121.05,-121.06 0,-66.87 -54.21,-121.05 -121.05,-121.05 -66.84,0 -121.06,54.18 -121.06,121.05 0,66.84 54.21,121.06 121.06,121.06z"/>
  <path class="fil2 str0" d="M646.08 1579.77c29.65,0 53.71,-24.06 53.71,-53.71 0,-29.66 -24.06,-53.72 -53.71,-53.72 -29.66,0 -53.72,24.06 -53.72,53.72 0,29.65 24.06,53.71 53.72,53.71z"/>
  <path class="fil2 str0" d="M646.08 1481.03c24.81,0 45.02,20.18 45.02,45.02 0,24.82 -20.21,45.03 -45.02,45.03 -24.85,0 -45.03,-20.22 -45.03,-45.03 0,-24.84 20.18,-45.02 45.03,-45.02zm0 -8.69c-29.66,0 -53.72,24.06 -53.72,53.72 0,29.65 24.06,53.71 53.72,53.71 29.65,0 53.71,-24.06 53.71,-53.71 0,-29.66 -24.06,-53.72 -53.71,-53.72z"/>
  <path class="fil2 str0" d="M625.61 1645.33c6.65,1.16 13.43,1.81 20.4,1.81 6.97,0 13.75,-0.65 20.38,-1.81 -1.82,-7.97 -10.25,-14.28 -20.38,-14.28 -9.94,0 -18.56,6.31 -20.4,14.28z"/>
  <path class="fil2 str0" d="M625.61 1406.81c6.65,-1.16 13.43,-1.81 20.4,-1.81 6.97,0 13.75,0.65 20.38,1.81 -1.82,7.97 -10.25,14.28 -20.38,14.28 -9.94,0 -18.56,-6.31 -20.4,-14.28z"/>
  <path class="fil2 str0" d="M547.27 1595.96c3.87,5.53 8.22,10.81 13.12,15.72 4.94,4.93 10.22,9.25 15.72,13.12 4.34,-6.9 2.81,-17.34 -4.34,-24.5 -7.03,-7.03 -17.57,-8.65 -24.5,-4.34l0 0z"/>
  <path class="fil2 str0" d="M715.92 1427.34c5.5,3.88 10.78,8.19 15.71,13.13 4.91,4.93 9.25,10.18 13.13,15.71 -6.91,4.32 -17.34,2.82 -24.5,-4.34 -7.03,-7.03 -8.69,-17.59 -4.34,-24.5l0 0z"/>
  <path class="fil2 str0" d="M526.77 1505.68c-1.16,6.63 -1.85,13.44 -1.85,20.41 0,6.93 0.69,13.75 1.85,20.37 7.93,-1.81 14.25,-10.28 14.25,-20.37 0,-9.97 -6.32,-18.6 -14.25,-20.41z"/>
  <path class="fil2 str0" d="M765.26 1505.68c1.15,6.63 1.81,13.44 1.81,20.41 0,6.93 -0.66,13.75 -1.81,20.37 -7.97,-1.81 -14.25,-10.28 -14.25,-20.37 0,-9.97 6.28,-18.6 14.25,-20.41z"/>
  <path class="fil2 str0" d="M716.2 1624.61c5.5,-3.87 10.75,-8.22 15.65,-13.15 4.91,-4.94 9.25,-10.22 13.1,-15.75 -6.94,-4.31 -17.38,-2.78 -24.5,4.4 -7,7.07 -8.63,17.6 -4.25,24.5l0 0z"/>
  <path class="fil2 str0" d="M547.08 1456.43c3.84,-5.53 8.19,-10.78 13.09,-15.75 4.91,-4.9 10.16,-9.28 15.66,-13.15 4.37,6.9 2.87,17.34 -4.25,24.5 -7.03,7.06 -17.56,8.72 -24.5,4.4l0 0z"/>
  <polygon class="fil2 str0" points="649.54,1587.49 653.07,1593.58 649.54,1599.71 642.48,1599.71 638.95,1593.58 642.48,1587.49 "/>
  <polygon class="fil2 str0" points="615.67,1577.96 619.17,1584.08 615.67,1590.21 608.61,1590.21 605.08,1584.08 608.61,1577.96 "/>
  <polygon class="fil2 str0" points="591.51,1553.83 595.05,1559.96 591.51,1566.05 584.48,1566.05 580.95,1559.96 584.48,1553.83 "/>
  <polygon class="fil2 str0" points="582.36,1519.93 585.86,1526.06 582.36,1532.15 575.3,1532.15 571.77,1526.06 575.3,1519.93 "/>
  <polygon class="fil2 str0" points="683.54,1577.96 687.07,1584.08 683.54,1590.21 676.48,1590.21 672.95,1584.08 676.48,1577.96 "/>
  <polygon class="fil2 str0" points="707.67,1553.83 711.2,1559.96 707.67,1566.05 700.6,1566.05 697.1,1559.96 700.6,1553.83 "/>
  <polygon class="fil2 str0" points="716.85,1519.93 720.38,1526.06 716.85,1532.15 709.79,1532.15 706.26,1526.06 709.79,1519.93 "/>
  <polygon class="fil2 str0" points="707.67,1485.99 711.2,1492.09 707.67,1498.21 700.6,1498.21 697.1,1492.09 700.6,1485.99 "/>
  <polygon class="fil2 str0" points="683.54,1461.87 687.07,1467.96 683.54,1474.09 676.48,1474.09 672.95,1467.96 676.48,1461.87 "/>
  <polygon class="fil2 str0" points="649.61,1452.81 653.14,1458.93 649.61,1465.03 642.54,1465.03 639.01,1458.93 642.54,1452.81 "/>
  <polygon class="fil2 str0" points="615.67,1461.87 619.17,1467.96 615.67,1474.09 608.61,1474.09 605.08,1467.96 608.61,1461.87 "/>
  <polygon class="fil2 str0" points="591.51,1485.99 595.05,1492.09 591.51,1498.21 584.48,1498.21 580.95,1492.09 584.48,1485.99 "/>
  <path class="fil2 str0" d="M2624.89 1607.52c45,-118.15 -14.28,-250.39 -132.43,-295.39 -118.15,-45 -250.4,14.28 -295.4,132.43 -44.99,118.15 14.29,250.42 132.44,295.42 118.15,45 250.39,-14.31 295.39,-132.46l0 0z"/>
  <path class="fil2 str0" d="M2626.83 1533.84l10.18 0.47c0.13,-3.04 0.16,-6.07 0.16,-9.07l-7.81 0.1 -2.47 -4.44 10.22 -0.13c-0.07,-3.03 -0.22,-6.06 -0.41,-9.09l-7.78 0.6 -2.72 -4.29 10.22 -0.75c-0.25,-3.03 -0.6,-6.03 -0.97,-9.03l-7.75 1.03 -2.97 -4.09 10.13 -1.37c-0.44,-2.97 -0.91,-5.97 -1.47,-8.94l-7.69 1.47 -3.19 -3.88 9.97 -1.97c-0.63,-2.96 -1.28,-5.93 -2,-8.87l-7.53 1.97 -3.44 -3.72 9.85 -2.56c-0.82,-2.91 -1.66,-5.81 -2.57,-8.72l-7.37 2.4 -3.63 -3.49 9.69 -3.16c-0.97,-2.88 -2.03,-5.72 -3.09,-8.53l-7.22 2.81 -3.88 -3.28 9.47 -3.69c-1.12,-2.81 -2.28,-5.62 -3.53,-8.37l-7.06 3.28 -4.06 -3.06 9.21 -4.25c-1.31,-2.72 -2.65,-5.44 -4.06,-8.13l-6.84 3.66 -4.22 -2.78 8.97 -4.82c-1.47,-2.65 -2.97,-5.28 -4.53,-7.87l-6.63 4.09 -4.37 -2.56 8.68 -5.34c-1.59,-2.57 -3.31,-5.06 -4.99,-7.57l-6.38 4.47 -4.53 -2.28 8.34 -5.84c-1.75,-2.47 -3.56,-4.91 -5.4,-7.31l-6.16 4.87 -4.62 -1.97 7.93 -6.37c-1.9,-2.34 -3.84,-4.66 -5.84,-6.94l-5.81 5.22 -4.75 -1.72 7.59 -6.81c-2.06,-2.22 -4.16,-4.41 -6.28,-6.56l-5.5 5.56 -4.84 -1.44 7.18 -7.28c-2.15,-2.12 -4.4,-4.15 -6.65,-6.19l-5.16 5.91 -4.94 -1.12 6.75 -7.72c-2.31,-1.97 -4.62,-3.94 -7,-5.81l-4.84 6.21 -4.97 -0.81 6.25 -8.09c-2.41,-1.82 -4.84,-3.63 -7.34,-5.35l-4.41 6.47 -5.03 -0.53 5.75 -8.44c-2.53,-1.65 -5.06,-3.31 -7.66,-4.9l-4.03 6.72 -5.03 -0.25 5.22 -8.75c-2.59,-1.53 -5.25,-2.97 -7.94,-4.41l-3.59 6.91 -5.06 0.06 4.72 -9.06c-2.69,-1.35 -5.44,-2.63 -8.19,-3.91l-3.19 7.13 -5.03 0.37 4.16 -9.34c-2.79,-1.19 -5.6,-2.34 -8.41,-3.44l-2.75 7.31 -5.03 0.69 3.59 -9.53c-2.87,-1.06 -5.72,-2.06 -8.59,-3l-2.31 7.47 -4.97 1 3 -9.72c-2.91,-0.87 -5.81,-1.72 -8.75,-2.47l-1.84 7.6 -4.91 1.28 2.41 -9.91c-2.94,-0.69 -5.91,-1.34 -8.88,-1.9l-1.41 7.68 -4.78 1.56 1.82 -10.06c-3,-0.53 -6,-0.97 -9,-1.37l-0.94 7.78 -4.69 1.84 1.22 -10.18c-3.03,-0.35 -6.03,-0.6 -9.06,-0.82l-0.47 7.85 -4.59 2.12 0.62 -10.22c-3.03,-0.15 -6.06,-0.28 -9.09,-0.28l0 7.84 -4.47 2.41 0 -10.22c-2.59,0.03 -5.19,0.06 -7.75,0.19l0.41 7.84 -4.32 2.63 -0.56 -10.19c-3,0.19 -6.03,0.44 -9.03,0.78l0.88 7.75 -4.16 2.88 -1.16 -10.16c-3,0.38 -6,0.85 -9,1.35l1.35 7.65 -3.97 3.16 -1.75 -10.1c-3,0.57 -5.97,1.19 -8.91,1.85l1.82 7.62 -3.78 3.35 -2.38 -9.88c-2.94,0.72 -5.87,1.5 -8.78,2.34l2.28 7.47 -3.59 3.57 -2.94 -9.69c-2.88,0.9 -5.75,1.84 -8.59,2.87l2.65 7.28 -3.34 3.78 -3.5 -9.53c-2.85,1.1 -5.66,2.22 -8.44,3.41l3.13 7.09 -3.13 4 -4.09 -9.34c-2.75,1.25 -5.5,2.56 -8.19,3.91l3.53 6.93 -2.87 4.16 -4.63 -9.03c-2.68,1.41 -5.34,2.84 -7.97,4.37l3.97 6.69 -2.62 4.34 -5.16 -8.74c-2.59,1.56 -5.16,3.18 -7.69,4.84l4.31 6.44 -2.34 4.46 -5.69 -8.43c-2.5,1.72 -4.93,3.5 -7.37,5.31l4.72 6.19 -2.1 4.59 -6.18 -8.12c-2.41,1.87 -4.72,3.81 -7.03,5.75l5.09 5.9 -1.81 4.72 -6.66 -7.69c-2.28,2 -4.53,4.03 -6.72,6.13l5.47 5.59 -1.53 4.84 -7.09 -7.31c-2.16,2.16 -4.29,4.31 -6.32,6.53l5.75 5.25 -1.22 4.91 -7.56 -6.88c-2,2.29 -3.97,4.6 -5.87,6.94l6.06 4.88 -0.94 4.97 -7.97 -6.41c-1.87,2.38 -3.68,4.81 -5.47,7.25l6.35 4.53 -0.63 5.03 -8.31 -5.94c-1.72,2.5 -3.44,5 -5.06,7.57l6.66 4.15 -0.35 5.03 -8.62 -5.37c-1.57,2.56 -3.1,5.19 -4.6,7.84l6.85 3.72 -0.03 5.06 -8.91 -4.84c-1.41,2.66 -2.78,5.34 -4.09,8.09l7 3.28 0.28 5.07 -9.19 -4.32c-1.25,2.75 -2.44,5.54 -3.59,8.35l7.18 2.87 0.6 5 -9.47 -3.75c-0.13,0.35 -0.28,0.69 -0.41,1.06 -0.97,2.5 -1.78,5 -2.65,7.5l7.34 2.41 0.87 5 -9.65 -3.19c-0.94,2.88 -1.78,5.78 -2.59,8.69l7.53 2 1.15 4.9 -9.81 -2.59c-0.75,2.94 -1.47,5.91 -2.13,8.84l7.69 1.53 1.47 4.85 -9.97 -2c-0.59,3 -1.12,5.97 -1.56,8.97l7.72 1.06 1.75 4.75 -10.09 -1.41c-0.38,3 -0.72,6.03 -1,9.03l7.78 0.63 2.03 4.62 -10.19 -0.81c-0.22,3.03 -0.34,6.06 -0.44,9.09l7.82 0.16 2.31 4.5 -10.25 -0.22c-0.03,3.03 0,6.06 0.13,9.09l7.81 -0.31 2.59 4.35 -10.22 0.4c0.16,3.03 0.35,6.06 0.63,9.09l7.81 -0.81 2.81 4.22 -10.12 1.03c0.31,3 0.72,6 1.18,9l7.69 -1.25 3.06 4 -10.06 1.63c0.53,3 1.1,5.97 1.75,8.93l7.6 -1.71 3.31 3.84 -10 2.22c0.72,2.97 1.5,5.9 2.28,8.81l7.5 -2.16 3.53 3.63 -9.78 2.81c0.87,2.91 1.78,5.78 2.78,8.66l7.34 -2.6 3.75 3.41 -9.59 3.37c1.06,2.85 2.13,5.69 3.28,8.47l7.16 -3.03 3.94 3.19 -9.35 3.94c1.19,2.78 2.47,5.53 3.78,8.28l6.97 -3.47 4.09 2.94 -9.12 4.53c1.34,2.71 2.81,5.37 4.28,7.99l6.78 -3.84 4.28 2.69 -8.84 5.03c1.53,2.63 3.09,5.22 4.75,7.78l6.53 -4.28 4.44 2.41 -8.5 5.56c1.65,2.53 3.4,5.03 5.18,7.47l6.25 -4.66 4.57 2.16 -8.19 6.09c1.84,2.41 3.75,4.75 5.66,7.09l5.97 -5 4.68 1.88 -7.84 6.59c2,2.28 4.03,4.53 6.09,6.75l5.69 -5.37 4.78 1.59 -7.41 7.03c2.1,2.16 4.22,4.31 6.44,6.41l5.38 -5.75 4.87 1.31 -6.97 7.44c2.25,2.06 4.5,4.06 6.81,6.03l5 -6.03 4.97 1 -6.53 7.87c2.34,1.91 4.75,3.75 7.19,5.57l4.59 -6.28 5.03 0.68 -6.06 8.28c2.47,1.75 5,3.44 7.53,5.1l4.22 -6.56 5.03 0.4 -5.53 8.6c2.56,1.62 5.16,3.15 7.78,4.68l3.84 -6.81 5.07 0.09 -5 8.85c2.65,1.47 5.31,2.9 8.06,4.25l3.4 -7.03 5.07 -0.19 -4.44 9.12c2.72,1.28 5.47,2.53 8.28,3.72l2.97 -7.15 5.03 -0.54 -3.88 9.38c1.29,0.53 2.54,1.09 3.85,1.59 1.53,0.6 3.09,1.1 4.65,1.63l2.5 -7.31 5 -0.82 -3.31 9.63c2.88,0.97 5.78,1.84 8.69,2.69l2.09 -7.47 4.94 -1.13 -2.75 9.88c2.94,0.78 5.87,1.46 8.81,2.12l1.66 -7.62 4.84 -1.38 -2.13 9.97c2.97,0.62 5.94,1.19 8.91,1.69l1.22 -7.78 4.75 -1.66 -1.56 10.06c3.03,0.44 6.03,0.85 9.03,1.16l0.72 -7.81 4.68 -1.97 -0.96 10.15c3.03,0.25 6.06,0.44 9.09,0.6l0.25 -7.85 4.53 -2.22 -0.34 10.22c3.03,0.07 6.06,0.07 9.09,0l-0.22 -7.81 4.41 -2.53 0.25 10.28c3.06,-0.12 6.06,-0.31 9.09,-0.53l-0.69 -7.84 4.22 -2.75 0.91 10.18c3.03,-0.31 6.03,-0.62 9.03,-1.06l-1.16 -7.75 4.06 -3.03 1.5 10.09c3,-0.47 5.97,-1 8.94,-1.59l-1.59 -7.66 3.87 -3.25 2.1 10c2.93,-0.65 5.9,-1.37 8.81,-2.15l-2.03 -7.5 3.65 -3.5 2.69 9.87c2.94,-0.84 5.81,-1.75 8.69,-2.68l-2.5 -7.41 3.47 -3.69 3.25 9.66c2.87,-1 5.71,-2.03 8.53,-3.16l-2.94 -7.25 3.22 -3.87 3.84 9.4c2.78,-1.18 5.56,-2.37 8.28,-3.65l-3.34 -7.03 3 -4.1 4.37 9.19c2.72,-1.31 5.41,-2.72 8.1,-4.16l-3.78 -6.81 2.71 -4.25 4.97 8.94c2.66,-1.5 5.22,-3.06 7.82,-4.66l-4.19 -6.59 2.47 -4.41 5.47 8.6c2.56,-1.63 5.06,-3.32 7.56,-5.07l-4.63 -6.34 2.22 -4.56 5.97 8.25c2.44,-1.78 4.84,-3.63 7.22,-5.53l-4.94 -6.03 1.94 -4.69 6.44 7.91c2.34,-1.94 4.62,-3.94 6.87,-5.97l-5.31 -5.75 1.65 -4.78 6.97 7.56c2.19,-2.1 4.35,-4.22 6.47,-6.38l-5.65 -5.43 1.34 -4.88 7.41 7.09c2.06,-2.22 4.12,-4.43 6.12,-6.71l-6 -5.13 1.06 -4.94 7.78 6.63c1.94,-2.31 3.85,-4.69 5.69,-7.1l-6.25 -4.71 0.75 -5 8.16 6.15c1.81,-2.43 3.56,-4.9 5.25,-7.43l-6.5 -4.32 0.47 -5.03 8.53 5.66c1.62,-2.53 3.19,-5.13 4.75,-7.75l-6.75 -3.91 0.15 -5.06 8.88 5.13c1.47,-2.63 2.9,-5.32 4.28,-8l-6.97 -3.5 -0.15 -5.07 9.12 4.6c1.31,-2.72 2.63,-5.47 3.88,-8.25l-7.22 -3.09 -0.44 -5.04 9.34 4c0.91,-2.22 1.88,-4.4 2.72,-6.65 0.22,-0.6 0.41,-1.19 0.63,-1.78l-7.32 -2.63 -0.75 -5.03 9.57 3.47c1,-2.88 1.93,-5.75 2.81,-8.66l-7.44 -2.18 -1.03 -4.94 9.75 2.87c0.81,-2.93 1.59,-5.87 2.28,-8.81l-7.56 -1.75 -1.35 -4.87 9.97 2.31c0.66,-2.97 1.22,-5.97 1.75,-8.94l-7.68 -1.28 -1.66 -4.78 10.12 1.69c0.47,-3 0.88,-6 1.22,-9l-7.78 -0.85 -1.9 -4.68 10.12 1.09c0.31,-3.03 0.56,-6.06 0.75,-9.06l-7.84 -0.38 -2.19 -4.56 0.01 0z"/>
  <path class="fil2 str0" d="M2270 1525.96c0,76.9 62.34,139.25 139.09,139.25 76.9,0 139.24,-62.35 139.24,-139.25 0,-76.74 -62.34,-139.08 -139.24,-139.08 -76.75,0 -139.09,62.34 -139.09,139.08z"/>
  <path class="fil2 str0" d="M2409.18 1647.02c66.84,0 121.03,-54.19 121.03,-121.06 0,-66.84 -54.19,-121.06 -121.03,-121.06 -66.87,0 -121.06,54.22 -121.06,121.06 0,66.87 54.19,121.06 121.06,121.06z"/>
  <path class="fil2 str0" d="M2526.86 1554.18c15.6,-65 -24.47,-130.31 -89.49,-145.9 -64.97,-15.56 -130.31,24.5 -145.87,89.5 -15.6,64.99 24.46,130.3 89.46,145.89 65,15.57 130.34,-24.49 145.9,-89.49l0 0z"/>
  <path class="fil2 str0" d="M2388.71 1645.24c6.63,1.15 13.44,1.81 20.41,1.81 6.93,0 13.75,-0.66 20.37,-1.81 -1.81,-7.97 -10.28,-14.25 -20.37,-14.25 -9.97,0 -18.6,6.28 -20.41,14.25z"/>
  <path class="fil2 str0" d="M2388.71 1406.75c6.63,-1.16 13.44,-1.85 20.41,-1.85 6.93,0 13.75,0.69 20.37,1.85 -1.81,7.94 -10.28,14.25 -20.37,14.25 -9.97,0 -18.6,-6.31 -20.41,-14.25z"/>
  <path class="fil2 str0" d="M2310.37 1595.9c3.88,5.5 8.19,10.78 13.13,15.68 4.93,4.94 10.18,9.28 15.71,13.16 4.35,-6.94 2.82,-17.34 -4.34,-24.5 -7.03,-7.06 -17.59,-8.69 -24.5,-4.34l0 0z"/>
  <path class="fil2 str0" d="M2479.02 1427.25c5.5,3.87 10.78,8.22 15.69,13.12 4.93,4.94 9.28,10.22 13.12,15.72 -6.9,4.35 -17.34,2.81 -24.47,-4.34 -7.06,-7.03 -8.68,-17.56 -4.34,-24.5l0 0z"/>
  <path class="fil2 str0" d="M2289.84 1505.59c-1.16,6.65 -1.81,13.43 -1.81,20.4 0,6.97 0.65,13.75 1.81,20.41 7.97,-1.85 14.28,-10.28 14.28,-20.41 0,-9.93 -6.31,-18.56 -14.28,-20.4z"/>
  <path class="fil2 str0" d="M2528.36 1505.59c1.16,6.65 1.81,13.43 1.81,20.4 0,6.97 -0.65,13.75 -1.81,20.41 -7.97,-1.85 -14.25,-10.28 -14.25,-20.41 0,-9.93 6.28,-18.56 14.25,-20.4z"/>
  <path class="fil2 str0" d="M2479.27 1624.52c5.5,-3.88 10.78,-8.22 15.69,-13.16 4.9,-4.93 9.21,-10.21 13.09,-15.75 -6.94,-4.31 -17.37,-2.74 -24.5,4.41 -7.03,7.06 -8.62,17.63 -4.28,24.5z"/>
  <path class="fil2 str0" d="M2310.18 1456.34c3.85,-5.5 8.16,-10.78 13.1,-15.72 4.9,-4.97 10.15,-9.31 15.65,-13.19 4.35,6.91 2.88,17.35 -4.25,24.5 -7.03,7.07 -17.59,8.75 -24.49,4.41l-0.01 0z"/>
  <path class="fil2 str0" d="M2409.18 1577.52c28.47,0 51.56,-23.09 51.56,-51.56 0,-28.47 -23.09,-51.56 -51.56,-51.56 -28.5,0 -51.59,23.1 -51.59,51.56 0,28.47 23.09,51.56 51.59,51.56z"/>
  <polygon class="fil2 str0" points="2431.43,1556.62 2433.55,1560.34 2431.43,1564.05 2427.12,1564.05 2424.99,1560.34 2427.12,1556.62 "/>
  <polygon class="fil2 str0" points="2411.3,1562.05 2413.46,1565.77 2411.3,1569.46 2407.02,1569.46 2404.87,1565.77 2407.02,1562.05 "/>
  <polygon class="fil2 str0" points="2391.21,1556.62 2393.34,1560.34 2391.21,1564.05 2386.93,1564.05 2384.77,1560.34 2386.93,1556.62 "/>
  <polygon class="fil2 str0" points="2376.93,1542.34 2379.06,1546.02 2376.93,1549.74 2372.62,1549.74 2370.49,1546.02 2372.62,1542.34 "/>
  <polygon class="fil2 str0" points="2371.46,1522.34 2373.62,1526.02 2371.46,1529.74 2367.18,1529.74 2365.06,1526.02 2367.18,1522.34 "/>
  <polygon class="fil2 str0" points="2376.93,1502.12 2379.06,1505.84 2376.93,1509.56 2372.62,1509.56 2370.49,1505.84 2372.62,1502.12 "/>
  <polygon class="fil2 str0" points="2391.21,1487.84 2393.34,1491.56 2391.21,1495.28 2386.93,1495.28 2384.77,1491.56 2386.93,1487.84 "/>
  <polygon class="fil2 str0" points="2411.3,1482.4 2413.46,1486.12 2411.3,1489.84 2407.02,1489.84 2404.87,1486.12 2407.02,1482.4 "/>
  <polygon class="fil2 str0" points="2431.43,1487.84 2433.55,1491.56 2431.43,1495.28 2427.12,1495.28 2424.99,1491.56 2427.12,1487.84 "/>
  <polygon class="fil2 str0" points="2445.71,1502.12 2447.87,1505.84 2445.71,1509.56 2441.43,1509.56 2439.27,1505.84 2441.43,1502.12 "/>
  <polygon class="fil2 str0" points="2451.15,1522.24 2453.3,1525.96 2451.15,1529.65 2446.87,1529.65 2444.71,1525.96 2446.87,1522.24 "/>
  <polygon class="fil2 str0" points="2445.71,1542.34 2447.87,1546.02 2445.71,1549.74 2441.43,1549.74 2439.27,1546.02 2441.43,1542.34 "/>
  <path class="fil2 str0" d="M2409.18 1479.96c25.34,0 45.97,20.66 45.97,46 0,25.38 -20.63,46 -45.97,46 -25.37,0 -46,-20.62 -46,-46 0,-25.34 20.63,-46 46,-46zm0 -5.56c-28.5,0 -51.59,23.09 -51.59,51.56 0,28.47 23.09,51.56 51.59,51.56 28.47,0 51.53,-23.09 51.53,-51.56 0,-28.47 -23.06,-51.56 -51.53,-51.56z"/>
  <polygon class="fil2 str0" points="1195.08,1416.81 999.71,1416.81 999.71,1535.31 1195.08,1535.31 "/>
  <polygon class="fil2 str0" points="999.71,1416.81 999.71,1535.31 1048.18,1535.31 1048.18,1416.81 "/>
  <polygon class="fil2 str0" points="1195.08,1535.31 1195.08,1416.81 1146.61,1416.81 1146.61,1535.31 "/>
  <polygon class="fil2 str0" points="1195.08,1282.88 999.71,1282.88 999.71,1400.9 1195.08,1400.9 "/>
  <polygon class="fil2 str0" points="999.71,1282.88 999.71,1400.9 1048.18,1400.9 1048.18,1282.88 "/>
  <polygon class="fil2 str0" points="1195.08,1400.9 1195.08,1282.88 1146.61,1282.88 1146.61,1400.9 "/>
  <polygon class="fil2 str0" points="1195.08,1550.84 999.71,1550.84 999.71,1596.21 1195.08,1596.21 "/>
  <polygon class="fil2 str0" points="999.71,1550.84 999.71,1596.21 1048.18,1596.21 1048.18,1550.84 "/>
  <polygon class="fil2 str0" points="1195.08,1596.21 1195.08,1550.84 1146.61,1550.84 1146.61,1596.21 "/>
  <polygon class="fil2 str0" points="1195.08,1401.28 999.71,1401.28 999.71,1416.81 1195.08,1416.81 "/>
  <polygon class="fil2 str0" points="1195.08,1267.22 999.71,1267.22 999.71,1282.75 1195.08,1282.75 "/>
  <polygon class="fil2 str0" points="1195.08,1535.31 999.71,1535.31 999.71,1550.87 1195.08,1550.87 "/>
  <polygon class="fil2 str0" points="313.18,1435.56 210.28,1435.56 210.28,1534.46 313.18,1534.46 "/>
  <polygon class="fil2 str0" points="210.28,1435.56 210.28,1534.46 235.81,1534.46 235.81,1435.56 "/>
  <polygon class="fil2 str0" points="313.18,1534.46 313.18,1435.56 287.65,1435.56 287.65,1534.46 "/>
  <polygon class="fil2 str0" points="313.18,1323.82 210.28,1323.82 210.28,1422.31 313.18,1422.31 "/>
  <polygon class="fil2 str0" points="210.28,1323.82 210.28,1422.31 235.81,1422.31 235.81,1323.82 "/>
  <polygon class="fil2 str0" points="313.18,1422.31 313.18,1323.82 287.65,1323.82 287.65,1422.31 "/>
  <polygon class="fil2 str0" points="313.18,1422.62 210.28,1422.62 210.28,1435.59 313.18,1435.59 "/>
  <polygon class="fil2 str0" points="313.18,1310.75 210.28,1310.75 210.28,1323.72 313.18,1323.72 "/>
  <polygon class="fil2 str0" points="313.18,1534.46 210.28,1534.46 210.28,1547.43 313.18,1547.43 "/>
  <polygon class="fil2 str0" points="6389.62,449.26 6469.39,449.26 6469.39,428.64 6387.52,428.64 "/>
  <polygon class="fil2 str0" points="6391.15,841.28 6469.39,841.28 6469.39,861.9 6389.31,861.9 "/>
  <path class="fil2 str0" d="M94.48 1452.47l-15.38 43.4c-3.19,8.97 -11.62,14.94 -21.12,14.94l-41.75 0 0 -38.91 78.25 -19.43z"/>
  <path class="fil2 str0" d="M79.1 1495.87l15.38 -43.41 -48.41 12.03c-0.68,5.16 -1.15,10.91 -1.15,17.13 0,11.69 1.62,21.59 3.47,29.18l9.59 0c9.5,0 17.94,-5.96 21.12,-14.93l0 0z"/>
  <path class="fil2 str0" d="M16.23 1483.43l60.75 -15.06 -8.41 23.72c-1.62,4.5 -5.87,7.5 -10.59,7.5l-41.75 0 0 11.22 41.75 0c9.5,0 17.94,-5.97 21.12,-14.94l15.38 -43.4 -78.25 19.43 0 11.53 0 0z"/>
  <path class="fil2 str0" d="M127.51 1359.81l-24.57 68.53 -86.71 21.16 0 -104.69 100.65 0c7.78,0 13.16,7.69 10.63,15z"/>
  <path class="fil2 str0" d="M127.51 1359.81c2,-5.9 -1.07,-12.03 -6.35,-14.18l-84.46 0c-2.91,13.31 -5.38,30.25 -5.31,49.96 0.09,19.03 2.46,35.38 5.31,48.38l2.25 0 63.99 -15.6 2.38 -6.56 19.34 -54 2.85 -8 0 0z"/>
  <path class="fil2 str0" d="M124.66 1367.81l-19.34 54 -27.25 0c-1.41,-7.25 -2.63,-16.37 -2.69,-26.81 0,-7.41 0.6,-14.03 1.5,-19.94 0.38,-2.53 0.75,-5 1.19,-7.25l46.59 0 0 0z"/>
  <path class="fil2 str0" d="M124.66 1367.81l-19.34 54 -27.25 0c-1.41,-7.25 -2.63,-16.37 -2.69,-26.81 0,-7.41 0.6,-14.03 1.5,-19.94 0.38,-2.53 0.75,-5 1.19,-7.25l46.59 0 0 0z"/>
  <path class="fil2 str0" d="M116.88 1344.81l-100.65 0 0 11.19 91.21 0.03c4.63,0 7.88,4.6 6.32,8.94l-19.35 53.93 -78.18 19.07 0 11.53 86.71 -21.16 24.57 -68.53c2.53,-7.31 -2.85,-15 -10.63,-15z"/>
  <path class="fil2 str0" d="M127.51 1359.81l-24.57 68.53 -86.71 21.16 0 -104.69 100.65 0c7.78,0 13.16,7.69 10.63,15z"/>
  <path class="fil2 str0" d="M518.77 1059.67l82.09 0 0 -82.09 -82.09 0c-5.35,0 -9.69,4.31 -9.69,9.66l0 62.74c0,5.35 4.34,9.69 9.69,9.69z"/>
  <path class="fil2 str0" d="M530.71 1053.11l64.56 0 0 -66.4 -64.56 0c-5.35,0 -9.69,4.31 -9.69,9.65l0 47.09c0,5.35 4.34,9.66 9.69,9.66l0 0z"/>
  <path class="fil2 str0" d="M552.33 1058.36l5.31 0c2.56,0 4.69,-2.1 4.69,-4.69l0 -70.12c0,-2.56 -2.13,-4.66 -4.69,-4.66l-5.31 0c-2.59,0 -4.69,2.1 -4.69,4.66l0 70.12c0,2.59 2.1,4.69 4.69,4.69z"/>
  <path class="fil2 str0" d="M3374.29 1510.65l-46.09 0c-3.38,0 -6.13,-3.72 -6.13,-8.31 0,-4.6 2.75,-8.35 6.13,-8.35l46.09 0c3.41,0 6.12,3.75 6.12,8.35 0,4.59 -2.71,8.31 -6.12,8.31z"/>
  <path class="fil2 str0" d="M3859.86 1510.65l-46.12 0c-3.38,0 -6.13,-3.72 -6.13,-8.31 0,-4.6 2.75,-8.35 6.13,-8.35l46.12 0c3.38,0 6.13,3.75 6.13,8.35 0,4.59 -2.75,8.31 -6.13,8.31z"/>
  <path class="fil2 str0" d="M201.19 551.63l-154.4 0c-13.91,0 -25.19,-11.25 -25.19,-25.15l0 -3.44 152.87 0c15.5,0 27.78,13.13 26.72,28.59z"/>
  <path class="fil2 str0" d="M179.91 861.21c0,24.66 -17.72,45.75 -42,50.03l-119.43 21.03 0 -14c0,-13.53 8.34,-25.65 21,-30.5l10.15 -3.87 130.28 -22.69z"/>
  <path class="fil2 str0" d="M835.47 568.51c-0.15,-4.69 -2.25,-8.88 -5.37,-11.94 -3.13,-3.06 -7.41,-4.94 -12.1,-4.94l-616.81 0 -0.75 11.22c-0.66,9.84 -1.94,27.75 -3.5,50.09 3.34,-15.53 11.88,-24.56 20.84,-30.31l0.82 -12.34 378.54 0 0 199.68 -347.48 60.62 -0.1 0c-2.81,6.4 -10.81,7.09 -19.68,3.44l-29.81 5.21 2.15 -31.59c-4.22,-8.12 -6.72,-16.78 -6.72,-26.71l0 -147.47c-5.97,87.44 -14.84,216.24 -14.84,216.24l-0.75 11.25 0 0.25 487.57 -84.99c100.12,-17.38 171.87,-106.15 167.99,-207.71l0 0z"/>
  <path class="fil4 str1" d="M201.19 551.63c-2.1,31.56 -19.41,280.93 -21.28,309.33l0 0.25 -130.28 22.69c4.72,-29.59 47.28,-301.27 52.25,-332.27l99.31 0 0 0 0 0z"/>
  <path class="fil4 str1" d="M229.94 834.03l-29.88 5.21 2.16 -31.65c5.03,9.5 12.25,17.09 19.56,22.03 2.78,1.88 5.53,3.38 8.16,4.41l0 0zm-11.34 -263.71l-0.82 12.22c1.31,-0.82 2.66,-1.57 4,-2.32 5.91,-3.28 11.75,-5.37 16,-7.31 0.22,-0.06 0.38,-0.15 0.53,-0.22 6.19,-2.75 12.6,3.22 12.6,11.82l0 239.58c0,2.62 -0.44,4.78 -1.35,6.5l347.58 -60.62 0 -199.65 -378.54 0 0 0 0 0z"/>
  <path class="fil5 str2" d="M218.6 570.32l-0.85 12.22c1.35,-0.82 2.69,-1.57 4.03,-2.32 5.91,-3.28 11.75,-5.37 16,-7.31 0.22,-0.06 0.38,-0.15 0.53,-0.22 6.19,-2.78 12.6,3.22 12.6,11.79l0 239.61c0,2.63 -0.44,4.78 -1.35,6.5l347.58 -60.62 0 -199.65 -378.54 0 0 0 0 0zm3.18 259.3c-7.31,-4.94 -14.56,-12.56 -19.56,-22.03l-2.16 31.65 29.88 -5.22c-2.63,-1.06 -5.38,-2.53 -8.16,-4.4l0 0zm-119.9 -277.99c-4.93,31 -47.56,302.71 -52.25,332.27l130.28 -22.69 0 -0.25c1.28,-19.31 9.72,-141.18 15.59,-226.89 0.53,-7.32 1.07,-14.35 1.5,-21.07l0 -0.21c2.1,-30 3.66,-52.94 4.19,-61.16l-99.31 0 0 0 0 0z"/>
  <polygon class="fil2 str0" points="47.38,879.59 33.76,879.59 39.42,854.52 50.85,841.74 66.88,843.37 66.88,848.74 49.76,850.09 47.38,854.87 "/>
  <path class="fil2 str0" d="M48.6 881.46l0 2.94 -9.15 3.5c-2.66,1 -5.13,2.37 -7.35,4.12l0 -10.62c0,-2.22 1.85,-4.13 4.13,-4.13l8.15 0c2.38,0 4.22,1.91 4.22,4.19l0 0z"/>
  <polygon class="fil2 str0" points="1092.74,1180.29 952.19,1158.01 952.94,1157.17 952.87,1155.82 1092.77,1178.04 "/>
  <polygon class="fil2 str0" points="181.07,1264.1 178.82,1264.1 178.82,860.99 206.31,460.7 208.56,460.7 181.07,861.06 "/>
  <polygon class="fil2 str0" points="616.92,460.67 614.67,460.67 614.67,1156.89 616.92,1156.89 "/>
  <path class="fil2 str0" d="M16.35 1471.46c0,0.6 -0.12,1.07 -0.12,1.6l76.53 -19 -14.69 41.43c-3.06,8.47 -11.12,14.19 -20.09,14.19l-41.75 0 0 1.5c16.19,0 25.72,0 41.75,0 9.59,0 18.21,-6.12 21.5,-15.19 1.68,-4.84 14.03,-39.62 15.59,-44.03 -2.91,0.72 -75.87,18.82 -78.72,19.5l0 0z"/>
  <path class="fil2 str0" d="M116.88 1344.44c-45.78,0 -27.34,0 -100.65,0l0 1.5 100.65 0c7,0 11.84,6.9 9.56,13.5l-24.37 67.99 -85.84 20.72 0 1.72c0.41,-0.09 86.18,-21 86.99,-21.19 0.54,-1.47 24.41,-68.12 24.63,-68.74 2.62,-7.63 -2.97,-15.5 -10.97,-15.5l0 0z"/>
  <path class="fil2 str0" d="M911.03 1204.13l-1.65 -1.47 41.27 -46.31 -39.77 -696.71c-15,-83.28 -38.82,-139.4 -121.5,-196.99l-0.31 -0.25 -0.13 -0.38 -50.09 -178.27 2.16 -0.6 50 177.87c83.02,57.97 106.96,114.46 122.05,198.37l39.87 697.78 -0.28 0.34 -41.62 46.62 0 0z"/>
  <polygon class="fil2 str0" points="55.82,460.7 55.82,458.45 912.19,458.45 1090.68,422.45 1090.8,424.7 912.41,460.67 "/>
  <path class="fil2 str0" d="M6036.98 1233.57l-1.69 0 -205.27 0 0 210.71 205.27 0 1.69 0 205.3 0 0 -210.71 -205.3 0zm-1.69 209.18l-203.62 0 0 -207.65 203.62 0 0 207.65zm205.3 0l-203.61 0 0 -207.65 203.61 0 0 207.65z"/>
  <path class="fil2 str0" d="M405.4 1310.75l-39.72 0c-22.53,29.28 -39.9,61.37 -52.5,96.66 0,52.4 0,3.59 0,140.05l-19.99 0c0.03,0.25 0.03,0.47 0.06,0.72 0.56,10.13 1.87,22.44 4.03,35.4l24.94 2.54c0,-71.38 -1.75,-91.78 10.24,-139.78 13.57,-52.78 41.06,-100.87 72.94,-135.59z"/>
  <path class="fil2 str0" d="M2089.32 1596.21l14.34 0 0 -71.37c0,-109.62 59.19,-205.56 146.43,-257.62l-42.62 0c-96.93,76.06 -145.71,203.18 -118.15,328.99l0 0z"/>
  <path class="fil2 str0" d="M238.28 572.66l0 263.49c7.28,0.56 12.59,-3.09 12.59,-12.06l0 -239.62c0,-8.56 -6.43,-14.56 -12.59,-11.81z"/>
  <path class="fil2 str0" d="M951.81 1156.73l-0.16 0.16 -192.64 0 0 -893.15 33.84 0c76.37,54.06 103.24,107.59 119.15,195.83l39.81 697.16 0 0z"/>
  <path class="fil2 str0" d="M788.38 259.86c-313.86,0.63 -552.44,16.29 -691.28,43.44l-0.41 1.19c138.59,-27.1 380.55,-40.25 694.16,-40.84l-1.78 -1.22 -0.69 -2.57 0 0z"/>
  <polygon class="fil2 str0" points="966.9,1159.2 967.03,1162.1 962.93,1166.73 921.34,1213.32 920.37,1214.38 969.93,1268.04 969.93,1267.22 1092.77,1267.22 1092.77,1179.2 "/>
  <path class="fil2 str0" d="M1092.93 459.57l-2.19 -35.99 -75.81 15.28 -88.27 17.81c0.03,0.09 0.03,0.18 0.06,0.28l0.15 0.9 0 0.91 39.88 697.15 0.15 3.29 125.87 19.99 0.16 -719.62 0 0z"/>
  <path class="fil3" d="M151.04 1244.44l16.81 17.5c-10.78,0 -41.81,-0.06 -140.4,-0.06 -10.41,0 -19.31,-7.41 -21.28,-17.44l144.87 0 0 0 0 0zm0.99 -2.31l-148.49 0 0.03 0.31c1,12.5 11.81,21.72 23.88,21.72 126.65,0 141.77,0.1 145.77,0.1l-21.19 -22.13 0 0z"/>
  <polygon class="fil2 str0" points="180.07,1310.69 179.91,1571.55 202.85,1573.96 202.85,1310.69 "/>
  <path class="fil2 str0" d="M951.81 1156.79l-39.81 -697.22c-16.13,-89.37 -43.44,-143.11 -121.99,-197.86 -284.93,0.53 -502.29,12.69 -641.76,33.59l9.41 11.22 19.41 0 -0.16 -0.16c141.74,-18.9 351.01,-29.12 608.38,-29.71 75.43,53.74 97.68,106.68 111.87,184.71l39.4 690.06 -4.78 5.37 20.03 0 0 0z"/>
  <polygon class="fil2 str0" points="2103.66,1567.24 1225.58,1567.24 1225.58,1596.21 2103.66,1596.21 "/>
  <polygon class="fil2 str0" points="128.01,1310.72 128.01,1566.15 179.91,1571.58 180.07,1310.75 "/>
  <path class="fil2 str0" d="M11.45 1516.71c0.34,2.22 0.65,3.69 1.59,6.85 5.44,18.59 21.66,32.71 41.81,34.93l125.06 13.09 0.03 -54.87 -168.49 0 0 0z"/>
  <rect class="fil6" x="2976.68" y="112.75" width="1708.61" height="1083.76"/>
  <polygon class="fil3" points="1304.7,1338.28 2039.51,1338.28 2054.45,1323.35 1289.76,1323.35 1289.76,1542.77 1304.7,1527.84 "/>
  <path class="fil2 str0" d="M4102.16 1596.4l14.34 0 0 -71.38c0,-109.62 59.19,-205.55 146.4,-257.61l-42.59 0c-96.93,76.09 -145.74,203.15 -118.15,328.99l0 0z"/>
  <polygon class="fil2 str0" points="4116.51,1567.43 3055.18,1567.43 3055.18,1596.4 4116.51,1596.4 "/>
  <path class="fil2 str0" d="M3055.18 1267.41l0 28.97 1167.35 0c12.6,-10.75 26.13,-20.44 40.38,-28.97l-1207.73 0z"/>
  <polygon class="fil3" points="3134.3,1338.47 3566.81,1338.47 3581.72,1323.53 3119.36,1323.53 3119.36,1542.96 3134.3,1528.06 "/>
  <polygon class="fil3" points="3619.84,1338.47 4052.35,1338.47 4067.29,1323.53 3604.9,1323.53 3604.9,1542.96 3619.84,1528.06 "/>
  <polygon class="fil2 str0" points="6272.53,1194.85 5786.83,1194.85 5786.83,1477.53 6272.53,1477.53 "/>
  <path class="fil2 str0" d="M1330.73 1131.7l-48.65 0 0 -168.49 1.47 0c11.28,68.37 27.02,127.09 47.18,168.49z"/>
  <polygon class="fil2 str0" points="6245.06,1130.7 5814.33,1130.7 5786.86,1194.82 6272.53,1194.82 "/>
  <polygon class="fil3" points="5809.99,1215.26 6249.37,1215.26 6257.94,1206.73 5801.46,1206.73 5801.46,1465.65 5809.99,1457.12 "/>
  <path class="fil2 str0" d="M846.66 568.07c-0.22,-7.25 -3.34,-14.28 -8.72,-19.5 -5.37,-5.22 -12.47,-8.12 -19.94,-8.12l-616.06 0 -0.75 11.18 616.81 0c4.69,0 8.97,1.88 12.1,4.94 3.12,3.06 5.22,7.25 5.37,11.94 3.88,101.55 -67.87,190.33 -167.99,207.74l-487.57 84.96 0 11.34 1.94 -0.31 487.57 -84.96c105.12,-18.28 181.36,-112.53 177.24,-219.21l0 0z"/>
  <path class="fil2 str0" d="M103.82 1444.03l-3.72 10.47 -15.38 43.37c-4.06,11.28 -14.81,18.9 -26.74,18.9l-46.53 0c-0.13,-0.68 -0.22,-1.34 -0.35,-2.25l5.13 -3.74 41.75 0c9.46,0 17.93,-5.94 21.12,-14.91l15.38 -43.41 -78.25 19.44 -5.22 -3.75 0 -1.12 3.81 -0.97 78.25 -19.41 10.75 -2.62 0 0z"/>
  <path class="fil2 str0" d="M133.1 1361.84l-24.56 68.53 -1.06 3.06 -3.13 0.75 -86.68 21.13 -6.66 1.65 0 -3.75 5.22 -3.71 86.71 -21.13 24.57 -68.56c2.53,-7.31 -2.85,-15 -10.63,-15l-100.65 0 -5.22 -3.75 0 -2.22 105.87 0c5.63,0 10.75,2.6 13.97,7.22 3.28,4.56 4.12,10.41 2.25,15.78l0 0z"/>
  <path class="fil2 str0" d="M934.31 1110.58l-634.88 0c-12.21,0 -22.15,-9.6 -22.62,-21.78 -3.5,-91.31 61.75,-172.03 151.77,-187.71l488.83 -85.19 0.87 15.47 -487.13 84.43c-82.72,14.41 -142.65,88.53 -139.4,172.4 0.15,4.19 3.53,7.44 7.68,7.44l633.23 0 1.65 14.94 0 0z"/>
  <polygon class="fil2 str0" points="6255.44,52.12 1390.98,52.12 1390.98,169.03 6255.44,169.03 "/>
  <path class="fil2 str0" d="M5814.33 1130.7l347.02 0 0 -43.56 0 -120.78c0,-17.18 -13.94,-31.09 -31.13,-31.09l-27.5 0c-17.18,0 -31.12,13.91 -31.12,31.09l0 120.78 -712.03 0 0 -120.78c0,-17.18 -13.94,-31.09 -31.12,-31.09l-27.5 0c-17.19,0 -31.13,13.91 -31.13,31.09l0 120.78 -712.03 0 0 -120.78c0,-17.18 -13.93,-31.09 -31.12,-31.09l-27.5 0c-17.18,0 -31.12,13.91 -31.12,31.09l0 120.78 -712.03 0 0 -120.78c0,-17.18 -13.94,-31.09 -31.13,-31.09l-27.49 0c-17.19,0 -31.13,13.91 -31.13,31.09l0 120.78 -712.03 0 0 -120.78c0,-17.18 -13.93,-31.09 -31.12,-31.09l-27.5 0c-17.19,0 -31.12,13.91 -31.12,31.09l0 120.78 0 63.59 0 73.59 2922.36 0 0 -29.5 27.47 -64.12 0 0z"/>
  <path class="fil2 str0" d="M790.01 261.71c-322.8,0.59 -558.82,16.12 -693.19,42.4 61.28,-173.15 174.24,-215.46 643.1,-220.71l50.09 178.31 0 0z"/>
  <path class="fil2 str0" d="M912 459.57l-856.18 0c13.59,-60.93 25.69,-112.21 41,-155.46 134.4,-26.28 370.42,-41.81 693.18,-42.4 78.56,54.75 105.87,108.49 122,197.86l0 0z"/>
  <path class="fil2 str0" d="M207.53 459.57l-4.4 63.47 -181.53 0 0 -39.12c0,-13.44 10.91,-24.35 24.35,-24.35l161.58 0z"/>
  <path class="fil2 str0" d="M1090.74 423.58l-21.34 -351.36 -40.09 -67.22 -289.4 78.4 45.91 163.37 8.87 0 3.91 2.69c86.65,60.4 112.59,121.71 128.05,207.18l88.28 -17.79 75.81 -15.28 0 0.01z"/>
  <path class="fil2 str0" d="M180.07 1088.86l-22.03 22.03 -154.28 0c0.69,-9.28 6.28,-17.57 14.72,-21.81l0 -0.22 161.59 0 0 0z"/>
  <path class="fil2 str0" d="M11.01 1334.06l0 1.79c0.19,0 0.34,0.03 0.5,0.03 22.66,1.59 49.4,2.65 78.34,2.87 0.69,0.03 1.41,0.03 2.09,0.03 3.85,0.03 7.72,0.06 11.66,0.06 0,0 0,0 0.03,0 6.81,0 13.56,-0.06 20.19,-0.15 0.12,0 0.25,0 0.37,0 13.13,-0.16 25.78,-0.5 37.75,-0.97 0.38,-0.03 0.75,-0.03 1.16,-0.06 4.28,-0.16 8.37,-0.35 12.47,-0.56 1.5,-0.07 3,-0.16 4.5,-0.22l0 -26.13 -145.75 -0.06c-12.84,0.06 -23.31,10.53 -23.31,23.37z"/>
  <path class="fil2 str0" d="M967.03 1162.1l-4.1 4.63 -41.59 46.59 -0.97 1.06 -10.15 -11 41.59 -46.59 -39.81 -697.21c-16.13,-89.37 -43.47,-143.12 -121.99,-197.87 -284.93,0.53 -502.29,12.69 -641.76,33.62l0.54 0.66 -19.5 0 -9.63 -11.5 26.34 -3.97c143,-21.5 364.14,-33.06 639.82,-33.75l8.87 0 3.91 2.69c86.74,60.5 112.65,121.87 128.12,207.52l0.15 0.88 0 0.9 39.88 697.16 0.28 6.19 0 -0.01z"/>
  <polygon class="fil2 str0" points="1254.55,1267.22 1225.58,1267.22 1225.58,1596.21 1254.55,1596.21 "/>
  <path class="fil2 str0" d="M1225.58 1267.22l0 28.97 984.11 0c12.62,-10.75 26.12,-20.43 40.4,-28.97l-1024.51 0z"/>
  <polygon class="fil3" points="2039.51,1338.28 2039.51,1527.84 1304.7,1527.84 1289.76,1542.77 2054.45,1542.77 2054.45,1323.35 "/>
  <polygon class="fil2 str0" points="3084.15,1267.44 3055.18,1267.44 3055.18,1596.4 3084.15,1596.4 "/>
  <polygon class="fil3" points="3566.81,1338.47 3566.81,1528.06 3134.3,1528.06 3119.36,1542.96 3581.72,1542.96 3581.72,1323.53 "/>
  <polygon class="fil3" points="4052.35,1338.47 4052.35,1528.06 3619.84,1528.06 3604.9,1542.96 4067.29,1542.96 4067.29,1323.53 "/>
  <polygon class="fil3" points="6249.37,1215.26 6249.37,1457.12 5809.99,1457.12 5801.46,1465.65 6257.94,1465.65 6257.94,1206.73 "/>
  <path class="fil2 str0" d="M243.81 892.27l-28 0c-5.65,0 -10.18,-4.56 -10.18,-10.18l0 -2.04c0,-5.62 4.53,-10.18 10.18,-10.18l28 0c5.63,0 10.19,4.56 10.19,10.18l0 2.04c0,5.62 -4.56,10.18 -10.19,10.18z"/>
  <path class="fil2 str0" d="M215.81 508.85l28 0c5.63,0 10.19,4.57 10.19,10.19l0 2.03c0,5.63 -4.56,10.19 -10.19,10.19l-28 0c-5.65,0 -10.18,-4.57 -10.18,-10.19l0 -2.03c0,-5.63 4.53,-10.19 10.18,-10.19z"/>
  <path class="fil2 str0" d="M237.78 523.48l0 49.43c-4.25,1.94 -10.09,4.03 -15.97,7.31l0 -56.74c0,-4.41 3.57,-7.97 7.97,-7.97 4.41,0 8,3.56 8,7.97z"/>
  <path class="fil2 str0" d="M221.81 829.62c5.6,3.81 11.19,6.03 15.97,6.5l0 41.5c0,4.4 -3.59,8 -8,8 -4.4,0 -7.97,-3.6 -7.97,-8l0 -48z"/>
  <path class="fil2 str0" d="M237.78 561.32l0 -37.78c0,-4.44 -3.56,-8 -7.97,-8 -4.43,0 -8,3.56 -8,8l0 37.78 15.97 0z"/>
  <path class="fil2 str0" d="M221.81 837.15l0 40.47c0,4.4 3.57,7.97 8,7.97 4.41,0 7.97,-3.57 7.97,-7.97l0 -40.47 -15.97 0z"/>
  <polygon class="fil2 str0" points="3372.26,1227.91 3410.82,1227.91 3410.82,1120.86 3372.26,1120.86 "/>
  <polygon class="fil2 str0" points="4050.41,1227.91 4088.98,1227.91 4088.98,1120.86 4050.41,1120.86 "/>
  <polygon class="fil2 str0" points="4728.57,1227.91 4767.1,1227.91 4767.1,1120.86 4728.57,1120.86 "/>
  <polygon class="fil2 str0" points="5406.73,1227.91 5445.26,1227.91 5445.26,1120.86 5406.73,1120.86 "/>
  <path class="fil3" d="M4842.28 1323.38l-313.04 0c5.12,2.65 10.15,5.47 15.03,8.47l283.01 0c4.88,-3 9.88,-5.82 15,-8.47l0 0z"/>
  <path class="fil3" d="M4799.1 1352.41l-226.65 0c3.19,2.72 6.32,5.56 9.38,8.47l207.9 0c3.03,-2.91 6.15,-5.75 9.37,-8.47l0 0z"/>
  <path class="fil3" d="M4877.13 1308.88l-382.7 0c7.59,2.44 14.99,5.28 22.21,8.47l338.27 0c7.22,-3.19 14.62,-6.03 22.22,-8.47z"/>
  <path class="fil3" d="M4818 1337.91l-264.45 0c3.9,2.68 7.75,5.53 11.47,8.44l241.48 0c3.75,-2.91 7.57,-5.75 11.5,-8.44z"/>
  <path class="fil3" d="M4759.63 1395.94l-147.71 0c1.91,2.78 3.78,5.59 5.59,8.46l136.5 0c1.81,-2.87 3.68,-5.68 5.62,-8.46z"/>
  <path class="fil3" d="M4770.54 1381.44l-169.56 0c2.28,2.75 4.5,5.56 6.63,8.43l156.3 0c2.16,-2.87 4.38,-5.68 6.63,-8.43z"/>
  <path class="fil3" d="M4783.6 1366.91l-195.65 0c2.69,2.75 5.28,5.59 7.84,8.47l179.97 0c2.53,-2.88 5.15,-5.72 7.84,-8.47z"/>
  <path class="fil3" d="M5364.48 1323.38l-313.02 0c5.1,2.65 10.13,5.47 15,8.47l283.02 0c4.87,-3 9.87,-5.82 15,-8.47z"/>
  <path class="fil3" d="M5340.2 1337.91l-264.46 0c3.91,2.68 7.75,5.53 11.47,8.44l241.49 0c3.75,-2.91 7.56,-5.75 11.5,-8.44z"/>
  <path class="fil3" d="M5321.29 1352.41l-226.64 0c3.19,2.72 6.31,5.56 9.37,8.47l207.9 0c3.03,-2.91 6.15,-5.75 9.37,-8.47l0 0z"/>
  <path class="fil3" d="M5399.32 1308.88l-382.7 0c7.59,2.44 15,5.28 22.22,8.47l338.26 0c7.22,-3.19 14.63,-6.03 22.22,-8.47z"/>
  <path class="fil3" d="M5281.83 1395.94l-147.72 0c1.91,2.78 3.78,5.59 5.6,8.46l136.52 0c1.78,-2.87 3.66,-5.68 5.59,-8.46l0.01 0z"/>
  <path class="fil3" d="M5305.76 1366.91l-195.61 0c2.68,2.75 5.31,5.59 7.84,8.47l179.96 0c2.53,-2.88 5.16,-5.72 7.81,-8.47l0 0z"/>
  <path class="fil3" d="M5292.73 1381.44l-169.55 0c2.28,2.75 4.5,5.56 6.62,8.43l156.31 0c2.15,-2.87 4.37,-5.68 6.62,-8.43z"/>
  <path class="fil2 str0" d="M1402.01 110.56c102.34,0 4739.59,0 4855.52,0 188.52,0 188.52,1086.2 0,1086.2 -117.99,0 -4759.09,0 -4855.52,0 -188.56,0 -188.56,-1086.2 0,-1086.2z"/>
  <path class="fil2 str0" d="M6497.42 1151.26l-27.49 0 0 -979.73c0,-39.32 -31.97,-71.28 -71.28,-71.28l-143.21 0 0 -27.5 143.21 0c54.47,0 98.78,44.31 98.78,98.78l0 979.73 -0.01 0z"/>
  <path class="fil2 str0" d="M6222.91 110.56l34.62 0c188.52,0 188.52,1086.2 0,1086.2l-34.62 0 0 -1086.2z"/>
  <polygon class="fil2 str0" points="6255.44,1154.95 6245.5,1131.73 6245.5,169.03 6255.44,169.03 "/>
  <polygon class="fil3" points="3139.65,1340.31 3572.16,1340.31 3587.09,1325.38 3124.74,1325.38 3124.74,1544.8 3139.65,1529.87 "/>
  <polygon class="fil2 str3" points="3625.22,1335.41 3620.34,1335.41 3620.34,1340.31 3620.34,1527.84 3615.15,1533.02 3615.15,1330.25 4060.88,1330.25 4055.7,1335.41 "/>
  <path class="fil2 str0" d="M6068.63 1335.63c0,10.84 -8.18,19.78 -18.72,21l0 -42c10.53,1.19 18.72,10.12 18.72,21z"/>
  <path class="fil2 str0" d="M6006.51 1335.63c0,-10.88 8.19,-19.81 18.69,-21l0 42c-10.5,-1.22 -18.69,-10.16 -18.69,-21z"/>
  <polygon class="fil3" points="4694.63,112.4 4684.85,112.4 4684.85,1196.16 4694.63,1196.16 "/>
  <polygon class="fil3" points="2976.22,109.18 2968.78,109.18 2968.78,1195.38 2976.22,1195.38 "/>
  <polygon class="fil2 str3" points="3572.16,1534.74 3577.06,1534.74 3577.06,1529.87 3577.06,1342.31 3582.22,1337.16 3582.22,1539.9 3136.52,1539.9 3141.68,1534.74 "/>
  <polygon class="fil3" points="4057.73,1340.31 4057.73,1529.87 3625.22,1529.87 3610.28,1544.8 4072.66,1544.8 4072.66,1325.38 "/>
  <path class="fil2 str3" d="M5748.68 1126.26c-117.21,0 -2551.91,0 -2669.06,0 -25.41,0 -25.41,99.9 0,99.9 57.15,0 2655.68,0 2669.06,0 25.4,0 25.4,-99.9 0,-99.9z"/>
  <path class="fil2 str3" d="M4690.73 1421.69c18.25,0 34.22,8.96 43.56,22.43 -9.13,22.03 -14.84,45.72 -16.44,70.47 -7.87,4.59 -17.15,7.28 -27.12,7.28 -12.09,0 -23.16,-3.94 -32,-10.5 -1.72,-21.91 -6.66,-42.97 -14.34,-62.72 8.68,-15.96 26.12,-26.96 46.34,-26.96l0 0z"/>
  <path class="fil2 str3" d="M5211.8 1421.69c17.75,0 33.34,9.09 42.5,22.9 -8.97,22.44 -14.57,46.56 -16.1,71.81 -7.72,4.69 -16.75,7.37 -26.4,7.37 -11.78,0 -22.56,-3.96 -31.19,-10.65 -1.68,-22.34 -6.53,-43.78 -14.06,-63.94 8.53,-16.34 25.56,-27.49 45.25,-27.49l0 0z"/>
  <path class="fil3" d="M1907.39 704.25c7.5,10.06 19.37,15.94 32.37,15.94 11.41,0.15 21.97,-3.91 29.78,-12.22 7.66,-8.13 11.07,-18.06 11.07,-29.94l0 -37.59c0,-11.87 -2.91,-21.62 -11.07,-29.93 -7.31,-7.66 -17.71,-12.38 -28.62,-12.19 -10.91,-0.19 -21.15,4.22 -28.31,11.72 -7.19,7.15 -11.41,16.9 -11.56,27.31 -0.16,11.06 4.06,20.84 11.56,28.15 7.16,6.69 16.91,10.6 26.84,10.6 11.06,0 20.97,-5.22 27.81,-13.19l0 15.12c0,7.16 -2.09,13.5 -6.18,18.72 -4.53,6.5 -12.69,10.91 -21.32,10.91 -9.12,0 -17.4,-4.88 -22.28,-12.03l-10.09 8.62 0 0zm28 -90.96c6.97,-1.47 13.81,0 19.34,3.71 5.06,3.44 8.81,8.82 10.25,15 1.47,6.5 0.34,13 -2.91,18.38 -3.43,5.53 -8.96,9.75 -15.81,11.22 -6.65,1.47 -13.15,0.34 -18.53,-3.1 -5.53,-3.4 -9.59,-8.93 -11.06,-15.62 -1.47,-6.34 -0.31,-12.69 2.59,-18.06 3.44,-5.85 9.28,-10.25 16.13,-11.53l0 0zm163.24 69.81l0 -33.69 -13.34 0 0 33.69 -38.09 0 38.9 -82.53 -14 0 -38.9 82.53 0 12.53 52.09 0 0 22.12 13.34 0 0 -22.12 12.53 0 0 -12.53 -12.53 0zm34.19 -82.53l-3.6 60.21 12.07 6.85c1.43,-2.6 3.56,-4.88 5.84,-6.85 4.56,-3.9 10.59,-6.34 16.94,-6.34 6.84,0 13,2.59 17.71,7 5.38,4.72 8.78,11.87 8.78,19.53 0,7.31 -3.06,13.84 -7.93,18.72 -4.75,4.72 -11.41,7.65 -18.56,7.65 -6.69,0 -13.03,-2.62 -17.75,-7 -3.75,-3.25 -6.5,-7.81 -7.81,-12.72l-12.69 3.44c1.94,7.16 5.84,13.5 11.06,18.38 7.31,6.84 16.94,10.75 27.19,10.59 10.56,0.15 20.81,-4.06 27.96,-11.41 7.19,-7 11.72,-17.09 11.72,-27.65 0.19,-11.22 -4.22,-21.47 -12.53,-28.97 -7,-6.19 -16.28,-9.75 -25.87,-9.75 -8.28,0 -16.6,3.09 -22.78,8.28l2.28 -37.43 49.81 0 0 -12.54 -61.84 0 0 0.01zm160.49 13.68c-7.47,-10.24 -19.19,-16.12 -32.37,-16.12 -11.38,0 -21.97,4.09 -29.63,12.37 -7.81,7.97 -11.22,17.91 -11.22,29.78l0 37.6c0,11.87 2.94,21.81 11.06,30.09 7.32,7.65 17.75,12.22 28.82,12.06 10.71,0.16 21,-4.25 28.31,-11.72 7,-7 11.37,-16.93 11.37,-27.34 0.19,-11.06 -3.9,-20.66 -11.53,-28.16 -7.15,-6.65 -16.78,-10.56 -26.84,-10.56 -10.91,0 -21,5.19 -27.84,13.16l0 -15.13c0,-7.15 2.12,-13.5 6.18,-18.56 4.57,-6.65 12.69,-10.87 21.32,-10.87 9.28,0 17.56,4.72 22.46,11.87l9.91 -8.47 0 0zm-27.97 90.97c-7,1.31 -13.84,-0.16 -19.37,-3.91 -4.88,-3.43 -8.78,-8.62 -10.25,-14.97 -1.47,-6.34 -0.31,-13.03 2.94,-18.21 3.4,-5.72 9.09,-9.94 15.93,-11.41 6.5,-1.31 13.03,-0.15 18.57,3.09 5.34,3.41 9.59,8.94 10.87,15.78 1.47,6.19 0.5,12.69 -2.59,18.07 -3.41,5.87 -9.1,10.09 -16.1,11.56l0 0zm103.31 -75.34l-6.53 54.03c-1.78,13.81 -3.09,21.62 -14.81,21.62l0 12.22c19.37,1.47 24.59,-12.53 26.87,-31.25l5.53 -44.59 33.03 0 0 75.84 12.69 0 0 -87.87 -56.78 0 0 0zm82 72.9l0 14.97 14.96 0 0 -14.97 -14.96 0z"/>
  <path class="fil7" d="M3596.75 710.44c16.59,0 31.72,-6.19 41.5,-18.91 9.4,-12.03 12.68,-26.84 12.84,-42.12 -0.34,-15.16 -3.25,-30.12 -12.84,-42.31 -9.94,-12.53 -25.25,-18.41 -41.5,-18.56 -16.28,-0.32 -31.91,6.03 -41.5,18.56 -9.44,12.03 -13.03,27.15 -12.87,42.31 0.18,14.97 3.43,30.25 12.87,42.12 9.59,12.72 24.72,18.91 41.5,18.91zm0 -12.72c-12.06,0.15 -23.94,-4.72 -30.94,-14.16 -7.15,-9.28 -9.43,-21.96 -9.43,-34.15 0.15,-12.22 2.28,-24.91 9.43,-34.03 7,-9.6 18.88,-14.16 30.94,-14.31 12.03,-0.16 23.9,4.71 30.75,14.31 7.15,9.12 9.59,21.81 9.43,34.03 0,12.19 -2.28,24.87 -9.43,34.15 -6.85,9.44 -18.72,14.16 -30.75,14.16zm139.93 -77.62l-75 0 0 12.06 30.91 0 0 75.81 13.18 0 0 -75.81 30.91 0 0 -12.06 0 0zm89.18 19.53c-1.31,-2.75 -2.93,-5.19 -4.71,-7.63 -7.82,-9.62 -19.38,-14.34 -32.07,-14.34 -12.53,0 -23.9,4.41 -31.9,14.34 -7.31,9.25 -9.75,20.66 -9.91,32.03 0.16,11.25 2.6,22.78 9.91,31.91 7.66,9.75 19.37,14.5 31.9,14.5 12.69,0 24.41,-4.91 32.07,-14.5 1.78,-2.28 3.25,-4.72 4.71,-7.16l-12.53 -5.53c-0.81,1.63 -1.78,3.25 -2.78,4.72 -4.87,6.5 -12.84,9.75 -21.47,9.75 -8.28,0 -16.43,-3.25 -21.15,-9.75 -5.06,-6.5 -6.5,-15.31 -6.66,-23.94 0.16,-8.62 1.6,-17.4 6.66,-23.9 4.72,-6.69 12.87,-9.94 21.15,-9.94 8.63,0 16.6,3.25 21.47,9.94 1,1.47 2.13,3.09 2.94,4.87l12.37 -5.37zm26.5 28l69.31 0c0.16,-1.13 0.16,-2.44 0.16,-3.6 0,-11.37 -2.6,-22.78 -9.91,-32.03 -7.65,-9.62 -19.22,-14.34 -31.9,-14.34 -12.69,0 -24.25,4.72 -32.06,14.34 -7.32,9.25 -9.75,20.5 -9.94,32.03 0,11.25 2.62,22.78 9.94,32.06 7.65,9.44 19.53,14 32.06,14.35 12.37,0.31 24.56,-4.75 32.21,-14.19 1.97,-2.25 3.6,-4.88 4.88,-7.31l-13 -5.69c-0.84,1.63 -1.63,3.09 -2.78,4.72 -4.88,6.5 -12.84,9.9 -21.31,9.9 -8.47,0 -16.6,-3.4 -21.32,-9.9 -4.24,-5.53 -6.03,-12.84 -6.34,-20.34zm27.66 -37.44c8.46,0 16.43,3.44 21.31,9.94 3.4,4.56 5.37,10.4 6.03,16.44l-54.69 0c0.66,-6.04 2.6,-11.88 6.03,-16.44 4.72,-6.5 12.85,-9.94 21.32,-9.94zm131.21 -10.09l-14.97 0 -23.78 38.4 -19.34 0 0 -38.4 -13.35 0 0 87.87 13.35 0 0 -38.4 19.53 0 25.03 38.24 15 0.16 -28.81 -43.94 27.34 -43.93 0 0zm46.78 3.75l13.5 0c-0.16,-6.5 2.78,-12.38 7.18,-16.75 4.07,-3.75 9.6,-6.03 15.44,-6.03 6.34,0 12.06,2.44 16.28,6.84 4.22,4.22 6.66,9.94 6.66,16.09 0,6.69 -3.25,13.53 -10.56,21l-49.31 50.28 0 12.69 72.9 0 0 -12.69 -52.87 0 37.09 -39.37c10.56,-10.75 16.12,-19.38 16.12,-31.91 0,-9.43 -3.75,-18.53 -10.09,-25.06 -6.53,-7 -15.78,-10.56 -25.72,-10.56 -9.12,0 -18.4,2.94 -25.06,9.09 -7.16,6.53 -11.72,16.13 -11.56,26.38l0 0z"/>
  <path class="fil7" d="M5155.8 710.44c16.59,0 31.72,-6.19 41.5,-18.91 9.44,-12.03 12.69,-26.84 12.84,-42.12 -0.31,-15.16 -3.25,-30.12 -12.84,-42.31 -9.94,-12.53 -25.22,-18.41 -41.5,-18.56 -16.28,-0.32 -31.9,6.03 -41.5,18.56 -9.43,12.03 -13.03,27.15 -12.84,42.31 0.15,14.97 3.41,30.25 12.84,42.12 9.6,12.72 24.72,18.91 41.5,18.91zm0 -12.72c-12.06,0.15 -23.94,-4.72 -30.94,-14.16 -7.15,-9.28 -9.43,-21.96 -9.43,-34.15 0.19,-12.22 2.28,-24.91 9.43,-34.03 7,-9.6 18.88,-14.16 30.94,-14.31 12.03,-0.16 23.91,4.71 30.75,14.31 7.15,9.12 9.59,21.81 9.44,34.03 0,12.19 -2.29,24.87 -9.44,34.15 -6.84,9.44 -18.72,14.16 -30.75,14.16zm139.96 -77.62l-75.02 0 0 12.06 30.9 0 0 75.81 13.19 0 0 -75.81 30.93 0 0 -12.06zm89.15 19.53c-1.28,-2.75 -2.93,-5.19 -4.71,-7.63 -7.82,-9.62 -19.38,-14.34 -32.06,-14.34 -12.53,0 -23.91,4.41 -31.88,14.34 -7.34,9.25 -9.78,20.66 -9.94,32.03 0.16,11.25 2.6,22.78 9.94,31.91 7.63,9.75 19.35,14.5 31.88,14.5 12.68,0 24.4,-4.91 32.06,-14.5 1.78,-2.28 3.25,-4.72 4.71,-7.16l-12.53 -5.53c-0.81,1.63 -1.78,3.25 -2.78,4.72 -4.87,6.5 -12.84,9.75 -21.47,9.75 -8.28,0 -16.43,-3.25 -21.15,-9.75 -5.03,-6.5 -6.5,-15.31 -6.66,-23.94 0.16,-8.62 1.63,-17.4 6.66,-23.9 4.72,-6.69 12.87,-9.94 21.15,-9.94 8.63,0 16.6,3.25 21.47,9.94 1,1.47 2.13,3.09 2.94,4.87l12.37 -5.37zm26.5 28l69.31 0c0.16,-1.13 0.16,-2.44 0.16,-3.6 0,-11.37 -2.59,-22.78 -9.91,-32.03 -7.65,-9.62 -19.21,-14.34 -31.9,-14.34 -12.69,0 -24.25,4.72 -32.03,14.34 -7.34,9.25 -9.78,20.5 -9.94,32.03 0,11.25 2.6,22.78 9.94,32.06 7.62,9.44 19.5,14 32.03,14.35 12.37,0.31 24.59,-4.75 32.22,-14.19 1.97,-2.25 3.59,-4.88 4.9,-7.31l-13.03 -5.69c-0.81,1.63 -1.62,3.09 -2.78,4.72 -4.87,6.5 -12.84,9.9 -21.31,9.9 -8.47,0 -16.59,-3.4 -21.31,-9.9 -4.22,-5.53 -6.03,-12.84 -6.35,-20.34zm27.66 -37.44c8.47,0 16.43,3.44 21.31,9.94 3.44,4.56 5.38,10.4 6.03,16.44l-54.68 0c0.65,-6.04 2.62,-11.88 6.03,-16.44 4.71,-6.5 12.84,-9.94 21.31,-9.94zm131.21 -10.09l-14.97 0 -23.75 38.4 -19.37 0 0 -38.4 -13.34 0 0 87.87 13.34 0 0 -38.4 19.53 0 25.06 38.24 14.97 0.16 -28.81 -43.94 27.34 -43.93 0 0zm112.22 25.06c-6.5,-6.19 -14.97,-9.59 -24.57,-9.91l33.03 -31.4 0 -13.03 -68.34 0 0 12.68 50.28 0 -37.78 35.81 6.53 10.41c3.91,-1.94 8.47,-3.09 12.69,-3.09 6.03,0 12.03,1.78 16.59,5.87 5.53,4.88 7.82,12.19 7.82,19.53 0,7.81 -2.44,15.28 -8.63,20.16 -4.22,3.59 -9.91,5.37 -15.62,5.37 -5.69,0 -11.38,-1.62 -15.78,-5.03 -3.91,-2.94 -6.66,-7.15 -8.13,-11.87l-12.72 3.56c2.13,7 6.38,13.5 12.22,18.06 7,5.53 15.78,8.16 24.41,7.97 8.62,0 17.59,-2.59 24.43,-8.28 8.94,-7 13.31,-18.06 13.5,-29.94 0.16,-9.78 -2.94,-19.87 -9.94,-26.87l0.01 0z"/>
 </g>
</svg>
