<svg width="16134" height="9665" viewBox="0 0 16134 9665" fill="none" xmlns="http://www.w3.org/2000/svg">
<g clip-path="url(#clip0)">
<rect width="16134" height="9665" fill="white"/>
<path d="M7106.52 3190.21L7101.72 3187.35L7100.62 3185.42L7099.05 3184.31L7093.79 3182.83" stroke="black"/>
<path d="M7081.72 3177.58L7067.7 3168.82L7060.97 3162.46L7060.14 3158.68L7057.56 3155.82L7054.98 3145.96L7044.1 3131.48L7043.55 3129.36L7040.14 3127.15L7031.93 3120.88L7028.61 3120.14L7025.2 3115.81L7021.88 3113.51L7019.85 3107.88L7018.1 3102.53L7014.14 3100.78L7006.21 3091.01" stroke="black"/>
<path d="M7139.28 3304.38L7145.55 3300.47L7153.72 3285.79L7160.15 3277.5V3273.89L7164.04 3267.45V3262.29L7166.68 3260.95L7172.86 3253.37L7176.37 3248.73L7177.92 3243.25L7182.55 3236.23V3234.26L7188.87 3229.07L7192.24 3223.03L7195.33 3217.97L7195.92 3207.27" stroke="#242424" stroke-miterlimit="10"/>
<path d="M7168.67 3267.97L7166.54 3266.77V3265.18L7165.93 3263.65L7164.78 3262.61L7163.63 3260.58L7162.05 3256.97L7157.01 3250.67L7150.61 3246.57L7149.18 3242.9L7144.8 3236.66L7132.71 3224.13L7125.26 3211.64L7121.65 3202.83L7120.47 3199.25L7106.52 3189.99H7098.43L7094.23 3186.41L7093.8 3182.7L7087.44 3180.97L7082.81 3179.55L7081.89 3177.52L7075.71 3177.15L7062.62 3171.78L7058.43 3157.88L7056.14 3154.06L7053.42 3152.2L7051.63 3151.22L7047.25 3145.66L7042.99 3144.92L7038.42 3139.98L7031.57 3135.84L7029.35 3124.42L7028.98 3120.16L7026.38 3119.17L7020.95 3117.32L7016.51 3115.72L7011.57 3109.67L7005.2 3104.84" stroke="black"/>
<path d="M7157.91 3331.71L7160.28 3328.63L7160.83 3324.58L7161.22 3321L7162.38 3315.24L7163.4 3312.32L7162.74 3310.76L7161.22 3306.4V3299.59L7164.1 3292.82V3280.1V3277.6V3261.4" stroke="black"/>
<path d="M7188.86 3341.66V3337.95L7187.8 3335.92L7185 3333.24L7183.72 3332.63V3328.61L7179.64 3315.99V3308.45L7177.07 3303.87L7176.74 3300.12L7174.56 3296.89V3294.32L7173.05 3292.14L7174.56 3288.28L7173.5 3286.89L7169.42 3279.63L7169.03 3275.16L7168.53 3271.08V3267.45L7166.24 3266.62" stroke="#242424" stroke-miterlimit="10" stroke-linejoin="round"/>
<path d="M7238.44 3336.29L7230.12 3328.2L7221.46 3320.02L7220.22 3317.36L7219.67 3316.19L7218.62 3313.47L7215.65 3311.5L7212.69 3309.96L7210.59 3308.66L7210.16 3306.56L7206.95 3304.15L7204.17 3303.23L7200.16 3295.2L7197.38 3293.97L7192.62 3292.98V3290.88L7189.72 3285.32L7184.23 3279.09L7177.13 3273.28L7175.65 3270.81L7173.73 3269.46H7171.51L7168.67 3267.97" stroke="black"/>
<path d="M7201.14 3853.48L7199.36 3856.86L7198.52 3860.33L7200.04 3859.48C7201.05 3859.48 7203.18 3859.48 7203.59 3859.48C7204.1 3859.48 7206.97 3859.99 7206.97 3861.51C7206.97 3863.03 7208.16 3863.71 7206.97 3864.13C7205.79 3864.56 7207.06 3863.54 7204.86 3864.81C7202.66 3866.08 7203.25 3866.84 7201.65 3866.08C7200.36 3865.47 7199.59 3864.98 7199.36 3864.81H7196.4L7193.87 3863.63V3861.94C7193.75 3861.79 7193.41 3861.51 7192.94 3861.51C7192.34 3861.51 7192.26 3861.09 7191.41 3861.51C7190.57 3861.94 7187.52 3863.12 7186.43 3863.63C7185.33 3864.13 7183.3 3866.08 7182.54 3866.08C7181.77 3866.08 7179.83 3867.01 7178.9 3867.01C7178.25 3866.67 7176.41 3865.76 7174.25 3864.81C7172.08 3863.86 7171.03 3863.29 7170.78 3863.12C7170.87 3864.84 7171.68 3869.38 7174.25 3873.77C7176.82 3878.17 7178.42 3880.68 7178.9 3881.38C7179.46 3881.84 7180.67 3882.75 7181.01 3882.82C7181.82 3882.82 7182.65 3882.82 7182.96 3882.82L7182.54 3881.81C7182.37 3881.69 7181.93 3881.37 7181.52 3880.96C7181.01 3880.45 7180.08 3879.69 7181.52 3879.86C7182.96 3880.03 7182.96 3880.29 7183.8 3880.29C7184.65 3880.29 7185.92 3880.96 7186.43 3880.96C7186.93 3880.96 7187.44 3881.81 7187.95 3881.81C7188.45 3881.81 7188.37 3881.55 7189.89 3882.82C7191.11 3883.84 7191.41 3884.6 7191.41 3884.85C7191.56 3885.13 7191.87 3885.8 7192.01 3886.2C7192.75 3887.56 7193.56 3888.23 7193.87 3888.4L7192.94 3889.08C7192.63 3889.16 7192.01 3889.47 7192.01 3890.01C7192.01 3890.55 7192.01 3891.25 7192.01 3891.53L7191.41 3892.38C7191.67 3892.41 7192.02 3892.61 7191.41 3893.22C7190.8 3893.83 7191.55 3894.82 7192.01 3895.24L7191.41 3896.83C7190.91 3896.79 7189.89 3896.89 7189.89 3897.52C7189.89 3898.32 7189.31 3898.61 7189.02 3900.3C7188.72 3901.99 7189.02 3902.29 7189.02 3902.98C7189.02 3903.68 7188.66 3904.27 7187.95 3904.57C7187.37 3904.81 7186.43 3904.57 7186.43 3904.57C7186.19 3904.64 7185.86 3904.59 7186.43 3903.88C7186.99 3903.16 7187.13 3901.79 7187.13 3901.2C7186.86 3900.9 7186.04 3900.3 7184.85 3900.3C7183.36 3900.3 7183.55 3900.3 7182.54 3900.3C7181.52 3900.3 7181.55 3900.3 7181.01 3901.2C7180.48 3902.09 7180.07 3902.09 7179.49 3903.88C7178.9 3905.66 7178.39 3905.86 7178 3907.45C7177.6 3909.04 7177.5 3908.94 7177.2 3910.53C7176.9 3912.12 7176.9 3911.92 7176.61 3913.7C7176.31 3915.49 7176.11 3916.38 7175.91 3917.38C7175.71 3918.37 7175.91 3919.56 7174.52 3919.96C7173.13 3920.35 7173.13 3919.56 7172.34 3920.55C7171.54 3921.55 7172.34 3921.94 7170.65 3922.84C7168.96 3923.73 7167.97 3924.03 7167.08 3924.43C7166.18 3924.82 7165.49 3924.33 7165.19 3925.42C7164.89 3926.51 7164.89 3925.72 7164.69 3927.7C7164.49 3929.69 7164.69 3930.28 7164.69 3931.77C7164.69 3933.26 7165.39 3933.76 7164.69 3935.35C7164 3936.93 7164.1 3937.33 7163.8 3938.52C7163.5 3939.71 7163.4 3939.71 7163.01 3940.61C7162.61 3941.5 7165.19 3941.4 7161.72 3942.39C7158.24 3943.39 7157.84 3943.19 7157.35 3943.39C7156.95 3943.55 7156.06 3943.98 7155.66 3944.18H7154.57C7154 3945.14 7152.41 3946.7 7150.63 3945.23C7148.4 3943.39 7141.21 3942.36 7139.99 3941.48C7138.77 3940.61 7138.77 3940.19 7137.66 3939.35C7136.55 3938.52 7137.05 3938.52 7135.53 3938.52C7134.01 3938.52 7134.01 3938.52 7133.1 3938.52C7132.19 3938.52 7131.38 3938.1 7131.18 3939.35C7131.66 3941.06 7132.66 3942.09 7133.1 3942.39H7131.18C7130.71 3943.07 7129.9 3944.58 7130.47 3945.23C7131.04 3945.88 7131.92 3946.38 7132.29 3946.55C7132.29 3946.65 7132.62 3946.69 7133.91 3946.04C7135.53 3945.23 7135.64 3945.23 7136.65 3945.23C7137.46 3945.23 7139.21 3945.23 7139.99 3945.23C7140.33 3945.33 7140.9 3945.63 7140.5 3946.04C7139.99 3947.76 7140.5 3947.86 7139.08 3948.37C7137.66 3948.88 7137.46 3948.47 7136.04 3949.08C7133.1 3949.79 7131.89 3948.57 7131.18 3949.08C7130.47 3949.58 7129.66 3949.48 7128.95 3950.19C7128.24 3950.9 7126.92 3951.41 7126.11 3951.61C7125.47 3951.77 7124.56 3952.22 7124.19 3952.42C7124.19 3952.39 7124.19 3952.5 7124.19 3953.23C7124.19 3954.14 7124.29 3954.14 7125.2 3955.15C7126.11 3956.17 7128.95 3956.98 7128.95 3957.08C7128.95 3957.18 7130.06 3957.59 7131.18 3957.79C7132.29 3957.99 7132.29 3958.4 7133.91 3958.29C7135.53 3958.19 7137.15 3958.5 7137.66 3957.79C7138.07 3957.22 7139.38 3956.2 7139.99 3955.76C7140.53 3955.56 7141.29 3955.15 7139.99 3955.15C7138.37 3955.15 7137.56 3955.15 7136.04 3955.15C7134.83 3955.15 7134.12 3955.15 7133.91 3955.15C7134.08 3954.78 7134.64 3953.88 7135.53 3953.23C7136.43 3952.58 7137.93 3952.42 7138.57 3952.42C7138.71 3952.56 7139.08 3952.91 7139.48 3953.23C7140.5 3954.24 7140.9 3954.34 7141.71 3954.24C7142.52 3954.14 7143.43 3953.74 7144.04 3953.74C7144.65 3953.74 7145.26 3953.33 7146.17 3954.24C7146.9 3954.97 7148.03 3955.56 7148.5 3955.76C7148.33 3956.03 7147.89 3956.57 7147.49 3956.57C7146.43 3957.55 7146.57 3958.46 7146.78 3958.8C7147.65 3958.8 7149.03 3958.94 7147.49 3959.51C7145.56 3960.22 7145.16 3960.32 7144.04 3960.32C7142.93 3960.32 7141.71 3959.61 7141.71 3960.32C7141.71 3961.03 7141.91 3961.64 7144.04 3962.35C7146.17 3963.06 7146.47 3963.36 7147.49 3964.07C7148.5 3964.78 7149.81 3964.98 7150.63 3965.89C7151.44 3966.8 7151.33 3966.7 7151.94 3967.61C7152.55 3968.52 7153.06 3969.33 7153.36 3969.84C7153.6 3970.25 7154.27 3971.23 7154.57 3971.66C7154.57 3972.37 7154.57 3974.01 7154.57 3974.91C7154.57 3976.02 7154.5 3976.93 7155.08 3977.64C7155.66 3978.35 7156.67 3979.67 7157.35 3980.17C7158.02 3980.68 7158.53 3981.49 7159.74 3982.4C7160.96 3983.31 7161.32 3984.02 7163.01 3984.63C7164.69 3985.24 7165.09 3985.13 7167.08 3985.64C7168.66 3986.05 7171.24 3986.49 7172.34 3986.65H7173.52L7174.02 3984.63L7173.52 3982.4V3981.59C7173.18 3981.12 7172.71 3980.17 7173.52 3980.17C7174.32 3980.17 7175.45 3981.66 7175.91 3982.4C7176.56 3982.47 7177.93 3983.01 7178.17 3984.63C7178.48 3986.65 7178.88 3986.76 7179.8 3987.77C7180.71 3988.78 7180.71 3988.78 7181.42 3989.59C7182.12 3990.4 7182.93 3989.59 7183.04 3989.59C7183.14 3989.59 7183.24 3988.38 7184.05 3988.98C7184.7 3989.47 7184.32 3990.81 7184.05 3991.41C7183.95 3991.38 7184.11 3991.54 7185.57 3992.43C7187.03 3993.32 7188.27 3994.28 7188.71 3994.66C7188.37 3995.03 7187.9 3995.91 7188.71 3996.48C7189.72 3997.19 7189.92 3997.8 7190.63 3998C7191.34 3998.2 7190.73 3998.2 7192.56 3999.11C7194.38 4000.02 7195.7 3999.82 7196.91 4000.33C7198.13 4000.83 7197.82 4001.34 7199.85 4001.64C7201.88 4001.95 7201.57 4001.75 7204.1 4002.45C7206.64 4003.16 7209.88 4004.18 7212.41 4005.29C7214.94 4006.4 7215.04 4006.81 7216.56 4008.53C7217.78 4009.91 7218.69 4010.93 7218.99 4011.27L7222.88 4014.05C7224.73 4015.05 7224.59 4015.48 7225.3 4016.62C7226.01 4017.76 7227.01 4019.04 7228.15 4019.89C7230.66 4021.95 7232.42 4023.41 7232.99 4023.88C7233.28 4023.93 7234.1 4024.34 7235.13 4025.59C7237.55 4028.72 7237.26 4028.87 7239.26 4030.58C7241.25 4032.28 7241.54 4032.14 7242.82 4033.71C7244.1 4035.28 7244.67 4036.27 7245.95 4037.7C7247.23 4039.12 7247.66 4040.12 7248.94 4041.11C7250.22 4042.11 7251.08 4042.54 7252.08 4043.25C7253.07 4043.96 7252.79 4043.82 7253.79 4044.96C7254.78 4046.1 7254.07 4045.53 7255.78 4047.1C7257.49 4048.66 7258.34 4049.09 7259.77 4050.94C7261.19 4052.79 7262.05 4053.65 7262.47 4054.5C7262.9 4055.36 7263.04 4055.78 7263.9 4056.78C7264.58 4057.58 7266.08 4058.82 7266.75 4059.34V4052.65C7267.32 4052.56 7268.57 4052.08 7269.02 4050.94C7269.48 4049.8 7270.16 4048.95 7270.45 4048.66H7272.44H7277.14H7287.4V4050.94H7289.39C7289.82 4050.18 7290.99 4048.66 7292.24 4048.66C7293.49 4048.66 7295.51 4048.66 7296.37 4048.66L7295.23 4038.98L7296.37 4037.7L7297.22 4033.71L7299.36 4029.15L7300.64 4028.15V4027.16L7301.78 4025.59L7303.92 4023.88L7304.65 4016.62L7305.42 4015.22H7308.66L7311.71 4016.62C7312.14 4016.62 7313.35 4016.62 7314.77 4016.62C7316.18 4016.62 7318.14 4017.53 7318.94 4017.99V4022.97H7326.65L7336.45 4012.85L7338.06 4008.53V4006.26L7333.56 4000.33L7338.06 3995.5L7331.47 3992.13V3987.95H7328.1L7326.65 3985.06V3983.29V3981.37L7331.47 3978.64L7335.49 3971.57L7334.52 3966.27L7330.03 3965.46H7325.69L7324.4 3961.29L7322.64 3957.92V3952.13L7319.91 3951.17H7311.07L7308.66 3948.76V3941.85L7304.65 3937.03V3934.3L7301.78 3933.02L7300.64 3925.15L7302.88 3923.22L7307.22 3921.93L7308.66 3923.22L7314.77 3924.34L7313.64 3921.93L7316.05 3919.04H7318.94L7317.66 3913.26L7312.04 3911.17V3906.84" stroke="#878282"/>
<path d="M7260.28 3897.02L7258.78 3893.79V3887.77L7258.02 3886.76M7260.28 3897.02L7261.25 3899.39L7264.8 3902.51L7271.04 3911.65L7273.08 3914.88L7276.63 3920.58L7287.17 3935.21L7288.89 3941.77L7289.86 3943.17L7293.74 3946.93L7296.32 3949.4L7301.16 3952.31L7304.38 3957.36L7307.63 3962.06L7309.68 3966.18L7316.08 3971.2L7326.02 3976.69H7327.39L7331.65 3978.17M7260.28 3897.02L7256 3900.74M7258.02 3886.76L7257.81 3886.48L7253.61 3879.06V3877.01L7251.79 3869.05L7251.14 3862.71L7251.79 3857.01L7254.39 3848.57L7256 3844.46L7257.39 3839.88M7258.02 3886.76L7256.78 3887.77H7255.4V3893.79L7256.78 3894.96V3896.34L7256 3897.46V3899.88V3900.74M7256 3900.74L7252.64 3913.07L7249.63 3922.78L7247.3 3927.84L7239.37 3938.79L7233.62 3946.93L7231.57 3950.97L7228.42 3954.25L7224.19 3957.02H7223.21V3958.58L7221.06 3958.06L7219.5 3960.41V3961.06H7220.28H7221.45V3961.97" stroke="black"/>
<path d="M6892.55 3342.66L6895.45 3342.03L6901.24 3340.43L6909.93 3338.87L6913.28 3337.76C6913.28 3337.76 6914.17 3337.76 6914.39 3335.97C6914.62 3334.19 6917.07 3335.75 6917.96 3334.19C6918.85 3332.63 6919.07 3333.07 6919.07 3333.07L6920.41 3331.33L6925.09 3330.71H6929.33H6931.11H6932.67L6938.69 3327.72C6938.69 3327.72 6938.69 3327.72 6938.6 3327.05C6938.56 3326.39 6940.25 3325.94 6940.25 3325.94L6942.48 3324.38L6944.04 3322.82C6944.04 3322.82 6945.38 3321.26 6945.6 3320.59C6945.82 3319.92 6946.94 3319.48 6948.28 3318.36C6948.28 3318.36 6950.51 3317.69 6951.62 3317.25C6952.74 3316.8 6954.07 3315.69 6954.07 3315.69H6958.98H6961.21C6961.21 3315.69 6965.44 3314.79 6967.45 3314.13C6969.45 3313.46 6970.08 3314.13 6970.08 3314.13L6992.86 3307.44C6992.86 3307.44 6995.76 3307.44 6996.43 3307.44C6997.1 3307.44 6999.55 3307.44 6999.55 3307.44L7003.56 3305.88H7005.57H7007.57H7010.92H7012.03H7016.94H7020.06H7021.39C7021.39 3305.88 7024.96 3304.99 7025.63 3304.5C7026.3 3304.01 7037.22 3298.74 7039.67 3297.41C7042.12 3296.07 7054.16 3286.48 7057.95 3284.48C7061.74 3282.47 7071.19 3284.48 7071.19 3284.48L7072.64 3285.12H7073.53L7076.62 3284.48L7083.24 3282.93L7083.88 3281.55C7085.17 3281.37 7087.88 3280.99 7088.48 3280.91C7089.22 3280.8 7090.82 3279.94 7092.11 3279.52C7093.39 3279.09 7095.31 3278.98 7097.12 3278.34C7098.94 3277.7 7100.33 3277.17 7101.61 3277.17C7102.89 3277.17 7104.17 3277.06 7107.27 3275.35C7110.36 3273.64 7111.11 3273 7112.5 3272.58C7113.89 3272.15 7114.95 3271.4 7116.98 3271.08C7119.01 3270.76 7120.51 3270.23 7122.96 3269.48C7125.42 3268.73 7127.87 3267.35 7128.41 3267.35C7128.83 3267.35 7130.79 3267.35 7131.72 3267.35L7133.96 3266.38H7136.09L7138.44 3264.57H7140.15L7155.1 3262.76C7156.02 3262.43 7158.21 3261.82 7159.58 3261.9C7160.95 3261.99 7163.26 3262.1 7164.24 3262.14" stroke="black" stroke-miterlimit="10"/>
<path d="M7044.58 3433.43L7041.82 3447.72H7038.06L7035.62 3449.27L7033.86 3451.7H7031.95H7030.05L7028.37 3448.82V3447.28L7027.27 3446.84L7022.67 3449.71L7021.3 3451.7L7017.98 3454.57L7013.56 3457.67C7013.56 3457.67 7012.89 3458.11 7011.79 3459.66C7010.68 3461.2 7009.13 3462.66 7009.13 3462.66L7007.37 3463.46C7005.82 3464.52 7003.61 3464.96 7003.61 3464.96H6999.8C6999.8 3464.96 6998.26 3463.19 6996.93 3464.96C6995.6 3466.73 6994.28 3466.51 6993.61 3467.39C6992.95 3468.28 6990.07 3468.28 6989.19 3469.38C6988.31 3470.49 6986.76 3471.81 6986.76 3471.81L6984.55 3472.92L6980.12 3475.13H6976.59H6975.26H6973.27H6970.13H6967.3C6967.3 3475.13 6965.53 3475.35 6964.87 3475.13C6964.2 3474.91 6962.21 3477.34 6958.01 3478.44C6953.81 3479.55 6947.4 3481.76 6947.4 3481.76L6945.41 3484.94C6945.41 3484.94 6943.2 3485.21 6942.97 3485.91C6942.75 3486.62 6941.65 3487.51 6941.65 3488.17C6941.65 3488.83 6941.43 3488.83 6940.32 3490.16C6939.22 3491.49 6936.34 3492.59 6936.34 3492.59L6933.25 3494.58L6929.27 3495.68C6927.72 3496.57 6925.28 3496.79 6925.06 3497.45C6924.84 3498.12 6922.85 3499 6922.85 3499H6921.19H6919.07" stroke="black" stroke-miterlimit="10"/>
<path d="M7044.67 3434.01V3427.81L7050.68 3409.76V3406.9L7069.54 3383.28V3381.67L7076.94 3373.82L7079.66 3367.54C7079.66 3367.54 7082.52 3367.54 7083.1 3367.54C7083.68 3367.54 7101.42 3352.24 7101.42 3352.24L7105.97 3345.11V3341.28L7109.67 3336.6L7114.44 3330.67L7116.04 3326.7L7124.07 3318.36L7126.39 3314.39L7136.51 3307.39L7137.35 3305.52L7138.96 3304.54" stroke="black" stroke-miterlimit="10"/>
<path d="M7158.31 3331.38C7158.31 3332.81 7159.38 3335.21 7159.38 3335.21L7162.32 3340.16L7161.7 3348.77L7162.32 3355.19L7161.47 3363.44L7153.99 3373.29L7160.49 3379.93L7161.97 3382.12C7161.97 3382.12 7160.63 3385.91 7160.72 3386.08C7160.81 3386.31 7161.21 3390.05 7161.21 3390.05L7159.87 3391.66L7160.49 3393.53L7161.7 3395.53L7152.38 3412.65L7148.05 3418.72L7141.06 3427.59L7135.88 3429.46L7133.43 3430.09L7128.39 3437.44L7127.5 3440.3L7124.29 3443.77L7120.73 3445.16L7116.58 3447.88L7107.97 3457.73L7107.22 3464.1L7098.7 3468.3L7094.55 3471.77L7092.37 3478.01L7089.38 3478.77C7089.38 3478.77 7087.69 3481.27 7087.64 3481.49C7087.56 3481.72 7089.52 3485.55 7089.52 3485.55L7089.78 3495.36L7091.26 3498.92C7091.26 3498.92 7093.93 3502.49 7093.71 3502.13C7093.48 3501.78 7093.98 3504.72 7093.98 3504.72L7092.37 3507.66L7092.59 3513.06C7092.59 3513.06 7093.71 3520.19 7093.71 3519.92C7093.71 3519.66 7092.33 3522.38 7092.33 3522.38L7092.95 3524.2H7095.54L7096.12 3527.77L7100.53 3533.21L7101.24 3535.79L7102.85 3538.16L7105.57 3540.34L7105.34 3543.42L7102.4 3548.23L7102.18 3552.16L7104.05 3556.13L7103.69 3558.31C7103.69 3558.31 7101.6 3560.05 7101.6 3560.32C7101.6 3560.58 7103.2 3563.3 7103.2 3563.3L7104.76 3564.91L7105.66 3569.68L7108.33 3575.92L7109.85 3581.49L7111.41 3583.81L7111.63 3590.19L7113.5 3592.06L7113.41 3596.52L7115.24 3599.46L7115.33 3601.65L7118.63 3603.12L7120.95 3609.98L7122.15 3612.43L7119.34 3613.28L7118.72 3619.66L7118.5 3622.64L7119.48 3624.65L7114.13 3633.97L7111.94 3637.62L7110.87 3638.6" stroke="black" stroke-miterlimit="10" stroke-linejoin="round"/>
<path d="M7188.67 3342.08C7188.67 3342.08 7188.05 3344.4 7188.05 3344.76C7188.05 3345.11 7188.31 3352.29 7188.31 3352.29L7189.56 3361.12L7188.8 3363.3L7188.05 3365.4L7188.8 3373.24L7186.58 3376.1L7183.01 3387.29L7182.52 3395.14L7183.86 3397.1L7183.95 3403.65L7182.25 3405.66V3407.84L7184.35 3409.31L7183.95 3415.2L7186.44 3418.41L7186.35 3426.39L7189.56 3430.22L7189.21 3441.55L7191.79 3447.43L7192.37 3450.77L7189.87 3452.96L7188.89 3454.79L7190.59 3457.02L7191.97 3466.38L7194.96 3470.08V3474.67L7197.77 3475.25L7199.1 3477.21L7202.76 3478.42L7204.14 3482.34L7206.5 3484.57H7209.22L7210.34 3489.16L7213.06 3494.2L7213.95 3498.48L7217.65 3500.22L7218.41 3502.54C7218.41 3502.54 7222.6 3505.84 7222.87 3505.84C7223.13 3505.84 7225.23 3507.22 7225.23 3507.22L7225.81 3511.99L7229.02 3514.08L7230.76 3515.2L7231.83 3518.76L7230.45 3523.71C7230.45 3523.71 7231.78 3526.3 7231.83 3526.52C7231.92 3526.75 7232.18 3539.09 7232.18 3539.09L7231.2 3542.57V3547.34L7231.92 3551.27L7228.93 3552.65C7228.93 3552.65 7225.94 3551.4 7225.5 3551.53C7225.1 3551.67 7223.31 3552.65 7223.31 3552.65H7218.77L7213.24 3551.58L7209.54 3552.65L7205.57 3556.48L7202.27 3556.08L7200.93 3557.29H7195.98L7194.65 3556.04L7190.86 3558.13H7184.35L7182.25 3557.24L7181.05 3558.93L7182.03 3561.3L7178.11 3564.78L7174.05 3571.69L7170.26 3573.69H7166.69L7165 3576.55L7162.19 3576.95L7160.45 3581.54L7155.41 3582.65L7152.69 3584.26L7149.26 3589.03V3594.91V3600.71L7147.07 3605.03L7146.72 3607.71L7140.3 3610.56L7134.9 3611.54L7127.86 3617.34L7122.6 3621.89L7119.3 3624.7" stroke="black" stroke-miterlimit="10" stroke-linejoin="round"/>
<path d="M7238.03 3335.93C7238.38 3335.93 7241.24 3339.09 7241.24 3339.09L7246.14 3342.08L7249.44 3345.25L7249.04 3347.56L7249.88 3349.93L7252.38 3351.26L7255.86 3350.69L7261.43 3355.28L7265.85 3359.6L7267.09 3362.41L7268.83 3363.66L7269.41 3367.36L7272.62 3370.52L7276.68 3371.51L7282.7 3370.88L7286.53 3370.03L7290.1 3370.79L7295.14 3370.57L7299.33 3372.31V3376.01V3381.89L7297.95 3384.12L7297.54 3387.47L7292.6 3393.98L7289.79 3401.11L7286.49 3404.68H7283.81L7282.25 3407.26L7276.23 3410.34L7272.31 3410.83L7269.99 3412.03H7266.65L7263.97 3415.33L7265.49 3419.48L7268.65 3426.48L7270.26 3431.25L7270.84 3432.99L7267.41 3436.2L7265.09 3441.64L7262.01 3445.56L7261.43 3451.93L7259.43 3455.72L7255.95 3459.69L7255.32 3465.13L7253.76 3468.61L7255.01 3473.78L7251.36 3478.06L7250.29 3479.44L7251.36 3481.89L7252.11 3484.48L7251 3485.33L7249.53 3483.99L7247.92 3483.28L7244.71 3485.28L7242.71 3487.78L7241.37 3490.5L7240.48 3493.66L7235.17 3498.21L7231.52 3503.03L7229.78 3508.2L7228.93 3513.99" stroke="black" stroke-miterlimit="10" stroke-linejoin="round"/>
<path d="M7232.14 3538.83L7235.08 3542.79L7235.79 3548.55L7235.53 3551.4L7246 3560.36C7246 3560.36 7251.75 3563.84 7251.89 3563.84C7252.02 3563.84 7257.95 3564.42 7257.95 3564.42L7261.92 3562.23L7268.16 3564.42L7270.61 3562.81L7273.91 3562.1L7275.03 3560.85H7279.31L7280.91 3562.23L7286.35 3561.52L7290.9 3562.1L7292.46 3564.42H7302.71L7307.26 3565.13L7315.42 3564.15L7325.41 3565.89L7332.27 3564.77L7337.31 3568.07H7338.87L7343.55 3565.27L7348.95 3569.23C7348.95 3569.23 7356.35 3568.83 7356.48 3568.83C7356.61 3568.83 7364.33 3569.68 7364.33 3569.68H7368.03L7370.84 3571.55L7375.38 3570.97L7379.35 3565.89" stroke="black" stroke-miterlimit="10" stroke-linejoin="round"/>
<path d="M7246.05 3560.41L7247.12 3570.35L7252.16 3581.81L7260.9 3596.96L7264.19 3603.96V3608.73C7264.19 3608.73 7266.78 3612.57 7266.87 3613.01C7266.96 3613.5 7265.98 3616.71 7265.98 3616.71L7268.34 3626.34L7270.79 3628.8L7269.95 3636.06L7276.95 3641.46L7278.15 3645.6L7282.34 3648.81V3652.47L7284.7 3660.5L7286.53 3664.91L7285.82 3669.06L7287.2 3671.86L7286 3673.69L7287.82 3686.49L7289.29 3688.67L7288.8 3690.68L7287.29 3694.16L7289.29 3699.06L7290.5 3701.07L7290.99 3708.73L7288.31 3715.73L7286.57 3719.57L7284.26 3719.93L7283.28 3724.74L7283.86 3728.22L7280.51 3735.62L7279.66 3737.49L7280.91 3738.96V3741.28L7279.31 3743.64L7279.4 3749.57L7278.28 3751.58L7278.37 3764.78C7278.37 3764.78 7276.63 3765.76 7276.54 3766.29C7276.45 3766.87 7276.45 3770.13 7276.45 3770.13L7275.56 3772.49L7275.07 3778.15L7274.36 3783.32L7273.11 3786.62L7273.6 3790.59L7270.79 3799.91L7263.79 3809L7262.59 3811.1L7263.44 3820.46L7260.45 3822.2L7258.35 3828.22L7255.05 3830.89L7251.71 3829.02L7249.04 3829.91L7241.01 3828.8L7234.63 3828.22L7228.84 3827.1L7225.85 3825.28L7223.4 3826.39L7222.02 3828H7218.09L7215.64 3830.23L7213.19 3833.3L7205.66 3834.86L7201.73 3833.39L7199.86 3834.86L7193.57 3835.62H7191.39" stroke="black" stroke-miterlimit="10" stroke-linejoin="round"/>
<path d="M7258.09 3828.26L7258.93 3832.59V3837.85L7257.06 3840.03L7262.19 3841.82C7262.19 3841.82 7263.48 3846.5 7263.97 3846.72C7264.46 3846.99 7267.63 3847.66 7267.63 3847.66L7269.99 3851.85L7274.45 3855.77L7279.35 3857.38L7283.32 3860.1L7288.98 3868.25L7290.37 3870.71V3872.58L7293.84 3873.96L7296.52 3878.15L7297.63 3881.45L7301.82 3887.11L7305.17 3889.3L7309.63 3891.48L7310.87 3893.53L7311.45 3897.5L7314.44 3901.2V3904.41C7314.44 3904.41 7316.94 3906.46 7316.94 3907.85" stroke="black" stroke-miterlimit="10" stroke-linejoin="round"/>
<path d="M7290.41 3870.8L7293.49 3872.18L7296.43 3872.67L7305.17 3873.38L7306.01 3874.9H7309L7313.19 3873.43L7321.04 3874.01L7324.96 3876.99L7329.51 3873.16L7335.26 3863.93L7338.25 3860.9L7343.78 3853.9L7349.22 3851.58L7353.18 3847.26L7354.57 3843.06L7357.15 3840.34L7360.09 3839.72L7364.91 3836.07L7367 3835.17L7372.18 3840.57L7380.51 3845.12C7380.51 3845.12 7385.46 3849.89 7385.46 3850.24C7385.46 3850.64 7388.4 3850.87 7388.4 3850.87L7397.37 3860.32L7398.61 3862.41L7404.63 3865.62L7407.98 3867.5L7412.75 3870.35L7413.1 3872.18L7413.95 3873.52L7415.33 3873.87L7417.21 3873.65L7421.4 3876.95L7423.98 3878.46V3882.25C7423.98 3882.25 7425.72 3883.32 7426.43 3882.88" stroke="black" stroke-miterlimit="10" stroke-linejoin="round"/>
<path d="M7275.43 3772.44L7278.86 3773.83H7279.75L7286.62 3773.43L7294.6 3773.83L7298.66 3771.64L7300.89 3769.68L7305.66 3769.19L7307.53 3767.45H7310.74C7310.74 3767.45 7318.14 3770.13 7318.41 3770.13C7318.68 3770.13 7321.89 3770.22 7321.89 3770.22C7321.89 3770.22 7331.74 3762.37 7331.96 3762.37C7332.19 3762.37 7338.2 3762.37 7338.2 3762.37L7339.32 3760.81L7344.09 3760.32L7346.18 3758.98L7350.87 3759.25" stroke="black" stroke-miterlimit="10" stroke-linejoin="round"/>
<path d="M7231.87 3551.18L7235.57 3551.4" stroke="black" stroke-miterlimit="10" stroke-linejoin="round"/>
<path d="M7329.56 3309.44C7328.93 3310.07 7328.8 3313.23 7328.8 3313.23L7329.56 3316.09L7326.08 3319.79L7323.85 3322.64L7319.39 3323.35L7318.68 3324.69L7320.42 3325.94L7318.68 3329.51L7313.24 3335.57L7313.86 3339.4L7313.24 3341.1L7311.86 3342.08V3346.54L7315.15 3351.49L7315.02 3353.67L7311.86 3354.39L7310.12 3355.86V3361.3L7308.02 3364.28L7306.42 3366.96L7302.45 3368.03L7300.26 3370.12L7299.42 3372.35L7302.09 3375.65L7307.84 3376.14L7309.09 3379.31L7314.53 3381.98L7318.86 3382.87L7327.82 3388.4L7332.14 3390.14H7333.26V3387.56L7335.13 3386.57L7336.96 3388.4L7342.48 3388.67L7345.56 3384.21L7349.48 3383.63L7351.18 3382.56L7356.26 3382.83L7360.72 3381.09L7364.91 3378.91L7366.78 3379.13L7367.9 3380.51L7371.2 3379.26" stroke="black" stroke-miterlimit="10" stroke-linejoin="round"/>
<path d="M7247.83 3829.82L7254.97 3835.71L7257.06 3840.03" stroke="black" stroke-miterlimit="10" stroke-linejoin="round"/>
<path d="M7251.09 3485.33L7260.58 3490.1L7277.44 3491.79L7288.14 3492.42L7302.63 3486H7312.26L7313.64 3482.56L7317.12 3478.1" stroke="black" stroke-miterlimit="10" stroke-linejoin="round"/>
<path d="M7240.34 3555.55L7266.16 3552.43L7287.96 3530.58L7301.78 3519.48L7310.29 3507.84L7315.15 3495L7317.38 3478.1" stroke="black" stroke-miterlimit="10" stroke-linejoin="round"/>
<path d="M7219.53 3363.88L7220.86 3365.35L7229.87 3373.24L7232.19 3377.66L7238.34 3384.43H7244.63L7250.38 3390.1L7255.06 3399.73L7257.38 3409.85L7260.05 3415.29L7264.24 3424.51V3429.82L7269.82 3433.79L7272.8 3443.73L7277.48 3448.9L7283.15 3454.34C7283.15 3454.34 7284.04 3457.64 7284.88 3460.14C7285.73 3462.63 7287.34 3462.46 7287.34 3462.46L7296.34 3469.37L7305.84 3472.09L7310.61 3475.92L7320.73 3478.91L7326.39 3483.1L7328 3489.47V3497.5L7330.36 3503.16L7329.51 3506.64L7330.36 3512.88L7334.33 3516.36L7335.04 3521.62L7339.59 3527.5L7342.31 3532.41V3536.24L7346.72 3543.02L7349.04 3551.36L7353.19 3560.32L7354.17 3568.56L7356.98 3576.41L7359.34 3578.73L7362.19 3582.88L7362.91 3585.33" stroke="black" stroke-miterlimit="10" stroke-linejoin="round"/>
<path d="M7354.57 3585.37C7354.43 3584.48 7350.64 3577.48 7350.64 3577.48L7348.46 3573.16L7348.95 3569.32" stroke="#F09999" stroke-miterlimit="10" stroke-linejoin="round"/>
<path d="M7104.08 3465.45L7106.39 3470.56L7109.31 3472.02L7111.25 3475.3L7111.98 3477.12V3479.68L7115.75 3482.47C7116.16 3482.88 7117.12 3483.71 7117.7 3483.81C7118.43 3483.93 7119.77 3483.81 7120.5 3484.54C7121.08 3485.13 7123.66 3485.6 7124.88 3485.76H7125.97L7128.4 3487.22C7128.77 3487.22 7129.57 3487.22 7129.86 3487.22C7130.23 3487.22 7130.71 3485.76 7131.68 3486.49C7132.66 3487.22 7133.14 3487.22 7133.75 3487.22C7134.36 3487.22 7135.21 3488.31 7136.06 3488.68C7136.91 3489.04 7137.16 3489.04 7138.25 3490.01C7139.35 3490.99 7140.68 3491.23 7141.17 3491.84C7141.66 3492.45 7142.14 3492.93 7142.14 3493.9C7143.24 3495.85 7143.97 3495.36 7145.06 3495.85C7146.16 3496.34 7146.64 3496.58 7147.25 3496.95C7147.86 3497.31 7147.98 3495.85 7148.83 3496.95C7149.68 3498.04 7150.29 3498.53 7151.14 3498.89C7151.99 3499.26 7152.24 3499.5 7153.21 3499.99C7154.18 3500.47 7154.06 3499.99 7155.4 3499.99C7156.74 3499.99 7157.59 3499.99 7158.44 3499.99C7159.32 3499.11 7160.75 3498.89 7161.36 3498.89C7161.36 3498.89 7161.53 3498.89 7162.21 3498.89C7164.16 3498.89 7166.1 3499.62 7166.83 3499.99L7167.93 3501.93L7170.48 3499.99H7171.7C7172.02 3499.78 7172.86 3499.5 7173.64 3499.99C7174.61 3500.59 7174.61 3501.2 7175.83 3500.59C7177.05 3499.99 7178.99 3501.08 7179.48 3499.99C7179.97 3498.89 7181.18 3498.89 7181.79 3498.28C7182.4 3497.68 7182.64 3498.04 7183.49 3496.95C7184.34 3495.85 7184.95 3493.9 7185.44 3493.9C7185.92 3493.9 7185.8 3491.84 7186.78 3491.84C7187.75 3491.84 7187.99 3492.69 7188.6 3491.84C7190.55 3490.01 7190.79 3488.68 7191.4 3488.68C7192.01 3488.68 7192.13 3488.68 7192.73 3487.95C7196.26 3485.76 7196.75 3485.76 7197.72 3485.76C7198.5 3485.76 7199.34 3486.24 7199.67 3486.49C7200.44 3487.66 7202.1 3490.01 7202.59 3490.01C7203.07 3490.01 7203.92 3490.01 7204.29 3490.01H7206.11C7206.36 3489.77 7206.99 3489.43 7207.57 3490.01C7208.3 3490.74 7209.15 3491.84 7209.64 3491.84C7210.03 3491.84 7211.5 3492.49 7212.19 3492.81" stroke="black"/>
<path d="M7194.15 3531.87L7191.3 3533.08L7188.98 3533.21L7184.3 3534.95H7179.62L7175.34 3533.21L7173.6 3528.31L7171.73 3527.73L7168.56 3529.33L7166.24 3527.59L7161.83 3527.46L7160.71 3531.43L7157.02 3531.83L7154.21 3527.28H7149.93L7148.95 3522.87L7141.81 3522.46L7132.23 3519.75L7130.35 3517.03L7121.48 3513.73L7120.5 3511.27L7115.33 3502.4L7112.03 3502.67L7108.33 3505.84L7102.31 3507.22L7099.72 3507.8L7098.74 3510.12L7092.99 3508.73L7089.03 3510.12L7086.17 3511.23L7084.79 3510.12L7086.17 3505.84L7083.45 3501.56V3498.61L7082.34 3497.63L7079.35 3499.5H7075.65L7074.8 3502.22H7068.78L7065.08 3505.66L7062.63 3506.24L7056.21 3504.5L7054.34 3508.47L7052.6 3514.62L7046.58 3513.77L7046.45 3517.07C7046.45 3517.07 7048.45 3521.48 7048.45 3521.84C7048.45 3522.24 7046.85 3524.03 7046.85 3524.03C7046.85 3524.03 7036.46 3525.18 7035.88 3525.18C7035.3 3525.18 7032.31 3532.18 7032.31 3532.18L7033.83 3536.87L7033.96 3544.76L7032.98 3548.32H7026.56L7023 3549.71L7024.87 3555.01H7028.84L7030.35 3562.01L7028.17 3564.73L7030.75 3572.13L7028.17 3576.68L7029.55 3577.93C7029.55 3577.93 7035.57 3575.47 7035.97 3575.47C7036.37 3575.47 7037.84 3577.79 7037.84 3577.79H7045.69V3583.59L7052.24 3582.21L7064.46 3579.71L7066.78 3590.9L7072.04 3588.94L7073.64 3590.95L7074 3591.35V3598.57L7074.27 3598.79C7074.62 3597.72 7075.61 3598.3 7076.01 3597.68C7076.72 3596.56 7077.12 3597.1 7077.12 3597.1C7077.12 3597.1 7077.83 3597.81 7082.92 3599.1C7088 3600.35 7084.75 3599.82 7085.86 3600.58C7086.97 3601.29 7088.04 3600 7088.04 3600C7088.04 3600 7088.04 3600 7088.27 3599.28C7088.49 3598.57 7089.38 3598.03 7089.38 3598.03L7091.39 3598.26C7091.39 3598.26 7091.39 3598.26 7093.75 3598.84C7096.11 3599.42 7094.46 3598.26 7094.46 3597.59C7094.46 3596.92 7094.69 3596.87 7095.18 3595.76C7095.76 3594.65 7096.07 3594.87 7096.78 3593.44C7097.5 3592.02 7097.5 3592.86 7097.67 3590.5C7097.9 3588.14 7098.03 3586.67 7098.39 3586.09C7098.74 3585.51 7102.58 3582.43 7104.41 3584.08C7106.23 3585.68 7106.23 3587.16 7106.99 3586.67C7107.71 3586.09 7108.46 3586.44 7109.71 3586.44C7110.96 3586.44 7111.9 3587.91 7111.9 3587.91C7111.9 3587.91 7114.97 3587.2 7115.86 3587.91C7116.76 3588.63 7120.41 3588.49 7120.41 3588.49C7120.41 3588.49 7122.24 3586.13 7123 3585.77C7123.71 3585.42 7126.07 3588.85 7126.65 3588.85C7127.23 3588.85 7127.54 3588.27 7127.54 3588.27L7129.55 3586.8C7129.55 3586.8 7133.03 3583.72 7133.52 3583.5C7134.1 3583.28 7135.7 3584.61 7137.71 3584.21C7139.72 3583.81 7140.43 3582.38 7140.79 3581.85C7141.14 3581.27 7141.14 3581.14 7141.68 3580.02C7142.26 3578.91 7146.45 3578.77 7146.45 3577.44C7146.45 3576.19 7147.03 3573.02 7147.92 3572.89C7148.81 3572.67 7153.23 3570.53 7155.94 3569.59C7158.66 3568.7 7159.02 3569.95 7165.93 3570.48C7172.84 3571.06 7167.76 3571.2 7171.73 3569.59C7175.7 3567.99 7173.2 3567.76 7174.8 3567.58C7176.41 3567.36 7183.41 3567.36 7184.79 3569.77C7185.99 3571.73 7192.06 3574.45 7194.02 3575.3" stroke="#878282" stroke-miterlimit="10" stroke-linecap="round" stroke-linejoin="round"/>
<path d="M7074.27 3598.79C7074.14 3599.51 7074.05 3601.24 7074.63 3603.65C7076.23 3610.56 7078.46 3614.22 7077.57 3616.94C7076.68 3619.66 7076.86 3616.94 7076.68 3620.59C7076.5 3624.25 7077.39 3626.03 7078.86 3627.15C7080.33 3628.26 7084.88 3630.22 7084.88 3633.39C7084.88 3636.55 7086.89 3636.87 7087.82 3636.11C7088.71 3635.4 7089.43 3633.92 7092.59 3632.14C7095.67 3630.31 7106.99 3629.2 7106.99 3631.25C7106.99 3633.25 7112.08 3640.34 7113.01 3640.34C7113.9 3640.34 7119.25 3641.06 7120.28 3641.06C7121.35 3641.06 7123.58 3640.17 7124.25 3640.34C7124.96 3640.57 7127.32 3644.53 7127.32 3644.53C7127.32 3644.53 7128.22 3643.96 7128.57 3643.42C7128.93 3642.84 7135.35 3637.62 7135.35 3637.62L7149.17 3636.02C7149.17 3636.02 7152.25 3635.13 7152.47 3634.19C7152.69 3633.3 7154.34 3630.71 7154.34 3630.71C7154.34 3630.71 7158.62 3630.13 7159.91 3631.43C7161.16 3632.68 7160.63 3637.09 7160.63 3637.09C7160.63 3637.09 7161.52 3636.2 7164.11 3637.31C7166.69 3638.43 7167.76 3640.97 7167.05 3642.22C7166.33 3643.46 7166.16 3647.88 7166.16 3647.88C7166.16 3647.88 7183.77 3665.22 7184.75 3665.36C7186.93 3664.11 7189.65 3660.05 7189.65 3660.05L7188.76 3654.74C7188.76 3654.74 7192.42 3653.14 7193.31 3653.5C7194.2 3653.85 7196.61 3658.04 7197.14 3658.8C7197.72 3659.52 7211.32 3661.52 7211.32 3661.52L7212.92 3665.94C7212.92 3665.94 7219.3 3668.65 7220.42 3669.59C7221.44 3670.26 7230.54 3668.21 7230.54 3668.21" stroke="#878282" stroke-miterlimit="10" stroke-linecap="round" stroke-linejoin="round"/>
<path d="M7172.58 3527.9L7172.71 3526.3L7172.58 3517.16L7178.15 3513.19L7183.41 3511.68V3505.3L7179.13 3499.55L7178.64 3496.21L7174.85 3494.96L7175.07 3491.17L7172.84 3488.45L7172.62 3486.35L7175.12 3484.12L7174.9 3479.09L7177.48 3475.88C7177.48 3475.88 7177.48 3474.27 7177.48 3474.05C7177.48 3473.82 7175.03 3471.46 7175.16 3471.24C7175.3 3471.02 7175.79 3462.86 7175.79 3462.86L7177.12 3460.36" stroke="#878282" stroke-miterlimit="10" stroke-linecap="round" stroke-linejoin="round"/>
<path d="M7063.88 3441.28L7062.99 3446.09C7062.99 3446.09 7063.97 3448.1 7063.97 3448.41C7063.97 3448.68 7063.75 3450.6 7063.75 3450.86C7063.75 3451.13 7070.66 3453.81 7070.66 3453.81V3456.62L7069.14 3459.91L7065.66 3460.27L7065.31 3461.79L7063.12 3464.6H7057.55L7052.15 3467.27L7052.51 3468.74L7051.31 3471.73L7054.3 3474.36H7056.12L7059.42 3477.57V3478.55V3480.02L7062.23 3481.4L7058.57 3486.08C7058.57 3486.08 7058.66 3488.8 7058.57 3489.16C7058.49 3489.52 7058.57 3493.62 7058.57 3493.62H7057.1L7053.45 3497.32L7054.07 3502.71L7056.21 3504.5" stroke="#878282" stroke-miterlimit="10" stroke-linecap="round" stroke-linejoin="round"/>
<path d="M7061.21 3438.07L7063.88 3441.28L7063.97 3441.05L7068.25 3440.43C7068.25 3440.43 7071.6 3437.13 7071.91 3437.09C7072.18 3437 7074.85 3436.2 7074.85 3436.2V3433.88L7075.21 3431.29L7081.58 3428.62L7082.07 3425.27L7085.73 3422.91L7090.9 3424.11L7092.01 3422.91V3420.86L7095.94 3416.71H7099.24L7099.73 3417.34L7102.72 3412.17L7102.09 3410.56L7098.88 3410.47L7097.99 3407.39L7098.84 3404.72L7098.26 3404.23C7098.26 3404.23 7097.9 3402.13 7098.03 3401.87C7098.17 3401.6 7099.86 3399.77 7099.86 3399.77L7100.35 3395.62L7106.1 3393.26L7105.75 3388.58L7108.82 3386.22L7102.54 3379.84L7103.92 3378.59L7108.96 3379.71L7110.56 3375.87L7116.49 3376.14L7119.48 3373.69L7120.37 3371.33L7129.38 3370.48L7131.11 3371.95L7137.89 3371.33L7139.27 3369.01L7140.25 3361.74L7136.78 3358.93L7137.04 3355.72L7138.25 3349.79L7140.57 3349.3L7143.24 3351.62L7146.32 3351.89L7150.46 3344.22L7150.24 3340.25L7154.16 3336.42L7151.98 3333.47L7150.37 3330.8L7148.06 3326.83V3320.5L7146.45 3319.25V3314.53L7144.27 3312.79C7144.27 3312.79 7142.88 3309.8 7142.88 3309.44C7142.88 3309.09 7139.9 3306.46 7139.9 3306.46L7139.05 3303.87L7138.16 3302.13L7135.57 3304.23L7132.99 3303.96L7132.01 3301.02L7130.27 3301.37L7127.9 3300.17L7125.9 3299.59V3297.54L7124.29 3296.07L7123.31 3297.67L7118.54 3298.39L7115.6 3299.9C7115.6 3299.9 7112.88 3306.28 7112.61 3306.41C7112.34 3306.55 7104.01 3306.15 7104.01 3306.15C7104.01 3306.15 7097.94 3303.07 7097.5 3303.07C7097.1 3303.07 7093.35 3302.98 7093.35 3302.98L7090.54 3300.62L7083.54 3299.1L7080.56 3301.78L7078.55 3303.38L7074.58 3302.18L7072.58 3300.8L7072 3306.81L7069.99 3309L7070.57 3310.38L7068.97 3312.83L7067.45 3315.82L7064.64 3317.83L7063.03 3321.75L7059.56 3323.62L7058.71 3326.61L7054.43 3327.59L7053.85 3333.61L7055.59 3335.12L7054.39 3336.24V3338.42L7050.42 3341.37L7048.81 3340.47H7047.61L7044.13 3343.68L7039.85 3343.46L7038.65 3342.21L7037.94 3344.22L7038.78 3348.37L7035.57 3351.93V3354.61L7025.45 3354.83L7020.99 3351.13L7013.9 3349.97L7010.69 3352.33C7010.69 3352.33 7009.98 3351.13 7009.45 3351.58C7008.87 3351.98 7005.3 3351.58 7005.3 3351.58C7005.3 3351.58 7004.9 3353.89 7004.45 3354.16C7004.05 3354.43 7003.07 3355.77 7003.07 3355.77L7003.65 3359.2L7002.4 3361.92L7001.82 3365.35L7005.12 3369.9L7002.13 3372.62V3374.14L7001.42 3378.68H6999.82L6998.7 3382.25L6998.43 3384.43L6995.09 3385.28V3387.6L6996.47 3390.32L7000.44 3389.92C7000.44 3389.92 7005.21 3389.07 7005.61 3388.94C7006.01 3388.8 7010.03 3392.9 7010.03 3392.9V3398.79L7013.99 3400.04L7020.15 3400.62L7025.9 3398.17L7027.15 3399.77L7027.99 3404.05H7030.18L7033.03 3406.64C7033.03 3406.64 7033.03 3410.2 7033.03 3410.78C7033.03 3411.36 7038.07 3415.82 7038.07 3415.82L7037.09 3417.02L7038.34 3420.23V3424.65L7040.21 3427.5C7040.21 3427.5 7041.46 3431.65 7041.46 3432.05C7041.46 3432.45 7046.76 3435.21 7046.76 3435.21H7058.8L7061.21 3438.07Z" stroke="#878282" stroke-miterlimit="10" stroke-linecap="round" stroke-linejoin="round"/>
<path d="M7287.42 3683.73L7290.81 3679.98" stroke="#EB7272" stroke-miterlimit="10" stroke-linecap="round" stroke-linejoin="round"/>
<path d="M7290.81 3679.98H7296.83L7297.72 3677.39H7303.96L7304.86 3673.56L7307.22 3672.85L7307.93 3664.24L7311.9 3660.05L7315.73 3657.69L7319.7 3654.61L7321.17 3649.71L7318.99 3648.82C7318.99 3648.82 7319.21 3646.63 7318.77 3646.1C7318.41 3645.52 7322.42 3646.1 7322.42 3646.1L7322.06 3644.09L7324.65 3642.48V3638.07L7326.12 3631.16L7323.76 3628.8L7323.05 3625.72L7326.35 3622.42L7327.06 3620.82L7323.22 3620.1L7322.33 3616.8L7317.03 3610.03L7314.08 3608.78L7316.09 3606.59L7322.11 3603.65C7322.11 3603.65 7323.58 3599.24 7323.58 3597.99C7323.58 3596.74 7325.59 3597.99 7325.59 3597.99L7337.98 3593.09L7337.62 3589.03L7343.06 3582.12L7349.84 3583.59L7352.56 3585.42H7358.22H7360.05L7371.15 3584.53L7375.12 3578.73H7384.75V3574.9L7381.63 3571.6V3567.54C7381.63 3567.54 7378.55 3565.44 7378.55 3564.86C7378.55 3564.28 7377.66 3561.21 7377.66 3561.21L7373.47 3559.2L7368.39 3556.48V3554.3L7360.36 3555.01L7357.78 3553V3547.92L7354.7 3546.32L7352.34 3547.03L7351.45 3551.93L7343.6 3550.37L7341.41 3547.92L7336.64 3548.28L7334.82 3545.34L7329.73 3544.45L7326.66 3542.08L7322.24 3543.55L7319.88 3541.73L7317.16 3542.44V3545.74L7307.84 3545.96L7302.54 3545.25L7300.93 3543.42L7302.4 3541.06L7303.87 3538.47V3534.82L7295.27 3533.21V3532.32L7287.42 3531.74L7276.46 3531.16C7276.46 3531.16 7269.9 3529.91 7269.32 3529.69C7268.74 3529.46 7267.49 3531.52 7267.49 3531.52L7263.84 3530.04L7258.53 3531.65L7255.81 3533.66L7244.49 3529.82C7244.49 3529.82 7244.13 3525.85 7243.6 3524.92C7243.02 3524.03 7237.94 3521.75 7237.94 3521.75C7237.94 3521.75 7232.14 3522.15 7231.56 3521.75C7230.98 3521.35 7228.26 3524.47 7228.26 3524.47L7226.25 3528.88L7223.31 3528.17L7220.95 3521.8C7220.95 3521.8 7216.98 3521.8 7216.4 3521.8C7215.82 3521.8 7214.04 3525.27 7214.04 3525.27L7210.74 3523.09L7208.73 3524.92H7204.9L7195.94 3529.11L7193.93 3532.18H7198.39L7200.4 3533.79L7200.04 3535.39V3544.71L7202.22 3545.6L7199.64 3549.44L7192.24 3548.19L7187.96 3551.27L7189.56 3554.74L7194.11 3557.82V3567.41L7196.56 3570.97L7193.98 3575.25C7194.38 3575.39 7194.6 3575.52 7194.6 3575.52C7194.6 3575.52 7194.6 3576.5 7195.31 3577.12C7196.03 3577.75 7200.08 3578.24 7199.59 3579.98C7199.01 3581.72 7197.41 3581.36 7197.41 3583.41C7197.41 3585.42 7198.52 3587.38 7200.13 3587.56C7201.73 3587.69 7202.71 3590.01 7202.71 3590.01C7202.71 3590.01 7205.57 3594.16 7206.15 3595.05C7206.73 3596.03 7209.58 3594.47 7209.58 3594.47L7210.43 3591.17L7212.3 3589.92L7215.02 3589.21C7215.02 3589.21 7217.03 3591.08 7217.87 3593.17C7218.72 3595.18 7215.87 3594.29 7215.87 3594.29L7216.85 3597.59L7217.25 3599.77H7212.08C7212.08 3599.77 7211.23 3605.93 7211.23 3606.77C7211.23 3607.62 7214.08 3608.96 7214.08 3608.96L7215.69 3613.37C7215.69 3613.37 7218.01 3612.26 7218.68 3611.86C7219.39 3611.45 7219.92 3614.71 7219.92 3614.71L7226.66 3617.29L7226.92 3620.28L7226.66 3626.03L7224.92 3627.01L7223.94 3632.59L7225.81 3635.31L7226.52 3637.31L7224.65 3639.5L7228.8 3642.08C7228.8 3642.08 7229.64 3650.82 7229.78 3651.22C7229.91 3651.62 7234.68 3654.21 7234.68 3654.21V3658.36L7231.25 3661.21L7230.53 3668.21C7230.53 3668.21 7230.45 3668.21 7230.4 3668.21L7232.72 3669.32V3672.18L7234.68 3674.18L7244.67 3674.54L7247.97 3676.14L7250.15 3683.63L7253.99 3684.21L7257.06 3687.69L7263.3 3686.09L7266.96 3683.14L7270.26 3684.39" stroke="#878282" stroke-miterlimit="10" stroke-linecap="round" stroke-linejoin="round"/>
<path d="M7099.73 3417.34L7100.75 3418.63L7103.07 3421.84L7108.82 3422.06L7111.27 3422.64L7111.76 3424.83L7113.77 3428.31L7117.07 3430.62L7120.77 3431.6V3434.28L7121.97 3434.99L7123.8 3434.37L7126.12 3432.27L7129.2 3433.65C7129.2 3433.65 7129.46 3437.49 7129.2 3437.49C7128.93 3437.49 7131.87 3440.3 7131.87 3440.3C7131.87 3440.3 7137.31 3440.88 7137.8 3440.88C7138.29 3440.88 7144.93 3441.23 7144.93 3441.23L7150.24 3443.33L7152.07 3442.84L7155.28 3440.65L7158.22 3440.57L7161.43 3442.3L7165.08 3442.57L7164.59 3449.84L7167.27 3453.76C7167.27 3453.76 7169.36 3452.92 7169.94 3452.92C7170.52 3452.92 7173.6 3452.92 7173.6 3452.92L7175.61 3454.92V3458L7177.35 3460.18L7177.26 3460.32C7178.24 3459.11 7180.2 3456.75 7180.2 3456.75C7180.29 3456.75 7181.58 3456.35 7181.58 3456.35L7189.25 3457.73L7190.36 3459.6H7193.04H7195.62V3462.55L7196.87 3462.28L7201.42 3459.29L7204.99 3459.65L7207.57 3456.35L7210.02 3453.54L7209.31 3450.82L7207.71 3449.62L7207.8 3446.27L7208.91 3444.89L7208.82 3444.18L7206.15 3441.86L7204.76 3438.02L7208.69 3436.15L7213.59 3435.8C7213.59 3435.8 7214.48 3433.21 7214.48 3432.99C7214.48 3432.76 7212.16 3430.04 7212.16 3430.04L7213.01 3423.67L7216.09 3421.93L7218.18 3423.31L7220.55 3421.93H7221.13L7220.64 3420.37L7220.15 3414.13L7220.64 3408.69L7216.22 3406.59L7216.71 3403.92L7217.29 3400.93C7217.29 3400.93 7215.82 3398.35 7215.82 3398.12C7215.82 3397.9 7218.5 3397.63 7218.5 3397.63L7217.25 3394.91L7214.88 3394.07L7211.23 3385.73L7213.95 3383.05C7213.95 3383.05 7213.86 3379.4 7213.59 3379.22C7213.32 3379 7211.41 3377.84 7211.41 3377.84L7210.78 3373.29L7207.22 3371.68L7203.74 3370.3L7203.03 3364.37L7199.19 3357.82L7198.57 3353.85L7202.53 3351.49L7203.03 3348.41C7203.03 3348.41 7200.35 3345.2 7200.08 3345.2C7199.82 3345.2 7198.57 3345.78 7198.57 3345.78L7193.89 3344.58L7190.68 3342.39L7186.22 3341.68L7184.12 3338.96L7181.18 3331.6L7178.82 3330.76L7176.81 3331.96L7174.94 3331.6L7173.33 3333.61L7172.84 3337.09L7171.73 3339.76L7168.65 3340.48L7165.84 3338.65L7162.14 3336.46L7159.11 3331.25L7153.98 3331.69L7151.4 3332.5" stroke="#878282" stroke-miterlimit="10" stroke-linecap="round" stroke-linejoin="round"/>
<path d="M7368.39 3554.3L7368.43 3546.36L7372.71 3544.62L7376.55 3535.04L7376.28 3528.31L7378.86 3527.19L7379.58 3524.47L7378.6 3522.96L7379.18 3516.67L7383.14 3513.37L7384.26 3509.09L7386.26 3505.12L7390.81 3503.25L7390.1 3496.7L7391.66 3495.09L7390.28 3490.68L7396.03 3487.82L7397.14 3484.52V3481.94L7393.98 3479.13L7393.13 3474.85C7393.13 3474.85 7386.84 3466.25 7386.71 3465.84C7386.58 3465.44 7376.46 3457.51 7376.46 3457.51L7374 3451.62H7369.59V3446.05L7365.04 3442.48V3439.32L7357.37 3434.64L7358.35 3428.62L7352.92 3424.65L7352.07 3412.34L7350.82 3410.34L7352.83 3407.35L7351.58 3404.9L7342.71 3404.05H7334.1L7331.92 3407.04L7329.47 3405.17H7327.59L7325.72 3407.17H7322.02L7321.04 3407.89L7319.3 3422.2L7313.99 3428.48L7313.15 3431.07L7307.26 3429.95L7305.08 3426.12L7298.35 3426.7L7296.61 3422.15H7293.31L7284.97 3428.71L7281.67 3427.99L7280.96 3429.38L7281.67 3432.36L7279.93 3436.91L7275.52 3435.66L7274.27 3437.98L7270.61 3439.36C7269.77 3440.25 7268.65 3441.23 7268.61 3441.55C7268.52 3442.04 7270.35 3455.55 7270.35 3455.55L7270.08 3458.13L7269.1 3460.49L7269.99 3462.59L7266.65 3466.74L7268.03 3469.95L7267.14 3477.61H7262.46L7261.97 3479.44L7263.44 3482.65L7263.17 3484.39L7262.68 3485.95L7267.09 3491.61H7268.97L7273.65 3496.65L7277.21 3497.86L7276.86 3500.8L7279.93 3503.74L7283.59 3504.23L7287.78 3506.59V3509.27L7293.09 3509.85L7294.56 3511.94L7290.9 3516.22L7289.92 3522.02L7291.17 3523.76L7289.16 3527.06L7286.98 3527.9L7286.84 3531.69" stroke="#878282" stroke-miterlimit="10" stroke-linecap="round" stroke-linejoin="round"/>
<path d="M7221.13 3421.93L7226.03 3421.97L7229.38 3427.55L7228.8 3430.76C7228.8 3430.76 7230.89 3432.23 7231.16 3432.59C7231.43 3432.94 7240.74 3432.94 7240.74 3432.94L7241.24 3431.34L7245.69 3430.62L7246.18 3424.87L7251.49 3422.51L7252.2 3421.31H7258L7261.83 3425.85V3430.76C7261.83 3430.76 7265.98 3434.1 7266.65 3434.1C7267.32 3434.1 7269.86 3433.92 7269.86 3433.92C7269.86 3433.92 7271.06 3438.02 7271.42 3439.09" stroke="#878282" stroke-miterlimit="10" stroke-linecap="round" stroke-linejoin="round"/>
<path d="M7351.58 3404.9L7352.78 3404.81L7357.2 3403.2L7361.61 3402.71L7361.34 3399.73L7362.59 3397.27L7365.53 3394.96L7364.28 3392.77L7364.02 3390.32C7364.02 3390.32 7360.81 3389.61 7360.54 3389.61C7360.27 3389.61 7358.53 3387.15 7358.53 3387.15L7358.44 3384.57L7359.83 3385.46H7362.28L7362.9 3382.78L7364.42 3385.46H7366.51H7368.61L7369.23 3382.16L7371.95 3381.27L7370.08 3377.52L7367.5 3376.14L7365.13 3375.43L7365.04 3372.22L7366.78 3370.21L7368.25 3366.65L7372.09 3366.02L7372 3363.44L7369.9 3359.16L7371.37 3356.79L7371.73 3353.49L7374.45 3352.24V3350.51C7374.45 3350.51 7372.09 3347.92 7371.86 3347.7C7371.64 3347.47 7371.86 3342.66 7371.86 3342.66L7367.58 3342.3L7364.11 3341.19L7363.39 3338.11L7363.97 3333.56L7364.69 3330.62L7366.69 3326.7L7365.22 3322.55L7366.69 3321.57L7365.85 3319.97L7360.67 3320.19L7355.86 3323L7351.89 3323.09L7348.32 3321.84L7346.23 3320.46L7346.59 3314.88L7344.71 3314.62L7339.63 3315.86C7339.63 3315.86 7338.52 3313.86 7338.11 3313.77C7337.71 3313.68 7338.47 3310.47 7338.47 3310.47C7338.47 3310.47 7337.22 3310.25 7336.91 3310.25C7336.6 3310.25 7333.61 3311.76 7333.08 3311.76C7332.5 3311.76 7330.27 3310.02 7330.27 3310.02L7327.95 3308.29L7321.93 3308.55L7318.01 3304.72L7316 3304.09L7311.85 3304.99L7307.44 3304.63L7305.35 3301.33L7301.78 3301.55L7301.2 3303.87L7296.29 3305.08H7290.86L7289.12 3303.07L7287.02 3299.1L7288.54 3296.65L7286.66 3295.94L7280.87 3299.9L7279.66 3298.92V3296.96L7276.99 3296.11L7274.09 3294.6L7272.49 3295.22L7270.61 3301.15L7267.63 3302.27L7264.82 3305.21L7256.57 3306.06L7253.76 3309.71L7254.61 3311.9H7256.7L7259.42 3312.79L7257.95 3314.39L7256.97 3318.58H7254.25L7253.54 3320.32L7248.99 3319.83L7244.09 3323.13L7243.73 3325.45L7241.01 3330L7238.02 3335.44V3339.27H7234.55L7232.81 3339.9V3344.67L7226.25 3345.87L7223.89 3347.61H7217.61L7214.89 3353.54L7214.62 3358.62L7218.81 3359.38L7220.41 3361.12L7219.57 3364.19L7215.91 3364.77L7211.32 3367.58V3371.51L7210.78 3373.29" stroke="#878282" stroke-miterlimit="10" stroke-linecap="round" stroke-linejoin="round"/>
<path d="M7287.42 3683.72L7281.14 3686.09L7278.06 3685.19L7274.09 3682.12L7271.51 3683.01L7270.26 3684.48C7270.35 3687.91 7266.96 3689.03 7266.96 3689.03L7266.11 3694.82C7266.11 3694.82 7272.13 3696.83 7272.27 3698.79C7272.4 3700.67 7272.27 3708.24 7272.27 3708.24C7272.27 3708.24 7267.99 3707.98 7267.36 3708.24C7266.74 3708.51 7263.66 3710.96 7263.66 3710.96L7263.39 3717.25L7255.37 3718.99L7252.16 3720.24L7255.95 3727.37C7255.95 3727.37 7261.52 3728.49 7263.79 3728.75C7266.07 3729.02 7264.64 3733.93 7264.64 3733.93L7255.06 3732.05C7255.06 3732.05 7254.79 3733.66 7254.48 3734.91C7254.21 3736.15 7252.78 3739.05 7252.16 3739.32C7251.58 3739.59 7250.2 3744.09 7250.33 3745.2C7250.46 3746.32 7254.3 3747.66 7254.3 3747.66H7256.48C7256.48 3747.66 7258.49 3744.8 7259.65 3752.83C7260.76 3760.85 7260.23 3762.95 7260.23 3762.95L7258.62 3766.25L7262.46 3767.1L7263.3 3766.96L7265.04 3769.28L7261.07 3771.29C7261.07 3771.29 7255.63 3787.69 7254.79 3791.13C7253.94 3794.56 7254.79 3797.55 7253.05 3796.43C7251.31 3795.32 7229.42 3792.15 7229.42 3792.15C7229.42 3792.15 7229.55 3790.9 7226.83 3790.59C7224.12 3790.32 7215.78 3790.86 7215.24 3791.17C7214.66 3791.44 7216.76 3792.15 7215.24 3794.74C7213.68 3797.32 7213.64 3801.02 7213.64 3801.02L7208.06 3805.84L7201.15 3806.46C7201.15 3806.46 7195.14 3808.65 7195.09 3808.91C7195 3809.18 7194.73 3818.23 7194.73 3818.23L7191.52 3823.27L7192.77 3827.1C7192.77 3827.1 7191.52 3833.17 7191.52 3833.75C7191.52 3834.33 7191.75 3834.86 7191.52 3836.11C7191.43 3836.56 7191.61 3846.5 7191.61 3846.5L7193.84 3852.74L7202.76 3853.63L7209 3853.19L7210.87 3854.7L7218.01 3855.06C7218.01 3855.06 7218.63 3858 7218.63 3858.98C7218.63 3859.96 7217.65 3860.36 7217.43 3860.72C7217.2 3861.08 7217.2 3868.48 7217.2 3868.48L7219.21 3869.06C7219.21 3869.06 7219.79 3866.61 7220.19 3866.47C7220.59 3866.34 7228.04 3869.15 7229.15 3868.52C7230.27 3867.9 7231.16 3867.05 7231.16 3867.05L7232.36 3861.3C7232.36 3861.3 7233.43 3861.57 7233.61 3860.59C7233.83 3859.61 7233.34 3858.71 7233.61 3858.27C7233.88 3857.87 7237.58 3856.17 7238.69 3856.17C7239.81 3856.17 7255.77 3857.38 7257.28 3857.38C7258.8 3857.38 7264.15 3856.75 7265.67 3858.22C7267.23 3859.7 7269.32 3862.06 7269.32 3862.06C7269.32 3862.06 7267.94 3864.15 7267.45 3865.62C7266.87 3867.1 7265.98 3872.13 7267.18 3872.4C7268.39 3872.67 7272.62 3872.89 7272.62 3872.89C7272.62 3872.89 7275.43 3879.76 7275.79 3880.16C7276.14 3880.65 7274.58 3884.57 7275.07 3885.06C7275.56 3885.55 7279.89 3888.36 7279.89 3888.36L7294.2 3887.78C7294.2 3887.78 7295.09 3891.08 7295.45 3891.08C7295.81 3891.08 7302.31 3892.82 7302.31 3892.82L7303.03 3889.74L7304.01 3889.39L7304.9 3890.99L7304.68 3897.01L7309.36 3899.06L7309.85 3903.61L7311.81 3907.31C7311.81 3907.31 7319.35 3907.53 7319.7 3907.53C7320.06 3907.53 7323 3904.59 7323 3904.59L7324.61 3904.37L7334.59 3905.21C7334.59 3905.21 7334.24 3900.67 7334.24 3900.44C7334.24 3900.22 7332.85 3898.97 7332.85 3898.97L7332.14 3893.53L7334.24 3892.29L7338.16 3894.74C7338.16 3894.74 7344.22 3895 7344.22 3893.89C7344.22 3892.78 7342.13 3890.32 7342.13 3890.32L7346.9 3886.67L7352.34 3886.45L7353.45 3883.15L7349.75 3878.6L7348.9 3872.67C7348.9 3872.67 7350.64 3871.55 7350.91 3871.55C7351.18 3871.55 7362.59 3874.5 7362.59 3874.5L7369.72 3880.29L7371.2 3881.81L7378.46 3882.3L7381.45 3878.73C7381.45 3878.73 7386.49 3879.13 7386.89 3879.31C7387.29 3879.45 7400.18 3893.13 7400.89 3893.49C7401.6 3893.85 7413.19 3894.2 7413.19 3894.2L7417.74 3884.48C7417.74 3884.48 7418.86 3881.05 7419.93 3881.18C7421.04 3881.32 7422.64 3885.73 7423.63 3885.73C7424.61 3885.73 7427.33 3884.75 7427.33 3884.22C7427.33 3883.64 7425.94 3881.36 7425.81 3880.38C7425.68 3879.4 7425.68 3873.11 7425.68 3873.11C7425.68 3873.11 7424.56 3871.24 7424.07 3870.93C7423.49 3870.66 7422.69 3867.23 7422.69 3867.23C7422.69 3867.23 7424.3 3865.62 7424.3 3864.64C7424.3 3863.66 7424.03 3860.81 7424.7 3860.5C7425.41 3860.23 7428.4 3859.92 7428.4 3859.92L7429.51 3856.62C7430.76 3855.91 7439.81 3851.31 7439.81 3850.73C7439.81 3850.15 7439.81 3839.28 7439.81 3839.28L7441.55 3837.27C7441.24 3837.54 7441.82 3817.61 7441.24 3816.23C7440.66 3814.84 7438.38 3815.11 7438.38 3815.11C7438.38 3815.11 7436.64 3811.81 7436.2 3811.81C7435.75 3811.81 7433.35 3812.93 7433.35 3812.93L7432.5 3819.79L7426.61 3820.06L7424.87 3826.08L7424.47 3828.67L7419.7 3828.09L7418.32 3820.37L7415.33 3816.23L7407 3814.98L7400 3817.43L7394.11 3816.58L7393.4 3810.7L7389.56 3810.83L7387.69 3813.15L7384.53 3812.57L7380.83 3804.72L7380.56 3802.27L7377.97 3798.57L7375.97 3795.72L7375.83 3792.42C7375.83 3792.42 7367.36 3783.68 7367.36 3783.1C7367.36 3782.52 7347.92 3782.7 7347.92 3782.7L7346.54 3779.13L7350.24 3774.09L7349.53 3768.08L7352.69 3766.47L7350.95 3761.43V3757.87L7356.13 3752.11L7367.32 3750.55L7374.99 3745.25L7373.43 3739.81L7376.59 3735.26L7375.61 3730.58L7373.16 3725.01L7371.33 3723.18L7367.85 3723.76L7365.67 3720.28H7361.83L7361.61 3716.31L7358.53 3713.02L7350.87 3713.6L7347.79 3711.01L7349.8 3709.54L7348.32 3705.57L7349.44 3701.74L7347.43 3697.19L7350.02 3688.58V3685.51L7353.67 3680.74L7353.32 3676.55L7345.47 3668.79L7341.99 3667.45L7341.41 3664.64H7336.87L7329.33 3660.36L7329.6 3655.46L7325.05 3652.74C7325.05 3652.74 7322.82 3647.16 7322.38 3646.18" stroke="#878282" stroke-miterlimit="10" stroke-linecap="round" stroke-linejoin="round"/>
<path d="M6996.47 3390.32L6993.89 3393.53L6992.99 3394.11L6991.66 3395L6990.32 3395.76L6988.98 3394.55H6987.96C6987.96 3394.55 6988.27 3395 6987.96 3395.76C6987.65 3396.52 6987.2 3398.3 6987.2 3398.3C6987.2 3398.3 6986.44 3399.32 6986.44 3399.77C6986.44 3400.22 6986.13 3400.35 6986.44 3401.24C6986.75 3402.13 6987.47 3403.6 6987.47 3403.6L6986.31 3404.18L6985.55 3405.21C6985.55 3405.21 6985.68 3406.1 6985.55 3406.68C6985.42 3407.26 6985.55 3409.04 6985.55 3409.04L6983.94 3409.85L6982.29 3410.6L6981.4 3411.5L6980.38 3412.97L6975.61 3417.43C6975.61 3417.43 6974.58 3418.45 6974.14 3419.21C6973.69 3419.97 6972.49 3421.44 6972.49 3421.44C6972.49 3421.44 6970.57 3423.22 6970.39 3426.21C6970.26 3429.2 6970.39 3429.78 6970.39 3429.78L6970.35 3430.67L6967.72 3431.56H6964.91V3437.22H6961.65L6955.86 3443.15L6953.32 3446.58L6943.95 3452.69L6940.7 3454.61L6928.22 3453.14L6925.67 3446.9L6920.01 3445.11L6917.65 3447.03H6910.38V3451.18L6906.5 3454.61V3462.63L6917.96 3475.38L6916.18 3482.83L6921.84 3514.8H6925.72V3520.15L6925.58 3521.35H6931.69L6935.13 3524.61L6946.27 3522.69L6950.73 3505.43L6961.88 3507.97L6963.79 3511.68L6981.63 3507.22L6984.3 3504.5H6993.31L6997.32 3506.01L7010.38 3503.78V3507.22H7014.84V3513.59L7020.64 3515.38V3528.44L7027.19 3530.67L7028.08 3536.33H7033.66" stroke="#878282" stroke-miterlimit="10"/>
<path d="M6965.02 3433.88V3431.3L6951.92 3422.41L6954.04 3412.47H6948.76V3409.31L6938.06 3407.05L6929.16 3408.86L6925.23 3404.93L6928.84 3397.39V3385.51L6926.58 3387.63L6923.42 3384.47L6916.51 3383.71L6905.86 3376.21V3368.08L6902.02 3364.24V3359.05H6898.18L6900.3 3345.64L6891.72 3343.83L6883 3333.76L6885.4 3324.41H6891.27L6893.08 3311L6887.66 3301.83L6884.63 3300.16L6887.02 3293.84L6889.15 3291.44L6890.95 3276.22L6889.46 3273.97L6891.72 3270.8L6894.3 3269.9L6894.75 3265.07H6898.04L6900.17 3266.56L6910.69 3266.69L6912.04 3267.73L6915.2 3267.42L6916.24 3266.97H6919.09L6922.25 3269.09L6923.97 3268.5L6926.13 3265.02L6928.98 3264.26H6931.69H6933.49L6936.34 3265.75L6936.79 3268.14L6939.05 3268.59V3270.71H6946.14L6955.94 3267.69L6956.53 3270.26H6966.33L6968.72 3272.38H6978.97L6980.46 3274.06L6986.65 3268.77L6990.58 3268.46L6994.78 3265.29H6997.04L7000.2 3259.11H7001.87L7003.54 3257.89V3251.11H7006.38H7007.87L7009.54 3251.88L7010.13 3246.91L7014.33 3243.17H7018.71L7020.2 3244.07L7025.49 3243.17H7026.84L7030.91 3246.01L7034.65 3245.42L7039.17 3250.98L7046.53 3253.37L7048.2 3249.89L7061.61 3248.86L7063.56 3250.35L7066.4 3251.25L7070.6 3258.61L7072.41 3261.32V3263.26V3267.33L7073.76 3268.68V3272.16L7075.43 3276.22V3277.58L7073.76 3278.62C7073.76 3278.62 7072.09 3280.74 7072.09 3281.46C7072.09 3282.18 7072.99 3287.33 7072.99 3287.33L7072.54 3289.14L7071.5 3292.75V3297.27L7072.72 3300.29L7073.99 3301.47" stroke="#878282" stroke-miterlimit="10"/>
<path d="M6913.54 3267.3L6912.86 3265.49V3255.51L6910.71 3253.43L6909.9 3250.58L6915.16 3245.91L6915.97 3243.19L6914.35 3241.63V3238.39L6915.97 3235.28L6914.35 3231.52V3225.69H6910.71L6904.36 3223.09L6903.15 3216.74L6894.78 3212.33L6896.94 3204.94V3201.44H6892.76L6888.58 3199.63L6886.55 3193.02L6885.47 3191.59L6886.55 3189.64L6890.46 3187.96V3186.66L6894.11 3182.38V3177.72H6896.94L6899.64 3180.05H6907.47L6912.86 3181.74L6914.35 3179.14H6916.78L6922.99 3173.83V3171.1L6926.36 3168.51L6931.35 3166.96L6932.84 3168.51H6936.07L6941.2 3162.55H6944.98L6946.06 3159.31V3157.75H6949.97L6951.05 3158.53H6952.27L6959.02 3151.66H6962.39L6966.3 3143.36L6976.29 3142.32L6978.58 3143.36L6981.96 3140.9L6984.11 3142.32V3144.79H6988.03V3140.9L6986.54 3137.91L6990.86 3132.08V3130.26L6990.05 3128.19L6990.86 3127.02L6995.99 3123.91L6998.82 3122.87L7000.17 3121.45C7000.17 3120.45 7000.17 3118.29 7000.17 3117.56C7000.17 3116.83 7000.17 3115.61 7000.17 3115.1L7001.52 3112.76L7006.38 3110.43L7004.76 3102.91L7001.52 3099.67H7000.17L7001.52 3095.65V3093.06L7007.86 3089.81L7012.32 3091.89L7018.8 3086.7L7020.95 3087.61L7022.71 3086.7H7027.03L7038.5 3090.72V3091.89L7045.51 3094.74L7047.54 3095.65L7048.35 3087.61L7049.02 3084.76H7057.79L7059.01 3086.7H7062.79L7066.43 3082.81L7070.48 3082.17L7071.29 3072.05L7074.8 3070.89L7079.39 3072.05L7082.08 3068.29H7086.81L7098.01 3070.24L7099.22 3068.29L7106.64 3064.01L7108.94 3063.24L7114.61 3064.66H7116.09L7118.11 3063.24H7119.87L7122.03 3062.59L7123.38 3060V3056.24H7125.67L7127.96 3050.92V3049.88L7134.31 3046.25V3042.49L7135.25 3039.64L7138.22 3038.6L7140.38 3039.64L7143.62 3037.7H7147.13L7150.23 3041.2V3045.6L7151.85 3047.55L7154.01 3050.92V3052.74L7155.36 3053.64L7157.92 3055.33L7159.95 3058.31L7163.05 3060L7164.94 3062.59C7165.21 3063.06 7166.07 3064.14 7167.37 3064.66C7168.66 3065.18 7168.54 3067.3 7168.31 3068.29L7165.88 3072.05H7163.05L7159.95 3073.48L7157.92 3076.46V3079.7L7159.27 3082.81L7157.92 3084.76V3085.8L7165.88 3090.85L7170.88 3096.43H7165.88L7163.05 3100.45V3103.04H7157.92V3104.72V3105.89L7159.27 3108.74L7157.92 3110.69C7157.65 3110.95 7157.11 3111.62 7157.11 3112.24C7157.11 3112.87 7157.65 3114.23 7157.92 3114.84L7161.57 3116L7165.88 3121.71L7169.8 3126.25L7170.88 3129.23L7177.22 3132.86V3137.4L7176.41 3142.32L7177.22 3144.92L7184.51 3150.62L7187.48 3151.27L7188.69 3152.18L7191.25 3149.84H7195.84V3155.42L7191.25 3159.44L7188.69 3161.38L7189.36 3162.68L7192.47 3166.31L7193.28 3171.62V3174.6L7192.47 3176.81H7190.04L7191.25 3180.18V3182.12L7190.04 3183.68H7187.48V3187.83L7196.46 3189.73" stroke="#878282"/>
<path d="M7066.72 3251.64V3247.91L7072.66 3241.96V3238.68L7072.03 3236.66L7073.72 3234.11L7074.68 3232.2L7073.72 3231.36L7072.66 3230.19L7080.41 3228.17V3218.2L7077.12 3217.46V3215.23L7083.17 3213.64L7084.54 3212.47L7088.26 3213.64L7089.53 3216.08L7098.44 3218.84L7103.96 3218.2V3219.47L7108.1 3216.93L7113.15 3215.23L7116 3212.47H7118.46L7121.44 3210.59L7126.5 3209.16H7128.31L7135.06 3203.72H7138.17L7144.65 3206.83H7146.72L7147.89 3203.72V3197.63L7148.93 3195.81L7146.72 3189.85H7152.43L7153.72 3191.27L7158.65 3187.38H7163.32L7165.52 3182.85V3178.57L7172.39 3175.2L7180.04 3180.77H7182.24L7184.06 3188.16L7186.91 3189.85H7189.12H7193.91H7196.38V3197.11H7197.66V3205.6L7195.92 3207.34L7201.43 3219.36V3226.16L7200.76 3228.3V3231.26L7205.35 3232.52V3238.44L7208.38 3244.65L7207.94 3247.38L7212.3 3248.94L7216.29 3249.45M7216.29 3249.82L7218.09 3251.85H7225.88L7226.37 3253.66L7228.19 3255.87L7228.82 3258.01L7233.49 3258.77L7238.15 3258.01V3261.85L7241.02 3263.69H7244.13L7246.31 3266.1L7248.15 3261.85H7251.71L7257.92 3258.77H7260.56H7261.94L7262.63 3261.16V3265.07L7266.62 3269.45C7267.32 3271.02 7268.82 3274.24 7269.2 3274.61C7269.57 3274.99 7269.35 3276.8 7269.2 3277.66V3281.77H7271.78L7274.83 3284.7L7274.08 3294.6" stroke="#878282"/>
</g>
<defs>
<clipPath id="clip0">
<rect width="16134" height="9665" fill="white"/>
</clipPath>
</defs>
</svg>
